<svg width="32" height="32" viewBox="0 0 32 32" fill="none" xmlns="http://www.w3.org/2000/svg">
<rect x="0.5" y="0.5" width="31" height="31" rx="15.5" stroke="#E0E0E0"/>
<path d="M9.15558 22.5499H12.8778L15.2296 25.2221C15.3317 25.3377 15.4742 25.404 15.6237 25.404C15.7733 25.404 15.9158 25.3388 16.0179 25.2221L18.3696 22.5499H22.0919C23.2814 22.5499 24.2475 21.5258 24.2475 20.2673V16.1579C24.2475 15.8433 24.007 15.5876 23.7089 15.5876C23.4107 15.5876 23.1702 15.8433 23.1702 16.1579V20.2673C23.1702 20.8966 22.6871 21.4092 22.0919 21.4092H18.1352C17.9856 21.4092 17.8431 21.4745 17.7411 21.5911L15.6238 23.9968L13.5065 21.5911C13.4044 21.4755 13.2619 21.4092 13.1123 21.4092H9.15568C8.56142 21.4092 8.07732 20.8976 8.07732 20.2673V11.1357C8.07732 10.5065 8.56041 9.99388 9.15568 9.99388H19.5046C19.8027 9.99388 20.0433 9.73812 20.0433 9.4235C20.0433 9.10889 19.8027 8.85312 19.5046 8.85312L9.15568 8.85205C7.96615 8.85205 7 9.87619 7 11.1347V20.2663C7 21.5258 7.96719 22.5489 9.15568 22.5489L9.15558 22.5499Z" fill="url(#paint0_linear_5332_24656)"/>
<path d="M28.1649 9.72948C26.0112 9.09915 25.6312 8.69786 25.0369 6.41842C24.9732 6.17121 24.76 6 24.5174 6C24.2749 6 24.0616 6.17122 23.998 6.41842C23.4037 8.69783 23.0237 9.10022 20.87 9.72948C20.6365 9.79797 20.4749 10.0227 20.4749 10.2795C20.4749 10.5364 20.6366 10.7611 20.87 10.8296C23.0237 11.4599 23.4037 11.8612 23.998 14.1406C24.0616 14.3878 24.2749 14.5591 24.5174 14.5591C24.76 14.5591 24.9732 14.3878 25.0369 14.1406C25.6312 11.8612 26.0111 11.4588 28.1649 10.8296C28.3983 10.7611 28.56 10.5364 28.56 10.2795C28.56 10.0227 28.3983 9.79797 28.1649 9.72948ZM24.5174 12.2293C24.1071 11.2673 23.5846 10.7151 22.676 10.2795C23.5846 9.84506 24.107 9.29177 24.5174 8.32971C24.9277 9.29177 25.4502 9.84396 26.3588 10.2795C25.4502 10.714 24.9277 11.2673 24.5174 12.2293Z" fill="url(#paint1_linear_5332_24656)"/>
<path d="M16.1433 12.6958C16.0786 12.4486 15.8663 12.2773 15.6238 12.2773C15.3812 12.2773 15.169 12.4486 15.1043 12.6958C14.6586 14.4037 14.3979 14.6798 12.7849 15.1507C12.5515 15.2192 12.3898 15.4439 12.3898 15.7007C12.3898 15.9576 12.5515 16.1823 12.7849 16.2508C14.3979 16.7227 14.6586 16.9978 15.1043 18.7057C15.169 18.9529 15.3812 19.1241 15.6238 19.1241C15.8663 19.1241 16.0786 18.9529 16.1433 18.7057C16.589 16.9977 16.8497 16.7216 18.4627 16.2508C18.6961 16.1823 18.8578 15.9576 18.8578 15.7007C18.8578 15.4439 18.6961 15.2192 18.4627 15.1507C16.8497 14.6787 16.5889 14.4037 16.1433 12.6958ZM15.6238 16.9068C15.3479 16.3599 15.0023 15.9929 14.4858 15.7007C15.0023 15.4086 15.3489 15.0426 15.6238 14.4947C15.8997 15.0415 16.2453 15.4086 16.7618 15.7007C16.2453 15.9929 15.8987 16.3589 15.6238 16.9068Z" fill="url(#paint2_linear_5332_24656)"/>
<defs>
<linearGradient id="paint0_linear_5332_24656" x1="7" y1="17.128" x2="24.2475" y2="17.128" gradientUnits="userSpaceOnUse">
<stop stop-color="#00EFD1"/>
<stop offset="1" stop-color="#008978"/>
</linearGradient>
<linearGradient id="paint1_linear_5332_24656" x1="20.4749" y1="10.2795" x2="28.56" y2="10.2795" gradientUnits="userSpaceOnUse">
<stop stop-color="#00EFD1"/>
<stop offset="1" stop-color="#008978"/>
</linearGradient>
<linearGradient id="paint2_linear_5332_24656" x1="12.3898" y1="15.7007" x2="18.8578" y2="15.7007" gradientUnits="userSpaceOnUse">
<stop stop-color="#00EFD1"/>
<stop offset="1" stop-color="#008978"/>
</linearGradient>
</defs>
</svg>
