<svg width="41" height="38" viewBox="0 0 41 38" fill="none" xmlns="http://www.w3.org/2000/svg">
<g filter="url(#filter0_d_5444_27292)">
<path d="M7.25536 26.4937H12.8767L16.4283 30.5293C16.5825 30.7038 16.7977 30.804 17.0236 30.804C17.2494 30.804 17.4647 30.7054 17.6188 30.5293L21.1704 26.4937H26.7918C28.5882 26.4937 30.0473 24.9471 30.0473 23.0465V16.8405C30.0473 16.3654 29.684 15.9791 29.2338 15.9791C28.7836 15.9791 28.4203 16.3654 28.4203 16.8405V23.0465C28.4203 23.9968 27.6908 24.771 26.7918 24.771H20.8164C20.5905 24.771 20.3753 24.8695 20.2212 25.0457L17.0236 28.6788L13.8261 25.0457C13.672 24.8712 13.4568 24.771 13.2309 24.771H7.25552C6.35806 24.771 5.62698 23.9984 5.62698 23.0465V9.25597C5.62698 8.30567 6.35654 7.53153 7.25552 7.53153H22.8845C23.3348 7.53153 23.698 7.14527 23.698 6.67014C23.698 6.19501 23.3348 5.80875 22.8845 5.80875L7.25552 5.80713C5.45908 5.80713 4 7.35379 4 9.25435V23.0449C4 24.9471 5.46065 26.4921 7.25552 26.4921L7.25536 26.4937Z" fill="white"/>
<path d="M35.9632 7.13227C32.7107 6.18036 32.1368 5.57432 31.2394 2.13189C31.1432 1.75857 30.8212 1.5 30.4549 1.5C30.0885 1.5 29.7665 1.75858 29.6704 2.13189C28.7729 5.57428 28.199 6.18197 24.9465 7.13227C24.5939 7.23571 24.3497 7.57509 24.3497 7.96297C24.3497 8.35084 24.5939 8.69022 24.9465 8.79366C28.199 9.74557 28.7729 10.3516 29.6704 13.794C29.7665 14.1674 30.0885 14.4259 30.4549 14.4259C30.8212 14.4259 31.1432 14.1673 31.2394 13.794C32.1368 10.3517 32.7107 9.74396 35.9632 8.79366C36.3158 8.69022 36.56 8.35084 36.56 7.96297C36.56 7.57509 36.3158 7.23571 35.9632 7.13227ZM30.4548 10.9076C29.8351 9.45468 29.046 8.62076 27.6739 7.96297C29.046 7.30683 29.8351 6.47125 30.4548 5.01834C31.0744 6.47125 31.8635 7.30517 33.2356 7.96297C31.8635 8.6191 31.0745 9.45468 30.4548 10.9076Z" fill="white"/>
<path d="M17.8082 11.6124C17.7105 11.239 17.39 10.9805 17.0237 10.9805C16.6574 10.9805 16.3369 11.2391 16.2392 11.6124C15.5661 14.1917 15.1723 14.6087 12.7364 15.3198C12.3838 15.4232 12.1396 15.7626 12.1396 16.1505C12.1396 16.5384 12.3839 16.8777 12.7364 16.9812C15.1723 17.6939 15.5661 18.1093 16.2392 20.6886C16.3369 21.0619 16.6574 21.3205 17.0237 21.3205C17.39 21.3205 17.7105 21.0619 17.8082 20.6886C18.4813 18.1092 18.875 17.6923 21.3109 16.9812C21.6635 16.8777 21.9077 16.5384 21.9077 16.1505C21.9077 15.7626 21.6635 15.4232 21.3109 15.3198C18.875 14.607 18.4812 14.1917 17.8082 11.6124ZM17.0237 17.9719C16.607 17.146 16.085 16.5917 15.3051 16.1505C16.085 15.7093 16.6085 15.1566 17.0237 14.3291C17.4403 15.155 17.9623 15.7093 18.7422 16.1505C17.9623 16.5917 17.4388 17.1444 17.0237 17.9719Z" fill="white"/>
</g>
<defs>
<filter id="filter0_d_5444_27292" x="0" y="0.5" width="40.5601" height="37.3042" filterUnits="userSpaceOnUse" color-interpolation-filters="sRGB">
<feFlood flood-opacity="0" result="BackgroundImageFix"/>
<feColorMatrix in="SourceAlpha" type="matrix" values="0 0 0 0 0 0 0 0 0 0 0 0 0 0 0 0 0 0 127 0" result="hardAlpha"/>
<feOffset dy="3"/>
<feGaussianBlur stdDeviation="2"/>
<feComposite in2="hardAlpha" operator="out"/>
<feColorMatrix type="matrix" values="0 0 0 0 0 0 0 0 0 0 0 0 0 0 0 0 0 0 0.25 0"/>
<feBlend mode="normal" in2="BackgroundImageFix" result="effect1_dropShadow_5444_27292"/>
<feBlend mode="normal" in="SourceGraphic" in2="effect1_dropShadow_5444_27292" result="shape"/>
</filter>
</defs>
</svg>
