<svg width="24" height="24" viewBox="0 0 24 24" fill="none" xmlns="http://www.w3.org/2000/svg">
<path d="M11 4H6.8C5.11984 4 4.27976 4 3.63803 4.32698C3.07354 4.6146 2.6146 5.07354 2.32698 5.63803C2 6.27976 2 7.11984 2 8.8V17.2C2 18.8802 2 19.7202 2.32698 20.362C2.6146 20.9265 3.07354 21.3854 3.63803 21.673C4.27976 22 5.11984 22 6.8 22H15.2C16.8802 22 17.7202 22 18.362 21.673C18.9265 21.3854 19.3854 20.9265 19.673 20.362C20 19.7202 20 18.8802 20 17.2V13" stroke="black" stroke-width="2" stroke-linecap="round" stroke-linejoin="round"/>
<path d="M8 14.3255C8 13.8363 8 13.5917 8.05526 13.3615C8.10425 13.1575 8.18506 12.9624 8.29472 12.7834C8.4184 12.5816 8.59136 12.4086 8.93726 12.0627L18.5 2.5C19.3285 1.67157 20.6716 1.67157 21.5 2.5V2.5C22.3285 3.32843 22.3285 4.67157 21.5 5.5L11.9373 15.0627C11.5914 15.4086 11.4184 15.5816 11.2166 15.7053C11.0377 15.8149 10.8426 15.8957 10.6385 15.9447C10.4083 16 10.1637 16 9.67454 16H8V14.3255Z" stroke="black" stroke-width="2" stroke-linecap="round" stroke-linejoin="round"/>
</svg>
