<svg width="20" height="20" viewBox="0 0 20 20" fill="none" xmlns="http://www.w3.org/2000/svg">
<path fill-rule="evenodd" clip-rule="evenodd" d="M14.1356 14.9972C12.8151 16.1214 11.1034 16.7998 9.23329 16.7998C5.05434 16.7998 1.66663 13.4121 1.66663 9.23317C1.66663 5.05422 5.05434 1.6665 9.23329 1.6665C13.4122 1.6665 16.8 5.05422 16.8 9.23317C16.8 11.092 16.1297 12.7943 15.0177 14.1115L18.6497 17.7435L17.7658 18.6274L14.1356 14.9972ZM15.55 9.23317C15.55 12.7218 12.7219 15.5498 9.23329 15.5498C5.74469 15.5498 2.91663 12.7218 2.91663 9.23317C2.91663 5.74457 5.74469 2.9165 9.23329 2.9165C12.7219 2.9165 15.55 5.74457 15.55 9.23317Z" fill="#555555"/>
</svg>
