<svg width="22" height="22" viewBox="0 0 22 22" fill="none" xmlns="http://www.w3.org/2000/svg">
<path d="M11 17.4168C14.0342 17.4168 16.5 14.951 16.5 11.9168V7.3335C16.5 4.29933 14.0342 1.8335 11 1.8335C7.96583 1.8335 5.5 4.29933 5.5 7.3335V11.9168C5.5 14.951 7.96583 17.4168 11 17.4168Z" stroke="#2B2C33" stroke-width="1.5" stroke-linecap="round" stroke-linejoin="round"/>
<path opacity="0.4" d="M2.75 10.0835V11.9168C2.75 16.4727 6.44417 20.1668 11 20.1668C15.5558 20.1668 19.25 16.4727 19.25 11.9168V10.0835" stroke="#2B2C33" stroke-width="1.5" stroke-linecap="round" stroke-linejoin="round"/>
<path opacity="0.4" d="M8.35083 6.85654C9.9825 6.26071 11.7608 6.26071 13.3925 6.85654" stroke="#2B2C33" stroke-width="1.5" stroke-linecap="round" stroke-linejoin="round"/>
<path opacity="0.4" d="M9.19421 9.60676C10.2942 9.30426 11.4584 9.30426 12.5584 9.60676" stroke="#2B2C33" stroke-width="1.5" stroke-linecap="round" stroke-linejoin="round"/>
</svg>
