<svg width="10" height="10" viewBox="0 0 10 10" fill="none" xmlns="http://www.w3.org/2000/svg">
<path fill-rule="evenodd" clip-rule="evenodd" d="M2.08055 0.00146527H7.91909C8.18266 0.00145633 8.41005 0.00144858 8.59733 0.0167505C8.795 0.032901 8.99161 0.0685589 9.1808 0.164956C9.46305 0.308766 9.69252 0.538237 9.83633 0.82048C9.93272 1.00967 9.96838 1.20628 9.98453 1.40395C9.99984 1.59124 9.99983 1.81861 9.99982 2.08218V7.92075C9.99983 8.18432 9.99984 8.4117 9.98453 8.59898C9.96838 8.79665 9.93272 8.99326 9.83633 9.18245C9.69252 9.46469 9.46305 9.69417 9.1808 9.83798C8.99161 9.93437 8.795 9.97003 8.59733 9.98618C8.41005 10.0015 8.18267 10.0015 7.9191 10.0015H2.08053C1.81696 10.0015 1.58959 10.0015 1.4023 9.98618C1.20463 9.97003 1.00802 9.93437 0.818832 9.83798C0.536589 9.69417 0.307118 9.46469 0.163308 9.18245C0.066911 8.99326 0.031253 8.79665 0.0151025 8.59898C-0.000199364 8.41169 -0.000191616 8.18431 -0.000182675 7.92074V2.08219C-0.000191616 1.81862 -0.000199364 1.59124 0.0151025 1.40395C0.031253 1.20628 0.066911 1.00967 0.163308 0.82048C0.307118 0.538237 0.536589 0.308766 0.818832 0.164956C1.00802 0.0685589 1.20463 0.032901 1.4023 0.0167505C1.58959 0.00144858 1.81697 0.00145633 2.08055 0.00146527Z" fill="white"/>
</svg>
