<svg width="22" height="22" viewBox="0 0 22 22" fill="none" xmlns="http://www.w3.org/2000/svg">
<g clip-path="url(#clip0_5552_25960)">
<path d="M8 3L10.5 8.5L16 11L10.5 13.5L8 19L5.5 13.5L0 11L5.5 8.5L8 3ZM8 7.83L7 10L4.83 11L7 12L8 14.17L9 12L11.17 11L9 10L8 7.83ZM18 8L16.74 5.26L14 4L16.74 2.75L18 0L19.25 2.75L22 4L19.25 5.26L18 8ZM18 22L16.74 19.26L14 18L16.74 16.75L18 14L19.25 16.75L22 18L19.25 19.26L18 22Z" fill="url(#paint0_linear_5552_25960)"/>
</g>
<defs>
<linearGradient id="paint0_linear_5552_25960" x1="0" y1="11" x2="22" y2="11" gradientUnits="userSpaceOnUse">
<stop stop-color="#00EFD1"/>
<stop offset="1" stop-color="#008978"/>
</linearGradient>
<clipPath id="clip0_5552_25960">
<rect width="22" height="22" fill="white"/>
</clipPath>
</defs>
</svg>
