<svg width="25" height="22" viewBox="0 0 25 22" fill="none" xmlns="http://www.w3.org/2000/svg">
<path d="M13.0115 2.30827L12.9807 2.37244L10.0002 8.5416H7.07099C6.3721 8.5416 5.70405 8.66994 5.09766 8.8991L6.89627 5.06744L6.93738 4.97577L7.00932 4.8291C7.02988 4.7741 7.05043 4.7191 7.08127 4.67327C8.42766 1.89577 9.94877 1.26327 13.0115 2.30827Z" fill="white" stroke="#292D32" stroke-width="1.5" stroke-linecap="round" stroke-linejoin="round"/>
<path d="M18.5516 8.72496C18.0891 8.59662 17.5958 8.54162 17.1024 8.54162H10.0005L12.981 2.37246L13.0119 2.30829C13.166 2.35412 13.3099 2.41829 13.4641 2.47329L15.7355 3.32579C16.9997 3.79329 17.8835 4.27912 18.418 4.86579C18.5208 4.97579 18.603 5.07662 18.6749 5.19579C18.7674 5.32412 18.8394 5.45246 18.8805 5.58996C18.9216 5.67246 18.9524 5.75496 18.973 5.82829C19.2505 6.59829 19.086 7.54246 18.5516 8.72496Z" fill="white" stroke="#292D32" stroke-width="1.5" stroke-linecap="round" stroke-linejoin="round"/>
<path d="M22.1193 13.0151V14.8026C22.1193 14.986 22.109 15.1693 22.0988 15.3526C21.9035 18.5518 19.8993 20.1651 16.0965 20.1651H8.07988C7.83322 20.1651 7.58655 20.1468 7.35016 20.1193C4.08183 19.9268 2.3346 18.3685 2.11877 15.4535C2.08794 15.2426 2.06738 15.0226 2.06738 14.8026V13.0151C2.06738 11.1726 3.32127 9.58681 5.10961 8.89931C5.72627 8.67014 6.38405 8.54181 7.08294 8.54181H17.114C17.6177 8.54181 18.111 8.60598 18.5632 8.72514C20.6085 9.28431 22.1193 10.9893 22.1193 13.0151Z" fill="white" stroke="#292D32" stroke-width="1.5" stroke-linecap="round" stroke-linejoin="round"/>
<path d="M6.89601 5.06744L5.0974 8.89911C3.30906 9.58661 2.05518 11.1724 2.05518 13.0149V10.3291C2.05518 7.72578 4.13129 5.55328 6.89601 5.06744Z" fill="white" stroke="#292D32" stroke-width="1.5" stroke-linecap="round" stroke-linejoin="round"/>
<path d="M22.1162 10.3287V13.0145C22.1162 10.9979 20.6156 9.28371 18.5601 8.73371C19.0945 7.54204 19.2487 6.60704 18.9917 5.82787C18.9712 5.74537 18.9403 5.66287 18.8992 5.58954C20.8109 6.46954 22.1162 8.27537 22.1162 10.3287Z" fill="white" stroke="#292D32" stroke-width="1.5" stroke-linecap="round" stroke-linejoin="round"/>
</svg>
