<svg width="17" height="13" viewBox="0 0 17 13" fill="none" xmlns="http://www.w3.org/2000/svg">
<path d="M15.2349 5.66017H14.7282V1.15775C14.7282 0.519363 14.2089 0 13.5705 0H2.8222C2.18381 0 1.66445 0.519364 1.66445 1.15775V5.66017H1.15775C0.519364 5.66017 0 6.17954 0 6.81792V11.9797C0 12.1785 0.161179 12.3397 0.36 12.3397C0.558821 12.3397 0.72 12.1785 0.72 11.9797V11.1031H15.6727V11.9797C15.6727 12.1785 15.8339 12.3397 16.0327 12.3397C16.2315 12.3397 16.3927 12.1785 16.3927 11.9797V6.81792C16.3927 6.17954 15.8733 5.66017 15.2349 5.66017ZM2.38445 1.15775C2.38445 0.916374 2.58082 0.72 2.8222 0.72H13.5705C13.8119 0.72 14.0082 0.916374 14.0082 1.15775V5.66017H12.5741V4.43593C12.5741 3.79754 12.0547 3.27818 11.4163 3.27818H10.3617C9.72332 3.27818 9.20395 3.79754 9.20395 4.43593V5.66017H7.18874V4.43593C7.18874 3.79754 6.66937 3.27818 6.03098 3.27818H4.97634C4.33795 3.27818 3.81859 3.79754 3.81859 4.43593V5.66017H2.38445V1.15775ZM9.92395 5.66017V4.43593C9.92395 4.19455 10.1203 3.99818 10.3617 3.99818H11.4163C11.6577 3.99818 11.8541 4.19455 11.8541 4.43593V5.66017H9.92395ZM4.53859 5.66017V4.43593C4.53859 4.19455 4.73496 3.99818 4.97634 3.99818H6.03098C6.27237 3.99818 6.46874 4.19455 6.46874 4.43593V5.66017H4.53859ZM1.15775 6.38017H15.2349C15.4763 6.38017 15.6727 6.57655 15.6727 6.81792V8.34888H0.72V6.81792C0.72 6.57655 0.916382 6.38017 1.15775 6.38017ZM0.72 10.3831V9.06888H15.6727V10.3831H0.72Z" fill="#555555"/>
</svg>
