<svg width="13" height="13" viewBox="0 0 13 13" fill="none" xmlns="http://www.w3.org/2000/svg">
<path d="M0 11.7H13V13H0V11.7ZM1.3 6.5H2.6V11.05H1.3V6.5ZM4.55 6.5H5.85V11.05H4.55V6.5ZM7.15 6.5H8.45V11.05H7.15V6.5ZM10.4 6.5H11.7V11.05H10.4V6.5ZM0 3.25L6.5 0L13 3.25V5.85H0V3.25ZM1.3 4.05339V4.55H11.7V4.05339L6.5 1.4534L1.3 4.05339ZM6.5 3.9C6.32775 3.9 6.162 3.83175 6.04045 3.70955C5.91825 3.588 5.85 3.42225 5.85 3.25C5.85 3.07775 5.91825 2.912 6.04045 2.79045C6.162 2.66825 6.32775 2.6 6.5 2.6C6.67225 2.6 6.838 2.66825 6.95955 2.79045C7.08175 2.912 7.15 3.07775 7.15 3.25C7.15 3.42225 7.08175 3.588 6.95955 3.70955C6.838 3.83175 6.67225 3.9 6.5 3.9Z" fill="#555555"/>
</svg>
