<svg width="27" height="32" viewBox="0 0 27 32" fill="none" xmlns="http://www.w3.org/2000/svg">
<path d="M18.8819 28.8L18.8899 28.4966H0.338759C0.152177 28.4966 0 28.3456 0 28.1604V12.3543C0 12.3135 0.00793949 12.2741 0.0211724 12.2374L2.59096 3.22913V2.18108C2.59096 1.72009 2.78152 1.29982 3.08853 0.995145C3.39686 0.689135 3.82164 0.5 4.28476 0.5H19.1C19.5658 0.5 19.988 0.689122 20.2949 0.993834C20.6033 1.29984 20.7938 1.72144 20.7938 2.18108V3.22913L22.0893 7.76805H23.5714C24.0359 7.76805 24.4593 7.95717 24.7663 8.26188C25.0746 8.56789 25.2652 8.98817 25.2652 9.44913V14.4739C25.3988 14.4292 25.5391 14.4043 25.6847 14.4043C26.0459 14.4043 26.3741 14.5514 26.6123 14.7878C26.8518 15.0255 27 15.3525 27 15.711L26.8558 23.0291C26.8518 23.2563 26.8147 23.4638 26.7539 23.6595C26.693 23.8513 26.6057 24.0364 26.4972 24.2243L24.0927 28.3782L24.0689 28.8024H24.1933C24.3799 28.8024 24.5321 28.9534 24.5321 29.1386V31.1638C24.5321 31.349 24.3799 31.5 24.1933 31.5H18.5682C18.3816 31.5 18.2295 31.349 18.2295 31.1638V29.1386C18.2295 28.9534 18.3816 28.8024 18.5682 28.8024H18.8832L18.8819 28.8ZM18.7615 27.8242C18.5022 27.245 18.4757 26.6343 18.5842 26.0249C18.7099 25.3223 19.0169 24.6289 19.3451 24.0011L19.4046 23.9H14.8937C14.4292 23.9 14.0058 23.7108 13.6988 23.4061C13.3905 23.1001 13.1999 22.6798 13.1999 22.2189V19.5029H3.1774C2.99082 19.5029 2.83864 19.3519 2.83864 19.1667V12.6905H0.677732V27.8256H18.7617L18.7615 27.8242ZM13.1998 18.8291V12.8482H7.77184L3.80463 18.8291H13.1998ZM13.1998 12.1757V9.45054C13.1998 8.98955 13.3903 8.56928 13.6973 8.2646C14.0057 7.95859 14.4291 7.76946 14.8936 7.76946H15.456V5.86775H7.92909V12.1758L13.1998 12.1757ZM16.1348 7.76963H18.5419L17.3483 3.60895H6.03949L3.51733 12.3993V18.0467L7.25283 12.4151V5.53177C7.25283 5.34659 7.405 5.19556 7.59158 5.19556H15.796C15.9826 5.19556 16.1347 5.34659 16.1347 5.53177L16.1348 7.76963ZM19.2458 7.76963H21.3882L20.1377 3.38974C20.1245 3.35297 20.1166 3.31357 20.1166 3.27285V2.18146C20.1166 1.90304 20.0028 1.65088 19.8201 1.46963C19.6362 1.28707 19.3821 1.17281 19.1016 1.17281H4.28631C4.00578 1.17281 3.75172 1.28576 3.56909 1.467C3.38516 1.64956 3.27003 1.90304 3.27003 2.18015V3.27154L3.2568 3.36216L0.786233 12.0184H2.92201L5.45213 3.20044C5.48521 3.04809 5.62151 2.93514 5.78295 2.93514H17.6026C17.7508 2.93646 17.8858 3.03233 17.9281 3.17943L19.2448 7.7681L19.2458 7.76963ZM19.5581 28.8016H23.3929L23.4233 28.2631C23.426 28.2119 23.4405 28.162 23.4683 28.1147L25.9124 23.8912C25.9958 23.748 26.0632 23.6062 26.1082 23.4604C26.1532 23.3186 26.1784 23.1728 26.1823 23.0178L26.3239 15.7119C26.3239 15.5372 26.2525 15.3783 26.1373 15.264C26.0222 15.1498 25.8621 15.0788 25.6861 15.0788C25.5869 15.0788 25.4942 15.1012 25.4122 15.1392C25.3593 15.1642 25.3103 15.197 25.2653 15.2351V22.2207C25.2653 22.6817 25.0748 23.1019 24.7677 23.4066C24.4594 23.7126 24.036 23.9018 23.5715 23.9018H22.7101L21.6051 25.3307C21.5032 25.462 21.3167 25.5014 21.1684 25.4174C21.007 25.3254 20.9514 25.1205 21.044 24.9603C21.5363 24.1145 22.0285 23.2687 22.5208 22.4216C22.6082 22.2706 22.6254 22.0972 22.583 21.9396C22.5407 21.7833 22.4375 21.6415 22.2866 21.5548C22.1358 21.4681 21.9611 21.4511 21.8023 21.4931C21.6435 21.5351 21.5006 21.6362 21.4133 21.7873C20.9236 22.6291 20.434 23.4697 19.9444 24.3115C19.6414 24.8907 19.3595 25.5237 19.2484 26.1436C19.1438 26.7294 19.1915 27.3099 19.5236 27.8286C19.5594 27.8825 19.5779 27.9481 19.5766 28.0177C19.5686 28.2804 19.562 28.5418 19.5554 28.8044L19.5581 28.8016ZM10.7081 22.4582V24.683C10.7081 24.8682 10.5559 25.0192 10.3693 25.0192H3.88511C3.69853 25.0192 3.54635 24.8682 3.54635 24.683V22.4582H3.17982C2.99323 22.4582 2.84106 22.3072 2.84106 22.122C2.84106 21.9368 2.99323 21.7858 3.17982 21.7858H11.0759C11.2625 21.7858 11.4147 21.9368 11.4147 22.122C11.4147 22.3072 11.2625 22.4582 11.0759 22.4582H10.7081ZM10.0305 24.3468V22.4582H4.22387V24.3468H10.0305ZM9.22731 6.93319C9.04072 6.93319 8.88855 6.78215 8.88855 6.59697C8.88855 6.41179 9.04072 6.26076 9.22731 6.26076H10.1986C10.3852 6.26076 10.5374 6.41179 10.5374 6.59697C10.5374 6.78215 10.3852 6.93319 10.1986 6.93319H9.22731ZM11.0746 17.2796C10.888 17.2796 10.7358 17.1285 10.7358 16.9433C10.7358 16.7582 10.888 16.6071 11.0746 16.6071H12.3132C12.4997 16.6071 12.6519 16.7582 12.6519 16.9433C12.6519 17.1285 12.4997 17.2796 12.3132 17.2796H11.0746ZM6.92751 17.2796C6.74092 17.2796 6.58875 17.1285 6.58875 16.9433C6.58875 16.7582 6.74092 16.6071 6.92751 16.6071H8.16608C8.35266 16.6071 8.50483 16.7582 8.50483 16.9433C8.50483 17.1285 8.35266 17.2796 8.16608 17.2796H6.92751ZM11.1844 16.0542C10.9978 16.0542 10.8456 15.9032 10.8456 15.718C10.8456 15.5328 10.9978 15.3818 11.1844 15.3818H12.2046C12.3912 15.3818 12.5433 15.5328 12.5433 15.718C12.5433 15.9032 12.3912 16.0542 12.2046 16.0542H11.1844ZM7.76627 16.0542C7.57969 16.0542 7.42751 15.9032 7.42751 15.718C7.42751 15.5328 7.57969 15.3818 7.76627 15.3818H8.78651C8.97309 15.3818 9.12527 15.5328 9.12527 15.718C9.12527 15.9032 8.97309 16.0542 8.78651 16.0542H7.76627ZM11.265 14.8289C11.0784 14.8289 10.9262 14.6778 10.9262 14.4927C10.9262 14.3075 11.0784 14.1565 11.265 14.1565H12.1251C12.3117 14.1565 12.4639 14.3075 12.4639 14.4927C12.4639 14.6778 12.3117 14.8289 12.1251 14.8289H11.265ZM8.3842 14.8289C8.19762 14.8289 8.04544 14.6778 8.04544 14.4927C8.04544 14.3075 8.19762 14.1565 8.3842 14.1565H9.24435C9.43093 14.1565 9.58311 14.3075 9.58311 14.4927C9.58311 14.6778 9.43093 14.8289 9.24435 14.8289H8.3842ZM22.4254 15.5775C22.4254 15.3923 22.5776 15.2413 22.7642 15.2413C22.9508 15.2413 23.1029 15.3923 23.1029 15.5775V16.9342C23.1029 17.1194 22.9508 17.2704 22.7642 17.2704C22.5776 17.2704 22.4254 17.1194 22.4254 16.9342V15.5775ZM22.4254 12.7762C22.4254 12.591 22.5776 12.4399 22.7642 12.4399C22.9508 12.4399 23.1029 12.591 23.1029 12.7762V14.1328C23.1029 14.318 22.9508 14.4691 22.7642 14.4691C22.5776 14.4691 22.4254 14.318 22.4254 14.1328V12.7762ZM22.4254 9.9748C22.4254 9.78962 22.5776 9.63858 22.7642 9.63858C22.9508 9.63858 23.1029 9.78962 23.1029 9.9748V11.3315C23.1029 11.5167 22.9508 11.6677 22.7642 11.6677C22.5776 11.6677 22.4254 11.5167 22.4254 11.3315V9.9748ZM17.594 8.44344V23.2292H19.7973L20.8321 21.4522C21.0134 21.141 21.3058 20.9308 21.6314 20.8442C21.9556 20.7575 22.3142 20.7942 22.6278 20.9742C22.9427 21.1541 23.1545 21.4443 23.2405 21.7674C23.3278 22.0892 23.2908 22.4451 23.1095 22.7564L22.8329 23.2305H23.5739C23.8532 23.2305 24.1085 23.1176 24.2925 22.935C24.4751 22.7525 24.5902 22.5003 24.5902 22.2219V9.45239C24.5902 9.17527 24.4764 8.92181 24.2925 8.73924C24.1085 8.558 23.8545 8.44374 23.5739 8.44374L17.594 8.44344ZM16.9165 23.2292V8.44344H16.2708V23.2292H16.9165ZM15.5933 23.2292V8.44344H14.8959C14.6167 8.44344 14.3613 8.55639 14.1774 8.73894C13.9947 8.92149 13.8796 9.17498 13.8796 9.45209V22.2216C13.8796 22.4987 13.9934 22.7521 14.1774 22.9347C14.3613 23.116 14.6167 23.2302 14.8959 23.2302H15.5933V23.2292ZM23.8559 30.8284V29.4756H18.9084V30.8284H23.8559Z" fill="black"/>
</svg>
