<svg width="27" height="24" viewBox="0 0 27 24" fill="none" xmlns="http://www.w3.org/2000/svg">
<path d="M26.7065 11.6129H21.1304V0.258064C21.1304 0.115927 20.9986 0 20.837 0H6.16304C6.0014 0 5.86957 0.115927 5.86957 0.258064V11.6129H0.293478C0.131836 11.6129 0 11.7288 0 11.8709V12.9758C0 13.1179 0.131836 13.2338 0.293478 13.2338H1.46739V19.3548H0.293478C0.131836 19.3548 0 19.4708 0 19.6129V23.7419C0 23.8841 0.131836 24 0.293478 24H26.7065C26.8682 24 27 23.8841 27 23.7419V19.6129C27 19.4708 26.8682 19.3548 26.7065 19.3548H25.5326V13.2338H26.7065C26.8682 13.2338 27 13.1179 27 12.9758V11.8709C27 11.7288 26.8682 11.6129 26.7065 11.6129ZM26.413 12.7177H0.586957V12.129H26.413V12.7177ZM26.413 23.4839H0.586957V19.871H26.413V23.4839ZM4.09373 13.2338H5.75487V19.3548H4.09373V13.2338ZM20.6579 19.3548H19.2055V13.2338H20.6579V19.3548ZM18.6185 19.3548H16.9573V13.2338H18.6185V19.3548ZM16.3704 19.3548H14.9179V13.2338H16.3704V19.3548ZM14.1131 19.3548H12.8865V13.2338H14.1131V19.3548ZM12.0829 19.3548H10.6304V13.2338H12.0829V19.3548ZM10.0423 19.3548H8.38112V13.2338H10.0423V19.3548ZM7.79417 19.3548H6.34168V13.2338H7.79417V19.3548ZM22.9059 19.3548H21.2448V13.2338H22.9059V19.3548ZM2.05402 13.2338H3.50651V19.3548H2.05402V13.2338ZM24.9453 19.3548H23.4928V13.2338H24.9453V19.3548ZM20.5432 0.51618V11.6129H19.3165V1.85089C19.3165 1.70875 19.1847 1.59282 19.023 1.59282H7.97621C7.81457 1.59282 7.68273 1.70875 7.68273 1.85089V11.6129H6.45608V0.51618H20.5432ZM8.26989 9.03229V7.95366H12.2994V9.03229H8.26989ZM12.2994 7.43753H8.26989V2.10903H12.2994V7.43753ZM12.2994 9.54842V11.6129H8.26989V9.54842H12.2994ZM12.8863 2.10895H14.113V11.6129H12.8863V2.10895ZM18.7295 7.95358V9.03221H14.7V7.95358H18.7295ZM18.7295 7.43746H14.7V2.10895H18.7295V7.43746ZM14.7 9.54834H18.7295V11.6129H14.7V9.54834Z" fill="black"/>
</svg>
