<svg width="27" height="28" viewBox="0 0 27 28" fill="none" xmlns="http://www.w3.org/2000/svg">
<path d="M27 16.0224C27 13.6463 25.067 11.7133 22.6909 11.7133H17.4716C15.0955 11.7133 13.1625 13.6463 13.1625 16.0224C13.1625 16.4306 13.3708 16.791 13.6865 17.0034C13.1998 17.6277 13.1694 18.4823 13.1681 18.5276C13.1658 18.6185 13.2004 18.7065 13.264 18.7718C13.3276 18.8371 13.4146 18.8736 13.5056 18.8736C13.8309 18.8736 13.9786 18.9495 14.1654 19.0457C14.1991 19.063 14.2349 19.081 14.2719 19.099V20.3519C13.8959 20.4254 13.6582 20.6129 13.5191 20.7774C13.2742 21.0664 13.1674 21.4728 13.233 21.8643L13.296 22.2407C13.3522 22.5759 13.4468 22.8361 13.5646 23.0403H11.4529L11.7008 11.4233H12.4002C12.5867 11.4233 12.7377 11.2723 12.7377 11.0858V8.39664C12.7377 8.2101 12.5867 8.05914 12.4002 8.05914H11.9958C11.2374 5.74518 9.11505 4.12219 6.68441 3.99167V0.8375C6.68441 0.650952 6.53346 0.5 6.34691 0.5C6.16036 0.5 6.00941 0.650952 6.00941 0.8375V3.99353C3.59712 4.14119 1.49597 5.7591 0.742216 8.05914H0.3375C0.150952 8.05914 0 8.2101 0 8.39664V11.0858C0 11.2723 0.150952 11.4233 0.3375 11.4233H1.03722L1.28474 23.0403H0.3375C0.150952 23.0403 0 23.1913 0 23.3778V27.1625C0 27.349 0.150952 27.5 0.3375 27.5H26.6625C26.849 27.5 27 27.349 27 27.1625V23.3778C27 23.1913 26.849 23.0403 26.6625 23.0403H26.4612C26.5928 22.822 26.6905 22.5574 26.7436 22.2407L26.8161 21.8083C26.8181 21.7968 26.8194 21.7849 26.82 21.773C26.8537 21.2263 26.6592 20.8977 26.4905 20.718C26.3169 20.5334 26.0799 20.4111 25.8075 20.355V19.0791C25.83 19.0679 25.8522 19.0566 25.8735 19.0457C26.0603 18.9495 26.2083 18.8736 26.534 18.8736C26.6262 18.8736 26.7146 18.8357 26.7782 18.7692C26.8418 18.7023 26.8754 18.6123 26.8711 18.5203C26.869 18.478 26.8244 17.672 26.4141 17.037C26.7629 16.8313 27 16.4557 27 16.0224ZM17.4716 12.3883H22.6909C24.6948 12.3883 26.325 14.0185 26.325 16.0224C26.325 16.3019 26.0976 16.5293 25.8181 16.5293H14.3444C14.0649 16.5293 13.8375 16.3019 13.8375 16.0224C13.8375 14.0185 15.4677 12.3883 17.4716 12.3883ZM11.2854 8.05914H6.68441V4.66668C8.74972 4.79184 10.5617 6.13104 11.2854 8.05914ZM6.00941 4.66853V8.05914H1.45256C2.17117 6.14472 3.96237 4.80992 6.00941 4.66853ZM0.675 8.73414H12.0627V10.7483H0.675V8.73414ZM1.71253 11.4233H11.0255L10.7776 23.0403H1.96005L1.71253 11.4233ZM26.325 26.825H0.675V23.7153H14.7521H25.2525H26.325V26.825ZM26.1474 21.7154L26.0778 22.1293C25.941 22.9457 25.5412 23.0403 25.2525 23.0403H14.7521C14.4367 23.0403 14.0962 22.9322 13.9618 22.1293L13.8988 21.7529C13.8731 21.5997 13.8952 21.3779 14.0343 21.2134C14.1579 21.0674 14.3513 20.9936 14.6094 20.9936H19.3028C19.8202 20.9936 20.3067 21.193 20.6732 21.5552C21.2243 22.0997 22.1201 22.0997 22.6712 21.5552C23.0377 21.193 23.5241 20.9936 24.0416 20.9936H25.47C25.6019 20.9936 25.8458 21.018 25.9987 21.1804C26.1091 21.2978 26.1592 21.4777 26.1474 21.7154ZM25.1325 20.3186H24.0416C23.3455 20.3186 22.6903 20.5872 22.1966 21.0753C21.9078 21.3614 21.4372 21.3614 21.1478 21.0746C20.6537 20.5872 19.9989 20.3186 19.3028 20.3186H14.9469V19.2846C15.0055 19.2893 15.0671 19.2922 15.1334 19.2922C15.6222 19.2922 15.8882 19.1554 16.1018 19.0457C16.2887 18.9495 16.4363 18.8736 16.7613 18.8736C17.0866 18.8736 17.2343 18.9495 17.4211 19.0457C17.6347 19.1554 17.9007 19.2922 18.3895 19.2922C18.8782 19.2922 19.1442 19.1554 19.3578 19.0457C19.5447 18.9495 19.6923 18.8736 20.0176 18.8736C20.3433 18.8736 20.4909 18.9495 20.6778 19.0457C20.8917 19.1554 21.1577 19.2922 21.6468 19.2922C22.1356 19.2922 22.4016 19.1554 22.6151 19.0457C22.802 18.9495 22.9497 18.8736 23.275 18.8736C23.6006 18.8736 23.7486 18.9495 23.9355 19.0457C24.1494 19.1554 24.4154 19.2922 24.9045 19.2922C24.9873 19.2922 25.0617 19.2871 25.1325 19.2801V20.3186ZM25.565 18.4452C25.3781 18.5414 25.2301 18.6172 24.9045 18.6172C24.5788 18.6172 24.4308 18.5414 24.244 18.4452C24.0301 18.3354 23.7641 18.1986 23.275 18.1986C22.7862 18.1986 22.5202 18.3354 22.3066 18.4452C22.1198 18.5414 21.9721 18.6172 21.6468 18.6172C21.3212 18.6172 21.1732 18.5414 20.9863 18.4452C20.7724 18.3354 20.5064 18.1986 20.0176 18.1986C19.5289 18.1986 19.2629 18.3354 19.0493 18.4452C18.8624 18.5414 18.7148 18.6172 18.3895 18.6172C18.0642 18.6172 17.9165 18.5414 17.7296 18.4452C17.5161 18.3354 17.2501 18.1986 16.7613 18.1986C16.2728 18.1986 16.0069 18.3354 15.7933 18.4452C15.6064 18.5414 15.4588 18.6172 15.1334 18.6172C14.8085 18.6172 14.6608 18.5414 14.4739 18.4452C14.323 18.3677 14.146 18.2768 13.8827 18.23C13.9421 17.915 14.0913 17.4464 14.4473 17.2043H25.6867C25.9545 17.4707 26.0932 17.9057 26.1549 18.2303C25.8926 18.2771 25.7156 18.3677 25.565 18.4452Z" fill="black"/>
</svg>
