<svg width="27" height="20" viewBox="0 0 27 20" fill="none" xmlns="http://www.w3.org/2000/svg">
<path d="M5.40651 17.4405H1.65921C1.58629 17.4405 1.51636 17.4128 1.4648 17.3636C1.41324 17.3143 1.38428 17.2475 1.38428 17.1778C1.38428 17.1081 1.41324 17.0413 1.4648 16.992C1.51636 16.9427 1.58629 16.915 1.65921 16.915H5.40651C5.47942 16.915 5.54935 16.9427 5.60091 16.992C5.65247 17.0413 5.68144 17.1081 5.68144 17.1778C5.68144 17.2475 5.65247 17.3143 5.60091 17.3636C5.54935 17.4128 5.47942 17.4405 5.40651 17.4405Z" fill="black"/>
<path d="M21.226 17.4405H17.4815C17.4086 17.4405 17.3386 17.4128 17.2871 17.3636C17.2355 17.3143 17.2065 17.2475 17.2065 17.1778C17.2065 17.1081 17.2355 17.0413 17.2871 16.992C17.3386 16.9427 17.4086 16.915 17.4815 16.915H21.226C21.2989 16.915 21.3689 16.9427 21.4204 16.992C21.472 17.0413 21.501 17.1081 21.501 17.1778C21.501 17.2475 21.472 17.3143 21.4204 17.3636C21.3689 17.4128 21.2989 17.4405 21.226 17.4405Z" fill="black"/>
<path d="M20.6422 10.359H2.2576C2.18468 10.359 2.11475 10.3313 2.06319 10.282C2.01163 10.2327 1.98267 10.1659 1.98267 10.0962C1.98267 10.0266 2.01163 9.95972 2.06319 9.91045C2.11475 9.86118 2.18468 9.8335 2.2576 9.8335H20.6422C20.7151 9.8335 20.785 9.86118 20.8366 9.91045C20.8882 9.95972 20.9171 10.0266 20.9171 10.0962C20.9171 10.1659 20.8882 10.2327 20.8366 10.282C20.785 10.3313 20.7151 10.359 20.6422 10.359Z" fill="black"/>
<path d="M21.6431 10.3552H20.6478C20.5974 10.3553 20.5478 10.3421 20.5047 10.3171C20.4615 10.2921 20.4264 10.2562 20.4031 10.2133L19.4574 8.45821C19.4363 8.41822 19.4263 8.37373 19.4282 8.32898C19.4302 8.28424 19.4441 8.24071 19.4686 8.20254C19.4931 8.16437 19.5274 8.13282 19.5683 8.11089C19.6092 8.08896 19.6552 8.07738 19.7021 8.07724H21.6431C21.8044 8.06983 21.9656 8.09381 22.117 8.1477C22.2683 8.2016 22.4067 8.2843 22.5236 8.39079C22.6405 8.49728 22.7336 8.62535 22.7972 8.76724C22.8607 8.90912 22.8935 9.06187 22.8935 9.21622C22.8935 9.37057 22.8607 9.52331 22.7972 9.6652C22.7336 9.80708 22.6405 9.93515 22.5236 10.0416C22.4067 10.1481 22.2683 10.2308 22.117 10.2847C21.9656 10.3386 21.8044 10.3626 21.6431 10.3552ZM20.8183 9.82971H21.6431C21.8142 9.82891 21.9782 9.76379 22.0995 9.64842C22.1914 9.56295 22.2544 9.45305 22.2803 9.33297C22.3061 9.21289 22.2937 9.08816 22.2445 8.97493C22.1953 8.86169 22.1117 8.76518 22.0045 8.69788C21.8973 8.63058 21.7714 8.5956 21.6431 8.59747H20.153L20.8183 9.82971Z" fill="black"/>
<path d="M2.2567 10.3552H1.25046C1.08913 10.3626 0.927906 10.3386 0.776558 10.2847C0.625211 10.2308 0.486888 10.1481 0.369972 10.0416C0.253057 9.93515 0.159981 9.80708 0.0963862 9.6652C0.032791 9.52331 0 9.37057 0 9.21622C0 9.06187 0.032791 8.90912 0.0963862 8.76724C0.159981 8.62535 0.253057 8.49728 0.369972 8.39079C0.486888 8.2843 0.625211 8.2016 0.776558 8.1477C0.927906 8.09381 1.08913 8.06983 1.25046 8.07724H3.19146C3.23833 8.07738 3.28438 8.08896 3.32525 8.11089C3.36611 8.13282 3.40043 8.16437 3.42494 8.20254C3.44946 8.24071 3.46336 8.28424 3.46532 8.32898C3.46728 8.37373 3.45724 8.41822 3.43615 8.45821L2.48764 10.2133C2.46553 10.2542 2.43256 10.2889 2.39203 10.3138C2.3515 10.3387 2.30483 10.353 2.2567 10.3552ZM1.26145 8.60272C1.17362 8.59722 1.08553 8.60901 1.00266 8.63736C0.919778 8.6657 0.843868 8.71 0.779624 8.7675C0.71538 8.82501 0.664168 8.8945 0.629157 8.97169C0.594147 9.04887 0.576083 9.1321 0.576083 9.21622C0.576083 9.30034 0.594147 9.38357 0.629157 9.46075C0.664168 9.53793 0.71538 9.60742 0.779624 9.66493C0.843868 9.72244 0.919778 9.76673 1.00266 9.79508C1.08553 9.82342 1.17362 9.83521 1.26145 9.82971H2.08624L2.74883 8.60272H1.26145Z" fill="black"/>
<path d="M20.4452 19.9982H18.2677C17.9863 19.9982 17.7164 19.8914 17.5173 19.7012C17.3183 19.511 17.2065 19.253 17.2065 18.984V17.4418H5.68144V18.984C5.68144 19.253 5.56963 19.511 5.37061 19.7012C5.17159 19.8914 4.90166 19.9982 4.62021 19.9982H2.44551C2.16405 19.9982 1.89412 19.8914 1.6951 19.7012C1.49609 19.511 1.38428 19.253 1.38428 18.984V12.2921C1.38465 11.5157 1.5798 10.7508 1.95338 10.0614L1.99737 9.9747L4.29029 5.72095C4.44426 5.43469 4.67798 5.19463 4.96566 5.02726C5.25335 4.85989 5.58382 4.77171 5.92063 4.77247H16.9701C17.3068 4.77201 17.6372 4.8603 17.9248 5.02764C18.2124 5.19498 18.4462 5.43488 18.6004 5.72095L20.9511 10.064C21.317 10.7544 21.5055 11.5182 21.5009 12.2921V18.984C21.5009 19.2521 21.3899 19.5093 21.192 19.6993C20.9942 19.8894 20.7257 19.9968 20.4452 19.9982ZM5.40651 16.9136H17.4814C17.5544 16.9136 17.6243 16.9413 17.6758 16.9906C17.7274 17.0399 17.7564 17.1067 17.7564 17.1764V18.984C17.7564 19.1136 17.8102 19.2379 17.9061 19.3296C18.0021 19.4212 18.1321 19.4727 18.2677 19.4727H20.4452C20.5799 19.4713 20.7085 19.4192 20.8032 19.3277C20.8979 19.2362 20.9511 19.1127 20.9511 18.984V12.2921C20.9507 11.6 20.7772 10.9181 20.4452 10.3031L20.4012 10.2112L18.111 5.96267C18.003 5.76246 17.8394 5.59453 17.6382 5.47728C17.4369 5.36003 17.2058 5.29798 16.9701 5.29794H5.92063C5.68452 5.2978 5.45292 5.35974 5.25119 5.47698C5.04947 5.59423 4.88538 5.76226 4.77692 5.96267L2.44276 10.3005C2.10885 10.9159 1.93442 11.5989 1.93414 12.2921V18.984C1.93414 19.1136 1.98801 19.2379 2.08391 19.3296C2.17982 19.4212 2.30988 19.4727 2.44551 19.4727H4.62021C4.75583 19.4727 4.8859 19.4212 4.9818 19.3296C5.0777 19.2379 5.13158 19.1136 5.13158 18.984V17.1764C5.13158 17.1067 5.16054 17.0399 5.2121 16.9906C5.26366 16.9413 5.33359 16.9136 5.40651 16.9136Z" fill="black"/>
<path d="M14.9463 12.8863H7.93557C7.86266 12.8863 7.79273 12.8586 7.74117 12.8094C7.68961 12.7601 7.66064 12.6933 7.66064 12.6236C7.66064 12.5539 7.68961 12.4871 7.74117 12.4378C7.79273 12.3885 7.86266 12.3608 7.93557 12.3608H14.9463C15.0192 12.3608 15.0891 12.3885 15.1407 12.4378C15.1923 12.4871 15.2212 12.5539 15.2212 12.6236C15.2212 12.6933 15.1923 12.7601 15.1407 12.8094C15.0891 12.8586 15.0192 12.8863 14.9463 12.8863Z" fill="black"/>
<path d="M14.9463 14.7913H7.93557C7.86266 14.7913 7.79273 14.7637 7.74117 14.7144C7.68961 14.6651 7.66064 14.5983 7.66064 14.5286C7.66064 14.4589 7.68961 14.3921 7.74117 14.3428C7.79273 14.2936 7.86266 14.2659 7.93557 14.2659H14.9463C15.0192 14.2659 15.0891 14.2936 15.1407 14.3428C15.1923 14.3921 15.2212 14.4589 15.2212 14.5286C15.2212 14.5983 15.1923 14.6651 15.1407 14.7144C15.0891 14.7637 15.0192 14.7913 14.9463 14.7913Z" fill="black"/>
<path d="M17.7905 15.0439C17.4876 15.0444 17.1913 14.9591 16.9392 14.7987C16.6871 14.6383 16.4904 14.4101 16.374 14.1429C16.2576 13.8757 16.2267 13.5815 16.2852 13.2975C16.3438 13.0135 16.4892 12.7525 16.7029 12.5474C16.9167 12.3424 17.1893 12.2026 17.4863 12.1456C17.7832 12.0886 18.0912 12.1171 18.3712 12.2273C18.6512 12.3376 18.8907 12.5248 19.0595 12.7652C19.2282 13.0055 19.3185 13.2883 19.3191 13.5778C19.3191 13.9657 19.1582 14.3378 18.8717 14.6126C18.5852 14.8874 18.1964 15.0425 17.7905 15.0439ZM17.7905 12.6424C17.5961 12.6419 17.406 12.6965 17.2441 12.7994C17.0823 12.9023 16.9561 13.0487 16.8814 13.2202C16.8068 13.3917 16.7872 13.5805 16.8249 13.7627C16.8627 13.9449 16.9563 14.1123 17.0937 14.2436C17.2311 14.375 17.4063 14.4644 17.5969 14.5005C17.7876 14.5366 17.9851 14.5178 18.1646 14.4465C18.344 14.3752 18.4973 14.2545 18.6049 14.0999C18.7126 13.9452 18.7698 13.7635 18.7692 13.5778C18.7685 13.3299 18.6651 13.0924 18.4817 12.9171C18.2983 12.7419 18.0498 12.6431 17.7905 12.6424Z" fill="black"/>
<path d="M5.09856 15.0439C4.79569 15.0444 4.49945 14.9591 4.24732 14.7987C3.99519 14.6383 3.79848 14.4101 3.68208 14.1429C3.56567 13.8757 3.53479 13.5815 3.59334 13.2975C3.6519 13.0135 3.79726 12.7525 4.01104 12.5474C4.22482 12.3424 4.49742 12.2026 4.79436 12.1456C5.09131 12.0886 5.39927 12.1171 5.6793 12.2273C5.95933 12.3376 6.19885 12.5248 6.36757 12.7652C6.53629 13.0055 6.62663 13.2883 6.62717 13.5778C6.62718 13.9657 6.4663 14.3378 6.17979 14.6126C5.89328 14.8874 5.50448 15.0425 5.09856 15.0439ZM5.09856 12.6424C4.90421 12.6419 4.71406 12.6965 4.55224 12.7994C4.39041 12.9023 4.26418 13.0487 4.18955 13.2202C4.11493 13.3917 4.09526 13.5805 4.13304 13.7627C4.17083 13.9449 4.26436 14.1123 4.40179 14.2436C4.53922 14.375 4.71436 14.4644 4.90501 14.5005C5.09566 14.5366 5.29323 14.5178 5.47269 14.4465C5.65215 14.3752 5.80541 14.2545 5.91305 14.0999C6.02069 13.9452 6.07786 13.7635 6.07731 13.5778C6.07587 13.3301 5.97229 13.093 5.78905 12.9179C5.60581 12.7428 5.3577 12.6438 5.09856 12.6424Z" fill="black"/>
<path d="M5.28112 7.34818C5.22959 7.34828 5.17907 7.33453 5.13532 7.30852C5.09157 7.2825 5.05635 7.24526 5.03368 7.20104C5.00044 7.13995 4.99364 7.06883 5.01472 7.00298C5.0358 6.93714 5.08308 6.88184 5.1464 6.84897L6.85097 6.03448C6.91589 6.00598 6.98988 6.00275 7.05725 6.02549C7.12463 6.04822 7.18009 6.09512 7.2119 6.15626C7.24371 6.2174 7.24937 6.28798 7.22767 6.35303C7.20597 6.41809 7.15862 6.47251 7.09565 6.50478L5.39109 7.31928C5.35695 7.33615 5.31948 7.346 5.28112 7.34818Z" fill="black"/>
<path d="M5.16295 8.57516C5.10139 8.57481 5.04173 8.55473 4.99353 8.51812C4.94533 8.48152 4.91138 8.43052 4.89713 8.37328C4.88287 8.31605 4.88912 8.2559 4.91489 8.20246C4.94065 8.14903 4.98444 8.10541 5.03923 8.07858L7.98098 6.67293C8.04625 6.64195 8.12171 6.63701 8.19079 6.65918C8.25987 6.68135 8.31692 6.72882 8.34939 6.79116C8.3818 6.85353 8.38698 6.92565 8.36378 6.99167C8.34058 7.05768 8.29091 7.1122 8.22567 7.14323L5.28117 8.54889C5.2443 8.56595 5.20391 8.57493 5.16295 8.57516Z" fill="black"/>
<path d="M25.5507 20.0001H0.331327C0.258411 20.0001 0.188481 19.9724 0.136922 19.9231C0.0853623 19.8739 0.0563965 19.807 0.0563965 19.7373C0.0563965 19.6677 0.0853623 19.6008 0.136922 19.5516C0.188481 19.5023 0.258411 19.4746 0.331327 19.4746H25.5507C25.6236 19.4746 25.6935 19.5023 25.7451 19.5516C25.7966 19.6008 25.8256 19.6677 25.8256 19.7373C25.8256 19.807 25.7966 19.8739 25.7451 19.9231C25.6935 19.9724 25.6236 20.0001 25.5507 20.0001Z" fill="black"/>
<path d="M24.4092 19.9986H23.062C22.9891 19.9986 22.9192 19.9709 22.8676 19.9216C22.8161 19.8724 22.7871 19.8055 22.7871 19.7359V12.8889C22.7871 12.6485 22.887 12.4179 23.0649 12.2479C23.2428 12.0779 23.4841 11.9824 23.7356 11.9824C23.9872 11.9824 24.2284 12.0779 24.4063 12.2479C24.5842 12.4179 24.6841 12.6485 24.6841 12.8889V19.7359C24.6841 19.8055 24.6552 19.8724 24.6036 19.9216C24.552 19.9709 24.4821 19.9986 24.4092 19.9986ZM23.337 19.4731H24.1343V12.8889C24.1343 12.7878 24.0923 12.6909 24.0175 12.6195C23.9427 12.548 23.8413 12.5079 23.7356 12.5079C23.6299 12.5079 23.5285 12.548 23.4537 12.6195C23.379 12.6909 23.337 12.7878 23.337 12.8889V19.4731Z" fill="black"/>
<path d="M23.7349 12.5102C23.662 12.5102 23.592 12.4825 23.5405 12.4333C23.4889 12.384 23.46 12.3172 23.46 12.2475V5.96538C23.46 5.89569 23.4889 5.82886 23.5405 5.77959C23.592 5.73032 23.662 5.70264 23.7349 5.70264C23.8078 5.70264 23.8777 5.73032 23.9293 5.77959C23.9809 5.82886 24.0098 5.89569 24.0098 5.96538V12.2475C24.0098 12.3172 23.9809 12.384 23.9293 12.4333C23.8777 12.4825 23.8078 12.5102 23.7349 12.5102Z" fill="black"/>
<path d="M23.7311 6.23743C23.0859 6.23639 22.4555 6.0526 21.9195 5.70928C21.3836 5.36596 20.9661 4.87852 20.72 4.30856C20.4738 3.7386 20.41 3.11169 20.5365 2.50707C20.6631 1.90244 20.9743 1.34723 21.4309 0.911596C21.8875 0.475962 22.469 0.179454 23.1019 0.0595434C23.7348 -0.0603676 24.3907 0.00169921 24.9867 0.237901C25.5827 0.474103 26.092 0.873839 26.4504 1.38659C26.8087 1.89935 27 2.50211 27 3.11871C26.9996 3.52861 26.9148 3.93443 26.7503 4.313C26.5858 4.69157 26.345 5.03547 26.0414 5.32507C25.7379 5.61467 25.3776 5.84429 24.9812 6.00084C24.5848 6.15738 24.16 6.23777 23.7311 6.23743ZM23.7311 0.525476C23.1946 0.526514 22.6705 0.679487 22.225 0.965067C21.7795 1.25065 21.4325 1.65602 21.228 2.12996C21.0234 2.6039 20.9705 3.12515 21.0758 3.62784C21.1811 4.13053 21.44 4.59211 21.8197 4.95426C22.1994 5.3164 22.683 5.56286 23.2092 5.6625C23.7354 5.76213 24.2808 5.71047 24.7763 5.51404C25.2718 5.31761 25.6953 4.98523 25.9932 4.55889C26.2911 4.13255 26.4501 3.63138 26.4501 3.11871C26.4498 2.77782 26.3792 2.44033 26.2423 2.12552C26.1055 1.81071 25.9051 1.52473 25.6526 1.28393C25.4001 1.04312 25.1005 0.852204 24.7708 0.722068C24.4411 0.591932 24.0878 0.52513 23.7311 0.525476Z" fill="black"/>
<path d="M23.1519 4.60995C23.079 4.60995 23.009 4.58227 22.9575 4.533C22.9059 4.48372 22.877 4.41689 22.877 4.34721V1.89848C22.877 1.8288 22.9059 1.76197 22.9575 1.7127C23.009 1.66342 23.079 1.63574 23.1519 1.63574C23.2248 1.63574 23.2947 1.66342 23.3463 1.7127C23.3978 1.76197 23.4268 1.8288 23.4268 1.89848V4.34721C23.4268 4.41689 23.3978 4.48372 23.3463 4.533C23.2947 4.58227 23.2248 4.60995 23.1519 4.60995Z" fill="black"/>
<path d="M23.9904 3.53272H23.1519C23.079 3.53272 23.009 3.50504 22.9575 3.45577C22.9059 3.40649 22.877 3.33966 22.877 3.26998V1.89848C22.877 1.8288 22.9059 1.76197 22.9575 1.7127C23.009 1.66342 23.079 1.63574 23.1519 1.63574H24.0014C24.2646 1.63574 24.5171 1.73567 24.7032 1.91355C24.8893 2.09142 24.9939 2.33268 24.9939 2.58423C24.9939 2.83579 24.8893 3.07704 24.7032 3.25491C24.5171 3.43279 24.2646 3.53272 24.0014 3.53272H23.9904ZM23.4158 3.00724H23.9904C24.1078 3.00724 24.2204 2.96267 24.3034 2.88334C24.3864 2.80401 24.4331 2.69642 24.4331 2.58423C24.4331 2.47204 24.3864 2.36445 24.3034 2.28512C24.2204 2.20579 24.1078 2.16122 23.9904 2.16122H23.4268L23.4158 3.00724Z" fill="black"/>
</svg>
