<svg width="27" height="28" viewBox="0 0 27 28" fill="none" xmlns="http://www.w3.org/2000/svg">
<path d="M19.6714 27.4999C19.5984 27.4999 19.5283 27.4708 19.4766 27.4189C19.4249 27.3671 19.3959 27.2967 19.3959 27.2234V25.6195H0.27551C0.20244 25.6195 0.132363 25.5904 0.0806951 25.5385C0.0290269 25.4867 0 25.4163 0 25.343V7.75578C0 7.68244 0.0290269 7.6121 0.0806951 7.56024C0.132363 7.50838 0.20244 7.47925 0.27551 7.47925H26.7245C26.7976 7.47925 26.8676 7.50838 26.9193 7.56024C26.971 7.6121 27 7.68244 27 7.75578V25.343C27 25.4163 26.971 25.4867 26.9193 25.5385C26.8676 25.5904 26.7976 25.6195 26.7245 25.6195H19.9469V27.2234C19.9469 27.2967 19.9179 27.3671 19.8662 27.4189C19.8146 27.4708 19.7445 27.4999 19.6714 27.4999ZM9.25053 25.0665H26.449V8.03231H0.55102V25.0665H9.25053Z" fill="black"/>
<path d="M7.32849 27.5001C7.25542 27.5001 7.18534 27.471 7.13367 27.4191C7.08201 27.3672 7.05298 27.2969 7.05298 27.2236V25.3432C7.05298 25.2698 7.08201 25.1995 7.13367 25.1476C7.18534 25.0958 7.25542 25.0667 7.32849 25.0667C7.40156 25.0667 7.47164 25.0958 7.5233 25.1476C7.57497 25.1995 7.604 25.2698 7.604 25.3432V27.2236C7.604 27.2969 7.57497 27.3672 7.5233 27.4191C7.47164 27.471 7.40156 27.5001 7.32849 27.5001Z" fill="black"/>
<path d="M10.3978 20.7195C10.273 20.7214 10.1499 20.6909 10.0402 20.631L10.032 20.6266C9.65507 20.3993 9.59115 19.9513 9.61429 19.7091V12.8108C9.61429 12.7173 9.61429 12.1471 10.0623 11.9442C10.448 11.7716 10.9307 12.0393 11.0233 12.0946L17.0955 15.6203C17.2608 15.711 17.5325 15.9571 17.5325 16.3183C17.5325 16.6949 17.2487 16.9394 17.0735 17.029L11.0629 20.5132C11.0034 20.5464 10.7136 20.7195 10.3978 20.7195ZM10.3113 20.1493C10.4248 20.2079 10.6712 20.1073 10.7725 20.042L10.783 20.0354L16.8062 16.5428L16.8233 16.534C16.8233 16.534 16.9825 16.4488 16.9825 16.3155C16.9825 16.1927 16.8294 16.1015 16.8283 16.1004L10.745 12.5686C10.5946 12.4801 10.3681 12.4098 10.2865 12.4469C10.1918 12.4889 10.1626 12.7074 10.1659 12.792V19.7207C10.1664 19.7314 10.1664 19.7421 10.1659 19.7528C10.1659 19.7528 10.1389 20.0376 10.3113 20.1465V20.1493Z" fill="black"/>
<path d="M22.0959 27.5001H5.01428C4.94121 27.5001 4.87113 27.4709 4.81946 27.4191C4.7678 27.3672 4.73877 27.2969 4.73877 27.2236C4.73877 27.1502 4.7678 27.0799 4.81946 27.028C4.87113 26.9762 4.94121 26.947 5.01428 26.947H22.0959C22.169 26.947 22.2391 26.9762 22.2907 27.028C22.3424 27.0799 22.3714 27.1502 22.3714 27.2236C22.3714 27.2969 22.3424 27.3672 22.2907 27.4191C22.2391 27.4709 22.169 27.5001 22.0959 27.5001Z" fill="black"/>
<path d="M13.5552 26.5599H13.5001C13.427 26.5599 13.357 26.5308 13.3053 26.4789C13.2536 26.427 13.2246 26.3567 13.2246 26.2834C13.2246 26.21 13.2536 26.1397 13.3053 26.0878C13.357 26.036 13.427 26.0068 13.5001 26.0068H13.5552C13.6283 26.0068 13.6984 26.036 13.75 26.0878C13.8017 26.1397 13.8307 26.21 13.8307 26.2834C13.8307 26.3567 13.8017 26.427 13.75 26.4789C13.6984 26.5308 13.6283 26.5599 13.5552 26.5599Z" fill="black"/>
<path d="M24.6307 20.4705H19.8368C19.7637 20.4705 19.6936 20.4414 19.642 20.3895C19.5903 20.3377 19.5613 20.2673 19.5613 20.194C19.5613 20.1207 19.5903 20.0503 19.642 19.9985C19.6936 19.9466 19.7637 19.9175 19.8368 19.9175H24.6307C24.7037 19.9175 24.7738 19.9466 24.8255 19.9985C24.8771 20.0503 24.9062 20.1207 24.9062 20.194C24.9062 20.2673 24.8771 20.3377 24.8255 20.3895C24.7738 20.4414 24.7037 20.4705 24.6307 20.4705Z" fill="black"/>
<path d="M24.6307 21.9637H19.8368C19.7637 21.9637 19.6936 21.9346 19.642 21.8827C19.5903 21.8308 19.5613 21.7605 19.5613 21.6872C19.5613 21.6138 19.5903 21.5435 19.642 21.4916C19.6936 21.4398 19.7637 21.4106 19.8368 21.4106H24.6307C24.7037 21.4106 24.7738 21.4398 24.8255 21.4916C24.8771 21.5435 24.9062 21.6138 24.9062 21.6872C24.9062 21.7605 24.8771 21.8308 24.8255 21.8827C24.7738 21.9346 24.7037 21.9637 24.6307 21.9637Z" fill="black"/>
<path d="M24.6307 23.4571H19.8368C19.7637 23.4571 19.6936 23.428 19.642 23.3761C19.5903 23.3243 19.5613 23.2539 19.5613 23.1806C19.5613 23.1072 19.5903 23.0369 19.642 22.985C19.6936 22.9332 19.7637 22.9041 19.8368 22.9041H24.6307C24.7037 22.9041 24.7738 22.9332 24.8255 22.985C24.8771 23.0369 24.9062 23.1072 24.9062 23.1806C24.9062 23.2539 24.8771 23.3243 24.8255 23.3761C24.7738 23.428 24.7037 23.4571 24.6307 23.4571Z" fill="black"/>
<path d="M18.5324 20.4705H18.3671C18.294 20.4705 18.2239 20.4414 18.1722 20.3895C18.1206 20.3377 18.0916 20.2673 18.0916 20.194C18.0916 20.1207 18.1206 20.0503 18.1722 19.9985C18.2239 19.9466 18.294 19.9175 18.3671 19.9175H18.5324C18.6054 19.9175 18.6755 19.9466 18.7272 19.9985C18.7789 20.0503 18.8079 20.1207 18.8079 20.194C18.8079 20.2673 18.7789 20.3377 18.7272 20.3895C18.6755 20.4414 18.6054 20.4705 18.5324 20.4705Z" fill="black"/>
<path d="M18.5324 21.9637H18.3671C18.294 21.9637 18.2239 21.9346 18.1722 21.8827C18.1206 21.8308 18.0916 21.7605 18.0916 21.6872C18.0916 21.6138 18.1206 21.5435 18.1722 21.4916C18.2239 21.4398 18.294 21.4106 18.3671 21.4106H18.5324C18.6054 21.4106 18.6755 21.4398 18.7272 21.4916C18.7789 21.5435 18.8079 21.6138 18.8079 21.6872C18.8079 21.7605 18.7789 21.8308 18.7272 21.8827C18.6755 21.9346 18.6054 21.9637 18.5324 21.9637Z" fill="black"/>
<path d="M18.5324 23.4571H18.3671C18.294 23.4571 18.2239 23.428 18.1722 23.3761C18.1206 23.3243 18.0916 23.2539 18.0916 23.1806C18.0916 23.1072 18.1206 23.0369 18.1722 22.985C18.2239 22.9332 18.294 22.9041 18.3671 22.9041H18.5324C18.6054 22.9041 18.6755 22.9332 18.7272 22.985C18.7789 23.0369 18.8079 23.1072 18.8079 23.1806C18.8079 23.2539 18.7789 23.3243 18.7272 23.3761C18.6755 23.428 18.6054 23.4571 18.5324 23.4571Z" fill="black"/>
<path d="M11.0281 6.34004C10.9551 6.33988 10.8851 6.31064 10.8336 6.25874C10.7819 6.20689 10.7529 6.13656 10.7529 6.06324C10.7529 5.98991 10.7819 5.91959 10.8336 5.86773C11.188 5.51161 11.6089 5.2291 12.0722 5.03635C12.5355 4.8436 13.0321 4.74438 13.5336 4.74438C14.0351 4.74438 14.5317 4.8436 14.995 5.03635C15.4583 5.2291 15.8792 5.51161 16.2336 5.86773C16.2838 5.91989 16.3116 5.98974 16.3109 6.06224C16.3103 6.13475 16.2813 6.2041 16.2302 6.25538C16.1792 6.30665 16.1101 6.33573 16.0378 6.33636C15.9656 6.33699 15.896 6.30912 15.844 6.25874C15.2316 5.64401 14.4009 5.29866 13.5347 5.29866C12.6685 5.29866 11.8378 5.64401 11.2254 6.25874C11.1995 6.28477 11.1688 6.30537 11.1349 6.31933C11.101 6.33329 11.0647 6.34033 11.0281 6.34004Z" fill="black"/>
<path d="M17.4966 4.87115C17.4239 4.87142 17.3539 4.84279 17.3021 4.79151C16.8071 4.29461 16.2194 3.90045 15.5727 3.63153C14.9259 3.36261 14.2327 3.2242 13.5326 3.2242C12.8325 3.2242 12.1393 3.36261 11.4925 3.63153C10.8457 3.90045 10.2581 4.29461 9.76305 4.79151C9.71109 4.84188 9.6415 4.86975 9.56926 4.86912C9.49702 4.86849 9.42792 4.83941 9.37684 4.78814C9.32576 4.73687 9.29678 4.66751 9.29615 4.595C9.29553 4.5225 9.32329 4.45265 9.37348 4.40049C9.91965 3.85186 10.5682 3.41664 11.282 3.1197C11.9958 2.82276 12.761 2.66992 13.5337 2.66992C14.3064 2.66992 15.0715 2.82276 15.7854 3.1197C16.4992 3.41664 17.1477 3.85186 17.6939 4.40049C17.7323 4.4392 17.7585 4.48847 17.769 4.54208C17.7796 4.59569 17.7741 4.65124 17.7532 4.70172C17.7324 4.75219 17.6971 4.79533 17.6518 4.82568C17.6065 4.85604 17.5533 4.87224 17.4988 4.87225L17.4966 4.87115Z" fill="black"/>
<path d="M8.03943 3.3369C7.98487 3.337 7.93151 3.32083 7.88611 3.29045C7.84071 3.26007 7.80532 3.21685 7.78443 3.16626C7.76353 3.11567 7.75808 3.05999 7.76875 3.00628C7.77942 2.95258 7.80574 2.90326 7.84437 2.86459C9.35305 1.35056 11.3991 0.5 13.5326 0.5C15.666 0.5 17.7121 1.35056 19.2207 2.86459C19.2709 2.91674 19.2987 2.98659 19.2981 3.0591C19.2974 3.1316 19.2685 3.20096 19.2174 3.25223C19.1663 3.3035 19.0972 3.33258 19.025 3.33321C18.9527 3.33384 18.8831 3.30597 18.8312 3.2556C17.4258 1.84525 15.5199 1.05294 13.5326 1.05294C11.5452 1.05294 9.63929 1.84525 8.23394 3.2556C8.1824 3.30749 8.11244 3.33674 8.03943 3.3369Z" fill="black"/>
</svg>
