<svg width="27" height="27" viewBox="0 0 27 27" fill="none" xmlns="http://www.w3.org/2000/svg">
<path fill-rule="evenodd" clip-rule="evenodd" d="M5.21963 19.9285L6.34888 26.6348C6.37906 26.811 6.22658 26.973 6.00979 26.9968C5.79219 27.0212 5.59208 26.8978 5.5627 26.7223L4.41835 19.9285H2.77928C2.77928 19.9285 2.75545 19.9286 2.71416 19.926L1.18467 26.7358C1.14576 26.9106 0.938486 27.0263 0.723277 26.9948C0.507274 26.9633 0.364331 26.7955 0.403243 26.6213L1.94068 19.7743C1.5047 19.6232 1.01949 19.3243 0.809044 18.7316C0.806662 18.7232 0.803483 18.7142 0.801895 18.7058L0.00776682 15.4916C-0.0351161 15.3173 0.103855 15.1483 0.319064 15.1136C0.533478 15.0788 0.743138 15.1913 0.786021 15.3655L1.57696 18.5657C1.8422 19.2863 2.77928 19.2857 2.77928 19.2857H5.95579C6.17497 19.2857 6.35285 19.4297 6.35285 19.6071C6.35285 19.7845 6.17497 19.9285 5.95579 19.9285H5.21963ZM21.7804 19.9285L20.6511 26.6348C20.621 26.811 20.7734 26.973 20.9902 26.9968C21.2078 27.0212 21.4079 26.8978 21.4373 26.7223L22.5817 19.9285H24.2207C24.2207 19.9285 24.2438 19.9286 24.2859 19.926L25.8153 26.7358C25.8543 26.9106 26.0615 27.0263 26.2767 26.9948C26.4927 26.9633 26.6357 26.7955 26.5968 26.6213L25.0593 19.7743C25.4953 19.6232 25.9805 19.3243 26.191 18.7316C26.1933 18.7232 26.1965 18.7142 26.1981 18.7058L26.9922 15.4916C27.0351 15.3173 26.8961 15.1483 26.6809 15.1136C26.4657 15.0788 26.2569 15.1913 26.214 15.3655L25.423 18.5657C25.1578 19.2863 24.2207 19.2857 24.2207 19.2857H21.0442C20.825 19.2857 20.6472 19.4297 20.6472 19.6071C20.6472 19.7845 20.825 19.9285 21.0442 19.9285H21.7804ZM10.2076 17.6786L7.55674 25.9553C7.54801 25.981 7.54405 26.0087 7.54405 26.0357C7.54405 26.568 8.0777 27 8.73524 27C9.1728 27 9.54208 26.829 9.76284 26.5236C9.76284 26.5236 11.6894 23.994 13.5 21.618L17.2372 26.5236C17.4579 26.829 17.8272 27 18.2648 27C18.9223 27 19.456 26.568 19.456 26.0357C19.456 26.0087 19.452 25.981 19.4433 25.9553L16.7925 17.6786H21.4413C21.6605 17.6786 21.8384 17.5346 21.8384 17.3571V16.3928C21.8384 16.2154 21.6605 16.0714 21.4413 16.0714H5.55873C5.33955 16.0714 5.16166 16.2154 5.16166 16.3928V17.3571C5.16166 17.5346 5.33955 17.6786 5.55873 17.6786H10.2076ZM10.8714 18.1671C10.2044 20.2487 8.34055 26.0698 8.34055 26.071C8.36199 26.2318 8.53115 26.3571 8.73524 26.3571C8.88215 26.3571 9.00605 26.2993 9.07911 26.1958L13.0338 21.0053L10.8714 18.1671ZM16.1286 18.1671L13.9662 21.0053L17.9209 26.1958C17.994 26.2993 18.1179 26.3571 18.2648 26.3571C18.4697 26.3571 18.638 26.2318 18.6595 26.0698L16.1286 18.1671ZM11.4321 17.6786L13.5 20.3933L15.5679 17.6786H11.4321ZM5.95579 17.0357V16.7143H21.0442V17.0357H5.95579ZM16.2795 5.78571H15.0883C14.8691 5.78571 14.6912 5.92971 14.6912 6.10714V8.67856C14.6912 8.85599 14.8691 8.99999 15.0883 8.99999H18.2648C18.484 8.99999 18.6618 8.85599 18.6618 8.67856V6.10714C18.6618 5.92971 18.484 5.78571 18.2648 5.78571H17.0736V1.28571C17.0736 1.10828 16.8957 0.964285 16.6765 0.964285C16.4573 0.964285 16.2795 1.10828 16.2795 1.28571V5.78571ZM15.4853 6.42856H17.8677V8.35713H15.4853V6.42856ZM8.73524 4.82142H7.54405C7.32487 4.82142 7.14698 4.96542 7.14698 5.14285V7.71428C7.14698 7.89171 7.32487 8.03571 7.54405 8.03571H10.7206C10.9397 8.03571 11.1176 7.89171 11.1176 7.71428V5.14285C11.1176 4.96542 10.9397 4.82142 10.7206 4.82142H9.52937V0.321428C9.52937 0.144 9.35148 0 9.1323 0C8.91312 0 8.73524 0.144 8.73524 0.321428V4.82142ZM7.94111 5.46428H10.3235V7.39285H7.94111V5.46428Z" fill="black"/>
</svg>
