<svg width="27" height="28" viewBox="0 0 27 28" fill="none" xmlns="http://www.w3.org/2000/svg">
<path d="M25.0286 11.0007L25.0156 11.0177C24.8771 11.2025 24.4854 11.7153 24.2724 11.7384C24.2003 11.7457 24.1352 11.725 24.0807 11.6752C24.0204 11.6205 23.9802 11.5354 23.9825 11.4516C23.9825 11.4175 23.9896 11.3762 24.0074 11.3459C24.1115 11.1599 24.7493 10.4891 24.9174 10.3336C25.0026 10.2546 25.186 10.0698 25.3055 10.0808C25.3682 10.0869 25.4333 10.1148 25.483 10.1537C25.657 10.2862 25.8025 10.4721 25.9599 10.6252C26.1564 10.8172 26.3812 10.9728 26.5492 11.1964C26.6143 11.2814 26.6889 11.3969 26.6688 11.5111C26.6569 11.584 26.6013 11.6448 26.541 11.6825C26.4877 11.7153 26.4214 11.7213 26.3623 11.7043C26.1339 11.6399 25.7434 11.1696 25.5647 10.991C25.5327 11.6922 25.5564 12.4079 25.5659 13.1091C25.5209 13.1845 25.4712 13.2343 25.4073 13.2926L25.1931 13.2574C25.141 13.2088 25.0961 13.1711 25.0665 13.1055C24.986 12.7701 25.0298 12.2354 25.031 11.8793C25.0286 11.5864 25.0227 11.2936 25.0286 11.0007ZM25.031 11.8793C25.0298 12.2354 24.986 12.7701 25.0665 13.1055C25.1339 12.9584 25.0949 11.386 25.0831 11.121C25.044 11.4613 25.0641 11.8149 25.0511 12.1576C25.0511 12.0628 25.0558 11.9705 25.031 11.8793Z" fill="black"/>
<path d="M25.6844 18.6782C25.6134 18.6576 25.5495 18.6381 25.488 18.5944C25.3531 18.4959 25.2359 18.3623 25.1152 18.2468C24.8927 18.0366 24.6714 17.8251 24.4513 17.6124C24.346 17.5091 24.2359 17.3706 24.2359 17.2114C24.2371 17.1348 24.2608 17.0546 24.3152 17.0012C24.3531 16.9647 24.4004 16.9465 24.4513 16.9489C24.7389 16.9586 25.1874 17.5505 25.372 17.7631C25.3826 17.2977 25.3838 16.8322 25.3767 16.3668C25.372 16.0873 25.3341 15.8017 25.3696 15.5234C25.385 15.4007 25.4087 15.3387 25.5057 15.2634C25.5152 15.2597 25.5246 15.2573 25.5353 15.2549C25.6631 15.2208 25.759 15.2816 25.8631 15.3472C25.9589 15.6996 25.9104 16.1201 25.9092 16.4871L25.9104 17.7279C25.9909 17.6331 26.0844 17.5529 26.166 17.4605C26.2927 17.3171 26.4015 17.147 26.5542 17.0304C26.6169 16.9817 26.7021 16.9611 26.779 16.9769C26.8559 16.9939 26.9317 17.051 26.9707 17.1203C26.979 17.1337 26.9849 17.1482 26.9896 17.164C26.9944 17.1786 26.9979 17.1944 26.9991 17.2102C27.0003 17.226 27.0003 17.2418 26.9991 17.2588C26.9967 17.2746 26.9932 17.2892 26.9885 17.305C26.9044 17.5578 26.056 18.4206 25.8441 18.5895C25.7968 18.6272 25.74 18.6527 25.6844 18.6782Z" fill="black"/>
<path d="M0.0200639 0.399002C0.0188803 0.380773 0.0188804 0.36376 0.0188804 0.34553C0.0224306 0.256816 0.0413646 0.174181 0.107634 0.113419C0.288692 -0.0554996 0.879205 0.0125539 1.11587 0.0186297C1.35964 0.0429345 1.60933 0.0319972 1.8543 0.0319972L2.99743 0.030782L6.78788 0.0332126L18.1068 0.0283516C18.9364 0.0186297 19.7659 0.0137688 20.5967 0.014984C21.0203 0.014984 22.1753 -0.031196 22.5173 0.104911L22.6108 0.22765C22.6404 0.908186 22.6131 1.6021 22.612 2.28506L22.6108 6.12655L22.606 18.5803L22.6096 25.1937L22.6108 26.9266C22.612 27.1806 22.6427 27.4832 22.6013 27.7323C22.5824 27.7906 22.5658 27.8405 22.5327 27.8903C22.5208 27.9061 22.5066 27.928 22.4912 27.9401C22.4096 28.0009 22.2853 27.9863 22.1907 27.9851C20.5114 27.9644 18.8286 27.9875 17.1481 27.9875L6.72955 27.9863L2.54527 27.9826C1.75831 27.9826 0.983228 28.041 0.19863 27.9438C0.169046 27.9231 0.135911 27.9012 0.111061 27.8745C0.0542583 27.8137 0.0329583 27.7165 0.0211222 27.6351C-0.0155614 27.3738 0.0104719 27.0822 0.0116552 26.8172L0.00928827 25.4792L0.015205 19.9973V11.0326L0.0163887 8.27763C0.0152051 7.80127 -0.00964581 7.30908 0.0187553 6.83515C-0.0120118 6.49853 0.0116552 6.14245 0.0116552 5.80462L0.0128384 3.74964L0.00810489 1.59743C0.00692159 1.2037 -0.0154376 0.790306 0.0200639 0.399002ZM11.5865 4.77496C11.5877 4.86732 11.5901 4.95603 11.5735 5.04718C11.5699 5.34369 11.5912 5.64751 11.5723 5.94281C11.6173 7.6016 11.5972 9.26662 11.596 10.9267L11.5948 18.7285L11.5983 22.8422L11.5972 23.9906C11.5972 24.196 11.6114 24.4256 11.5794 24.6262C11.5404 24.8802 11.5652 25.1742 11.564 25.4331C11.5605 26.0845 11.5652 26.7358 11.5794 27.386C11.6824 27.4249 11.8587 27.4018 11.9735 27.4054C12.5095 27.3884 13.0492 27.4018 13.5852 27.4018L16.6135 27.4042L18.6383 27.4018C18.9921 27.4006 19.3566 27.3811 19.708 27.4066L19.714 11.9925L19.7151 7.4622C19.7128 6.5605 19.7151 5.65877 19.7222 4.75708L14.2623 4.75586C14.035 4.75708 13.8102 4.77166 13.583 4.77409C13.1617 4.78138 12.7392 4.77652 12.3168 4.77652C12.0754 4.77652 11.8269 4.79475 11.5866 4.77531L11.5865 4.77496ZM2.9241 4.77618C2.86848 4.91107 2.9241 6.75824 2.91108 7.08515C2.94895 9.25558 2.92291 11.4322 2.91936 13.6024L2.91463 16.8363C2.91463 17.4513 2.9241 18.0674 2.91108 18.6823C2.92291 19.3689 2.91226 20.0579 2.91108 20.7445L2.9099 24.6551L2.90516 26.5873C2.90398 26.8328 2.9312 27.1694 2.89806 27.404C3.49805 27.4113 4.10394 27.3833 4.70271 27.4076C5.0175 27.4076 5.33226 27.4222 5.64823 27.421L9.52956 27.4064C9.79464 27.4064 10.8372 27.3712 11.01 27.438C10.9958 27.3809 10.9887 27.3298 10.9875 27.2715C10.9756 26.992 10.9851 26.7101 10.9839 26.4306L10.9816 24.8009V19.8525L10.9827 17.8425C10.9827 17.5715 10.9508 17.1656 10.9969 16.9092C11.0242 16.6674 11.0052 16.4013 11.0052 16.157L11.0076 14.6829L11.0005 9.65423C10.9449 9.45129 10.9792 9.10252 10.9792 8.88254L10.9804 7.61262L10.9816 5.89792C10.9816 5.5698 10.9697 5.23562 10.9898 4.90871L11.0159 4.77625C10.7993 4.80785 10.3981 4.77625 10.1603 4.77503H4.61277L3.56785 4.77625C3.35485 4.77747 3.1371 4.78833 2.9241 4.77618ZM0.597569 0.62141C0.590468 1.65194 0.589285 2.68246 0.594018 3.71177L0.597569 10.0128L0.595202 27.4028C0.854362 27.3907 2.25195 27.4356 2.31702 27.398C2.33596 27.1464 2.32649 26.8888 2.32767 26.6372L2.33359 25.2616L2.3324 20.6411L2.33122 10.133C2.32057 8.2141 2.32412 6.29646 2.34069 4.37883C2.42826 4.25731 2.52885 4.18925 2.67441 4.16373C2.85074 4.13335 3.07203 4.14672 3.24716 4.17224C3.76193 4.14429 4.29208 4.16981 4.80921 4.17102L7.83157 4.17831L9.86224 4.18561C10.164 4.18561 10.5415 4.15644 10.835 4.18925C11.4728 4.17224 12.1142 4.18318 12.7532 4.18196L16.0986 4.17345L18.5518 4.16859C19.0027 4.16738 19.4606 4.15158 19.9103 4.17467C20.0003 4.17953 20.1411 4.1771 20.2109 4.24515C20.2464 4.28039 20.2642 4.33508 20.2772 4.38248C20.3233 4.58177 20.3032 4.82483 20.302 5.03019L20.3044 18.1463L20.2937 23.2066C20.2926 24.0998 20.3127 24.9979 20.289 25.8899C20.2973 26.1293 20.3198 27.2473 20.2772 27.4114C20.4121 27.3871 21.96 27.3956 22.0546 27.4211L22.0511 8.9043C22.0487 6.50296 22.0321 4.09808 22.0605 1.69793L22.0558 0.617566C21.9031 0.632149 21.7481 0.619997 21.5967 0.618781L20.9008 0.616351C20.1458 0.616351 19.3908 0.619996 18.6358 0.629718L10.3581 0.633364L3.59883 0.617566H1.48649C1.22496 0.617566 0.84253 0.64936 0.597569 0.62141ZM1.11587 0.0186297L1.11233 0.0660436C1.20463 0.0988555 3.75365 0.0757655 4.02818 0.0757655L17.0239 0.0721196L20.6735 0.0854874L21.7231 0.0830568C21.8959 0.0830568 22.0912 0.058752 22.2592 0.0854874L22.2296 0.119513C22.2651 0.142602 22.3089 0.143818 22.3503 0.148678C22.3965 0.15354 22.4272 0.162046 22.4592 0.200934C22.4947 0.245898 22.5065 0.3018 22.5101 0.357702C22.5278 0.708905 22.5136 1.06985 22.5136 1.42105L22.5101 3.54164L22.5113 9.54747L22.5172 22.8969L22.5125 26.4661L22.5113 27.346C22.5113 27.4651 22.5338 27.6121 22.516 27.7276C22.5054 27.7956 22.4284 27.8697 22.4438 27.9329C22.4687 27.9086 22.4947 27.8734 22.5278 27.8637L22.5327 27.8903C22.5658 27.8405 22.5824 27.7906 22.6013 27.7323C22.6427 27.4832 22.612 27.1806 22.6108 26.9266L22.6096 25.1937L22.606 18.5803L22.6108 6.12655L22.612 2.28506C22.6131 1.6021 22.6404 0.908186 22.6108 0.22765L22.5173 0.104911C22.1753 -0.031196 21.0203 0.014984 20.5967 0.014984C19.7659 0.0137688 18.9364 0.0186297 18.1068 0.0283516L6.78788 0.0332126L2.99743 0.030782L1.8543 0.0319972C1.60933 0.0319972 1.35964 0.0429345 1.11587 0.0186297ZM11.0159 4.77625L10.9898 4.90871C10.9697 5.23562 10.9816 5.5698 10.9816 5.89792L10.9804 7.61262L10.9792 8.88254C10.9792 9.10252 10.9449 9.45129 11.0005 9.65423L11.0076 14.6829L11.0052 16.157C11.0052 16.4013 11.0242 16.6674 10.9969 16.9092C10.9508 17.1656 10.9827 17.5715 10.9827 17.8425L10.9816 19.8525V24.8009L10.9839 26.4306C10.9851 26.7101 10.9756 26.992 10.9875 27.2715C10.9887 27.3298 10.9958 27.3809 11.01 27.438C11.0265 27.4416 11.0161 27.4405 11.0445 27.4356C11.0812 27.3056 11.0552 26.5388 11.0552 26.3468L11.0457 23.0012L11.0445 8.65411C11.0445 8.22149 11.0694 4.84062 11.0445 4.77871L11.0159 4.77625ZM22.0605 1.69793C22.0321 4.09808 22.0487 6.50296 22.0511 8.9043L22.0546 27.4211L22.089 27.4274C22.0985 27.4116 22.102 27.4079 22.1056 27.3885C22.134 27.2657 22.1068 27.0944 22.1056 26.9644V26.0152L22.102 21.5637L22.0795 1.89613C22.0795 1.8378 22.0913 1.74532 22.0605 1.69793ZM4.70271 27.4076C4.10394 27.3833 3.49805 27.4113 2.89806 27.404C2.9312 27.1694 2.90398 26.8328 2.90516 26.5873L2.9099 24.6551L2.91108 20.7445C2.91226 20.0579 2.92291 19.3689 2.91108 18.6823C2.86256 18.8986 2.891 19.2319 2.88864 19.464C2.87799 18.5392 2.87325 17.6132 2.87562 16.6884C2.87562 16.2752 2.89219 15.8547 2.87207 15.4427C2.8342 16.3432 2.85787 17.2547 2.85195 18.1564L2.83894 24.0564L2.81882 26.3229C2.81763 26.6036 2.77858 27.1407 2.85195 27.3959C2.89455 27.4178 2.93834 27.4227 2.98449 27.4251C3.19277 27.4397 4.5868 27.447 4.68147 27.4154C4.68857 27.4129 4.69567 27.4105 4.70277 27.4081L4.70271 27.4076ZM11.5251 7.63583C11.505 7.94571 11.5215 8.26289 11.5227 8.57277L11.5215 10.1939L11.5192 15.8423L11.5203 18.9667L11.5227 19.8684C11.5239 20.0081 11.5121 20.1685 11.5357 20.3046C11.5771 19.3373 11.5582 18.3639 11.5582 17.3953L11.557 12.7179V9.61294L11.5558 8.66505C11.5558 8.5022 11.5665 8.33086 11.5523 8.17046C11.5168 7.99789 11.5665 7.80718 11.5251 7.63583ZM11.9735 27.4054C12.0445 27.4577 12.2647 27.4516 12.3594 27.454C12.9522 27.4686 13.5475 27.454 14.1415 27.4553H17.6669L19.0136 27.454C19.1946 27.454 19.4219 27.4832 19.597 27.4516C19.6349 27.4455 19.6737 27.4237 19.708 27.4066C19.3566 27.3811 18.9921 27.4006 18.6383 27.4018L16.6135 27.4042L13.5852 27.4018C13.0492 27.4018 12.5095 27.3884 11.9735 27.4054ZM3.24716 4.17224C3.24243 4.17588 3.23778 4.18084 3.23186 4.18448C3.11708 4.25254 2.69105 4.15653 2.62834 4.21365C2.66857 4.25254 2.99399 4.23066 3.07209 4.22823C4.12055 4.21729 5.16905 4.21608 6.21757 4.22458C7.70864 4.21122 9.1997 4.20636 10.6909 4.21243C10.7346 4.21243 10.8042 4.22085 10.835 4.18925C10.5415 4.15644 10.164 4.18561 9.86224 4.18561L7.83157 4.17831L4.80921 4.17102C4.29208 4.16981 3.76193 4.14429 3.24716 4.17224ZM0.0190643 6.83493C0.0427319 6.69396 0.0308982 6.53355 0.0297149 6.39136C0.0297149 6.10213 0.0261646 5.81411 0.0297149 5.52488L0.046282 2.76263C0.0557491 2.13072 0.117286 1.49635 0.0805998 0.863199C0.072316 0.707648 0.036632 0.553343 0.0200639 0.399002C-0.0154382 0.790306 0.00722971 1.20345 0.00841302 1.59721L0.0131465 3.74942L0.0119632 5.8044C0.0119632 6.14223 -0.0117034 6.49831 0.0190643 6.83493ZM20.2772 4.38248C20.2724 4.41772 20.2678 4.44941 20.269 4.48465C20.2655 4.44941 20.2726 4.43604 20.2465 4.41052L20.2276 4.42753C20.2122 4.77631 20.2264 5.12751 20.2288 5.47629L20.2323 7.13509V12.2524C20.2323 12.3034 20.2252 12.3679 20.2501 12.414C20.2868 12.2633 20.2596 11.9875 20.2584 11.8234V10.6021L20.2619 5.10805C20.2619 5.07402 20.256 4.96587 20.282 4.94764L20.302 5.03019C20.3032 4.82483 20.3233 4.58177 20.2772 4.38248ZM11.5794 27.386C11.5652 26.7358 11.5605 26.0845 11.564 25.4331C11.5652 25.1742 11.5404 24.8802 11.5794 24.6262C11.5759 24.6213 11.5724 24.615 11.57 24.6102C11.5522 24.5615 11.5369 22.8833 11.5345 22.6597C11.5073 23.2102 11.5309 23.768 11.5203 24.3197C11.5061 25.0683 11.5025 25.8071 11.5132 26.5558C11.5167 26.8122 11.5037 27.071 11.5203 27.3262C11.5392 27.3457 11.5617 27.3653 11.5794 27.386ZM0.545583 0.626015C0.488781 0.849619 0.515999 1.21418 0.515999 1.45482L0.520732 3.08325L0.519549 4.87088C0.519549 5.20021 0.507715 5.5344 0.526649 5.86373C0.532566 5.60853 0.498248 5.2792 0.538483 5.03738C0.538483 5.31567 0.523099 5.60489 0.545583 5.88196C0.583451 5.70696 0.562151 5.49672 0.562151 5.31687L0.564517 4.3155L0.562151 2.05758C0.562151 1.6286 0.572801 1.1972 0.563334 0.76822C0.562151 0.718393 0.564517 0.672195 0.545583 0.626015ZM2.91108 7.08515C2.9241 6.75824 2.86848 4.91107 2.9241 4.77618L2.87921 4.7883C2.75495 5.02163 2.83779 6.1275 2.84489 6.45805C2.85199 6.73512 2.84963 7.01343 2.85436 7.29171C2.85791 7.47156 2.8875 7.69275 2.85673 7.86774L2.88986 7.88597L2.87329 7.88476C2.87684 7.46306 2.87448 7.03893 2.88631 6.61726C2.90406 6.7716 2.87558 6.93445 2.91108 7.08515ZM11.5251 7.63583C11.5665 7.80718 11.5168 7.99789 11.5523 8.17046C11.5582 7.61508 11.5381 7.06203 11.5464 6.50665C11.55 6.32436 11.5356 6.12023 11.5723 5.94281C11.5912 5.64751 11.5699 5.34369 11.5735 5.04718C11.5617 4.96576 11.5618 4.88552 11.5358 4.80775C11.4648 4.9633 11.5132 7.28341 11.5251 7.63583ZM20.2775 27.4111C20.3201 27.2471 20.2976 26.129 20.2893 25.8896C20.2396 25.9796 20.2775 26.6978 20.268 26.857C20.2408 25.5701 20.268 24.2831 20.2526 22.9962C20.2266 23.8432 20.242 24.6939 20.2373 25.5409C20.2361 25.8387 20.1947 27.207 20.2491 27.382L20.2775 27.4111Z" fill="black"/>
<path d="M9.07306 1.39689C9.16418 1.35436 9.25767 1.35071 9.35589 1.34464C9.97599 1.30939 10.6055 1.34221 11.2268 1.34342C11.5889 1.34464 13.2989 1.29603 13.5202 1.37623C13.6078 1.40661 13.661 1.46616 13.7214 1.53421C13.7202 1.83073 13.7214 2.12724 13.7237 2.42378C13.7249 2.62672 13.7391 2.84184 13.7084 3.04234C13.6965 3.1104 13.6776 3.16508 13.6303 3.21612C13.603 3.24529 13.5711 3.26959 13.5403 3.2939C13.2764 3.33764 12.9971 3.32063 12.7297 3.32185H10.144C9.85526 3.32306 9.56059 3.33643 9.27303 3.30848C9.16416 3.29754 9.08606 3.27688 8.99494 3.21369C8.84228 2.8394 8.8695 2.11146 8.93577 1.70923C8.9405 1.6509 8.92749 1.57677 8.94524 1.52209C8.96772 1.45282 9.01507 1.4297 9.07306 1.39689ZM9.72155 1.95955C9.64699 1.96927 9.57362 1.97778 9.49789 1.97778C9.49434 2.22933 9.50262 2.48089 9.49907 2.73367C9.85055 2.69964 10.2257 2.73245 10.5795 2.73245C11.3712 2.73245 12.1652 2.73488 12.9569 2.72273C13.0125 2.72151 13.0682 2.73002 13.1143 2.69356C13.164 2.48576 13.1392 2.19773 13.1285 1.98021C12.8551 1.98993 12.5771 1.95712 12.3013 1.95347C11.7274 1.94496 11.1522 1.95225 10.5771 1.95225C10.2967 1.95104 10.002 1.9316 9.72155 1.95955ZM8.93577 1.70923C8.94287 1.78579 8.97482 1.9 8.96535 1.97292C8.96417 1.98021 8.96062 1.98507 8.95825 1.99115L8.976 2.00087L8.97482 2.00938L9.00559 1.96563L8.97718 1.99601C8.99139 1.85261 8.99375 1.69706 9.0186 1.55608C9.02689 1.50626 9.05884 1.47101 9.10026 1.44671C9.10381 1.44428 9.10854 1.44185 9.11209 1.43942L9.07306 1.39689C9.01507 1.4297 8.96772 1.45282 8.94524 1.52209C8.92749 1.57677 8.9405 1.6509 8.93577 1.70923Z" fill="black"/>
<path d="M25.0308 11.8789C25.0556 11.9701 25.0509 12.0624 25.0509 12.1572C25.0639 11.8145 25.0438 11.4609 25.0828 11.1206C25.0947 11.3855 25.1337 12.958 25.0663 13.1051C24.9858 12.7697 25.0296 12.235 25.0308 11.8789Z" fill="black"/>
<path d="M20.2771 27.4111L20.2487 27.3819C20.1943 27.2069 20.2357 25.8386 20.2369 25.5408C20.2416 24.6938 20.2262 23.8431 20.2523 22.9961C20.2677 24.283 20.2404 25.57 20.2677 26.8569C20.2771 26.6977 20.2393 25.9795 20.289 25.8895C20.2972 26.1289 20.3197 27.247 20.2771 27.4111Z" fill="black"/>
<path d="M11.525 7.63547C11.5132 7.28306 11.4646 4.96317 11.5356 4.80762C11.5617 4.88539 11.5617 4.9656 11.5735 5.04702C11.57 5.34354 11.5913 5.64735 11.5723 5.94265C11.5356 6.12008 11.5498 6.32425 11.5463 6.50652C11.538 7.0619 11.5581 7.61482 11.5522 8.1702C11.5167 7.99764 11.5664 7.80683 11.525 7.63547Z" fill="black"/>
<path d="M2.91091 7.08486C2.87541 6.93417 2.90381 6.77133 2.88606 6.617C2.87423 7.0387 2.87659 7.46282 2.87304 7.88449L2.88961 7.8857L2.85647 7.86748C2.88724 7.69248 2.85766 7.47132 2.85411 7.29144C2.84937 7.01315 2.85174 6.73485 2.84464 6.45778C2.83754 6.12723 2.7547 5.02136 2.87896 4.78803L2.92393 4.77588C2.86831 4.91077 2.92393 6.75796 2.91091 7.08486Z" fill="black"/>
<path d="M0.545624 0.625754C0.564558 0.671934 0.562191 0.718114 0.563375 0.767937C0.572842 1.19692 0.562191 1.62832 0.562191 2.0573L0.564558 4.31522L0.562191 5.31659C0.562191 5.49645 0.583492 5.70668 0.545624 5.88168C0.52314 5.6046 0.538524 5.31538 0.538524 5.0371C0.49829 5.27893 0.532607 5.60825 0.52669 5.86345C0.507756 5.53411 0.51959 5.19993 0.51959 4.8706L0.520773 3.08297L0.516039 1.45454C0.516039 1.21392 0.488822 0.849374 0.545624 0.625754Z" fill="black"/>
<path d="M11.5793 27.3855C11.5615 27.3648 11.5391 27.3454 11.5201 27.326C11.5036 27.0708 11.5166 26.8119 11.513 26.5555C11.5024 25.8069 11.5059 25.068 11.5201 24.3194C11.5308 23.7677 11.5071 23.2099 11.5343 22.6594C11.5367 22.883 11.5521 24.5613 11.5698 24.6099C11.5722 24.6147 11.5757 24.6208 11.5793 24.6257C11.5402 24.8797 11.5651 25.1737 11.5639 25.4326C11.5604 26.084 11.5651 26.7354 11.5793 27.3855Z" fill="black"/>
<path d="M20.2772 4.38208C20.3234 4.58138 20.3033 4.82444 20.3021 5.02979L20.282 4.94716C20.2559 4.96539 20.2618 5.07354 20.2618 5.10757L20.2583 10.6016V11.823C20.2595 11.987 20.2867 12.2629 20.25 12.4136C20.2252 12.3674 20.2323 12.303 20.2323 12.2519V7.13461L20.2287 5.47581C20.2263 5.12704 20.2121 4.77583 20.2275 4.42706L20.2465 4.41004C20.2725 4.43556 20.2654 4.44893 20.2689 4.48417C20.2678 4.44893 20.2725 4.41732 20.2772 4.38208Z" fill="black"/>
<path d="M0.0189993 6.83464C-0.0117678 6.49802 0.0118992 6.14194 0.0118992 5.80411L0.0130826 3.74913L0.00834903 1.59692C0.00716573 1.20319 -0.0153186 0.789986 0.020183 0.398682C0.0367501 0.553016 0.0722502 0.707354 0.0805358 0.862908C0.117219 1.49606 0.0556848 2.1304 0.0462181 2.76234L0.0296509 5.52459C0.0261007 5.81381 0.0296509 6.10184 0.0296509 6.39107C0.0308342 6.53325 0.0426669 6.69366 0.0189993 6.83464Z" fill="black"/>
<path d="M3.24726 4.17135C3.76203 4.14367 4.29218 4.16895 4.80931 4.17015L7.83167 4.17737L9.86234 4.18459C10.1641 4.18459 10.5416 4.15571 10.8351 4.1882C10.8043 4.21949 10.7333 4.21106 10.6907 4.21106C9.19963 4.20505 7.70857 4.20986 6.21741 4.2231C5.16895 4.21467 4.12045 4.21588 3.07193 4.22671C2.99264 4.22912 2.6684 4.25078 2.62817 4.21227C2.69089 4.15571 3.11692 4.25078 3.2317 4.18339C3.23762 4.17978 3.24253 4.17496 3.24726 4.17135Z" fill="black"/>
<path d="M11.9732 27.4046C12.5093 27.3877 13.0489 27.401 13.585 27.401L16.6133 27.4034L18.638 27.401C18.9919 27.3998 19.3563 27.3805 19.7078 27.4058C19.6735 27.4226 19.6344 27.4443 19.5965 27.4503C19.4214 27.4816 19.1942 27.4527 19.0131 27.4527L17.6665 27.4539H14.1411C13.547 27.4527 12.9518 27.4672 12.3589 27.4527C12.2642 27.4503 12.0442 27.4563 11.9732 27.4046Z" fill="black"/>
<path d="M11.5251 7.63525C11.5665 7.8066 11.5168 7.99741 11.5523 8.16998C11.5665 8.33039 11.5558 8.50174 11.5558 8.66457L11.557 9.61246V12.7174L11.5582 17.3948C11.5582 18.3634 11.5771 19.3368 11.5357 20.3041C11.5121 20.168 11.5239 20.0076 11.5227 19.8679L11.5203 18.9662L11.5192 15.8418L11.5215 10.1934L11.5227 8.57229C11.5215 8.26241 11.5038 7.94514 11.5251 7.63525Z" fill="black"/>
<path d="M4.70276 27.4075C4.69566 27.4099 4.68856 27.4123 4.68146 27.4148C4.58679 27.4464 3.19275 27.4391 2.98448 27.4245C2.93833 27.4221 2.89454 27.4172 2.85194 27.3953C2.77857 27.1401 2.81762 26.603 2.8188 26.3223L2.83892 24.0558L2.85194 18.1558C2.85786 17.2541 2.83419 16.3427 2.87206 15.4421C2.89217 15.8541 2.87561 16.2746 2.87561 16.6878C2.87324 17.6126 2.87797 18.5386 2.88862 19.4634C2.89099 19.2313 2.86259 18.8983 2.91111 18.682C2.92294 19.3686 2.91229 20.0576 2.91111 20.7443L2.90992 24.6548L2.90519 26.587C2.90401 26.8325 2.93123 27.1691 2.89809 27.4037C3.49807 27.411 4.10399 27.3832 4.70276 27.4075Z" fill="black"/>
<path d="M22.0605 1.69775C22.0912 1.74515 22.0794 1.83751 22.0794 1.89584L22.1019 21.5634L22.1054 26.015V26.9641C22.1066 27.0941 22.1338 27.2654 22.1054 27.3882C22.1019 27.4076 22.0972 27.4113 22.0889 27.4271L22.0546 27.421L22.0498 8.90421C22.0486 6.50288 22.0321 4.09791 22.0605 1.69775Z" fill="black"/>
<path d="M11.0161 4.77588L11.0446 4.77831C11.0694 4.84029 11.0446 8.22097 11.0446 8.65371L11.0457 23.0008L11.0552 26.3464C11.0552 26.5384 11.0812 27.3052 11.0446 27.4352C11.0161 27.4401 11.0268 27.4413 11.0102 27.4377C10.996 27.3806 10.9889 27.3295 10.9877 27.2712C10.9759 26.9917 10.9854 26.7097 10.9842 26.4303L10.9818 24.8006V19.8522L10.983 17.8422C10.983 17.5712 10.9511 17.1653 10.9972 16.9089C11.0244 16.6671 11.0055 16.4009 11.0055 16.1567L11.0079 14.6826L11.0008 9.65392C10.9451 9.45097 10.9795 9.10221 10.9795 8.88223L10.9806 7.61231L10.9818 5.89761C10.9818 5.56949 10.97 5.2353 10.9901 4.9084L11.0161 4.77588Z" fill="black"/>
<path d="M10.9899 4.90845C11.0195 4.95827 11.0206 5.00688 11.023 5.06278C11.0419 5.49297 11.0514 9.52772 11.0135 9.62976C11.01 9.63827 11.0053 9.64556 11.0005 9.65406C10.9449 9.45112 10.9792 9.10236 10.9792 8.88238L10.9804 7.61246L10.9816 5.89776C10.9816 5.56964 10.9698 5.23535 10.9899 4.90845Z" fill="black"/>
<path d="M10.9974 16.9089C11.0648 17.1338 11.0211 18.569 11.0234 18.9141C11.0388 21.6958 11.0353 24.4763 11.0128 27.2578L10.9998 27.2773L10.9879 27.2712C10.9761 26.9917 10.9856 26.7098 10.9844 26.4303L10.982 24.8006V19.8522L10.9832 17.8422C10.9832 17.5712 10.9512 17.1654 10.9974 16.9089Z" fill="black"/>
<path d="M1.11575 0.018517C1.35953 0.0428218 1.60922 0.0318845 1.85418 0.0318845L2.99731 0.0306693L6.78776 0.0330999L18.1067 0.0282389C18.9363 0.018517 19.7658 0.0136561 20.5966 0.0148713C21.0202 0.0148713 22.1752 -0.0313088 22.5172 0.104798L22.6107 0.227537C22.6402 0.908073 22.613 1.60199 22.6118 2.28495L22.6107 6.12644L22.6059 18.5802L22.6095 25.1936L22.6107 26.9265C22.6118 27.1805 22.6426 27.4831 22.6012 27.7322C22.5823 27.7905 22.5657 27.8404 22.5325 27.8902L22.5278 27.8634C22.4947 27.8732 22.4686 27.9084 22.4438 27.9327C22.4284 27.8695 22.5053 27.7954 22.516 27.7273C22.5337 27.6119 22.5112 27.4648 22.5112 27.3457V26.4659L22.5172 22.8966L22.5112 9.54724L22.5101 3.54142L22.5136 1.42082C22.5136 1.06962 22.5278 0.708679 22.5101 0.357476C22.5065 0.301574 22.4947 0.245672 22.4592 0.200709C22.4272 0.161821 22.3965 0.153315 22.3503 0.148453C22.3089 0.143592 22.2651 0.142377 22.2296 0.119287L22.2592 0.0852617C22.0911 0.0585262 21.8959 0.0828311 21.7231 0.0828311L20.6735 0.0852617L17.0239 0.071894L4.02815 0.0755398C3.75361 0.0755398 1.20461 0.0986291 1.1123 0.0658178L1.11575 0.018517ZM22.5172 0.104798C22.4923 0.203234 22.5481 0.350276 22.5552 0.456001C22.5729 0.702696 22.5599 0.957902 22.5587 1.20582L22.5516 8.80106L22.5623 22.385L22.5516 26.094L22.5481 27.0127C22.5481 27.1889 22.5268 27.4016 22.5647 27.5741L22.5741 27.6057L22.58 27.5875C22.6096 27.6288 22.6012 27.6836 22.6012 27.7322C22.6426 27.4831 22.6118 27.1805 22.6107 26.9265L22.6095 25.1936L22.6059 18.5802L22.6107 6.12644L22.6118 2.28495C22.613 1.60199 22.6402 0.908073 22.6107 0.227537L22.5172 0.104798Z" fill="black"/>
<path d="M22.5176 0.104492L22.6111 0.227231C22.6407 0.907767 22.6134 1.60168 22.6123 2.28464L22.6111 6.12613L22.6063 18.5799L22.6099 25.1933L22.6111 26.9262C22.6123 27.1802 22.643 27.4828 22.6016 27.7319C22.6016 27.6833 22.6099 27.6286 22.5803 27.5873L22.5744 27.6055L22.5649 27.5739C22.527 27.4013 22.5483 27.1887 22.5483 27.0125L22.5519 26.0937L22.5625 22.3848L22.5519 8.80083L22.559 1.20558C22.5602 0.957672 22.5732 0.702469 22.5554 0.455765C22.5483 0.35004 22.4927 0.202925 22.5176 0.104492ZM22.5649 27.5739L22.5744 27.6055L22.5803 27.5873C22.5554 27.3795 22.5767 27.1498 22.5803 26.9407C22.5862 26.5762 22.5898 26.2165 22.5732 25.8531L22.5779 25.8786L22.5732 25.8713C22.5554 26.4218 22.6028 27.0185 22.5661 27.5544L22.5649 27.5739Z" fill="black"/>
<path d="M22.5647 27.5738L22.5659 27.5544C22.6026 27.0184 22.5552 26.4218 22.573 25.8713L22.5777 25.8785L22.573 25.853C22.5895 26.2164 22.586 26.5761 22.5801 26.9407C22.5765 27.1497 22.5552 27.3794 22.5801 27.5872L22.5742 27.6054L22.5647 27.5738Z" fill="black"/>
</svg>
