<svg width="27" height="24" viewBox="0 0 27 24" fill="none" xmlns="http://www.w3.org/2000/svg">
<path d="M9.39921 22.3722C6.93135 22.6245 4.47764 21.7694 2.67532 20.0307C0.871898 18.2907 -0.100716 15.8381 0.00826857 13.3088C0.117247 10.7796 1.29845 8.42373 3.24362 6.85232C2.81122 5.84659 2.56982 4.76436 2.53349 3.66664C2.53349 0.0851131 4.96152 -0.000911579 8.05983 6.83894e-06H9.3301C12.2878 0.00718213 14.5634 0.197322 14.5634 3.66664C14.527 4.76442 14.2868 5.84668 13.8544 6.85232C15.7809 8.40573 16.9575 10.7317 17.0828 13.2335L19.5823 10.6839L17.5106 8.56967C17.3418 8.39747 17.2469 8.16309 17.2481 7.91912C17.2469 7.67636 17.3406 7.44198 17.5094 7.27097L18.7351 6.01892C19.0867 5.66135 19.6562 5.66135 20.0077 6.01892L20.3651 6.38604L21.3881 5.34204H21.3893C21.7408 4.98447 22.3103 4.98447 22.6619 5.34204L23.74 6.44102L24.2802 5.88973C24.4513 5.71274 24.6857 5.61349 24.9294 5.61468C25.172 5.61348 25.4051 5.71154 25.5774 5.88614L26.1997 6.52113C26.5571 6.88706 26.5571 7.47782 26.1997 7.84375L25.6594 8.39504L26.7363 9.49524C27.0879 9.85401 27.0879 10.4352 26.7363 10.7939L25.7133 11.8367L26.0731 12.2038H26.0742C26.4246 12.5626 26.4246 13.1438 26.0742 13.5025L24.845 14.7558C24.4934 15.1134 23.9239 15.1134 23.5724 14.7558L21.5006 12.6416L15.8666 18.3899L17.9395 20.5042C18.2899 20.863 18.2899 21.4441 17.9395 21.8029L16.7138 23.0549C16.3611 23.4125 15.7928 23.4125 15.4412 23.0549L15.0838 22.6878L14.0608 23.7318H14.0596C13.7081 24.0894 13.1386 24.0894 12.787 23.7318L11.709 22.6328L11.3305 23.0191C10.9719 23.385 10.3918 23.385 10.0344 23.0191L9.39921 22.3722ZM20.091 11.2018L14.457 16.9514L15.3593 17.8722L20.9933 12.1226L20.091 11.2018ZM21.7538 11.8631L24.0811 14.2369H24.0799C24.1514 14.3086 24.2662 14.3086 24.3377 14.2369L25.5634 12.9848C25.6325 12.9131 25.6325 12.7971 25.5634 12.7241L19.5016 6.53796C19.4676 6.50328 19.4219 6.48415 19.3739 6.48415C19.3258 6.48415 19.2789 6.50328 19.245 6.53796L18.0181 7.78881H18.0193C17.9841 7.82349 17.9653 7.87013 17.9653 7.91916H17.9665C17.9665 7.96819 17.9853 8.01603 18.0193 8.05071L21.7538 11.8631ZM25.2037 11.3214L26.2267 10.2774C26.2958 10.2044 26.2958 10.0884 26.2267 10.0155L22.1559 5.85995C22.0844 5.7882 21.9707 5.7882 21.8992 5.85995L20.8762 6.90394L25.2037 11.3214ZM24.2486 6.95889L25.1509 7.87969L25.6912 7.3284C25.7661 7.24828 25.7661 7.12152 25.6912 7.04139L25.0701 6.40759C25.0326 6.36932 24.981 6.3478 24.9283 6.3478V6.349C24.8767 6.349 24.8264 6.37052 24.7889 6.40759L24.2486 6.95889ZM13.9495 16.4324L16.3752 13.957L16.3787 13.6915H16.3775C16.3775 11.5377 15.5256 9.47502 14.0128 7.97034C12.5011 6.46714 10.4586 5.65039 8.34815 5.7054C6.23775 5.76042 4.23865 6.68242 2.80441 8.26335C1.37012 9.84309 0.621324 11.9477 0.729109 14.1002C0.836915 16.2515 1.79079 18.2677 3.37625 19.6909C4.96053 21.114 7.04177 21.8243 9.14618 21.6593C9.16141 21.4345 9.25633 21.2216 9.41335 21.0626L9.79184 20.6763L8.71495 19.5761C8.3634 19.2173 8.3634 18.6362 8.71495 18.2774L9.73797 17.2334L9.37822 16.8675C9.02667 16.5087 9.02667 15.9275 9.37822 15.5688L10.6051 14.3191H10.6039C10.7727 14.1469 11.0012 14.0512 11.2402 14.0512C11.4793 14.0512 11.709 14.1469 11.8777 14.3203L13.1081 15.576H13.107C13.428 14.7724 13.537 13.8982 13.4245 13.0396C13.4034 12.8422 13.5405 12.664 13.7339 12.6377C13.9272 12.6114 14.1042 12.7478 14.1346 12.9439C14.2764 14.0321 14.1077 15.1383 13.6518 16.1308L13.9495 16.4324ZM10.2981 21.1944L9.9196 21.5806H9.92077C9.84343 21.6607 9.84343 21.7887 9.92077 21.8676L10.5418 22.5014C10.6192 22.5803 10.7446 22.5803 10.8219 22.5014L11.2004 22.1152L10.2981 21.1944ZM13.5499 23.2154L14.573 22.1714L10.2454 17.7526L9.22234 18.7929V18.7941C9.15203 18.8671 9.15203 18.9831 9.22234 19.056L13.2943 23.214C13.3658 23.2858 13.4795 23.2858 13.551 23.214L13.5499 23.2154ZM11.1126 14.8373L9.88684 16.0881V16.0869C9.8177 16.1599 9.8177 16.2771 9.88684 16.35L15.9463 22.5349C16.0177 22.6067 16.1314 22.6067 16.2029 22.5349L17.4298 21.2841V21.2853C17.4989 21.2123 17.4989 21.0951 17.4298 21.0222L11.3692 14.8373C11.3352 14.8026 11.2883 14.7834 11.2403 14.7834V14.7822C11.1922 14.7822 11.1465 14.8014 11.1126 14.8373ZM3.6306 13.6916C3.6306 13.8949 3.46889 14.0599 3.26969 14.0599C3.07165 14.0599 2.90994 13.8949 2.90994 13.6916C2.90994 11.7783 3.84389 9.9904 5.40007 8.92259C5.56412 8.82692 5.77154 8.87595 5.87699 9.03619C5.98245 9.19524 5.94964 9.4117 5.80199 9.53009C4.44386 10.4629 3.6306 12.0234 3.63177 13.6942L3.6306 13.6916ZM7.62881 8.76003C7.5339 8.78036 7.43546 8.76122 7.35461 8.70741C7.27375 8.6524 7.21868 8.5663 7.2011 8.46944C7.18235 8.37257 7.20462 8.27212 7.25969 8.192C7.31594 8.11068 7.40148 8.05687 7.4964 8.04132C7.84324 7.97555 8.19596 7.94206 8.54869 7.93967C8.7479 7.93967 8.90843 8.1047 8.90843 8.30799C8.90843 8.51009 8.74789 8.67511 8.54869 8.67511C8.24051 8.67391 7.93231 8.70261 7.62881 8.76121L7.62881 8.76003ZM3.84029 6.41016C4.14496 6.20567 4.46252 6.01913 4.79065 5.85529C4.51761 5.15812 4.36644 4.41787 4.34301 3.66688C4.34301 1.95082 5.87927 1.8456 7.88554 1.84082H9.03041C11.1233 1.84082 12.752 1.90061 12.752 3.66688C12.7298 4.41668 12.5786 5.15812 12.3067 5.85529C12.6337 6.02031 12.9512 6.20566 13.2548 6.41016C13.6133 5.54079 13.8125 4.6104 13.843 3.66688C13.843 0.92718 11.9072 0.741813 9.3738 0.732261C8.92733 0.728674 8.4844 0.732261 8.0391 0.732261C5.35213 0.732261 3.25343 0.817166 3.25343 3.66808C3.28389 4.6116 3.48289 5.54079 3.84029 6.41016ZM5.44804 5.56112C7.44246 4.77186 9.65384 4.77186 11.6481 5.56112C11.8825 4.9572 12.0126 4.31623 12.0325 3.66688C12.0325 2.64082 10.7857 2.57387 9.15448 2.57148H7.84204C6.25893 2.57746 5.06132 2.66237 5.06132 3.66688H5.0625C5.08359 4.31623 5.21366 4.9572 5.44804 5.56112Z" fill="black"/>
</svg>
