<svg width="27" height="28" viewBox="0 0 27 28" fill="none" xmlns="http://www.w3.org/2000/svg">
<path fill-rule="evenodd" clip-rule="evenodd" d="M7.46246 10.8289C8.35249 10.8289 9.1587 10.4625 9.74212 9.86988C10.3255 9.27724 10.6861 8.4582 10.6861 7.55405C10.6861 6.6499 10.3255 5.83089 9.74212 5.23822C9.1587 4.64555 8.35249 4.27923 7.46246 4.27923C6.57243 4.27923 5.76622 4.64558 5.1828 5.23822C4.59939 5.83089 4.23879 6.6499 4.23879 7.55405C4.23879 8.4582 4.59942 9.27721 5.1828 9.86988C5.76622 10.4614 6.57243 10.8289 7.46246 10.8289ZM2.33478 25.8661C1.72611 25.8008 1.1783 25.5208 0.766021 25.1031C0.294001 24.6236 0 23.961 0 23.233V15.0734C0 14.2719 0.322725 13.5439 0.841814 13.0154C1.36205 12.4869 2.07868 12.1602 2.86766 12.1602L12.0576 12.1591C12.8465 12.1591 13.5632 12.4869 14.0834 13.0142C14.6036 13.5427 14.9252 14.2707 14.9252 15.0722V23.2318C14.9252 23.961 14.6324 24.6225 14.1592 25.102C13.7481 25.5196 13.2003 25.7996 12.5904 25.865V27.713C12.5904 27.8705 12.4641 27.9988 12.3091 27.9988C12.154 27.9988 12.0277 27.8705 12.0277 27.713V22.7336C12.0277 22.5761 12.154 22.4478 12.3091 22.4478C12.4641 22.4478 12.5904 22.5761 12.5904 22.7336V25.2898C13.0441 25.2279 13.4518 25.0121 13.7607 24.6983C14.1316 24.3214 14.3614 23.8023 14.3614 23.2317L14.3625 15.0734C14.3625 14.4294 14.103 13.8437 13.6849 13.419C13.2669 12.9944 12.6904 12.7307 12.0564 12.7307H11.1572V15.0745C11.5764 15.1375 11.953 15.3382 12.2402 15.6299C12.5904 15.9857 12.8075 16.4757 12.8075 17.0159V20.5276C12.8075 20.6851 12.6812 20.8134 12.5261 20.8134C12.3711 20.8134 12.2448 20.6851 12.2448 20.5276L12.2471 17.0159C12.2471 16.6332 12.0932 16.2855 11.8451 16.0335C11.597 15.7815 11.2548 15.6252 10.8781 15.6252C10.5014 15.6252 10.1592 15.7815 9.9111 16.0335C9.66302 16.2855 9.50914 16.6332 9.50914 17.0159V20.5276C9.50914 20.6851 9.38281 20.8134 9.22777 20.8134C9.07273 20.8134 8.9464 20.6851 8.9464 20.5276L8.94526 17.0159C8.94526 16.4757 9.16231 15.9857 9.51259 15.6299C9.7997 15.3382 10.1764 15.1376 10.5956 15.0745V12.7307H3.79326V18.4451C4.03558 18.4999 4.25149 18.6247 4.42031 18.7962C4.65229 19.0319 4.79698 19.3586 4.79698 19.7191C4.79698 20.0796 4.65343 20.4062 4.42031 20.6419C4.18832 20.8787 3.86676 21.0245 3.5119 21.0245C3.15704 21.0245 2.83546 20.8787 2.6035 20.6419C2.37036 20.4062 2.22682 20.0796 2.22682 19.7191C2.22682 19.3586 2.37038 19.0319 2.6035 18.7962C2.77232 18.6248 2.98937 18.4999 3.23054 18.4451L3.23169 12.7307H2.86878C2.23485 12.7307 1.65831 12.9944 1.24027 13.419C0.822233 13.8437 0.562689 14.4294 0.562689 15.0734V23.2329C0.562689 23.8035 0.792377 24.3226 1.16333 24.6995C1.47342 25.0145 1.88111 25.2291 2.33361 25.291V22.7348C2.33361 22.5773 2.45994 22.449 2.61497 22.449C2.77001 22.449 2.89634 22.5773 2.89634 22.7348V27.7142C2.89634 27.8717 2.77001 28 2.61497 28C2.45994 28 2.33361 27.8717 2.33361 27.7142L2.33478 25.8661ZM3.51308 20.454C3.71291 20.454 3.89323 20.3723 4.02414 20.2393C4.15507 20.1063 4.23546 19.9232 4.23546 19.7202C4.23546 19.5172 4.15507 19.334 4.02414 19.201C3.89322 19.068 3.71291 18.9863 3.51308 18.9863C3.31325 18.9863 3.13294 19.068 3.00202 19.201C2.8711 19.334 2.79071 19.5172 2.79071 19.7202C2.79071 19.9232 2.8711 20.1063 3.00202 20.2393C3.13294 20.3723 3.31325 20.454 3.51308 20.454ZM15.7773 17.2971C16.1793 17.4208 16.595 17.5153 17.0223 17.5794C17.4403 17.6424 17.8675 17.6751 18.3005 17.6751C20.7031 17.6751 22.8781 16.6858 24.4516 15.0863C26.0261 13.4867 27 11.2771 27 8.83755C27 6.39687 26.0261 4.18731 24.4516 2.58884C22.8771 0.989333 20.7019 0 18.3005 0C16.811 0 15.4087 0.380322 14.1821 1.05232C12.9108 1.74765 11.829 2.75565 11.0366 3.97483C10.9516 4.10667 10.9861 4.28282 11.1158 4.37033C11.2456 4.45666 11.419 4.42166 11.5052 4.28983C12.247 3.14883 13.2588 2.20615 14.4487 1.55518C15.5948 0.9275 16.9064 0.572834 18.3016 0.572834C20.5491 0.572834 22.5828 1.49801 24.0552 2.99368C25.5275 4.48934 26.4382 6.55557 26.4382 8.83858C26.4382 11.1216 25.5275 13.1878 24.0552 14.6835C22.5829 16.1792 20.5478 17.1043 18.3016 17.1043C17.8939 17.1043 17.4942 17.074 17.1049 17.0157C16.7087 16.9562 16.3194 16.8675 15.9404 16.7508C15.7923 16.7053 15.6349 16.7905 15.5901 16.941C15.5442 17.0927 15.6281 17.2516 15.7773 17.2971ZM15.9209 14.7771C16.293 14.9311 16.6823 15.0501 17.0854 15.1294C17.4793 15.2076 17.8859 15.2484 18.3005 15.2484C20.0427 15.2484 21.6206 14.5309 22.7634 13.3713C23.905 12.2116 24.6113 10.6086 24.6113 8.83749C24.6113 7.06765 23.905 5.46465 22.7634 4.30373C21.6219 3.14407 20.0439 2.42655 18.3005 2.42655C16.5583 2.42655 14.9803 3.14404 13.8375 4.30373C12.696 5.4634 11.9897 7.0664 11.9897 8.83749C11.9897 9.17582 12.0161 9.51182 12.0678 9.84433C12.1206 10.1827 12.1987 10.5105 12.2986 10.8231C12.3468 10.9725 12.5053 11.0553 12.6523 11.0063C12.7993 10.9573 12.8808 10.7963 12.8326 10.647C12.7396 10.3565 12.6684 10.059 12.6213 9.75681C12.5754 9.46165 12.5512 9.15482 12.5512 8.83749C12.5512 7.22516 13.1944 5.76451 14.2349 4.70872C15.2754 3.65171 16.7121 2.99837 18.2992 2.99837C19.8863 2.99837 21.3241 3.65171 22.3634 4.70872C23.4039 5.76573 24.0471 7.22522 24.0471 8.83749C24.0471 10.4498 23.4039 11.9105 22.3634 12.9663C21.3229 14.0233 19.8862 14.6766 18.2992 14.6766C17.919 14.6766 17.5492 14.6393 17.1921 14.5681C16.8246 14.4958 16.4697 14.3873 16.1309 14.2473C15.9873 14.1878 15.8231 14.2589 15.7657 14.4048C15.7071 14.5506 15.7762 14.7176 15.9209 14.7771ZM15.3857 7.64165C15.1962 7.64165 15.024 7.71982 14.8988 7.84698C14.7736 7.97415 14.6967 8.14914 14.6967 8.34163V9.33213C14.6967 9.5153 14.7667 9.68214 14.8816 9.80695C14.8873 9.81395 14.8931 9.82095 14.9 9.82679C15.0251 9.95395 15.1974 10.0321 15.3869 10.0321H17.1245V11.7973C17.1245 11.9805 17.1945 12.1473 17.3094 12.2721C17.3151 12.2791 17.3209 12.2861 17.3278 12.292C17.4529 12.4191 17.6252 12.4973 17.8147 12.4973H18.7897C18.9792 12.4973 19.1515 12.4191 19.2766 12.292L19.2755 12.2908L19.2766 12.2896C19.4018 12.1625 19.4788 11.9875 19.4788 11.7961L19.4765 10.0333H21.2141C21.4036 10.0333 21.5758 9.95515 21.6999 9.82798L21.701 9.82681C21.8262 9.69965 21.9031 9.52465 21.9031 9.33333V8.34283C21.9031 8.15033 21.8262 7.97415 21.701 7.84818L21.6999 7.84934L21.6987 7.84818C21.5735 7.72101 21.4013 7.64284 21.2129 7.64284H19.4753V5.87766C19.4753 5.68516 19.3984 5.51015 19.2732 5.38301C19.148 5.25584 18.9758 5.17768 18.7863 5.17768H17.8112C17.6218 5.17768 17.4495 5.25584 17.3243 5.38301C17.1991 5.51018 17.1222 5.68517 17.1222 5.87766V7.64284L15.3857 7.64165ZM17.4047 8.21333C17.5597 8.21333 17.6861 8.08499 17.6861 7.92749V5.87766C17.6861 5.84265 17.701 5.80999 17.724 5.78665C17.7469 5.76332 17.7791 5.74815 17.8135 5.74815H18.7886C18.823 5.74815 18.8552 5.76332 18.8782 5.78665C18.9011 5.80999 18.9161 5.84265 18.9161 5.87766V7.92749C18.9161 8.08499 19.0424 8.21333 19.1974 8.21333H21.2152C21.2508 8.21333 21.2818 8.22733 21.306 8.25066L21.3048 8.25183C21.3278 8.27516 21.3427 8.30783 21.3427 8.34283V9.33333C21.3427 9.36949 21.3289 9.40099 21.306 9.42549C21.283 9.44882 21.2508 9.46282 21.2152 9.46282H19.1974C19.0424 9.46282 18.9161 9.59116 18.9161 9.74866V11.7985C18.9161 11.8347 18.9023 11.8662 18.8793 11.8907L18.8782 11.8895C18.8552 11.9128 18.823 11.928 18.7886 11.928H17.8135C17.7791 11.928 17.7469 11.9128 17.724 11.8895L17.7159 11.8813C17.6976 11.8592 17.6861 11.83 17.6861 11.7985V9.74866C17.6861 9.59116 17.5597 9.46282 17.4047 9.46282H15.3869C15.3524 9.46282 15.3203 9.44766 15.2973 9.42432L15.2893 9.41616C15.2709 9.39399 15.2594 9.36482 15.2594 9.33332V8.34283C15.2594 8.30783 15.2743 8.27516 15.2973 8.25183C15.3203 8.22849 15.3524 8.21332 15.3869 8.21332L17.4047 8.21333ZM10.1408 10.2736C9.4552 10.9701 8.50887 11.4006 7.46378 11.4006C6.41869 11.4006 5.47124 10.9701 4.78675 10.2736C4.10114 9.57716 3.67736 8.61581 3.67736 7.55414C3.67736 6.49247 4.10114 5.52999 4.78675 4.83463C5.47236 4.13814 6.41869 3.70764 7.46378 3.70764C8.50887 3.70764 9.45631 4.13814 10.1408 4.83463C10.8264 5.53112 11.2502 6.49247 11.2502 7.55414C11.2502 8.61581 10.8253 9.57713 10.1408 10.2736Z" fill="black"/>
</svg>
