<svg width="27" height="22" viewBox="0 0 27 22" fill="none" xmlns="http://www.w3.org/2000/svg">
<path d="M26.9416 10.6833C26.8994 10.6223 26.839 10.5918 26.7756 10.5918H21.0192V7.94796C21.0192 6.49443 20.1227 5.30032 18.9938 5.19731C19.6548 4.77384 20.1076 3.91164 20.1076 2.9121C20.1076 1.50053 19.199 0.348389 18.0822 0.348389C16.9653 0.348389 16.0537 1.49672 16.0537 2.9121C16.0537 3.90783 16.5065 4.77003 17.1645 5.1935C16.0114 5.2698 15.0908 6.47154 15.0908 7.94796V10.5918H14.0162V8.46681C14.0162 8.31039 13.9135 8.18068 13.7898 8.18068H13.5664V6.74241C13.5664 6.58599 13.4638 6.45628 13.34 6.45628H12.7242V5.28887H13.0834C13.4276 5.28887 13.7083 4.93407 13.7083 4.49916V3.88112C13.7083 3.44621 13.4276 3.09141 13.0834 3.09141H11.9153C11.5711 3.09141 11.2904 3.44621 11.2904 3.88112V4.49916C11.2904 4.93407 11.5711 5.28887 11.9153 5.28887H12.2745V6.45628H10.0256C9.90189 6.45628 9.79925 6.58599 9.79925 6.74241V8.18068H8.71559V5.59789H10.9282C11.052 5.59789 11.1546 5.46818 11.1546 5.31176V1.02365C11.1546 0.867235 11.052 0.737524 10.9282 0.737524H5.15369C5.02993 0.737524 4.9273 0.867235 4.9273 1.02365V5.31176C4.9273 5.46818 5.02993 5.59789 5.15369 5.59789H7.3663V8.18068H6.78371C6.65995 8.18068 6.55732 8.31039 6.55732 8.46681V10.5918H0.224388C0.160998 10.5918 0.100627 10.6261 0.0583671 10.6833C0.0161073 10.7444 -0.00502249 10.8207 0.00101463 10.9008L0.650004 20.1141C0.65906 20.2629 0.758673 20.3736 0.876396 20.3736H3.83156V21.3655C3.83156 21.5219 3.9342 21.6516 4.05796 21.6516H7.84927C7.97303 21.6516 8.07566 21.5219 8.07566 21.3655V20.3736H18.9244V21.3655C18.9244 21.5219 19.027 21.6516 19.1507 21.6516H22.9421C23.0658 21.6516 23.1684 21.5219 23.1684 21.3655V20.3736H26.1236C26.2413 20.3736 26.3379 20.2591 26.35 20.1141L26.999 10.9008C27.005 10.8207 26.9839 10.7406 26.9416 10.6833ZM11.7432 4.49916V3.88112C11.7432 3.76286 11.8187 3.66366 11.9153 3.66366H13.0834C13.177 3.66366 13.2555 3.75904 13.2555 3.88112V4.49916C13.2555 4.61742 13.18 4.71662 13.0834 4.71662H11.9153C11.8187 4.71662 11.7432 4.62124 11.7432 4.49916ZM20.5664 7.94415V10.588H19.8571V6.18159C20.2857 6.58217 20.5664 7.21929 20.5664 7.94415ZM19.4043 6.88356H16.7057V5.88021C16.8838 5.80009 17.077 5.75431 17.2762 5.75431H18.8338C19.033 5.75431 19.2262 5.80009 19.4043 5.88021V6.88356ZM16.7057 7.45582H19.4043V10.588H16.7057V7.45582ZM16.5065 2.90829C16.5065 1.80955 17.2128 0.91683 18.0822 0.91683C18.9515 0.91683 19.6548 1.80955 19.6548 2.90829C19.6548 4.00702 18.9485 4.89592 18.0792 4.89592C17.2128 4.89592 16.5065 4.0032 16.5065 2.90829ZM15.5436 7.94415C15.5436 7.21929 15.8243 6.58217 16.2529 6.18159V10.588H15.5436V7.94415ZM10.249 7.02853H13.1136V8.18068H10.249V7.02853ZM5.38008 1.30978H10.6988V5.02564H5.38008V1.30978ZM7.81908 5.59789H8.25979V8.18068H7.81908V5.59789ZM7.01011 8.74912H13.5634V10.588H7.01011V8.74912ZM7.62287 21.0832H4.28435V20.3774H7.62287V21.0832ZM22.7157 21.0832H19.3771V20.3774H22.7157V21.0832ZM25.9184 19.8013H1.08166L0.47191 11.1602H26.5251L25.9184 19.8013Z" fill="black"/>
<path d="M20.7231 12.8569V13.4749C20.4212 13.4291 20.1828 13.1048 20.1828 12.7081V11.9451C20.1828 11.7886 20.0801 11.6589 19.9564 11.6589C19.8326 11.6589 19.73 11.7886 19.73 11.9451V12.7081C19.73 13.4177 20.1707 13.9976 20.7231 14.0472V18.6138C20.7231 18.7702 20.8257 18.8999 20.9495 18.8999H24.2971C24.4208 18.8999 24.5234 18.7702 24.5234 18.6138V14.0472C25.0758 13.9976 25.5166 13.4215 25.5166 12.7081V11.9451C25.5166 11.7886 25.4139 11.6589 25.2902 11.6589C25.1664 11.6589 25.0638 11.7886 25.0638 11.9451V12.7081C25.0638 13.1048 24.8283 13.4291 24.5234 13.4749V12.8569C24.5234 12.7004 24.4208 12.5707 24.2971 12.5707H23.2738C23.15 12.5707 23.0474 12.7004 23.0474 12.8569V13.4825H22.2022V12.8569C22.2022 12.7004 22.0995 12.5707 21.9758 12.5707H20.9525C20.8257 12.5707 20.7231 12.7004 20.7231 12.8569ZM23.0474 14.0586V14.4935H22.2022V14.0586H23.0474ZM21.1759 13.143H21.7464V14.7758C21.7464 14.9322 21.849 15.062 21.9728 15.062H23.2707C23.3945 15.062 23.4971 14.9322 23.4971 14.7758V13.143H24.0676V18.3276H21.1729V13.143H21.1759Z" fill="black"/>
<path d="M15.2324 13.2366H3.09179C2.42469 13.2366 1.88135 13.9233 1.88135 14.7664V16.2009C1.88135 17.044 2.42469 17.7307 3.09179 17.7307H15.2324C15.8995 17.7307 16.4429 17.044 16.4429 16.2009V14.7664C16.4429 13.9233 15.8995 13.2366 15.2324 13.2366ZM15.9901 16.2047C15.9901 16.735 15.649 17.1623 15.2324 17.1623H3.09179C2.67221 17.1623 2.33413 16.7312 2.33413 16.2047V14.7702C2.33413 14.2399 2.67523 13.8126 3.09179 13.8126H15.2324C15.652 13.8126 15.9901 14.2437 15.9901 14.7702V16.2047Z" fill="black"/>
</svg>
