<svg width="27" height="28" viewBox="0 0 27 28" fill="none" xmlns="http://www.w3.org/2000/svg">
<g clip-path="url(#clip0_4009_10764)">
<path d="M11.9156 2.89291C11.0458 3.49544 10.5469 4.53736 10.5469 5.75148V15.6876C10.5469 15.7995 10.5913 15.9068 10.6704 15.9859C10.7496 16.065 10.8569 16.1095 10.9687 16.1095C11.0806 16.1095 11.1879 16.065 11.2671 15.9859C11.3462 15.9068 11.3906 15.7995 11.3906 15.6876V5.75148C11.3906 4.81813 11.7571 4.02918 12.3962 3.58628C12.4417 3.55474 12.4807 3.51453 12.5107 3.46795C12.5407 3.42137 12.5612 3.36933 12.5711 3.31481C12.581 3.26028 12.5801 3.20434 12.5684 3.15018C12.5566 3.09602 12.5344 3.0447 12.5028 2.99916C12.4712 2.95361 12.431 2.91473 12.3844 2.88474C12.3378 2.85475 12.2857 2.83423 12.2312 2.82437C12.1767 2.8145 12.1207 2.81547 12.0666 2.82724C12.0124 2.839 11.9611 2.86131 11.9156 2.89291Z" fill="black"/>
<path d="M9.49219 5.77344C9.49219 3.24816 11.2152 1.34375 13.5 1.34375C15.7848 1.34375 17.5078 3.24816 17.5078 5.77344V19.0625H18.3516V5.77344C18.3516 2.76716 16.2659 0.5 13.5 0.5C10.7341 0.5 8.64844 2.76716 8.64844 5.77344V19.0625H9.49219V5.77344ZM19.8281 19.9062H7.17188C6.83632 19.9066 6.51462 20.0401 6.27735 20.2773C6.04008 20.5146 5.90662 20.8363 5.90625 21.1719V26.0234C5.90643 26.1912 5.97316 26.3521 6.0918 26.4707C6.21043 26.5893 6.37129 26.6561 6.53906 26.6562H7.59375V27.0781C7.59375 27.19 7.6382 27.2973 7.71731 27.3764C7.79643 27.4556 7.90374 27.5 8.01562 27.5C8.12751 27.5 8.23482 27.4556 8.31394 27.3764C8.39305 27.2973 8.4375 27.19 8.4375 27.0781V26.6562H18.5625V27.0781C18.5625 27.19 18.6069 27.2973 18.6861 27.3764C18.7652 27.4556 18.8725 27.5 18.9844 27.5C19.0963 27.5 19.2036 27.4556 19.2827 27.3764C19.3618 27.2973 19.4062 27.19 19.4062 27.0781V26.6562H20.4609C20.6287 26.6561 20.7896 26.5893 20.9082 26.4707C21.0268 26.3521 21.0936 26.1912 21.0938 26.0234V21.1719C21.0934 20.8363 20.9599 20.5146 20.7227 20.2773C20.4854 20.0401 20.1637 19.9066 19.8281 19.9062ZM20.25 21.1719V22.8594H12.4453V20.75H19.8281C19.94 20.7501 20.0472 20.7946 20.1263 20.8737C20.2054 20.9528 20.2499 21.06 20.25 21.1719ZM6.75 21.1719C6.75013 21.06 6.79462 20.9528 6.87371 20.8737C6.95279 20.7946 7.06003 20.7501 7.17188 20.75H11.6016V25.8125H6.75V21.1719ZM12.4453 25.8125V23.7031H20.25V25.8125H12.4453Z" fill="black"/>
<path d="M9.28125 23.7031C9.51425 23.7031 9.70312 23.5142 9.70312 23.2812C9.70312 23.0483 9.51425 22.8594 9.28125 22.8594C9.04825 22.8594 8.85938 23.0483 8.85938 23.2812C8.85938 23.5142 9.04825 23.7031 9.28125 23.7031Z" fill="black"/>
</g>
<defs>
<clipPath id="clip0_4009_10764">
<rect width="27" height="27" fill="white" transform="translate(0 0.5)"/>
</clipPath>
</defs>
</svg>
