<svg width="26" height="26" viewBox="0 0 26 26" fill="none" xmlns="http://www.w3.org/2000/svg">
<g clip-path="url(#clip0_4009_10967)">
<path d="M5.41675 14.6251H20.5834M13.0001 14.6251V26.0001M7.04175 11.9167V7.04175H5.77208C5.05062 7.04175 4.34966 7.28182 3.77968 7.72412C3.20969 8.16642 2.80308 8.7858 2.62391 9.48466L0.541748 17.6042V17.8751H8.12508V19.5001C8.12508 21.1251 8.12508 22.2084 8.93758 23.8334C8.93758 23.8334 9.75008 25.4584 10.8334 25.4584M18.9584 11.9167V7.04175H20.2281C20.9495 7.04175 21.6505 7.28182 22.2205 7.72412C22.7905 8.16642 23.1971 8.7858 23.3762 9.48466L25.4584 17.6042V17.8751H17.8751V19.5001C17.8751 21.1251 17.8751 22.2084 17.0626 23.8334C17.0626 23.8334 16.2501 25.4584 15.1667 25.4584M6.87925 4.87508C6.87925 4.87508 5.14591 3.79175 5.14591 2.43758C5.14591 1.93535 5.34543 1.45369 5.70056 1.09856C6.05569 0.743425 6.53735 0.543915 7.03958 0.543915C7.54181 0.543915 8.02347 0.743425 8.37861 1.09856C8.73374 1.45369 8.93325 1.93535 8.93325 2.43758C8.93325 3.79175 7.20425 4.87508 7.20425 4.87508H6.87925ZM19.1209 4.87508C19.1209 4.87508 20.8542 3.79175 20.8542 2.43758C20.8542 1.93478 20.6545 1.45256 20.299 1.09702C19.9434 0.741487 19.4612 0.541748 18.9584 0.541748C17.9119 0.541748 17.0669 1.39108 17.0669 2.43758C17.0669 3.79175 18.7959 4.87508 18.7959 4.87508H19.1209Z" stroke="black"/>
</g>
<defs>
<clipPath id="clip0_4009_10967">
<rect width="26" height="26" fill="white"/>
</clipPath>
</defs>
</svg>
