<svg width="28" height="26" viewBox="0 0 28 26" fill="none" xmlns="http://www.w3.org/2000/svg">
<path d="M27.7778 22.6941H22.4889V21.0732C22.7078 21.3527 23.046 21.5242 23.4152 21.5242H24.1466C24.271 21.9209 24.7186 22.2161 25.2518 22.2161C25.8808 22.2161 26.3926 21.806 26.3926 21.302C26.3926 20.798 25.8809 20.3879 25.2518 20.3879C24.7186 20.3879 24.271 20.683 24.1466 21.0798H23.4152C23.0989 21.0798 22.819 20.8771 22.7188 20.5753L22.5746 20.1406H23.6477C24.6547 20.1406 25.4741 19.3182 25.4741 18.3073V16.9121H25.9287C26.4377 16.9121 26.8518 16.4966 26.8518 15.9859V15.0877C26.8518 14.577 26.4377 14.1616 25.9287 14.1616H25.4741V12.4736C27.0805 11.1974 28 9.29483 28 7.23494C28 3.552 25.016 0.555664 21.3482 0.555664C17.6803 0.555664 14.6963 3.552 14.6963 7.23494C14.6963 9.29478 15.6158 11.1974 17.2222 12.4736V14.1616H16.7676C16.2586 14.1616 15.8444 14.577 15.8444 15.0877V15.9859C15.8444 16.4966 16.2586 16.9121 16.7676 16.9121H17.2222V18.3073C17.2222 19.3182 18.0416 20.1406 19.0486 20.1406H20.2074V22.694H7.79261V21.0732C8.01156 21.3526 8.34972 21.5242 8.71894 21.5242H9.45033C9.57472 21.9209 10.0223 22.216 10.5556 22.216C11.1846 22.216 11.6963 21.8059 11.6963 21.3019C11.6963 20.7979 11.1846 20.3879 10.5556 20.3879C10.0223 20.3879 9.57472 20.6829 9.45033 21.0797H8.71894C8.40261 21.0797 8.12272 20.877 8.02256 20.5752L7.87828 20.1405H8.95139C9.95845 20.1405 10.7778 19.3181 10.7778 18.3073V16.912H11.2324C11.7414 16.912 12.1556 16.4966 12.1556 15.9859V15.0876C12.1556 14.5769 11.7414 14.1615 11.2324 14.1615H10.7778V12.4735C12.3842 11.1974 13.3037 9.29472 13.3037 7.23489C13.3037 3.552 10.3197 0.555664 6.65183 0.555664C2.984 0.555664 0 3.552 0 7.23494C0 9.29483 0.9195 11.1974 2.52594 12.4736V14.1616H2.07128C1.56228 14.1616 1.14817 14.5771 1.14817 15.0877V15.986C1.14817 16.4967 1.56228 16.9121 2.07128 16.9121H2.52594V18.3074C2.52594 19.3182 3.34528 20.1406 4.35233 20.1406H5.51111V22.6941H0.222222C0.0995 22.6941 0 22.7936 0 22.9163C0 23.039 0.0995 23.1385 0.222222 23.1385H5.51111V23.5163L3.96844 25.0656C3.90506 25.1292 3.88628 25.2247 3.92072 25.3076C3.95517 25.3906 4.03611 25.4446 4.12594 25.4446H9.17778C9.26756 25.4446 9.34856 25.3905 9.383 25.3076C9.41745 25.2247 9.39861 25.1292 9.33528 25.0656L7.79261 23.5163V23.1385H20.2074V23.5163L18.6648 25.0656C18.6014 25.1292 18.5826 25.2247 18.6171 25.3076C18.6515 25.3906 18.7324 25.4446 18.8222 25.4446H23.8741C23.9639 25.4446 24.0449 25.3905 24.0793 25.3076C24.1138 25.2247 24.0949 25.1292 24.0316 25.0656L22.4889 23.5163V23.1385H27.7778C27.9005 23.1385 28 23.039 28 22.9163C28 22.7936 27.9005 22.6941 27.7778 22.6941ZM25.2518 20.8324C25.6293 20.8324 25.9482 21.0474 25.9482 21.302C25.9482 21.5566 25.6293 21.7716 25.2518 21.7716C24.8744 21.7716 24.5556 21.5566 24.5556 21.302C24.5556 21.0474 24.8744 20.8324 25.2518 20.8324ZM17.2222 16.4676H16.7676C16.5037 16.4676 16.2889 16.2516 16.2889 15.9859V15.0877C16.2889 14.8221 16.5036 14.606 16.7676 14.606H17.2222V16.4676ZM10.5556 20.8324C10.9329 20.8324 11.2518 21.0474 11.2518 21.302C11.2518 21.5566 10.9329 21.7716 10.5556 21.7716C10.1782 21.7716 9.85928 21.5566 9.85928 21.302C9.85928 21.0474 10.1782 20.8324 10.5556 20.8324ZM2.52594 16.4676H2.07128C1.80733 16.4676 1.59261 16.2516 1.59261 15.9859V15.0877C1.59261 14.8221 1.80733 14.606 2.07128 14.606H2.52594V16.4676ZM10.3333 17.3901H2.97039V11.8438C2.97039 11.078 3.59033 10.455 4.35233 10.455H8.95139C9.71339 10.455 10.3333 11.078 10.3333 11.8438V17.3901ZM11.2324 14.606C11.4963 14.606 11.7111 14.8221 11.7111 15.0877V15.9859C11.7111 16.2516 11.4964 16.4676 11.2324 16.4676H10.7778V14.606H11.2324ZM12.8593 7.23494C12.8593 9.03655 12.1059 10.7092 10.7778 11.8929L10.7346 11.4475C10.6324 10.8027 9.95845 10.0106 8.95139 10.0106H8.25911L12.5523 5.29811C12.7512 5.90805 12.8593 6.559 12.8593 7.23494ZM11.4273 3.25616C11.8169 3.72716 12.139 4.2565 12.3783 4.82905L7.65783 10.0106H5.27389L11.4273 3.25616ZM0.444444 7.23494C0.444444 3.8655 3.11939 1.11216 6.44828 1.00383L0.454111 7.58355C0.447833 7.46794 0.444444 7.35172 0.444444 7.23494ZM0.514611 8.17711L7.04139 1.01278C7.73445 1.05611 8.397 1.21411 9.0105 1.46816L1.13844 10.1091C0.827833 9.50861 0.616333 8.85755 0.514611 8.17711ZM2.52594 11.8929C2.07017 11.4867 1.68211 11.023 1.369 10.5161L9.43445 1.66278C10.0696 1.98405 10.6427 2.41155 11.1303 2.92216L4.67267 10.0106H4.35233C3.34528 10.0106 2.52594 10.7885 2.55739 11.5054L2.52594 11.8929ZM8.64289 25.0001H4.66083L5.82567 23.8303H7.47806L8.64289 25.0001ZM5.95556 23.3858V20.1406H7.34811V23.3858H5.95556ZM4.35233 19.6961C3.59033 19.6961 2.97039 19.0731 2.97039 18.3073V17.8345H10.3333V18.3073C10.3333 19.0731 9.71339 19.6961 8.95139 19.6961H4.35233ZM25.0296 17.3901H17.6667V11.8438C17.6667 11.078 18.2866 10.455 19.0486 10.455H23.6477C24.4097 10.455 25.0296 11.078 25.0296 11.8438V17.3901ZM25.9287 14.606C26.1927 14.606 26.4074 14.8221 26.4074 15.0877V15.9859C26.4074 16.2516 26.1927 16.4676 25.9287 16.4676H25.4741V14.606H25.9287ZM27.5556 7.23494C27.5556 9.03655 26.8022 10.7093 25.4741 11.8929V11.8438C25.4741 10.833 24.6547 10.0106 23.6477 10.0106H22.9554L27.2486 5.29816C27.4475 5.90811 27.5556 6.559 27.5556 7.23494ZM26.1236 3.25616C26.5132 3.72716 26.8352 4.2565 27.0746 4.82905L22.3541 10.0106H19.9702L26.1236 3.25616ZM15.1407 7.23494C15.1407 3.8655 17.8157 1.11216 21.1446 1.00383L15.1504 7.58355C15.1441 7.46794 15.1407 7.35172 15.1407 7.23494ZM15.2109 8.17711L21.7377 1.01278C22.4308 1.05611 23.0933 1.21411 23.7068 1.46816L15.8348 10.1091C15.5242 9.50861 15.3126 8.85755 15.2109 8.17711ZM17.2222 11.8929C16.7664 11.4867 16.3784 11.0229 16.0653 10.516L24.1307 1.66278C24.7659 1.98405 25.339 2.41155 25.8266 2.92216L19.369 10.0106H19.0486C18.0416 10.0106 17.2222 10.8329 17.2222 11.8438V11.8929ZM23.3392 25.0001H19.3571L20.5219 23.8303H22.1743L23.3392 25.0001ZM20.6518 23.3858V20.1406H22.0444V23.3858H20.6518ZM19.0486 19.6961C18.2866 19.6961 17.6667 19.0731 17.6667 18.3073V17.8345H25.0296V18.3073C25.0296 19.0731 24.4097 19.6961 23.6477 19.6961H19.0486Z" fill="black"/>
</svg>
