<svg width="27" height="22" viewBox="0 0 27 22" fill="none" xmlns="http://www.w3.org/2000/svg">
<path d="M2.79269 18.3104C2.85664 18.6699 2.97882 19.0191 3.15352 19.3374H12.0667C12.4253 18.7695 12.858 18.2565 13.3501 17.8123C13.6082 17.5799 13.8845 17.3647 14.1745 17.1712C13.4255 17.1208 12.6981 16.9777 11.989 16.7235L11.8246 16.8884C11.7104 17.0029 11.5255 17.0029 11.4113 16.8884C11.3005 16.7773 11.2971 16.5999 11.401 16.4842C11.2034 16.3938 11.0105 16.2942 10.8209 16.1866L10.6907 16.3171C10.5766 16.4316 10.3916 16.4316 10.2774 16.3171C10.1632 16.2026 10.1632 16.0171 10.2774 15.9026L10.3128 15.8671C9.6528 15.4126 9.0556 14.8413 8.53722 14.1509C8.4904 14.1509 8.44587 14.1577 8.40134 14.1703C8.32826 14.1921 8.25861 14.2333 8.20152 14.2906C8.12387 14.3627 8.0645 14.4646 8.05308 14.5722C8.04166 14.6787 8.07021 14.7955 8.12616 14.9123C8.19124 15.0462 8.29515 15.1813 8.42189 15.3073C8.75986 15.6473 9.23832 15.9061 9.61055 15.9484C9.77041 15.9656 9.88573 16.111 9.8686 16.2713C9.85148 16.4316 9.70646 16.5472 9.54659 16.5301C9.33079 16.506 9.08986 16.4293 8.85235 16.3148C7.67968 17.1815 6.29006 17.0396 5.29199 16.553C4.98369 16.403 4.71079 16.2175 4.49041 16.0183C4.2609 15.8088 4.0862 15.5809 3.98915 15.3565C3.95718 15.2821 3.93206 15.2088 3.91608 15.1356C3.75622 15.2626 3.60892 15.408 3.47647 15.5695C3.27322 15.8179 3.10424 16.1042 2.97977 16.4179C3.33604 16.751 3.75738 17.0006 4.20953 17.1518C4.71766 17.3223 5.26688 17.3727 5.81269 17.2869C5.9714 17.2628 6.11985 17.3716 6.14496 17.5307C6.16437 17.6555 6.10157 17.7746 5.99652 17.8318C5.44159 18.1364 4.83525 18.3219 4.21868 18.3848C3.74481 18.4329 3.26428 18.4088 2.79269 18.3104ZM12.1023 15.7824C12.2164 15.6679 12.4014 15.6679 12.5156 15.7824C12.6298 15.8969 12.6298 16.0823 12.5156 16.1969L12.4494 16.2633C12.696 16.34 12.9495 16.4052 13.2064 16.4556V12.8364C12.4163 12.7666 11.706 12.4162 11.1762 11.885C10.5825 11.2896 10.2148 10.4664 10.2148 9.55622C10.2148 8.64714 10.5824 7.82394 11.1762 7.22745C11.706 6.69621 12.4151 6.34587 13.2064 6.27602V1.08376H2.0094C1.94774 1.44899 1.77304 1.7753 1.5241 2.02602C1.27404 2.27676 0.948597 2.45192 0.584376 2.51262V5.13334H4.49756C4.65856 5.13334 4.78987 5.26501 4.78987 5.42644V7.83305C5.15412 7.89488 5.47955 8.07005 5.7296 8.31966C6.04474 8.63565 6.24 9.07301 6.24 9.55501C6.24 10.037 6.04475 10.4744 5.7296 10.7904C5.47953 11.0411 5.15409 11.2163 4.78987 11.277V13.6836C4.78987 13.845 4.65856 13.9767 4.49756 13.9767H0.584376V16.5974C0.948626 16.6592 1.27406 16.8344 1.5241 17.084C1.77417 17.3347 1.94886 17.6611 2.0094 18.0263H2.16811L2.16126 17.9255C2.10417 16.9409 2.39762 15.9608 3.02677 15.196C3.36246 14.7884 3.78152 14.4598 4.25653 14.2469C4.36957 14.1965 4.50545 14.2228 4.59222 14.319C4.69955 14.4392 4.68927 14.6236 4.56938 14.7312C4.46319 14.8262 4.45634 14.9682 4.52371 15.1216C4.58879 15.2716 4.71325 15.4307 4.88112 15.583C5.05925 15.7444 5.28647 15.8978 5.54566 16.0238C6.32441 16.4039 7.3829 16.5355 8.3055 15.9768C8.20044 15.8967 8.1011 15.8108 8.0109 15.7204C7.84077 15.5498 7.69918 15.362 7.60327 15.1662C7.49937 14.9521 7.44798 14.7277 7.4731 14.5056C7.50279 14.2365 7.61355 14.0694 7.78825 13.8736C7.91385 13.7477 8.06914 13.6572 8.23583 13.6069C8.4014 13.5576 8.58068 13.5485 8.75422 13.5851C8.82273 13.6 8.88553 13.6389 8.93006 13.6996C9.44845 14.4129 10.0559 14.9945 10.7319 15.4433L10.9671 15.2074C11.0813 15.093 11.2663 15.093 11.3805 15.2074C11.4947 15.3219 11.4947 15.5074 11.3805 15.6219L11.2492 15.7536C11.4159 15.8429 11.586 15.9265 11.7596 16.0009L11.8429 16.0364L12.101 15.7776L12.1023 15.7824ZM2.79971 17.0349C2.75746 17.2536 2.73805 17.4757 2.73805 17.6978C3.20622 17.8169 3.68806 17.8512 4.16193 17.8043L4.29667 17.7883C4.20532 17.7642 4.11397 17.7379 4.02491 17.7081C3.58416 17.5604 3.16852 17.3337 2.79971 17.036L2.79971 17.0349ZM12.769 19.3385H17.8102C17.8787 19.0866 17.8982 18.8507 17.8742 18.6344C17.8388 18.3172 17.712 18.0379 17.5179 17.8123C17.3204 17.5811 17.0509 17.4002 16.738 17.2857C16.2185 17.0956 15.8485 17.1494 15.3461 17.1769C14.7603 17.4563 14.2191 17.818 13.7407 18.2485C13.3787 18.5748 13.0522 18.9401 12.769 19.3385ZM3.4083 19.9247L3.48252 20.1262H17.5284L17.6026 19.9247H3.40737H3.4083ZM18.7217 16.2791L17.7294 15.7044L16.6275 16.3421C16.535 16.3959 16.4243 16.3913 16.3375 16.3421L16.229 16.2791C16.2165 16.3753 16.2062 16.4726 16.1993 16.5711C16.4585 16.5951 16.7063 16.6512 16.937 16.736C17.3435 16.8848 17.6963 17.1229 17.9612 17.4321C18.0366 17.5191 18.1039 17.613 18.1633 17.7103L18.7228 17.3863L18.7217 16.2791ZM18.0217 15.1995L19.014 15.7742L19.9674 15.2212V14.0694L18.869 13.434C18.7753 13.3802 18.7228 13.2817 18.7228 13.181V13.0539C18.3768 13.1947 18.056 13.3836 17.7659 13.6091L17.8744 13.6721C17.9681 13.7259 18.0206 13.8244 18.0206 13.9251L18.0217 15.2006V15.1995ZM19.014 17.8912L18.3939 18.2495C18.4214 18.3526 18.4419 18.4591 18.4545 18.569C18.5275 19.2307 18.306 19.7082 18.0925 20.2875C18.2912 20.4134 18.5013 20.5222 18.7216 20.6127V20.4844C18.7216 20.3665 18.7913 20.2635 18.8929 20.2177L19.9685 19.5948V18.4419L19.0151 17.89L19.014 17.8912ZM20.552 18.443V19.596L21.6505 20.2314C21.7441 20.2852 21.7966 20.3837 21.7966 20.4844V20.6115C22.1415 20.4707 22.4635 20.2829 22.7535 20.0562L22.645 19.9933C22.5514 19.9395 22.4989 19.841 22.4989 19.7402L22.4977 18.4648L21.5055 17.89L20.552 18.4419V18.443ZM21.7978 17.3862L22.79 17.961L23.8919 17.3233C23.9844 17.2695 24.0951 17.2729 24.1819 17.3233L24.2915 17.3862C24.3155 17.2053 24.3292 17.0199 24.3292 16.8321C24.3292 16.6443 24.3167 16.4589 24.2915 16.278L24.1819 16.3409C24.0894 16.3947 23.9787 16.3913 23.8919 16.3409L22.79 15.7032L21.7966 16.2779L21.7978 17.3851L21.7978 17.3862ZM21.5055 15.7742L22.4989 15.1995L22.4977 13.9252C22.4977 13.8095 22.5651 13.7088 22.6633 13.6607L22.7535 13.6092C22.4612 13.3813 22.1414 13.1958 21.7989 13.055V13.181C21.7989 13.2989 21.7293 13.4019 21.6276 13.4477L20.552 14.0706V15.2224L21.5054 15.7754L21.5055 15.7742ZM16.357 15.6792L16.4826 15.7524L17.436 15.2006V14.0923L17.3115 14.0202C16.8731 14.4827 16.5419 15.0483 16.357 15.6792ZM16.6333 20.7123L16.6276 20.7157C16.5602 20.7546 16.4837 20.7627 16.4129 20.7455V20.9126H16.7041V20.7123H16.6333ZM17.6735 20.7123H17.2887V21.2057C17.2887 21.3672 17.1574 21.4988 16.9964 21.4988H16.1206C15.9596 21.4988 15.8283 21.3672 15.8283 21.2057V20.7123H15.6856V21.2057C15.6856 21.3672 15.5543 21.4988 15.3933 21.4988H14.5175C14.3565 21.4988 14.2251 21.3672 14.2251 21.2057V20.7123H7.02462V21.2057C7.02462 21.3672 6.89331 21.4988 6.73231 21.4988H5.85651C5.69551 21.4988 5.5642 21.3672 5.5642 21.2057V20.7123H5.42147V21.2057C5.42147 21.3672 5.29016 21.4988 5.12916 21.4988H4.25336C4.09236 21.4988 3.96105 21.3672 3.96105 21.2057V20.7123H3.27938C3.16063 20.7123 3.04873 20.639 3.00534 20.5211L2.72216 19.7563C2.50863 19.4036 2.35335 19.0178 2.25972 18.6171H0.876939C0.63487 18.6171 0.415642 18.5186 0.256916 18.3595C0.0981994 18.2003 0 17.9805 0 17.7378V1.3793C0 1.13658 0.0981994 0.916761 0.256916 0.757608C0.415633 0.598464 0.634876 0.5 0.876939 0.5H26.1231C26.3651 0.5 26.5844 0.598464 26.7431 0.757608C26.9018 0.916752 27 1.13659 27 1.3793V17.7378C27 17.9805 26.9018 18.2003 26.7431 18.3595C26.5844 18.5186 26.3651 18.6171 26.1231 18.6171H24.5622C24.3258 19.1884 23.981 19.7024 23.5516 20.133C22.6724 21.0145 21.4952 21.5 20.2608 21.5C19.3393 21.5 18.4407 21.2264 17.6745 20.7123L17.6735 20.7123ZM21.2131 20.8004V20.6527L20.2597 20.1009L19.3063 20.6527V20.8016C19.6111 20.8749 19.9308 20.9138 20.2597 20.9138C20.5885 20.9138 20.9083 20.8749 21.2131 20.8004ZM24.1637 17.9874L24.037 17.9141L23.0835 18.4659V19.5742L23.208 19.6463C23.6465 19.1838 23.9787 18.6171 24.1637 17.9874ZM23.208 14.0214L23.0835 14.0936V15.1995L24.037 15.7525L24.1637 15.6793C23.9787 15.0496 23.6465 14.4828 23.208 14.0202L23.208 14.0214ZM19.3062 12.8662V13.0139L20.2597 13.5657L21.2131 13.0139V12.8662C20.9071 12.7929 20.5874 12.7529 20.2597 12.7529C19.9308 12.7529 19.6111 12.7918 19.3062 12.8662ZM20.7369 16.0044L20.2597 15.7273L19.3062 16.2792V17.3875L20.2597 17.9393L21.2131 17.3875V16.2792L20.7358 16.0044L20.7369 16.0044ZM15.6136 16.57C15.6787 15.432 16.1548 14.3546 16.9678 13.537C17.8722 12.6531 19.0083 12.1665 20.2598 12.1665C20.9552 12.1665 21.5809 12.3051 22.209 12.5947V11.2804C21.8447 11.2185 21.5193 11.0434 21.2692 10.7938C20.9541 10.4778 20.7588 10.0415 20.7588 9.5584C20.7588 9.0764 20.9541 8.63903 21.2692 8.32304C21.5193 8.0723 21.8448 7.89714 22.209 7.83644V5.42983C22.209 5.26839 22.3403 5.13673 22.5013 5.13673H26.4145V2.51601C26.0502 2.45418 25.7248 2.27901 25.4747 2.02941C25.2247 1.77867 25.05 1.45235 24.9894 1.08715H13.7924V6.27941C14.5826 6.34925 15.2928 6.69959 15.8226 7.23084C16.4164 7.82618 16.7841 8.64938 16.7841 9.5596C16.7841 10.4687 16.4164 11.2919 15.8226 11.8884C15.2928 12.4196 14.5837 12.7699 13.7924 12.8398V16.5516C14.264 16.6077 14.7516 16.6237 15.2506 16.5986C15.3488 16.594 15.4481 16.586 15.5463 16.5779L15.6148 16.5711L15.6136 16.57ZM22.7945 12.9189C23.0115 13.0608 23.2159 13.22 23.4066 13.394H26.4153V12.1403H25.2575C25.0965 12.1403 24.9652 12.0087 24.9652 11.8472V7.26756C24.9652 7.10613 25.0965 6.97446 25.2575 6.97446H26.4153V5.72079H22.7945V12.9178L22.7945 12.9189ZM23.9444 13.9814C24.5518 14.7702 24.9149 15.7606 24.9149 16.8334C24.9149 17.2478 24.8613 17.6485 24.7596 18.0309H24.9903C25.052 17.6657 25.2267 17.3394 25.4756 17.0887C25.7257 16.8379 26.0511 16.6628 26.4153 16.6021V13.9814H23.9444ZM14.8108 20.7124V20.9128H15.102V20.7124H14.8108ZM6.14987 20.7124V20.9128H6.44104V20.7124H6.14987ZM4.54672 20.7124V20.9128H4.83789V20.7124H4.54672ZM22.2111 10.6816V8.4353C22.009 8.48797 21.8286 8.59444 21.6847 8.73754C21.4758 8.94706 21.3456 9.23787 21.3456 9.55846C21.3456 9.87905 21.4758 10.1687 21.6847 10.3794C21.8275 10.5225 22.009 10.629 22.2111 10.6816ZM26.4166 11.5552V7.56175H25.5511V11.5552H26.4166ZM4.79226 8.43518V10.6815C4.99437 10.6289 5.17478 10.5224 5.31865 10.3793C5.52761 10.1698 5.65779 9.87896 5.65779 9.55837C5.65779 9.23778 5.52763 8.94699 5.31865 8.73746C5.17592 8.59434 4.99436 8.48784 4.79226 8.43518ZM0.586764 5.72173V6.9754H1.74458C1.90558 6.9754 2.0369 7.10707 2.0369 7.2685V11.8482C2.0369 12.0096 1.90558 12.1413 1.74458 12.1413H0.586764V13.395H4.20763V5.72278H0.586764V5.72173ZM0.586764 7.5616V11.5551H1.45227V7.5616H0.586764ZM15.4102 7.64518C14.9215 7.15515 14.2467 6.8529 13.5022 6.8529C12.7566 6.8529 12.0817 7.15632 11.5942 7.64518C11.1055 8.13521 10.804 8.81186 10.804 9.55833C10.804 10.306 11.1066 10.9826 11.5942 11.4715C12.0829 11.9615 12.7577 12.2638 13.5022 12.2638C14.2478 12.2638 14.9227 11.9603 15.4102 11.4715C15.8989 10.9814 16.2004 10.3048 16.2004 9.55833C16.2004 8.81069 15.8978 8.13404 15.4102 7.64518ZM26.4163 1.91596V1.37901C26.4163 1.29886 26.3832 1.22559 26.3307 1.17178C26.2782 1.11911 26.2051 1.08591 26.124 1.08591H25.5885C25.641 1.28856 25.7472 1.46946 25.8899 1.61372C26.0327 1.75683 26.2142 1.86331 26.4163 1.91596ZM25.5885 18.0306H26.124C26.204 18.0306 26.277 17.9974 26.3307 17.9447C26.3832 17.892 26.4163 17.8188 26.4163 17.7375V17.2005C26.2142 17.2532 26.0327 17.3597 25.8899 17.5028C25.7472 17.6459 25.641 17.8279 25.5885 18.0306ZM0.586764 17.2005V17.7375C0.586764 17.8176 0.619877 17.8909 0.672403 17.9447C0.724928 17.9974 0.798006 18.0306 0.879076 18.0306H1.41459C1.36207 17.8279 1.25588 17.6459 1.11316 17.5028C0.970429 17.3596 0.788869 17.2532 0.586764 17.2005ZM1.41459 1.08591H0.879076C0.799146 1.08591 0.726068 1.11911 0.672403 1.17178C0.619877 1.22444 0.586764 1.29772 0.586764 1.37901V1.91596C0.788872 1.8633 0.969284 1.75682 1.11316 1.61372C1.25589 1.4706 1.36208 1.28855 1.41459 1.08591Z" fill="black"/>
</svg>
