<svg width="27" height="20" viewBox="0 0 27 20" fill="none" xmlns="http://www.w3.org/2000/svg">
<path d="M24.6678 3.09881C24.635 2.86946 24.4387 2.69923 24.207 2.69923H17.6131V1.70593C17.6131 0.80763 16.8821 0.0766602 15.9839 0.0766602C15.0856 0.0766602 14.3546 0.807663 14.3546 1.70593V2.69923H10.3603V1.70593C10.3603 0.80763 9.6293 0.0766602 8.73104 0.0766602C7.83277 0.0766602 7.10177 0.807663 7.10177 1.70593V2.69923H2.79378C2.56216 2.69923 2.36577 2.86946 2.33304 3.09881L0.00550521 19.3917C-0.0387735 19.6628 0.190348 19.9298 0.466246 19.9232H26.5346C26.6696 19.9232 26.7978 19.8645 26.8862 19.7627C26.9746 19.6609 27.0144 19.5254 26.9953 19.3917L24.6678 3.09881ZM15.2856 1.70593C15.3098 0.785085 16.6581 0.785457 16.6821 1.70596V2.69923H15.2856V1.70593ZM16.6821 3.63023V5.99093H10.3603V3.63023H16.6821ZM10.3603 6.92197H16.6821V10.2503C15.2265 10.1627 15.1588 9.29985 13.4959 9.32341C11.858 9.29989 11.7715 10.1372 10.3603 10.2485V6.92197ZM8.03277 1.70593C8.057 0.785085 9.40527 0.785457 9.4293 1.70596V2.69923H8.03277V1.70593ZM1.00289 18.9922L3.19745 3.63023H9.42927V10.1534C8.49567 9.82283 8.23027 9.32311 6.88351 9.32338C5.93456 9.32334 5.43926 9.60316 5.00218 9.84999C4.66152 10.0733 4.02909 10.1612 4.2162 10.709C4.30799 10.949 4.57714 11.0699 4.81693 10.9781C5.60585 10.6719 5.84759 10.2511 6.88351 10.2544C7.58995 10.2544 7.9241 10.4426 8.31093 10.6603C9.31118 11.3563 11.0813 11.3499 12.0738 10.6594C12.8304 10.1235 14.1621 10.124 14.9176 10.6595C15.9118 11.3509 17.6819 11.3555 18.6805 10.6603C19.0673 10.4426 19.4015 10.2544 20.1079 10.2544C21.1446 10.2514 21.3868 10.6677 22.1747 10.9736C22.4148 11.0654 22.6839 10.9445 22.7755 10.704C22.9603 10.1563 22.3316 10.0685 21.9906 9.84706C21.5533 9.60157 21.0575 9.32334 20.1079 9.32334C18.7863 9.32614 18.5091 9.79694 17.6131 10.1386V3.63023H23.8033L25.9979 18.9922H1.00289Z" fill="black"/>
<path d="M22.506 12.4956C21.683 12.1418 21.3768 11.7232 20.1078 11.7155C19.1572 11.7155 18.6611 11.9951 18.2235 12.2414C17.8376 12.4587 17.5043 12.6465 16.8018 12.6465C15.2373 12.6145 15.2203 11.6923 13.4957 11.7155C12.549 11.7155 12.0537 11.9941 11.6169 12.2405C10.866 12.7752 9.5217 12.7784 8.76768 12.2414C7.78028 11.5509 5.99641 11.5452 5.00203 12.2424C4.66124 12.4653 4.02895 12.5533 4.21605 13.1011C4.30785 13.3411 4.577 13.4625 4.81679 13.3702C5.6057 13.064 5.84745 12.6432 6.88337 12.6465C7.58981 12.6465 7.92395 12.8347 8.31078 13.0524C9.311 13.7484 11.0812 13.742 12.0737 13.0515C12.8302 12.5156 14.1619 12.5162 14.9174 13.0516C15.355 13.2979 15.8512 13.5775 16.8017 13.5775C18.5262 13.6005 18.5431 12.6785 20.1078 12.6464C21.1444 12.6433 21.3867 13.0598 22.1746 13.3657C22.7426 13.5743 23.0789 12.7244 22.506 12.4956Z" fill="black"/>
<path d="M22.506 14.8881C21.683 14.5344 21.3768 14.1158 20.1078 14.1081C19.1572 14.1081 18.6611 14.3876 18.2235 14.634C17.8375 14.8513 17.5043 15.0391 16.8018 15.0391C15.2373 15.0071 15.2203 14.0849 13.4957 14.1081C12.549 14.1081 12.0537 14.3867 11.6169 14.6331C10.866 15.1677 9.5217 15.171 8.76768 14.6339C7.78028 13.9435 5.99641 13.9377 5.00203 14.635C4.66124 14.8579 4.02895 14.9459 4.21605 15.4937C4.30785 15.7337 4.577 15.8541 4.81679 15.7628C5.6057 15.4566 5.84745 15.0358 6.88337 15.0391C7.5898 15.0391 7.92395 15.2272 8.31078 15.445C9.311 16.141 11.0812 16.1346 12.0737 15.444C12.8302 14.9082 14.1619 14.9088 14.9174 15.4442C15.355 15.6905 15.8511 15.9701 16.8017 15.9701C18.5262 15.9931 18.5431 15.0711 20.1078 15.039C21.1444 15.0359 21.3867 15.4524 22.1746 15.7583C22.7424 15.9675 23.079 15.1168 22.506 14.8881Z" fill="black"/>
</svg>
