<svg width="25" height="36" viewBox="0 0 25 36" fill="none" xmlns="http://www.w3.org/2000/svg">
<path d="M11.8315 11.6205C11.2965 11.6205 10.7736 11.4639 10.3288 11.1704C9.884 10.877 9.53732 10.4599 9.3326 9.97189C9.12788 9.4839 9.07432 8.94694 9.17868 8.42889C9.28305 7.91084 9.54065 7.43499 9.91893 7.0615C10.2972 6.68801 10.7791 6.43366 11.3038 6.33061C11.8285 6.22757 12.3724 6.28045 12.8666 6.48259C13.3608 6.68472 13.7833 7.02701 14.0805 7.46619C14.3777 7.90537 14.5363 8.4217 14.5363 8.9499C14.5363 9.65819 14.2513 10.3375 13.7441 10.8383C13.2368 11.3391 12.5489 11.6205 11.8315 11.6205ZM11.8315 6.83249C11.4089 6.83099 10.9953 6.95325 10.6431 7.18382C10.2908 7.41439 10.0158 7.74291 9.85262 8.12784C9.68949 8.51277 9.64562 8.93682 9.72657 9.34637C9.80752 9.75591 10.0096 10.1326 10.3074 10.4287C10.6052 10.7248 10.9852 10.9271 11.3993 11.01C11.8135 11.0929 12.2433 11.0526 12.6344 10.8943C13.0254 10.7361 13.3601 10.4668 13.5962 10.1207C13.8322 9.77462 13.959 9.36717 13.9606 8.9499C13.9595 8.39233 13.735 7.85783 13.3361 7.46322C12.9371 7.0686 12.3962 6.84595 11.8315 6.84394V6.83249Z" fill="black"/>
<path d="M11.8313 9.23535C11.7932 9.23552 11.7555 9.22819 11.7203 9.21378C11.6852 9.19937 11.6533 9.17816 11.6265 9.15141C11.5722 9.09776 11.5417 9.02504 11.5417 8.94921C11.5417 8.87338 11.5722 8.80066 11.6265 8.74701L13.3421 7.04164C13.3971 6.9911 13.4697 6.96358 13.5448 6.96489C13.6199 6.9662 13.6915 6.99623 13.7446 7.04865C13.7977 7.10108 13.8281 7.1718 13.8294 7.24593C13.8308 7.32006 13.8029 7.3918 13.7517 7.44604L12.0284 9.15141C12.0029 9.17776 11.9723 9.19878 11.9385 9.2132C11.9046 9.22762 11.8682 9.23515 11.8313 9.23535Z" fill="black"/>
<path d="M13.0794 3.2273H10.5872C10.5103 3.2273 10.4366 3.19715 10.3822 3.14349C10.3279 3.08983 10.2974 3.01705 10.2974 2.94116C10.2974 2.86528 10.3279 2.7925 10.3822 2.73884C10.4366 2.68518 10.5103 2.65503 10.5872 2.65503H13.0794C13.1563 2.65503 13.23 2.68518 13.2844 2.73884C13.3387 2.7925 13.3692 2.86528 13.3692 2.94116C13.3692 3.01705 13.3387 3.08983 13.2844 3.14349C13.23 3.19715 13.1563 3.2273 13.0794 3.2273Z" fill="black"/>
<path d="M13.0794 4.82642H10.5872C10.5103 4.82642 10.4366 4.79628 10.3822 4.74261C10.3279 4.68895 10.2974 4.61617 10.2974 4.54029C10.2974 4.4644 10.3279 4.39162 10.3822 4.33796C10.4366 4.2843 10.5103 4.25415 10.5872 4.25415H13.0794C13.1563 4.25415 13.23 4.2843 13.2844 4.33796C13.3387 4.39162 13.3692 4.4644 13.3692 4.54029C13.3692 4.61617 13.3387 4.68895 13.2844 4.74261C13.23 4.79628 13.1563 4.82642 13.0794 4.82642Z" fill="black"/>
<path d="M14.7913 20.4756H8.87551C8.49121 20.4756 8.12266 20.3248 7.85092 20.0565C7.57918 19.7882 7.42651 19.4243 7.42651 19.0449V17.8469C7.42651 17.4675 7.57918 17.1036 7.85092 16.8353C8.12266 16.567 8.49121 16.4163 8.87551 16.4163H14.7913C15.1756 16.4163 15.5441 16.567 15.8159 16.8353C16.0876 17.1036 16.2403 17.4675 16.2403 17.8469V19.0449C16.2403 19.4243 16.0876 19.7882 15.8159 20.0565C15.5441 20.3248 15.1756 20.4756 14.7913 20.4756ZM8.87551 16.9885C8.64493 16.9885 8.4238 17.079 8.26075 17.24C8.09771 17.4009 8.00611 17.6193 8.00611 17.8469V19.0449C8.00611 19.2726 8.09771 19.4909 8.26075 19.6519C8.4238 19.8129 8.64493 19.9033 8.87551 19.9033H14.7913C15.0219 19.9033 15.243 19.8129 15.406 19.6519C15.5691 19.4909 15.6607 19.2726 15.6607 19.0449V17.8469C15.6607 17.6193 15.5691 17.4009 15.406 17.24C15.243 17.079 15.0219 16.9885 14.7913 16.9885H8.87551Z" fill="black"/>
<path d="M19.3701 26.595H4.30054C4.22368 26.595 4.14997 26.5648 4.09562 26.5112C4.04127 26.4575 4.01074 26.3847 4.01074 26.3088C4.01074 26.233 4.04127 26.1602 4.09562 26.1065C4.14997 26.0529 4.22368 26.0227 4.30054 26.0227H19.3701C19.447 26.0227 19.5207 26.0529 19.575 26.1065C19.6294 26.1602 19.6599 26.233 19.6599 26.3088C19.6599 26.3847 19.6294 26.4575 19.575 26.5112C19.5207 26.5648 19.447 26.595 19.3701 26.595Z" fill="black"/>
<path d="M9.13843 24.4392C8.89999 24.4392 8.66691 24.3694 8.46865 24.2386C8.2704 24.1078 8.11588 23.9219 8.02463 23.7044C7.93338 23.4869 7.90951 23.2476 7.95603 23.0167C8.00254 22.7858 8.11736 22.5737 8.28596 22.4072C8.45457 22.2408 8.66938 22.1274 8.90323 22.0815C9.13709 22.0355 9.37949 22.0591 9.59978 22.1492C9.82007 22.2393 10.0084 22.3919 10.1408 22.5876C10.2733 22.7834 10.344 23.0135 10.344 23.2489C10.344 23.5646 10.217 23.8674 9.99089 24.0906C9.7648 24.3138 9.45816 24.4392 9.13843 24.4392ZM9.13843 22.6309C9.01462 22.6309 8.8936 22.6671 8.79066 22.735C8.68772 22.8029 8.60749 22.8995 8.56011 23.0124C8.51273 23.1253 8.50034 23.2496 8.52449 23.3695C8.54864 23.4894 8.60826 23.5995 8.6958 23.6859C8.78335 23.7724 8.89488 23.8312 9.01631 23.8551C9.13773 23.8789 9.26359 23.8667 9.37797 23.8199C9.49236 23.7731 9.59012 23.6939 9.6589 23.5923C9.72768 23.4907 9.76439 23.3712 9.76439 23.2489C9.76439 23.085 9.69844 22.9278 9.58105 22.8119C9.46366 22.696 9.30445 22.6309 9.13843 22.6309Z" fill="black"/>
<path d="M14.1731 24.4392C13.9345 24.44 13.701 24.3708 13.5022 24.2405C13.3035 24.1102 13.1483 23.9245 13.0565 23.7071C12.9647 23.4896 12.9402 23.2502 12.9863 23.019C13.0324 22.7879 13.1469 22.5754 13.3154 22.4086C13.4838 22.2417 13.6986 22.128 13.9326 22.0817C14.1665 22.0355 14.4091 22.0589 14.6296 22.1488C14.8502 22.2388 15.0387 22.3914 15.1713 22.5872C15.304 22.783 15.3748 23.0133 15.3748 23.2489C15.3748 23.5639 15.2483 23.8661 15.023 24.0893C14.7978 24.3124 14.4921 24.4382 14.1731 24.4392ZM14.1731 22.6309C14.0491 22.6301 13.9277 22.6657 13.8242 22.7332C13.7208 22.8006 13.64 22.8969 13.592 23.0097C13.544 23.1226 13.5311 23.247 13.5548 23.3671C13.5785 23.4873 13.6378 23.5978 13.7252 23.6846C13.8126 23.7714 13.9241 23.8306 14.0456 23.8548C14.1672 23.879 14.2932 23.8669 14.4078 23.8203C14.5224 23.7736 14.6204 23.6944 14.6894 23.5927C14.7583 23.491 14.7952 23.3713 14.7952 23.2489C14.7942 23.086 14.7284 22.9299 14.6121 22.8143C14.4957 22.6987 14.3381 22.6329 14.1731 22.6309Z" fill="black"/>
<path d="M11.8547 31.6196C8.35669 31.6139 4.87698 31.1207 1.51855 30.1546C1.0821 30.0282 0.698599 29.7661 0.425023 29.4073C0.151447 29.0485 0.00239189 28.6122 0 28.1631V4.05904C0.00630112 3.61273 0.157106 3.18012 0.430348 2.82452C0.70359 2.46892 1.08492 2.209 1.51855 2.0828C3.23715 1.58088 4.98926 1.19842 6.76199 0.938253C6.80294 0.932172 6.84474 0.934947 6.8845 0.946385C6.92426 0.957824 6.96103 0.977653 6.99226 1.0045C7.0235 1.03135 7.04845 1.06458 7.0654 1.10188C7.08235 1.13919 7.09089 1.17969 7.09043 1.22057V9.02635C7.07233 9.65259 7.18161 10.2761 7.41183 10.8599C7.64205 11.4437 7.98852 11.9759 8.43074 12.4252C8.87296 12.8745 9.40196 13.2316 9.98643 13.4755C10.5709 13.7194 11.199 13.845 11.8335 13.845C12.468 13.845 13.0961 13.7194 13.6805 13.4755C14.265 13.2316 14.794 12.8745 15.2362 12.4252C15.6784 11.9759 16.0249 11.4437 16.2551 10.8599C16.4854 10.2761 16.5946 9.65259 16.5765 9.02635V1.23202C16.5743 1.19018 16.5816 1.14839 16.5978 1.10967C16.614 1.07095 16.6387 1.03627 16.6701 1.00815C16.7016 0.980021 16.739 0.959159 16.7796 0.94707C16.8202 0.934981 16.863 0.931969 16.905 0.938253C18.6777 1.19842 20.4298 1.58088 22.1484 2.0828C22.5852 2.20996 22.9688 2.47275 23.2423 2.83217C23.5159 3.1916 23.6648 3.62852 23.667 4.07811V28.1631C23.6646 28.6122 23.5155 29.0485 23.2419 29.4073C22.9684 29.7661 22.5849 30.0282 22.1484 30.1546C21.2442 30.4102 20.3323 30.6353 19.4436 30.8223C18.5549 31.0092 17.7589 31.1465 16.9127 31.2686C15.237 31.5017 13.5469 31.619 11.8547 31.6196ZM6.51083 1.56394C4.8783 1.81027 3.26363 2.16072 1.67697 2.6131C1.36196 2.70733 1.08564 2.8984 0.888256 3.15848C0.690874 3.41856 0.58274 3.73406 0.579599 4.05904V28.1631C0.583812 28.4879 0.692884 28.8029 0.890946 29.0623C1.08901 29.3217 1.36573 29.5119 1.68084 29.6052C6.59261 31.0274 11.755 31.3993 16.8238 30.6964C17.6585 30.5781 18.4969 30.4331 19.32 30.2614C20.143 30.0898 21.0974 29.8532 21.9861 29.6014C22.3012 29.5081 22.578 29.3179 22.776 29.0585C22.9741 28.7991 23.0832 28.4841 23.0874 28.1593V4.05904C23.084 3.73358 22.9753 3.41771 22.7772 3.15757C22.579 2.89744 22.3019 2.70666 21.9861 2.6131C20.4008 2.16078 18.7874 1.81032 17.1561 1.56394V9.02635C17.1753 9.72841 17.0518 10.4271 16.7929 11.0813C16.534 11.7354 16.1451 12.3318 15.6489 12.835C15.1528 13.3383 14.5595 13.7383 13.9042 14.0114C13.2489 14.2845 12.5448 14.4252 11.8335 14.4252C11.1222 14.4252 10.4181 14.2845 9.76277 14.0114C9.10746 13.7383 8.51421 13.3383 8.01806 12.835C7.52191 12.3318 7.13292 11.7354 6.87405 11.0813C6.61517 10.4271 6.49167 9.72841 6.51083 9.02635V1.56394Z" fill="black"/>
<path d="M18.122 33.473C17.7121 33.473 17.319 33.3122 17.0291 33.026C16.7393 32.7398 16.5764 32.3517 16.5764 31.9469V30.9817C16.5758 30.913 16.6006 30.8464 16.6461 30.7944C16.6916 30.7425 16.7548 30.7087 16.8237 30.6994C17.6583 30.5811 18.4968 30.4361 19.3199 30.2645C19.3616 30.2555 19.4048 30.256 19.4463 30.2659C19.4878 30.2758 19.5265 30.2949 19.5594 30.3217C19.5932 30.3481 19.6205 30.3818 19.6392 30.4201C19.6579 30.4584 19.6676 30.5004 19.6676 30.543V31.9469C19.6676 32.3517 19.5048 32.7398 19.2149 33.026C18.9251 33.3122 18.5319 33.473 18.122 33.473ZM17.156 31.2297V31.9469C17.156 32.1999 17.2578 32.4425 17.439 32.6214C17.6201 32.8002 17.8658 32.9007 18.122 32.9007C18.3782 32.9007 18.6239 32.8002 18.8051 32.6214C18.9862 32.4425 19.088 32.1999 19.088 31.9469V30.894C18.4505 31.0237 17.8013 31.1343 17.156 31.2297Z" fill="black"/>
<path d="M5.8462 32.653C5.76934 32.653 5.69562 32.6229 5.64128 32.5692C5.58693 32.5155 5.5564 32.4428 5.5564 32.3669V30.8408C5.5564 30.7649 5.58693 30.6922 5.64128 30.6385C5.69562 30.5848 5.76934 30.5547 5.8462 30.5547C5.92306 30.5547 5.99677 30.5848 6.05112 30.6385C6.10546 30.6922 6.136 30.7649 6.136 30.8408V32.3669C6.13499 32.4425 6.10414 32.5147 6.05001 32.5681C5.99588 32.6216 5.92274 32.652 5.8462 32.653Z" fill="black"/>
<path d="M5.84614 34.4583C5.60738 34.459 5.37376 34.3898 5.17492 34.2593C4.97607 34.1288 4.82095 33.9429 4.72923 33.7252C4.6375 33.5076 4.6133 33.2679 4.6597 33.0367C4.70609 32.8054 4.82099 32.593 4.98982 32.4263C5.15866 32.2596 5.37382 32.1461 5.60804 32.1003C5.84225 32.0545 6.08497 32.0784 6.30542 32.169C6.52586 32.2595 6.71411 32.4127 6.84628 32.609C6.97846 32.8054 7.04861 33.036 7.04785 33.2718C7.04683 33.5861 6.91989 33.8874 6.69475 34.1096C6.46961 34.3319 6.16454 34.4573 5.84614 34.4583ZM5.84614 32.6537C5.72218 32.653 5.60077 32.6886 5.49733 32.756C5.39388 32.8235 5.31305 32.9197 5.26508 33.0326C5.21711 33.1455 5.20416 33.2699 5.22787 33.39C5.25159 33.5101 5.3109 33.6206 5.39829 33.7074C5.48567 33.7943 5.5972 33.8535 5.71873 33.8777C5.84026 33.9018 5.96632 33.8898 6.08093 33.8431C6.19553 33.7965 6.29352 33.7173 6.36248 33.6155C6.43143 33.5138 6.46824 33.3942 6.46825 33.2718C6.46825 33.1085 6.40283 32.9519 6.28627 32.8361C6.16972 32.7203 6.01149 32.6547 5.84614 32.6537Z" fill="black"/>
<path d="M5.84614 34.4583C5.60738 34.459 5.37376 34.3898 5.17492 34.2593C4.97607 34.1288 4.82095 33.9429 4.72923 33.7252C4.6375 33.5076 4.6133 33.2679 4.6597 33.0367C4.70609 32.8054 4.82099 32.593 4.98982 32.4263C5.15866 32.2596 5.37382 32.1461 5.60804 32.1003C5.84225 32.0545 6.08497 32.0784 6.30542 32.169C6.52586 32.2595 6.71411 32.4127 6.84628 32.609C6.97846 32.8054 7.04861 33.036 7.04785 33.2718C7.04683 33.5861 6.91989 33.8874 6.69475 34.1096C6.46961 34.3319 6.16454 34.4573 5.84614 34.4583ZM5.84614 32.6537C5.72218 32.653 5.60077 32.6886 5.49733 32.756C5.39388 32.8235 5.31305 32.9197 5.26508 33.0326C5.21711 33.1455 5.20416 33.2699 5.22787 33.39C5.25159 33.5101 5.3109 33.6206 5.39829 33.7074C5.48567 33.7943 5.5972 33.8535 5.71873 33.8777C5.84026 33.9018 5.96632 33.8898 6.08093 33.8431C6.19553 33.7965 6.29352 33.7173 6.36248 33.6155C6.43143 33.5138 6.46824 33.3942 6.46825 33.2718C6.46825 33.1085 6.40283 32.9519 6.28627 32.8361C6.16972 32.7203 6.01149 32.6547 5.84614 32.6537Z" fill="black"/>
<path d="M5.84622 35.1483C5.80802 35.1488 5.7701 35.1418 5.73471 35.1276C5.69931 35.1134 5.66716 35.0923 5.64015 35.0656C5.61313 35.039 5.5918 35.0072 5.57742 34.9723C5.56304 34.9373 5.5559 34.8999 5.55642 34.8622V34.1716C5.55642 34.0957 5.58696 34.023 5.6413 33.9693C5.69565 33.9156 5.76936 33.8855 5.84622 33.8855C5.92308 33.8855 5.99679 33.9156 6.05114 33.9693C6.10549 34.023 6.13602 34.0957 6.13602 34.1716V34.8622C6.13602 34.9381 6.10549 35.0108 6.05114 35.0645C5.99679 35.1182 5.92308 35.1483 5.84622 35.1483Z" fill="black"/>
<path d="M5.8462 32.6534C5.76934 32.6534 5.69562 32.6233 5.64128 32.5696C5.58693 32.516 5.5564 32.4432 5.5564 32.3673V31.6768C5.5564 31.6009 5.58693 31.5281 5.64128 31.4744C5.69562 31.4208 5.76934 31.3906 5.8462 31.3906C5.92306 31.3906 5.99677 31.4208 6.05112 31.4744C6.10546 31.5281 6.136 31.6009 6.136 31.6768V32.3673C6.13499 32.4429 6.10414 32.5151 6.05001 32.5685C5.99588 32.622 5.92274 32.6524 5.8462 32.6534Z" fill="black"/>
<path d="M4.93425 33.5576H4.23487C4.15801 33.5576 4.0843 33.5275 4.02995 33.4738C3.9756 33.4202 3.94507 33.3474 3.94507 33.2715C3.94507 33.1956 3.9756 33.1228 4.02995 33.0692C4.0843 33.0155 4.15801 32.9854 4.23487 32.9854H4.93425C5.01111 32.9854 5.08482 33.0155 5.13917 33.0692C5.19352 33.1228 5.22405 33.1956 5.22405 33.2715C5.22405 33.3474 5.19352 33.4202 5.13917 33.4738C5.08482 33.5275 5.01111 33.5576 4.93425 33.5576Z" fill="black"/>
<path d="M7.46135 33.5576H6.76197C6.68511 33.5576 6.6114 33.5275 6.55705 33.4738C6.5027 33.4202 6.47217 33.3474 6.47217 33.2715C6.47217 33.1956 6.5027 33.1228 6.55705 33.0692C6.6114 33.0155 6.68511 32.9854 6.76197 32.9854H7.46135C7.53821 32.9854 7.61192 33.0155 7.66627 33.0692C7.72062 33.1228 7.75115 33.1956 7.75115 33.2715C7.75115 33.3474 7.72062 33.4202 7.66627 33.4738C7.61192 33.5275 7.53821 33.5576 7.46135 33.5576Z" fill="black"/>
<path d="M24.7101 35.5H19.826C19.5637 35.5005 19.3038 35.4499 19.0612 35.3513C18.8187 35.2526 18.5982 35.1078 18.4123 34.925C18.2264 34.7422 18.0789 34.525 17.978 34.2859C17.8771 34.0468 17.825 33.7904 17.8245 33.5314V33.188C17.8245 33.1121 17.855 33.0393 17.9093 32.9857C17.9637 32.932 18.0374 32.9019 18.1143 32.9019C18.1911 32.9019 18.2648 32.932 18.3192 32.9857C18.3735 33.0393 18.4041 33.1121 18.4041 33.188V33.5314C18.4051 33.9014 18.5544 34.256 18.8194 34.5176C19.0844 34.7793 19.4435 34.9267 19.8183 34.9277H24.7101C24.787 34.9277 24.8607 34.9578 24.915 35.0115C24.9694 35.0652 24.9999 35.1379 24.9999 35.2138C24.9999 35.2897 24.9694 35.3625 24.915 35.4162C24.8607 35.4698 24.787 35.5 24.7101 35.5Z" fill="black"/>
<path d="M6.80079 1.51864C6.72291 1.52421 6.64597 1.499 6.58692 1.44856C6.52786 1.39811 6.49151 1.32658 6.48588 1.24968C6.48024 1.17278 6.50577 1.09681 6.55686 1.0385C6.60795 0.980192 6.6804 0.944307 6.75829 0.938741L7.09059 0.89296C8.66671 0.635698 10.2613 0.504286 11.8588 0.5C13.5502 0.534406 15.2374 0.680984 16.909 0.938741C16.9806 0.954411 17.0435 0.996288 17.085 1.05593C17.1266 1.11558 17.1437 1.18856 17.1329 1.26017C17.1221 1.33177 17.0843 1.39668 17.0269 1.44181C16.9696 1.48695 16.8971 1.50895 16.824 1.50338C15.1792 1.25077 13.5191 1.10674 11.8549 1.07227C10.286 1.07535 8.71992 1.20293 7.17174 1.45379L6.8433 1.49957L6.80079 1.51864Z" fill="black"/>
</svg>
