<svg width="32" height="33" viewBox="0 0 32 33" fill="none" xmlns="http://www.w3.org/2000/svg">
<path d="M24 19.4007C22.5273 19.4007 21.3334 18.2068 21.3334 16.734C21.3334 15.2613 22.5273 14.0674 24 14.0674C25.4728 14.0674 26.6667 15.2613 26.6667 16.734C26.6667 17.4413 26.3858 18.1196 25.8857 18.6197C25.3856 19.1198 24.7073 19.4007 24 19.4007ZM16 19.4007C14.5273 19.4007 13.3334 18.2068 13.3334 16.734C13.3334 15.2613 14.5273 14.0674 16 14.0674C17.4728 14.0674 18.6667 15.2613 18.6667 16.734C18.6667 17.4413 18.3858 18.1196 17.8857 18.6197C17.3856 19.1198 16.7073 19.4007 16 19.4007ZM8.00004 19.4007C6.52728 19.4007 5.33337 18.2068 5.33337 16.734C5.33337 15.2613 6.52728 14.0674 8.00004 14.0674C9.4728 14.0674 10.6667 15.2613 10.6667 16.734C10.6667 17.4413 10.3858 18.1196 9.88566 18.6197C9.38556 19.1198 8.70728 19.4007 8.00004 19.4007Z" fill="#0F1828"/>
</svg>
