<svg width="16" height="18" viewBox="0 0 16 18" fill="none" xmlns="http://www.w3.org/2000/svg">
<path d="M14.9991 1.22168C14.9527 1.17525 14.8976 1.13841 14.837 1.11328C14.7763 1.08815 14.7113 1.07521 14.6456 1.07521C14.58 1.07521 14.515 1.08815 14.4543 1.11328C14.3937 1.13841 14.3386 1.17525 14.2921 1.22168L11.7355 3.77832C11.0153 2.91907 10.0262 2.32808 8.92834 2.10107V1C8.92834 0.734784 8.82298 0.48043 8.63545 0.292893C8.44791 0.105357 8.19356 0 7.92834 0C7.66312 0 7.40877 0.105357 7.22123 0.292893C7.0337 0.48043 6.92834 0.734784 6.92834 1V2.10107C5.79988 2.33302 4.78588 2.94692 4.05725 3.83929C3.32863 4.73166 2.92992 5.84795 2.92834 7V12.0503C2.36408 12.1663 1.85706 12.4733 1.49274 12.9195C1.12843 13.3657 0.929094 13.9239 0.928341 14.5V14.587L0.150021 15.3638C0.102827 15.4101 0.0652687 15.4652 0.0395195 15.5261C0.0137703 15.5869 0.000340115 15.6523 6.37693e-06 15.7184C-0.000327361 15.7844 0.0124417 15.8499 0.0375749 15.911C0.0627082 15.9721 0.099707 16.0277 0.146432 16.0744C0.193157 16.1211 0.248682 16.1581 0.309795 16.1833C0.370908 16.2084 0.436397 16.2212 0.502475 16.2208C0.568554 16.2205 0.633911 16.2071 0.694767 16.1813C0.755623 16.1556 0.81077 16.118 0.857021 16.0708L11.5677 5.36017L12.3127 4.61609L14.9991 1.92871C15.0456 1.88229 15.0824 1.82718 15.1076 1.76653C15.1327 1.70587 15.1456 1.64085 15.1456 1.57519C15.1456 1.50954 15.1327 1.44452 15.1076 1.38386C15.0824 1.32321 15.0456 1.2681 14.9991 1.22168ZM3.92834 11.5855V7C3.92572 6.17341 4.18006 5.36643 4.65616 4.69072C5.13226 4.01501 5.8066 3.50396 6.58587 3.22828C7.36514 2.9526 8.21082 2.92592 9.00592 3.15193C9.80102 3.37793 10.5062 3.84545 11.024 4.48981L3.92834 11.5855ZM14.9283 14.5C14.9284 14.5657 14.9155 14.6307 14.8904 14.6914C14.8652 14.7521 14.8284 14.8072 14.782 14.8536C14.7355 14.9001 14.6804 14.9369 14.6197 14.962C14.559 14.9871 14.494 15 14.4283 15H3.34289L4.34289 14H13.8429C13.7391 13.7077 13.5474 13.4548 13.2942 13.2757C13.0409 13.0967 12.7385 13.0004 12.4283 13C12.3627 13 12.2976 12.9871 12.237 12.962C12.1763 12.9369 12.1211 12.9001 12.0747 12.8536C12.0283 12.8072 11.9914 12.7521 11.9663 12.6914C11.9412 12.6307 11.9283 12.5657 11.9283 12.5V7C11.9225 6.82176 11.9045 6.64412 11.8746 6.46832L12.7172 5.62567C12.852 6.07155 12.923 6.53423 12.9283 7V12.0503C13.4926 12.1663 13.9996 12.4733 14.3639 12.9195C14.7283 13.3657 14.9276 13.9239 14.9283 14.5ZM5.92834 16H9.92834C9.92834 16.5304 9.71763 17.0391 9.34255 17.4142C8.96748 17.7893 8.45877 18 7.92834 18C7.39791 18 6.8892 17.7893 6.51413 17.4142C6.13905 17.0391 5.92834 16.5304 5.92834 16Z" fill="black"/>
</svg>
