<svg width="14" height="19" viewBox="0 0 14 19" fill="none" xmlns="http://www.w3.org/2000/svg">
<path d="M13 1C13 1.19778 12.9414 1.39112 12.8315 1.55557C12.7216 1.72002 12.5654 1.84819 12.3827 1.92388C12.2 1.99957 11.9989 2.01937 11.8049 1.98079C11.6109 1.9422 11.4327 1.84696 11.2929 1.70711C11.153 1.56725 11.0578 1.38907 11.0192 1.19509C10.9806 1.00111 11.0004 0.800043 11.0761 0.617316C11.1518 0.43459 11.28 0.278412 11.4444 0.16853C11.6089 0.0586491 11.8022 0 12 0C12.2652 0 12.5196 0.105357 12.7071 0.292893C12.8946 0.48043 13 0.734784 13 1ZM14 15.5C14 15.5657 13.9871 15.6307 13.962 15.6914C13.9369 15.7521 13.9001 15.8072 13.8536 15.8536C13.8072 15.9001 13.7521 15.9369 13.6914 15.962C13.6307 15.9871 13.5657 16 13.5 16H0.5C0.434328 16 0.369293 15.9871 0.308613 15.962C0.247933 15.9369 0.192798 15.9001 0.146361 15.8536C0.0999246 15.8072 0.0630964 15.7521 0.0379825 15.6914C0.0128687 15.6307 -3.80385e-05 15.5657 8.42062e-08 15.5C0.000752817 14.9239 0.200086 14.3657 0.564401 13.9195C0.928717 13.4733 1.43574 13.1663 2 13.0503V8C2.00158 6.84795 2.40029 5.73166 3.12891 4.83929C3.85754 3.94692 4.87154 3.33302 6 3.10107V2C6 1.73478 6.10536 1.48043 6.29289 1.29289C6.48043 1.10536 6.73478 1 7 1C7.26522 1 7.51957 1.10536 7.70711 1.29289C7.89464 1.48043 8 1.73478 8 2V3.10107C9.12846 3.33302 10.1425 3.94692 10.8711 4.83929C11.5997 5.73166 11.9984 6.84795 12 8V13.0503C12.5643 13.1663 13.0713 13.4733 13.4356 13.9195C13.7999 14.3657 13.9992 14.9239 14 15.5ZM12.9146 15C12.8107 14.7077 12.6191 14.4548 12.3658 14.2757C12.1126 14.0967 11.8101 14.0004 11.5 14C11.4343 14 11.3693 13.9871 11.3086 13.962C11.2479 13.9369 11.1928 13.9001 11.1464 13.8536C11.0999 13.8072 11.0631 13.7521 11.038 13.6914C11.0129 13.6307 11 13.5657 11 13.5V8C11 6.93913 10.5786 5.92172 9.82843 5.17157C9.07828 4.42143 8.06087 4 7 4C5.93913 4 4.92172 4.42143 4.17157 5.17157C3.42143 5.92172 3 6.93913 3 8V13.5C3.00004 13.5657 2.98713 13.6307 2.96202 13.6914C2.9369 13.7521 2.90008 13.8072 2.85364 13.8536C2.8072 13.9001 2.75207 13.9369 2.69139 13.962C2.63071 13.9871 2.56567 14 2.5 14C2.18986 14.0004 1.88743 14.0967 1.63418 14.2757C1.38092 14.4548 1.18926 14.7077 1.08545 15H12.9146ZM7 19C7.53043 19 8.03914 18.7893 8.41421 18.4142C8.78929 18.0391 9 17.5304 9 17H5C5 17.5304 5.21071 18.0391 5.58579 18.4142C5.96086 18.7893 6.46957 19 7 19Z" fill="black"/>
</svg>
