<svg width="24" height="25" viewBox="0 0 24 25" fill="none" xmlns="http://www.w3.org/2000/svg">
<path d="M20.7825 4.14616C20.6813 4.04542 20.5534 3.97566 20.4139 3.94511C20.2744 3.91455 20.1291 3.92445 19.995 3.97366L3.495 9.97366C3.3527 10.0276 3.23019 10.1236 3.14374 10.2489C3.05729 10.3741 3.01099 10.5227 3.01099 10.6749C3.01099 10.8271 3.05729 10.9757 3.14374 11.1009C3.23019 11.2262 3.3527 11.3222 3.495 11.3762L9.9375 13.9487L14.6925 9.17866L15.75 10.2362L10.9725 15.0137L13.5525 21.4562C13.6081 21.5957 13.7043 21.7154 13.8286 21.7996C13.953 21.8838 14.0998 21.9288 14.25 21.9287C14.4016 21.9256 14.5486 21.8766 14.6718 21.7882C14.795 21.6999 14.8885 21.5762 14.94 21.4337L20.94 4.93366C20.9911 4.80097 21.0034 4.65648 20.9755 4.51705C20.9477 4.37762 20.8807 4.24899 20.7825 4.14616Z" fill="#35AD9E"/>
</svg>
