<svg width="24" height="23" viewBox="0 0 24 23" fill="none" xmlns="http://www.w3.org/2000/svg">
<path d="M21.3649 4.77089V11.2013C21.3649 13.4593 19.4463 15.2897 17.0799 15.2897H11.3646C10.9559 15.2897 10.5678 15.4498 10.2974 15.7291L8.37451 17.7218H13.6625C13.9437 17.7218 14.213 17.8292 14.4038 18.0172L18.9506 22.5L20.1028 18.2589C20.1878 17.9463 20.4647 17.7089 20.8124 17.6455C22.6296 17.3157 23.9999 15.8623 23.9999 14.1145V8.16317C23.9999 6.59803 22.9 5.27015 21.3652 4.77075L21.3649 4.77089Z" fill="white"/>
<path d="M10.7441 14.3649H16.0636C17.2605 14.3649 18.3495 13.9245 19.1408 13.2058C19.9322 12.4883 20.4293 11.4849 20.4282 10.3786V4.48747C20.4282 3.37995 19.9323 2.37661 19.1408 1.66018C18.3494 0.940443 17.2593 0.5 16.0625 0.5H4.36465C3.16772 0.5 2.07873 0.940443 1.28741 1.65908C0.496011 2.37667 -0.00108657 3.37998 1.7835e-06 4.48637V10.3775C1.7835e-06 11.3668 0.397892 12.2745 1.04758 12.9663C1.69836 13.6592 2.60097 14.1426 3.62349 14.3027C3.73577 14.3199 3.82297 14.4015 3.84696 14.4928L3.85023 14.5046L5.5475 19.4857L10.1892 14.583C10.3265 14.4477 10.5293 14.3649 10.7441 14.3649ZM9.56457 14.0083L5.90743 17.8723L4.67562 14.2585H4.67453C4.55462 13.8578 4.20469 13.5517 3.76212 13.4808C2.93255 13.3508 2.20547 12.9598 1.68876 12.4077C1.17095 11.8555 0.864654 11.1508 0.864654 10.3763V4.48741C0.864654 3.62267 1.24837 2.83955 1.88062 2.26485C2.51286 1.69122 3.39041 1.33243 4.36493 1.33243H16.0628C17.0384 1.33243 17.9148 1.69122 18.5471 2.26485C19.1793 2.83955 19.563 3.62267 19.563 4.48741V10.3785C19.563 11.2432 19.1793 12.0264 18.5471 12.6011C17.9148 13.1747 17.0373 13.5335 16.0628 13.5335H10.7441C10.3015 13.5335 9.87743 13.7011 9.57004 14.004L9.56457 14.0083Z" fill="white"/>
<path d="M10.744 8.19988H14.0927C14.3238 8.19988 14.5113 8.01511 14.5113 7.78738C14.5113 7.55964 14.3238 7.37488 14.0927 7.37488H10.744V4.07486C10.744 3.84712 10.5565 3.66235 10.3254 3.66235C10.0943 3.66235 9.90678 3.84712 9.90678 4.07486V7.37488H6.558C6.3269 7.37488 6.1394 7.55964 6.1394 7.78738C6.1394 8.01511 6.3269 8.19988 6.558 8.19988H9.90678V11.4999C9.90678 11.7276 10.0943 11.9124 10.3254 11.9124C10.5565 11.9124 10.744 11.7276 10.744 11.4999V8.19988Z" fill="white"/>
</svg>
