<svg width="25" height="22" viewBox="0 0 25 22" fill="none" xmlns="http://www.w3.org/2000/svg">
<path d="M8.42233 15.5833L10.175 17.9208C10.5875 18.4708 11.4125 18.4708 11.825 17.9208L13.5777 15.5833H16.5C18.0189 15.5833 19.25 14.3522 19.25 12.8333V7.33331C19.25 5.8144 18.0189 4.58331 16.5 4.58331H5.5C3.98108 4.58331 2.75 5.8144 2.75 7.33331V12.8333C2.75 14.3522 3.98108 15.5833 5.5 15.5833H8.42233Z" stroke="#A2A2A7" stroke-width="1.3" stroke-linecap="round" stroke-linejoin="round"/>
<path d="M11.1624 10.3795C11.2522 10.4693 11.2522 10.6141 11.1624 10.704C11.0725 10.7938 10.9277 10.7938 10.8379 10.704C10.748 10.6141 10.748 10.4693 10.8379 10.3795C10.9277 10.2896 11.0725 10.2906 11.1624 10.3795Z" stroke="#A2A2A7" stroke-width="1.3" stroke-linecap="round" stroke-linejoin="round"/>
<path d="M14.8289 10.3795C14.9187 10.4693 14.9187 10.6141 14.8289 10.704C14.7391 10.7938 14.5942 10.7938 14.5044 10.704C14.4146 10.6141 14.4146 10.4693 14.5044 10.3795C14.5942 10.2896 14.7391 10.2906 14.8289 10.3795Z" stroke="#A2A2A7" stroke-width="1.3" stroke-linecap="round" stroke-linejoin="round"/>
<path d="M7.49539 10.3795C7.58522 10.4693 7.58522 10.6141 7.49539 10.704C7.40556 10.7938 7.26072 10.7938 7.17089 10.704C7.08106 10.6141 7.08106 10.4693 7.17089 10.3795C7.26072 10.2896 7.40556 10.2906 7.49539 10.3795Z" stroke="#A2A2A7" stroke-width="1.3" stroke-linecap="round" stroke-linejoin="round"/>
</svg>
