<svg width="20" height="19" viewBox="0 0 20 19" fill="none" xmlns="http://www.w3.org/2000/svg">
<path d="M3.125 15C3.62228 15 4.0992 14.8025 4.45083 14.4508C4.80246 14.0992 5 13.6223 5 13.125V8.12501C5.0001 7.63416 4.80771 7.16284 4.46415 6.81227C4.12059 6.46169 3.65326 6.25982 3.1625 6.25001C3.31619 4.87541 3.97095 3.60562 5.00168 2.68327C6.03241 1.76092 7.36684 1.25066 8.75 1.25001H11.25C12.6332 1.25066 13.9676 1.76092 14.9983 2.68327C16.0291 3.60562 16.6838 4.87541 16.8375 6.25001C16.3467 6.25982 15.8794 6.46169 15.5358 6.81227C15.1923 7.16284 14.9999 7.63416 15 8.12501V13.125C14.9991 13.6034 15.1812 14.064 15.5088 14.4126C15.8365 14.7612 16.285 14.9713 16.7625 15C16.6336 15.3647 16.395 15.6806 16.0794 15.9044C15.7639 16.1282 15.3868 16.2489 15 16.25H12.3875C12.2401 15.833 11.95 15.4815 11.5685 15.2577C11.1869 15.0339 10.7386 14.9522 10.3027 15.027C9.86673 15.1018 9.47127 15.3283 9.18619 15.6665C8.9011 16.0046 8.74473 16.4327 8.74473 16.875C8.74473 17.3173 8.9011 17.7454 9.18619 18.0835C9.47127 18.4217 9.86673 18.6482 10.3027 18.723C10.7386 18.7978 11.1869 18.7161 11.5685 18.4923C11.95 18.2685 12.2401 17.917 12.3875 17.5H15C15.7603 17.4966 16.4933 17.216 17.0617 16.711C17.63 16.2059 17.9947 15.5109 18.0875 14.7563C18.6545 14.5176 19.1384 14.1168 19.4786 13.6043C19.8188 13.0917 20.0002 12.4902 20 11.875V9.37501C20.0009 8.76616 19.8239 8.17032 19.4908 7.66067C19.1577 7.15103 18.683 6.74979 18.125 6.50626C18.0305 4.74755 17.2647 3.09218 15.9855 1.88157C14.7063 0.670966 13.0112 -0.00252801 11.25 7.13111e-06H8.75C6.98877 -0.00252801 5.29372 0.670966 4.01451 1.88157C2.73529 3.09218 1.96947 4.74755 1.875 6.50626C1.31699 6.74979 0.842268 7.15103 0.509169 7.66067C0.176069 8.17032 -0.000900311 8.76616 3.44427e-06 9.37501V11.875C3.44427e-06 12.7038 0.329243 13.4987 0.915294 14.0847C1.50135 14.6708 2.2962 15 3.125 15ZM10.625 17.5C10.5014 17.5 10.3805 17.4634 10.2778 17.3947C10.175 17.326 10.0949 17.2284 10.0476 17.1142C10.0003 17 9.98789 16.8743 10.012 16.7531C10.0361 16.6318 10.0957 16.5205 10.1831 16.4331C10.2705 16.3457 10.3818 16.2861 10.5031 16.262C10.6243 16.2379 10.75 16.2503 10.8642 16.2976C10.9784 16.3449 11.076 16.425 11.1447 16.5278C11.2133 16.6306 11.25 16.7514 11.25 16.875C11.25 17.0408 11.1842 17.1997 11.0669 17.3169C10.9497 17.4342 10.7908 17.5 10.625 17.5ZM18.75 9.37501V11.875C18.75 12.3723 18.5525 12.8492 18.2008 13.2008C17.8492 13.5525 17.3723 13.75 16.875 13.75C16.7092 13.75 16.5503 13.6842 16.4331 13.5669C16.3158 13.4497 16.25 13.2908 16.25 13.125V8.12501C16.25 7.95925 16.3158 7.80027 16.4331 7.68306C16.5503 7.56585 16.7092 7.50001 16.875 7.50001C17.3723 7.50001 17.8492 7.69755 18.2008 8.04918C18.5525 8.40081 18.75 8.87773 18.75 9.37501ZM1.25 9.37501C1.25 8.87773 1.44755 8.40081 1.79918 8.04918C2.15081 7.69755 2.62772 7.50001 3.125 7.50001C3.29076 7.50001 3.44973 7.56585 3.56694 7.68306C3.68415 7.80027 3.75 7.95925 3.75 8.12501V13.125C3.75 13.2908 3.68415 13.4497 3.56694 13.5669C3.44973 13.6842 3.29076 13.75 3.125 13.75C2.62772 13.75 2.15081 13.5525 1.79918 13.2008C1.44755 12.8492 1.25 12.3723 1.25 11.875V9.37501Z" fill="#A2A2A7"/>
</svg>
