<svg width="24" height="25" viewBox="0 0 24 25" fill="none" xmlns="http://www.w3.org/2000/svg">
<path d="M8.75998 22.645H8.88999C13.33 22.645 15.47 20.895 15.84 16.975C15.88 16.565 15.58 16.195 15.16 16.155C14.76 16.115 14.38 16.425 14.34 16.835C14.05 19.975 12.57 21.145 8.87998 21.145H8.74998C4.67999 21.145 3.23998 19.705 3.23998 15.635V9.11498C3.23998 5.04498 4.67999 3.60498 8.74998 3.60498H8.87998C12.59 3.60498 14.07 4.79498 14.34 7.99498C14.39 8.40498 14.74 8.71498 15.16 8.67498C15.58 8.64498 15.88 8.27498 15.85 7.86498C15.51 3.88498 13.36 2.10498 8.88999 2.10498H8.75998C3.84999 2.10498 1.74998 4.20498 1.74998 9.11498V15.635C1.74998 20.545 3.84999 22.645 8.75998 22.645Z" fill="#A2A2A7"/>
<path d="M8.99988 13.125H20.3799C20.7899 13.125 21.1299 12.785 21.1299 12.375C21.1299 11.965 20.7899 11.625 20.3799 11.625H8.99988C8.58988 11.625 8.24988 11.965 8.24988 12.375C8.24988 12.785 8.58988 13.125 8.99988 13.125Z" fill="#A2A2A7"/>
<path d="M18.1501 16.475C18.3401 16.475 18.5301 16.405 18.6801 16.255L22.0301 12.905C22.3201 12.615 22.3201 12.135 22.0301 11.845L18.6801 8.49497C18.3901 8.20497 17.9101 8.20497 17.6201 8.49497C17.3301 8.78497 17.3301 9.26497 17.6201 9.55497L20.4401 12.375L17.6201 15.195C17.3301 15.485 17.3301 15.965 17.6201 16.255C17.7601 16.405 17.9601 16.475 18.1501 16.475Z" fill="#A2A2A7"/>
</svg>
