<svg width="24" height="24" viewBox="0 0 24 24" fill="none" xmlns="http://www.w3.org/2000/svg">
<path d="M18.0079 7.16C17.9479 7.15 17.8779 7.15 17.8179 7.16C16.4379 7.11 15.3379 5.98 15.3379 4.58C15.3379 3.15 16.4879 2 17.9179 2C19.3479 2 20.4979 3.16 20.4979 4.58C20.4879 5.98 19.3879 7.11 18.0079 7.16Z" stroke="#A2A2A7" stroke-width="1.5" stroke-linecap="round" stroke-linejoin="round"/>
<path d="M16.9778 14.44C18.3478 14.67 19.8578 14.43 20.9178 13.72C22.3278 12.78 22.3278 11.24 20.9178 10.3C19.8478 9.59004 18.3178 9.35003 16.9478 9.59003" stroke="#A2A2A7" stroke-width="1.5" stroke-linecap="round" stroke-linejoin="round"/>
<path d="M5.97779 7.16C6.03779 7.15 6.10779 7.15 6.16779 7.16C7.54779 7.11 8.64779 5.98 8.64779 4.58C8.64779 3.15 7.49779 2 6.06779 2C4.63779 2 3.48779 3.16 3.48779 4.58C3.49779 5.98 4.59779 7.11 5.97779 7.16Z" stroke="#A2A2A7" stroke-width="1.5" stroke-linecap="round" stroke-linejoin="round"/>
<path d="M7.00775 14.44C5.63775 14.67 4.12775 14.43 3.06775 13.72C1.65775 12.78 1.65775 11.24 3.06775 10.3C4.13775 9.59004 5.66775 9.35003 7.03775 9.59003" stroke="#A2A2A7" stroke-width="1.5" stroke-linecap="round" stroke-linejoin="round"/>
<path d="M12.0079 14.63C11.9479 14.62 11.8779 14.62 11.8179 14.63C10.4379 14.58 9.33789 13.45 9.33789 12.05C9.33789 10.62 10.4879 9.46997 11.9179 9.46997C13.3479 9.46997 14.4979 10.63 14.4979 12.05C14.4879 13.45 13.3879 14.59 12.0079 14.63Z" stroke="#A2A2A7" stroke-width="1.5" stroke-linecap="round" stroke-linejoin="round"/>
<path d="M9.09803 17.78C7.68803 18.72 7.68803 20.26 9.09803 21.2C10.698 22.27 13.318 22.27 14.918 21.2C16.328 20.26 16.328 18.72 14.918 17.78C13.328 16.72 10.698 16.72 9.09803 17.78Z" stroke="#A2A2A7" stroke-width="1.5" stroke-linecap="round" stroke-linejoin="round"/>
</svg>
