<svg width="21" height="21" viewBox="0 0 21 21" fill="none" xmlns="http://www.w3.org/2000/svg">
<path d="M11.2788 5.14502H4.47124C2.97499 5.14502 1.75 6.37001 1.75 7.86626V17.8063C1.75 19.075 2.66 19.6175 3.77125 18.9963L7.20999 17.08C7.57749 16.8788 8.1725 16.8788 8.53125 17.08L11.97 18.9963C13.0812 19.6175 13.9912 19.075 13.9912 17.8063V7.86626C14 6.37001 12.775 5.14502 11.2788 5.14502Z" stroke="#A2A2A7" stroke-width="1.5" stroke-linecap="round" stroke-linejoin="round"/>
<path d="M14 7.86626V17.8063C14 19.075 13.09 19.6088 11.9788 18.9963L8.54001 17.08C8.17251 16.8788 7.57749 16.8788 7.20999 17.08L3.77125 18.9963C2.66 19.6088 1.75 19.075 1.75 17.8063V7.86626C1.75 6.37001 2.97499 5.14502 4.47124 5.14502H11.2788C12.775 5.14502 14 6.37001 14 7.86626Z" stroke="#A2A2A7" stroke-width="1.5" stroke-linecap="round" stroke-linejoin="round"/>
<path d="M19.25 4.47124V14.4113C19.25 15.68 18.34 16.2137 17.2288 15.6012L14 13.7987V7.86624C14 6.36999 12.775 5.145 11.2788 5.145H7V4.47124C7 2.97499 8.22499 1.75 9.72124 1.75H16.5288C18.025 1.75 19.25 2.97499 19.25 4.47124Z" stroke="#A2A2A7" stroke-width="1.5" stroke-linecap="round" stroke-linejoin="round"/>
</svg>
