<svg width="17" height="17" viewBox="0 0 17 17" fill="none" xmlns="http://www.w3.org/2000/svg">
<path d="M13.6 6.8C15.4747 6.8 17 5.27467 17 3.4C17 1.52533 15.4747 0 13.6 0C11.7253 0 10.2 1.52533 10.2 3.4C10.2 3.64416 10.2263 3.88216 10.2756 4.11188L5.96211 6.26875C5.33821 5.55326 4.42128 5.1 3.4 5.1C1.52533 5.1 0 6.62533 0 8.5C0 10.3747 1.52533 11.9 3.4 11.9C4.42128 11.9 5.33821 11.4467 5.96211 10.7315L10.2756 12.8883C10.2263 13.1178 10.2 13.3558 10.2 13.6C10.2 15.4747 11.7253 17 13.6 17C15.4747 17 17 15.4747 17 13.6C17 11.7253 15.4747 10.2 13.6 10.2C12.5787 10.2 11.6618 10.6533 11.0379 11.3685L6.72435 9.21187C6.77365 8.98216 6.8 8.74416 6.8 8.5C6.8 8.25584 6.77365 8.01784 6.72435 7.78813L11.0379 5.63146C11.6618 6.34674 12.5787 6.8 13.6 6.8ZM13.6 1.7C14.5373 1.7 15.3 2.46266 15.3 3.4C15.3 4.33734 14.5373 5.1 13.6 5.1C12.6627 5.1 11.9 4.33734 11.9 3.4C11.9 2.46266 12.6627 1.7 13.6 1.7ZM3.4 10.2C2.46266 10.2 1.7 9.43734 1.7 8.5C1.7 7.56266 2.46266 6.8 3.4 6.8C4.33734 6.8 5.1 7.56266 5.1 8.5C5.1 9.43734 4.33734 10.2 3.4 10.2ZM13.6 11.9C14.5373 11.9 15.3 12.6627 15.3 13.6C15.3 14.5373 14.5373 15.3 13.6 15.3C12.6627 15.3 11.9 14.5373 11.9 13.6C11.9 12.6627 12.6627 11.9 13.6 11.9Z" fill="#A2A2A7"/>
</svg>
