<svg width="22" height="22" viewBox="0 0 22 22" fill="none" xmlns="http://www.w3.org/2000/svg">
<path d="M13.4933 20.8541H8.55252C7.96586 20.8541 7.4525 20.8175 6.985 20.7533C6.60917 20.6983 6.34332 20.35 6.39832 19.9742C6.45332 19.5983 6.79252 19.3233 7.17752 19.3875C7.58086 19.4425 8.03001 19.47 8.54335 19.47H13.4842C17.2334 19.47 18.5625 18.1407 18.5625 14.3916V10.2758C18.5625 9.89992 18.8742 9.58826 19.25 9.58826C19.6258 9.58826 19.9375 9.89992 19.9375 10.2758V14.3916C19.9467 18.9199 18.0125 20.8541 13.4933 20.8541Z" fill="#A2A2A7"/>
<path d="M2.78711 14.9142C2.41128 14.9142 2.09961 14.6025 2.09961 14.2267V10.285C2.09961 9.90914 2.41128 9.59747 2.78711 9.59747C3.16294 9.59747 3.47461 9.90914 3.47461 10.285V14.2267C3.47461 14.6025 3.16294 14.9142 2.78711 14.9142Z" fill="#A2A2A7"/>
<path d="M11.027 11.6875C10.0187 11.6875 9.10193 11.2934 8.4511 10.5692C7.80027 9.84507 7.49777 8.90086 7.59861 7.89253L8.21281 1.76926C8.24948 1.42092 8.54281 1.14587 8.90031 1.14587H13.1811C13.5386 1.14587 13.832 1.41176 13.8686 1.76926L14.4828 7.89253C14.5836 8.90086 14.2811 9.84507 13.6303 10.5692C12.952 11.2934 12.0353 11.6875 11.027 11.6875ZM9.50529 2.52087L8.95531 8.03005C8.89114 8.64422 9.07447 9.22172 9.45947 9.64339C10.2386 10.5051 11.7969 10.5051 12.5761 9.64339C12.9611 9.21256 13.1445 8.63505 13.0803 8.03005L12.5303 2.52087H9.50529Z" fill="#A2A2A7"/>
<path d="M16.8021 11.6875C14.9412 11.6875 13.2821 10.1842 13.0896 8.33251L12.4479 1.90667C12.4296 1.71417 12.4937 1.52171 12.6221 1.37504C12.7504 1.22837 12.9337 1.14587 13.1354 1.14587H15.9312C18.6262 1.14587 19.882 2.27337 20.2579 5.04171L20.5146 7.59007C20.6246 8.67173 20.2946 9.69842 19.5887 10.4776C18.8829 11.2568 17.8929 11.6875 16.8021 11.6875ZM13.8962 2.52087L14.4646 8.19499C14.5838 9.34082 15.6562 10.3125 16.8021 10.3125C17.4987 10.3125 18.1221 10.0468 18.5712 9.56092C19.0112 9.07509 19.2129 8.42426 19.1487 7.72759L18.892 5.20676C18.6079 3.13509 17.9387 2.52087 15.9312 2.52087H13.8962Z" fill="#A2A2A7"/>
<path d="M5.1976 11.6875C4.10676 11.6875 3.11678 11.2568 2.41095 10.4776C1.70512 9.69842 1.37511 8.67173 1.48511 7.59007L1.7418 5.06923C2.1268 2.2734 3.38262 1.14587 6.07762 1.14587H8.87344C9.06594 1.14587 9.24927 1.22837 9.38677 1.37504C9.5151 1.52171 9.57927 1.71417 9.56094 1.90667L8.91926 8.33251C8.71759 10.1842 7.04926 11.6875 5.1976 11.6875ZM6.06844 2.52087C4.06094 2.52087 3.39178 3.12583 3.09845 5.225L2.85093 7.71841C2.7776 8.41508 2.98844 9.06591 3.42844 9.55175C3.86844 10.0376 4.50093 10.3034 5.1976 10.3034C6.3526 10.3034 7.42508 9.33176 7.53508 8.18592L8.10347 2.5117H6.06844V2.52087Z" fill="#A2A2A7"/>
<path d="M4.58366 21.7709C3.30033 21.7709 2.09951 21.2117 1.27451 20.2308C1.26534 20.2217 1.22866 20.185 1.20116 20.1392C1.06366 19.9742 0.944485 19.8092 0.852819 19.6351C0.449485 18.9842 0.229492 18.2142 0.229492 17.4075C0.229492 16.0692 0.825352 14.8317 1.86119 14.0067C2.04452 13.8601 2.24616 13.7225 2.46616 13.6033C3.09866 13.2458 3.84116 13.0442 4.58366 13.0442C5.64699 13.0442 6.62785 13.4109 7.41618 14.0984C7.51702 14.1717 7.65447 14.3092 7.77364 14.4375C8.51614 15.2534 8.92865 16.2983 8.92865 17.3892C8.92865 18.1867 8.70865 18.9659 8.29615 19.6351C8.09448 19.9834 7.847 20.2859 7.572 20.5242C7.517 20.5792 7.462 20.6343 7.39783 20.6801C6.67367 21.3859 5.65616 21.7709 4.58366 21.7709ZM2.27364 19.2867C2.30114 19.3142 2.34697 19.36 2.38364 19.4242C2.8878 20.02 3.71283 20.405 4.58366 20.405C5.30783 20.405 6.0045 20.1392 6.53616 19.6625C6.56366 19.6258 6.60033 19.5892 6.64616 19.5617C6.82949 19.4058 6.98535 19.2042 7.13202 18.9658C7.41619 18.4983 7.572 17.9759 7.572 17.4259C7.572 16.6834 7.28784 15.9593 6.77451 15.4001C6.71034 15.3268 6.64613 15.2533 6.56363 15.1983C5.57363 14.3458 4.21698 14.2176 3.13531 14.8318C2.98864 14.9143 2.86032 14.9967 2.74115 15.0975C2.02615 15.6658 1.61367 16.5092 1.61367 17.4259C1.61367 17.9667 1.76031 18.4984 2.04447 18.9568C2.11781 19.0851 2.19114 19.1859 2.27364 19.2776C2.26447 19.2776 2.27364 19.2776 2.27364 19.2867Z" fill="#A2A2A7"/>
<path d="M5.95811 18.0858H3.21729C2.84145 18.0858 2.52979 17.7741 2.52979 17.3983C2.52979 17.0225 2.84145 16.7108 3.21729 16.7108H5.95811C6.33394 16.7108 6.64561 17.0225 6.64561 17.3983C6.64561 17.7741 6.33394 18.0858 5.95811 18.0858Z" fill="#A2A2A7"/>
<path d="M4.58301 19.4884C4.20717 19.4884 3.89551 19.1767 3.89551 18.8009V16.0601C3.89551 15.6842 4.20717 15.3726 4.58301 15.3726C4.95884 15.3726 5.27051 15.6842 5.27051 16.0601V18.8009C5.27051 19.1859 4.95884 19.4884 4.58301 19.4884Z" fill="#A2A2A7"/>
</svg>
