<svg width="33" height="32" viewBox="0 0 33 32" fill="none" xmlns="http://www.w3.org/2000/svg">
<path d="M28.144 20.1881C27.9797 20.1881 27.8212 20.0997 27.7395 19.9443C27.6212 19.7211 27.7069 19.4448 27.9301 19.3269C29.6975 18.393 30.6712 17.2706 30.6712 16.1671C30.6712 13.2247 24.1815 10.7385 16.4998 10.7385C8.81808 10.7385 2.32835 13.2247 2.32835 16.1671C2.32835 17.2698 3.30335 18.3916 5.07299 19.3269C5.29621 19.4448 5.38192 19.7211 5.26362 19.9443C5.14621 20.168 4.86942 20.2537 4.64621 20.1349C2.53147 19.0184 1.41406 17.6461 1.41406 16.1671C1.41406 12.6104 8.0404 9.82422 16.4998 9.82422C24.9592 9.82422 31.5855 12.6104 31.5855 16.1671C31.5855 17.6474 30.469 19.0193 28.3569 20.1349C28.2891 20.1711 28.2159 20.1881 28.144 20.1881Z" fill="black"/>
<path d="M2.96229 20.6839C2.75961 20.6839 2.57435 20.5478 2.52033 20.3424C2.45649 20.0982 2.60292 19.8482 2.84711 19.7844L4.30336 19.404L3.9297 17.9558C3.86631 17.7112 4.01318 17.4621 4.25783 17.3991C4.50068 17.3339 4.75113 17.4826 4.81452 17.7272L5.30247 19.6165C5.36586 19.8603 5.21943 20.1094 4.97568 20.1732L3.07836 20.6692C3.03952 20.679 3.00068 20.6839 2.96229 20.6839ZM9.60418 20.7655L10.5309 20.6531C10.5606 20.8891 10.6402 21.0697 10.7694 21.1949C10.899 21.3196 11.0558 21.3824 11.2399 21.3824C11.4373 21.3824 11.6035 21.3072 11.7391 21.1573C11.8742 21.0074 11.9415 20.8055 11.9415 20.5507C11.9415 20.3103 11.8767 20.1193 11.7475 19.9783C11.6179 19.8378 11.4601 19.7675 11.274 19.7675C11.1513 19.7675 11.0049 19.7913 10.8342 19.8387L10.9401 19.0585C11.1988 19.0654 11.3962 19.009 11.5328 18.8898C11.6689 18.7705 11.7371 18.6122 11.7371 18.4148C11.7371 18.2466 11.6872 18.1125 11.5872 18.0125C11.4873 17.9126 11.3542 17.8626 11.1884 17.8626C11.0252 17.8626 10.8856 17.9195 10.7694 18.0328C10.6536 18.1466 10.5833 18.3124 10.5581 18.5306L9.67592 18.3807C9.73727 18.0784 9.82979 17.8369 9.95348 17.6563C10.0772 17.4757 10.2499 17.3342 10.4715 17.2308C10.6927 17.1274 10.941 17.0755 11.2156 17.0755C11.6862 17.0755 12.0632 17.2254 12.3472 17.5252C12.5812 17.7706 12.698 18.0477 12.698 18.3569C12.698 18.7953 12.4585 19.1451 11.9791 19.4063C12.2651 19.4677 12.4941 19.6047 12.6658 19.8185C12.837 20.0317 12.9231 20.2895 12.9231 20.5918C12.9231 21.0302 12.7628 21.4037 12.4427 21.7129C12.1221 22.0217 11.7238 22.176 11.2463 22.176C10.7946 22.176 10.4196 22.0459 10.1222 21.7862C9.82435 21.5259 9.65217 21.186 9.60418 20.7655ZM16.763 18.3193L15.8363 18.4212C15.8136 18.2307 15.7547 18.0897 15.6592 17.9987C15.5637 17.9082 15.44 17.8626 15.2876 17.8626C15.0852 17.8626 14.9146 17.9537 14.775 18.1353C14.635 18.3168 14.5469 18.6953 14.5108 19.2698C14.7493 18.9882 15.0457 18.8472 15.3999 18.8472C15.7997 18.8472 16.1421 18.9996 16.4276 19.3039C16.7126 19.6082 16.855 20.001 16.855 20.4829C16.855 20.994 16.7051 21.4037 16.4053 21.7129C16.1055 22.0217 15.7205 22.176 15.25 22.176C14.7458 22.176 14.3312 21.9801 14.0066 21.5883C13.6816 21.1964 13.5193 20.5542 13.5193 19.6616C13.5193 18.7463 13.6885 18.0863 14.0269 17.682C14.3654 17.2778 14.8052 17.0755 15.3455 17.0755C15.725 17.0755 16.0392 17.1818 16.2875 17.3941C16.5364 17.6063 16.6947 17.9151 16.763 18.3193ZM14.5925 20.4077C14.5925 20.7189 14.6642 20.9594 14.8072 21.1286C14.9502 21.2978 15.1139 21.3824 15.298 21.3824C15.4751 21.3824 15.6226 21.3132 15.7408 21.1746C15.8591 21.0361 15.9179 20.8085 15.9179 20.4928C15.9179 20.1683 15.8546 19.9303 15.727 19.7794C15.5998 19.628 15.441 19.5528 15.25 19.5528C15.0664 19.5528 14.9106 19.6245 14.7834 19.769C14.6563 19.9135 14.5925 20.1262 14.5925 20.4077ZM19.0182 17.0755C19.5021 17.0755 19.8801 17.2481 20.1527 17.5935C20.4778 18.0022 20.64 18.6805 20.64 19.6275C20.64 20.5725 20.4763 21.2518 20.1492 21.6649C19.8791 22.0058 19.5021 22.176 19.0182 22.176C18.5323 22.176 18.1405 21.9895 17.8426 21.6155C17.5452 21.2419 17.3963 20.576 17.3963 19.6176C17.3963 18.677 17.5601 18.0002 17.8871 17.5866C18.1573 17.2461 18.5343 17.0755 19.0182 17.0755ZM19.0182 17.8696C18.9024 17.8696 18.799 17.9062 18.708 17.9804C18.6174 18.0541 18.5467 18.1862 18.4972 18.3772C18.4309 18.6246 18.3982 19.0417 18.3982 19.6275C18.3982 20.2138 18.4274 20.616 18.4868 20.8352C18.5457 21.0544 18.6204 21.2004 18.7099 21.2731C18.7995 21.3458 18.9024 21.3824 19.0182 21.3824C19.134 21.3824 19.2374 21.3453 19.3284 21.2716C19.4189 21.1979 19.4897 21.0653 19.5397 20.8748C19.6055 20.6294 19.6381 20.2138 19.6381 19.6275C19.6381 19.0417 19.6089 18.6389 19.5496 18.4197C19.4907 18.2006 19.4165 18.0541 19.3264 17.9804C19.2369 17.9062 19.134 17.8696 19.0182 17.8696ZM22.4824 17.5397C21.7261 17.5397 21.111 16.9246 21.111 16.1683C21.111 15.4121 21.7261 14.7969 22.4824 14.7969C23.2386 14.7969 23.8538 15.4121 23.8538 16.1683C23.8538 16.9246 23.2386 17.5397 22.4824 17.5397ZM22.4824 15.7112C22.2302 15.7112 22.0252 15.9161 22.0252 16.1683C22.0252 16.4205 22.2302 16.6254 22.4824 16.6254C22.7346 16.6254 22.9395 16.4205 22.9395 16.1683C22.9395 15.9161 22.7346 15.7112 22.4824 15.7112Z" fill="black"/>
</svg>
