<svg width="25" height="27" viewBox="0 0 25 27" fill="none" xmlns="http://www.w3.org/2000/svg">
<path d="M24.9699 22.631L23.5634 10.242C23.224 8.15615 21.3815 6.64426 19.2594 6.71423H18.2185V5.02038C18.0726 2.2066 15.7395 0 12.9088 0C10.0781 0 7.74488 2.2066 7.59905 5.02038V6.71423H5.9815C3.87345 6.64249 2.03442 8.1299 1.6775 10.2L0.0318712 22.5751C-0.110542 23.6442 0.228786 24.7204 0.960186 25.5149C1.81815 26.4703 3.04888 27.011 4.33588 26.9988H20.6517C21.9246 27.0285 23.1518 26.5193 24.0274 25.5989C24.7641 24.7957 25.1088 23.7107 24.9699 22.631ZM8.96373 5.02047C9.08855 2.96613 10.7975 1.36146 12.8669 1.36146C14.9363 1.36146 16.6452 2.96609 16.77 5.02047V6.71432H8.96364L8.96373 5.02047ZM23.0291 24.6191C22.4331 25.2648 21.5892 25.6252 20.7083 25.613H4.33624C3.4519 25.627 2.60617 25.2595 2.01547 24.6051C1.55836 24.1099 1.34209 23.4397 1.42473 22.7712L3.07035 10.3961C3.33584 9.02244 4.57888 8.05474 5.98191 8.12825H7.55723V10.5781C7.55723 10.9648 7.87194 11.278 8.2605 11.278C8.64906 11.278 8.96377 10.9648 8.96377 10.5781V8.11427H16.7702V10.5641C16.7702 10.7496 16.844 10.9281 16.9759 11.0593C17.1077 11.1906 17.2871 11.2641 17.4735 11.2641C17.6598 11.2641 17.8392 11.1906 17.971 11.0593C18.1029 10.9281 18.1767 10.7496 18.1767 10.5641V8.11427H19.2176C20.6294 8.04252 21.8759 9.02597 22.1291 10.4101L23.5357 22.7852C23.6324 23.4362 23.4478 24.0959 23.0293 24.6051L23.0291 24.6191Z" fill="#2B6F71"/>
</svg>
