<svg width="24" height="24" viewBox="0 0 24 24" fill="none" xmlns="http://www.w3.org/2000/svg">
<g clip-path="url(#clip0_794_4535)">
<path d="M22.7536 12.8705H22.1234V7.27014C22.1234 6.47609 21.4774 5.83008 20.6833 5.83008H7.3141C6.52004 5.83008 5.87403 6.47609 5.87403 7.27014V12.8705H5.24378C4.44972 12.8705 3.80371 13.5165 3.80371 14.3105V20.7309C3.80371 20.9782 4.00419 21.1787 4.2515 21.1787C4.4988 21.1787 4.69928 20.9782 4.69928 20.7309V19.6407H23.2981V20.7309C23.2981 20.9782 23.4986 21.1787 23.7459 21.1787C23.9932 21.1787 24.1937 20.9782 24.1937 20.7309V14.3105C24.1937 13.5165 23.5477 12.8705 22.7536 12.8705ZM6.7696 7.27014C6.7696 6.96991 7.01386 6.72565 7.3141 6.72565H20.6833C20.9836 6.72565 21.2278 6.96991 21.2278 7.27014V12.8705H19.444V11.3477C19.444 10.5536 18.798 9.90763 18.0039 9.90763H16.6921C15.898 9.90763 15.252 10.5536 15.252 11.3477V12.8705H12.7454V11.3477C12.7454 10.5536 12.0994 9.90763 11.3053 9.90763H9.99353C9.19946 9.90763 8.55346 10.5536 8.55346 11.3477V12.8705H6.7696V7.27014ZM16.1476 12.8705V11.3477C16.1476 11.0475 16.3919 10.8032 16.6921 10.8032H18.0039C18.3041 10.8032 18.5484 11.0475 18.5484 11.3477V12.8705H16.1476ZM9.44903 12.8705V11.3477C9.44903 11.0475 9.69328 10.8032 9.99353 10.8032H11.3053C11.6056 10.8032 11.8498 11.0475 11.8498 11.3477V12.8705H9.44903ZM5.24378 13.766H22.7536C23.0539 13.766 23.2981 14.0103 23.2981 14.3105V16.2148H4.69928V14.3105C4.69928 14.0103 4.94355 13.766 5.24378 13.766ZM4.69928 18.7451V17.1104H23.2981V18.7451H4.69928Z" fill="black"/>
</g>
<defs>
<clipPath id="clip0_794_4535">
<rect width="24" height="24" fill="white"/>
</clipPath>
</defs>
</svg>
