<svg width="20" height="20" viewBox="0 0 20 20" fill="none" xmlns="http://www.w3.org/2000/svg">
<path d="M12.1253 1.66602H7.87533C6.37533 1.66602 6.042 2.41602 5.85033 3.34102L5.16699 6.60768H14.8337L14.1503 3.34102C13.9587 2.41602 13.6253 1.66602 12.1253 1.66602Z" stroke="white" stroke-width="1.5" stroke-linecap="round" stroke-linejoin="round"/>
<path d="M16.033 11.933C16.0996 12.6413 15.533 13.2496 14.808 13.2496H13.6746C13.0246 13.2496 12.933 12.9746 12.8163 12.6246L12.6913 12.2663C12.5246 11.7746 12.4163 11.4413 11.5413 11.4413H8.44964C7.58297 11.4413 7.44963 11.8163 7.29963 12.2663L7.17464 12.6246C7.05797 12.9663 6.96631 13.2496 6.31631 13.2496H5.18297C4.45797 13.2496 3.8913 12.6413 3.95797 11.933L4.29964 8.24964C4.38297 7.34131 4.55797 6.59961 6.1413 6.59961H13.8496C15.433 6.59961 15.608 7.34131 15.6913 8.24964L16.033 11.933Z" stroke="white" stroke-width="1.5" stroke-linecap="round" stroke-linejoin="round"/>
<path d="M5.16644 4.79102H4.55811" stroke="white" stroke-width="1.5" stroke-linecap="round" stroke-linejoin="round"/>
<path d="M15.4418 4.79102H14.8335" stroke="white" stroke-width="1.5" stroke-linecap="round" stroke-linejoin="round"/>
<path d="M6.37451 9.02539H8.18286" stroke="white" stroke-width="1.5" stroke-linecap="round" stroke-linejoin="round"/>
<path d="M11.8169 9.02539H13.6252" stroke="white" stroke-width="1.5" stroke-linecap="round" stroke-linejoin="round"/>
<path d="M10 14.166V14.9993" stroke="white" stroke-width="1.5" stroke-linecap="round" stroke-linejoin="round"/>
<path d="M10 17.5V18.3333" stroke="white" stroke-width="1.5" stroke-linecap="round" stroke-linejoin="round"/>
<path d="M2.49935 15L1.66602 18.3333" stroke="white" stroke-width="1.5" stroke-linecap="round" stroke-linejoin="round"/>
<path d="M17.5 15L18.3333 18.3333" stroke="white" stroke-width="1.5" stroke-linecap="round" stroke-linejoin="round"/>
</svg>
