<svg width="27" height="34" viewBox="0 0 27 34" fill="none" xmlns="http://www.w3.org/2000/svg">
<path fill-rule="evenodd" clip-rule="evenodd" d="M1 27.5438H5.11578V25.3908H21.8621V27.5438H26V2.00609C26 1.17538 25.2637 0.501953 24.3555 0.501953H2.64453C1.73628 0.501953 1 1.17538 1 2.00609V27.5438Z" stroke="black"/>
<path fill-rule="evenodd" clip-rule="evenodd" d="M4.87272 2.73364H22.1269C22.7324 2.73364 23.2232 3.18259 23.2232 3.7364V18.9763C23.2232 19.5301 22.7324 19.979 22.1269 19.979L14.2646 19.979C13.6591 19.979 13.1683 19.5301 13.1683 18.9763C13.1683 18.9564 13.1689 18.9366 13.1702 18.9168C13.3404 16.2941 12.984 14.4262 12.1011 13.3129C11.1075 12.0602 9.16561 11.4083 6.27541 11.357C6.25177 11.3565 6.22814 11.3563 6.2045 11.3563H5.00715C4.32741 11.3563 3.77637 10.8523 3.77637 10.2306V3.7364C3.77637 3.18259 4.26722 2.73364 4.87272 2.73364Z" stroke="black"/>
<path fill-rule="evenodd" clip-rule="evenodd" d="M6.56315 4.03882H20.3507C20.9562 4.03882 21.447 4.48777 21.447 5.04158V8.91341C21.447 9.46721 20.9562 9.91616 20.3507 9.91616H6.56315C5.95765 9.91616 5.4668 9.46721 5.4668 8.91341V5.04158C5.4668 4.48777 5.95765 4.03882 6.56315 4.03882Z" stroke="black"/>
<path fill-rule="evenodd" clip-rule="evenodd" d="M7.58118 20.0545C5.47984 20.0545 3.77637 18.4964 3.77637 16.5745C3.77637 14.6525 5.47984 13.0945 7.58118 13.0945C9.68253 13.0945 11.386 14.6525 11.386 16.5745C11.386 18.4964 9.68253 20.0545 7.58118 20.0545ZM7.58118 18.2758C8.60851 18.2758 9.44132 17.5141 9.44132 16.5745C9.44132 15.6349 8.60851 14.8732 7.58118 14.8732C6.55386 14.8732 5.72105 15.6349 5.72105 16.5745C5.72105 17.5141 6.55386 18.2758 7.58118 18.2758Z" stroke="black"/>
<path fill-rule="evenodd" clip-rule="evenodd" d="M1 28.2451V32.6726C6.50628 33.182 10.6544 33.456 13.4423 33.4946C16.2277 33.5333 20.4036 33.26 25.967 32.6746V28.2451H21.828V29.7963H5.07268V28.2451H1Z" stroke="black"/>
</svg>
