<svg width="25" height="20" viewBox="0 0 25 20" fill="none" xmlns="http://www.w3.org/2000/svg">
<path d="M23.0078 11.7029C22.5313 11.7029 19.9062 11.8429 17.3672 12.0733C16.4219 12.1579 15.6523 12.2425 15.0195 12.3212V12.085C15.0195 11.735 14.6367 11.4492 14.1641 11.4492H14.0234V10.6587C14.0234 10.3758 13.7734 10.1367 13.4297 10.0579V6.81458C13.7734 6.73292 14.0234 6.49375 14.0234 6.21083V5.575H15.543C16.5469 5.575 17.3594 4.96833 17.3594 4.21875C17.3594 4.09917 17.2305 4 17.0664 4H7.93359C7.76953 4 7.64062 4.09917 7.64062 4.21875C7.64062 4.96833 8.45312 5.575 9.45703 5.575H10.9766V6.21083C10.9766 6.49375 11.2266 6.73292 11.5703 6.81458V10.0579C11.2266 10.1367 10.9766 10.3758 10.9766 10.6587V11.4492H10.8359C10.3672 11.4492 9.98437 11.735 9.98437 12.085V12.3212C9.35152 12.2425 8.57813 12.1579 7.63281 12.0733C5.09375 11.8429 2.46875 11.7029 1.99219 11.7029C0.894531 11.7029 0 12.365 0 13.1758C0 13.9867 0.894531 14.6488 1.99219 14.6488C2.46875 14.6488 5.09375 14.5087 7.63281 14.2783C8.71094 14.1821 9.56641 14.0858 10.2422 13.9954C10.6211 14.5875 11.4766 15.0367 12.5 15.0367C12.5547 15.0367 12.6094 15.0367 12.6641 15.0338C13.5781 14.99 14.3516 14.5788 14.7422 13.9925C15.4219 14.0858 16.2812 14.1792 17.3672 14.2783C19.9062 14.5087 22.5313 14.6488 23.0078 14.6488C24.1055 14.6488 25 13.9867 25 13.1758C25 12.365 24.1055 11.7029 23.0078 11.7029ZM1.99219 14.2113C1.21484 14.2113 0.585938 13.7475 0.585938 13.1758C0.585938 12.6042 1.21484 12.1404 1.99219 12.1404C2.90234 12.1404 7.25 12.4204 9.98437 12.7646V13.1758C9.98437 13.3129 10.0039 13.4471 10.043 13.5783C7.3125 13.9254 2.90621 14.2113 1.99219 14.2113ZM9.45703 5.1375C8.87891 5.1375 8.39453 4.84 8.26172 4.4375H16.7383C16.6055 4.84 16.1211 5.1375 15.543 5.1375C12.1875 5.1375 12.9258 5.1375 9.45703 5.1375ZM11.5625 6.21083V5.575H13.4375V6.21083C13.4375 6.31875 13.3164 6.40917 13.168 6.40917C13.0234 6.40917 11.832 6.40917 11.832 6.40917C11.6836 6.40917 11.5625 6.31875 11.5625 6.21083ZM12.8437 6.84667V10.0258H12.1562V6.84667H12.8437ZM11.5625 10.6587C11.5625 10.5508 11.6836 10.4633 11.832 10.4633H13.168C13.3164 10.4633 13.4375 10.5508 13.4375 10.6587V11.4492H11.5625V10.6587ZM14.4336 13.1204C14.4336 13.8875 13.6562 14.5496 12.625 14.5963C11.5312 14.6488 10.5704 14.0129 10.5704 13.1758C10.5704 12.5604 10.5704 12.6917 10.5704 12.085C10.5704 11.9771 10.6914 11.8866 10.836 11.8866C11.9844 11.8896 14.0079 11.8896 14.1641 11.8866C14.3125 11.8866 14.4336 11.9771 14.4336 12.085C14.4336 12.1783 14.4336 13.1204 14.4336 13.1204ZM23.0078 14.2113C22.0898 14.2113 17.6758 13.9254 14.9453 13.5783C14.9961 13.4325 15.0195 13.2779 15.0195 13.1204V12.7646C17.7539 12.4204 22.0977 12.1404 23.0078 12.1404C23.7852 12.1404 24.4141 12.6042 24.4141 13.1758C24.4141 13.7475 23.7852 14.2113 23.0078 14.2113Z" fill="black"/>
</svg>
