<svg width="30" height="29" viewBox="0 0 30 29" fill="none" xmlns="http://www.w3.org/2000/svg">
<path d="M6.94835 21.5947C6.74667 21.5947 6.58203 21.7594 6.58203 21.9611V24.1568C6.58203 24.3585 6.74666 24.5232 6.94835 24.5232C7.15003 24.5232 7.31466 24.3585 7.31466 24.1568V21.9611C7.31466 21.7594 7.15003 21.5947 6.94835 21.5947Z" fill="black"/>
<path d="M9.87608 21.5947C9.67441 21.5947 9.50977 21.7594 9.50977 21.9611V24.1568C9.50977 24.3585 9.6744 24.5232 9.87608 24.5232C10.0778 24.5232 10.2424 24.3585 10.2424 24.1568V21.9611C10.241 21.7594 10.0764 21.5947 9.87608 21.5947Z" fill="black"/>
<path d="M21.5885 20.116H18.6622C18.4605 20.116 18.2959 20.2806 18.2959 20.4824V21.2138C18.2959 21.4155 18.4605 21.5802 18.6622 21.5802C18.8639 21.5802 19.0285 21.4155 19.0285 21.2138V20.8474H21.2236V21.2138C21.2236 21.4155 21.3883 21.5802 21.5899 21.5802C21.7916 21.5802 21.9563 21.4155 21.9563 21.2138V20.4824C21.9549 20.2807 21.7902 20.116 21.5885 20.116Z" fill="black"/>
<path d="M18.6608 25.9801C18.8625 25.9801 19.0271 25.8154 19.0271 25.6137V25.2473H21.2222V25.6137C21.2222 25.8154 21.3869 25.9801 21.5885 25.9801C21.7902 25.9801 21.9549 25.8154 21.9549 25.6137V24.8823C21.9549 24.6806 21.7902 24.5159 21.5885 24.5159H18.6622C18.4605 24.5159 18.2959 24.6805 18.2959 24.8823V25.6137C18.2945 25.8154 18.4591 25.9801 18.6608 25.9801Z" fill="black"/>
<path d="M28.9029 17.5592H27.8053C27.8053 17.1572 27.4761 16.8279 27.0741 16.8279H26.7078C26.5061 16.8279 26.3415 16.9925 26.3415 17.1943C26.3415 17.396 26.5061 17.5606 26.7078 17.5606H25.6102V17.1943C25.6102 16.9926 25.4456 16.8279 25.2439 16.8279C25.0422 16.8279 24.8776 16.9925 24.8776 17.1943V17.5606H23.7801C23.9817 17.5606 24.1464 17.396 24.1464 17.1943C24.1464 16.9926 23.9817 16.8279 23.7801 16.8279H23.4137C23.0118 16.8279 22.6825 17.1572 22.6825 17.5592H21.2186C21.2186 17.1572 20.8894 16.8279 20.4874 16.8279H20.1211C19.9194 16.8279 19.7548 16.9925 19.7548 17.1943C19.7548 17.396 19.9194 17.5606 20.1211 17.5606H19.0236V17.1943C19.0236 16.9926 18.8589 16.8279 18.6572 16.8279C18.4556 16.8279 18.2909 16.9925 18.2909 17.1943V17.5606H17.1934C17.395 17.5606 17.5597 17.396 17.5597 17.1943C17.5597 16.9926 17.3951 16.8279 17.1934 16.8279H16.8271C16.4251 16.8279 16.0958 17.1572 16.0958 17.5592H14.9983C14.7966 17.5592 14.632 17.7239 14.632 17.9256V18.6569H8.5844C8.9315 18.2686 9.14828 17.7568 9.14828 17.1928C9.14828 16.9911 8.98365 16.8265 8.78196 16.8265L3.65915 16.8279C3.45747 16.8279 3.29283 16.9925 3.29283 17.1942C3.29283 17.7582 3.50822 18.27 3.85671 18.6583L2.19666 18.6569V14.9975C2.19666 14.1893 2.85107 13.5334 3.66052 13.5334H4.02683C4.70731 13.5334 5.27393 14.0013 5.43854 14.6311L5.123 14.6325C4.92132 14.6325 4.75668 14.7971 4.75668 14.9988C4.75668 15.2005 4.92131 15.3652 5.123 15.3652H6.58686C6.78853 15.3652 6.95318 15.2006 6.95318 14.9988C6.95318 14.7971 6.78854 14.6325 6.58686 14.6325H6.18763C6.01203 13.5965 5.11204 12.8035 4.02549 12.8035H3.65917C2.44776 12.8035 1.46408 13.7873 1.46408 14.9988V18.6583H1.09776C0.896088 18.6583 0.731445 18.8229 0.731445 19.0246V28.1725C0.731445 28.3742 0.896077 28.5389 1.09776 28.5389H28.9027C29.1044 28.5389 29.269 28.3742 29.269 28.1725V17.9255C29.269 17.7238 29.1045 17.5592 28.9029 17.5592ZM8.78214 19.3882H15.3674V26.7057L8.78214 26.7071V19.3882ZM8.36781 17.5592C8.20318 18.189 7.63244 18.6569 6.95199 18.6569H5.48813C4.80765 18.6569 4.23282 18.189 4.07232 17.5592H8.36781ZM1.46434 19.3882H8.04961V26.7057L1.46434 26.7071V19.3882ZM28.5381 27.8048H1.46434V27.4384H28.5367L28.5381 27.8048ZM24.1479 23.0477V26.7071H16.0987V23.0477H24.1479ZM16.0987 22.3163V19.3896H24.1479V22.3163H16.0987ZM28.5381 23.414V26.7071H24.8791V23.0477H28.5381V23.414ZM28.5381 22.3163H24.8791V19.3896H28.5381V22.3163ZM28.5381 18.6569H15.3661V18.2905H28.5367L28.5381 18.6569Z" fill="black"/>
<path d="M29.6351 0H0.366317C0.164642 0 0 0.164653 0 0.366365V7.68382C0 7.88552 0.164632 8.05018 0.366317 8.05018H29.6323C29.834 8.05018 29.9986 7.88553 29.9986 7.68382L30 0.366365C30 0.164664 29.8354 0 29.6351 0ZM7.3179 7.31745H0.732633V0.731324H7.3179V7.31745ZM14.6344 7.31745H8.04913V0.731324H14.6344V7.31745ZM21.9523 7.31745H15.367V0.731324H21.9523V7.31745ZM29.2688 7.31745H22.6835V0.731324H29.2688V7.31745Z" fill="black"/>
<path d="M6.21983 5.12723C6.42151 5.12723 6.58615 4.96255 6.58615 4.76082V3.29659C6.58615 3.09486 6.42152 2.93018 6.21983 2.93018C6.01815 2.93018 5.85352 3.09485 5.85352 3.29659V4.76082C5.85352 4.96254 6.01815 5.12723 6.21983 5.12723Z" fill="black"/>
<path d="M13.5353 5.12723C13.7369 5.12723 13.9016 4.96255 13.9016 4.76082V3.29659C13.9016 3.09486 13.7369 2.93018 13.5353 2.93018C13.3336 2.93018 13.1689 3.09485 13.1689 3.29659V4.76082C13.1703 4.96254 13.335 5.12723 13.5353 5.12723Z" fill="black"/>
<path d="M20.8585 5.12723C21.0602 5.12723 21.2248 4.96255 21.2248 4.76082V3.29659C21.2248 3.09486 21.0602 2.93018 20.8585 2.93018C20.6568 2.93018 20.4922 3.09485 20.4922 3.29659V4.76082C20.4922 4.96254 20.6568 5.12723 20.8585 5.12723Z" fill="black"/>
<path d="M28.172 5.12723C28.3737 5.12723 28.5383 4.96255 28.5383 4.76082V3.29659C28.5383 3.09486 28.3737 2.93018 28.172 2.93018C27.9703 2.93018 27.8057 3.09485 27.8057 3.29659V4.76082C27.8057 4.96254 27.9703 5.12723 28.172 5.12723Z" fill="black"/>
</svg>
