<svg width="25" height="25" viewBox="0 0 25 25" fill="none" xmlns="http://www.w3.org/2000/svg">
<g clip-path="url(#clip0_1161_12291)">
<path d="M12.498 6.30568C13.3732 6.30568 14.1642 6.6499 14.7354 7.20285C15.0274 7.4834 15.2597 7.82003 15.4184 8.19255C15.577 8.56507 15.6588 8.96581 15.6588 9.37072C15.6588 9.77562 15.577 10.1764 15.4184 10.5489C15.2597 10.9214 15.0274 11.258 14.7354 11.5386C14.1358 12.1166 13.3346 12.4384 12.5017 12.4358C11.6675 12.4393 10.8648 12.1175 10.2642 11.5386C9.97225 11.258 9.73996 10.9214 9.58129 10.5489C9.42261 10.1764 9.34082 9.77562 9.34082 9.37072C9.34082 8.96581 9.42261 8.56507 9.58129 8.19255C9.73996 7.82003 9.97225 7.4834 10.2642 7.20285C10.8639 6.62484 11.6651 6.30305 12.498 6.30568ZM14.1825 7.74116C13.7306 7.30467 13.1263 7.06163 12.498 7.0637C11.8388 7.0637 11.2456 7.32004 10.8135 7.74116C10.5944 7.95227 10.4202 8.20539 10.3012 8.48538C10.1821 8.76536 10.1208 9.06648 10.1208 9.37072C10.1208 9.67495 10.1821 9.97607 10.3012 10.2561C10.4202 10.536 10.5944 10.7892 10.8135 11.0003C11.2456 11.4214 11.8388 11.6777 12.498 11.6777C13.1571 11.6777 13.754 11.4214 14.1825 11.0039C14.4021 10.7928 14.5769 10.5394 14.6962 10.2591C14.8156 9.97877 14.8771 9.67723 14.8771 9.37255C14.8771 9.06787 14.8156 8.76632 14.6962 8.48599C14.5769 8.20566 14.4021 7.95232 14.1825 7.74116Z" fill="white"/>
<path d="M12.154 21.3783C11.6487 20.4555 11.0371 19.4082 10.3963 18.3169C9.05236 16.0099 7.58759 13.5125 6.78929 11.5717C6.50202 10.8747 6.35398 10.1283 6.35352 9.3745C6.35352 7.72664 7.04196 6.23989 8.15519 5.16329C9.32049 4.03819 10.8784 3.41159 12.4982 3.41655C14.1193 3.41064 15.6787 4.0373 16.8449 5.16329C17.6887 5.97545 18.269 7.02237 18.5106 8.1683C18.7522 9.31423 18.6439 10.5063 18.1999 11.59C17.3942 13.5308 15.9478 16.0136 14.6038 18.306C13.9667 19.3972 13.3515 20.4482 12.8461 21.382C12.8116 21.4436 12.7612 21.4949 12.7001 21.5304C12.6391 21.566 12.5696 21.5845 12.499 21.5842C12.4283 21.5838 12.3591 21.5645 12.2984 21.5283C12.2378 21.4921 12.1879 21.4403 12.154 21.3783ZM11.0774 17.9434C11.5828 18.804 12.0698 19.6389 12.4982 20.4006C12.9303 19.6316 13.421 18.793 13.9264 17.9288C15.2557 15.6584 16.6911 13.2049 17.4785 11.3043C17.7333 10.6904 17.864 10.032 17.863 9.36718C17.863 7.9317 17.2624 6.63172 16.292 5.69427C15.2739 4.71203 13.9129 4.16553 12.4982 4.1709C11.0188 4.1709 9.67855 4.75315 8.70814 5.69427C7.97199 6.40031 7.46441 7.31084 7.25096 8.30827C7.0375 9.30569 7.12797 10.3442 7.51069 11.2897C8.28702 13.1756 9.7408 15.6547 11.0774 17.9434Z" fill="white"/>
</g>
<defs>
<clipPath id="clip0_1161_12291">
<rect width="25" height="25" fill="white"/>
</clipPath>
</defs>
</svg>
