<svg width="17" height="16" viewBox="0 0 17 16" fill="none" xmlns="http://www.w3.org/2000/svg">
<g clip-path="url(#clip0_1143_11533)">
<path d="M15.9952 1.87496C15.9627 1.72759 15.9013 1.58811 15.8146 1.46454C15.728 1.34098 15.6177 1.23577 15.4902 1.15496C15.3627 1.07278 15.2201 1.01676 15.0708 0.990147C14.9214 0.963538 14.7683 0.966874 14.6202 0.999961L10.8702 1.83496L5.87024 0.834961L1.62024 1.77996C1.36492 1.83589 1.13642 1.97748 0.972697 2.18122C0.808976 2.38497 0.719889 2.63859 0.720236 2.89996V13.875C0.719062 14.0683 0.767092 14.2588 0.859808 14.4285C0.952524 14.5982 1.08688 14.7415 1.25024 14.845C1.37775 14.9271 1.52033 14.9832 1.66968 15.0098C1.81903 15.0364 1.97218 15.033 2.12024 15L5.87024 14.165L10.8702 15.165L15.1152 14.22C15.3706 14.164 15.5991 14.0224 15.7628 13.8187C15.9265 13.615 16.0156 13.3613 16.0152 13.1V2.12496C16.0144 2.04078 16.0044 1.95694 15.9852 1.87496H15.9952ZM6.62024 12.99L5.86524 12.84L5.12024 13V2.32996L5.87524 2.16496L6.62024 2.31496V12.985V12.99ZM11.6202 13.67L10.8652 13.835L10.1202 13.685V3.00996L10.8752 3.15996L11.6202 2.99996H11.6252V13.67H11.6202Z" fill="white"/>
</g>
<defs>
<clipPath id="clip0_1143_11533">
<rect width="16" height="16" fill="white" transform="translate(0.370117)"/>
</clipPath>
</defs>
</svg>
