<svg width="32" height="32" viewBox="0 0 32 32" fill="none" xmlns="http://www.w3.org/2000/svg">
<path d="M15.0264 24.6176C14.0961 24.9754 13.5951 26.0131 13.953 26.9435C14.1319 27.4087 14.4539 27.7665 14.8833 27.9812C15.1338 28.0885 15.3842 28.1601 15.6347 28.1601C15.8494 28.1601 16.0641 28.1243 16.2788 28.0527C16.744 27.8738 17.1018 27.5518 17.3165 27.1224C17.5312 26.693 17.5312 26.1921 17.3881 25.7269C17.0302 24.7607 15.9925 24.2598 15.0264 24.6176ZM16.1357 26.5141C16.0641 26.6214 15.9925 26.7288 15.8494 26.7646C15.7063 26.8004 15.5989 26.8004 15.4558 26.7646C15.3485 26.693 15.2411 26.6214 15.2053 26.4783C15.098 26.2278 15.2411 25.9416 15.4916 25.8342C15.5632 25.7984 15.5989 25.7984 15.6705 25.7984C15.8852 25.7984 16.0641 25.9416 16.1357 26.1205C16.1715 26.2636 16.1715 26.4067 16.1357 26.5141Z" fill="white"/>
<path d="M18.3156 22.149V20.9682C18.3156 20.6103 18.0294 20.3241 17.6715 20.3241H16.777V19.2506H17.7789C17.9578 19.2506 18.1367 19.179 18.244 19.0717C18.3514 18.9643 18.423 18.7854 18.423 18.6065V16.6027C18.423 16.2449 18.1367 15.9586 17.7789 15.9586H16.777V14.6704H17.922C18.1009 14.6704 18.2798 14.5989 18.3872 14.4915C18.4945 14.3842 18.5661 14.2053 18.5661 14.0264V12.0225C18.5661 11.8078 18.4587 11.5931 18.2798 11.4858L15.7393 9.80401C15.4888 9.62509 15.131 9.66088 14.9163 9.87557L13.0914 11.6289C12.9483 11.7363 12.8767 11.9152 12.8767 12.0941V22.1848C11.4812 23.0793 10.6582 24.6538 10.6582 26.3356C10.6582 29.055 12.8767 31.2736 15.5962 31.2736C16.9201 31.2736 18.1725 30.7726 19.1028 29.8065C20.0332 28.8761 20.5341 27.6237 20.5341 26.2998C20.5699 24.618 19.7111 23.0436 18.3156 22.149ZM18.2083 28.8761C17.5284 29.556 16.5981 29.9496 15.6319 29.9496C13.6281 29.9496 12.0179 28.3394 11.9821 26.3356C11.9821 25.0116 12.6978 23.795 13.8786 23.1509C14.0933 23.0436 14.2364 22.8289 14.2364 22.5784V12.3804L15.4888 11.1637L17.2779 12.3446V13.3465H16.1329C15.954 13.3465 15.7751 13.418 15.6677 13.5254C15.5604 13.6327 15.4888 13.8117 15.4888 13.9906V16.6027C15.4888 16.7816 15.5604 16.9605 15.6677 17.0679C15.7751 17.1752 15.954 17.2468 16.1329 17.2468H17.1348V17.9267H16.1329C15.7751 17.9267 15.4888 18.2129 15.4888 18.5707V20.9682C15.4888 21.1471 15.5604 21.326 15.6677 21.4333C15.7751 21.5407 15.954 21.6123 16.1329 21.6123H17.0274V22.5068C17.0274 22.7573 17.1706 22.972 17.3853 23.0793C18.5661 23.7234 19.2817 24.94 19.2817 26.264C19.2459 27.2659 18.8881 28.1605 18.2083 28.8761Z" fill="white"/>
<path d="M31.9138 9.94756C31.7707 9.33925 31.3771 8.8383 30.8403 8.51625L16.8495 0.322043C16.1338 -0.107348 15.2035 -0.107348 14.4878 0.322043L9.47833 3.292V0.751434C9.47833 0.393608 9.19207 0.107348 8.83425 0.107348H5.22024C4.86241 0.107348 4.57616 0.393608 4.57616 0.751434V6.22617L1.17684 8.26578C0.0318064 8.87408 -0.326016 10.3054 0.318065 11.4146C0.640105 11.9514 1.14106 12.345 1.74936 12.4881C2.35765 12.6313 2.96595 12.5597 3.50269 12.2376L4.57616 11.5936V23.5807C4.57616 23.9385 4.86241 24.2248 5.22024 24.2248H7.76078C8.1186 24.2248 8.40486 23.9385 8.40486 23.5807C8.40486 23.2229 8.1186 22.9366 7.76078 22.9366H5.86432V10.9495C5.86432 10.9137 5.86432 10.8779 5.82854 10.8421L15.6687 5.00956L25.5088 10.7706C25.473 10.8421 25.473 10.8779 25.473 10.9495V22.9366H23.2903C22.9325 22.9366 22.6462 23.2229 22.6462 23.5807C22.6462 23.9385 22.9325 24.2248 23.2903 24.2248H26.1529C26.5107 24.2248 26.7969 23.9385 26.7969 23.5807V11.522L28.4787 12.5239C28.8365 12.7386 29.2301 12.8459 29.6595 12.8459C30.4825 12.8459 31.234 12.4166 31.6633 11.7009C31.9854 11.1642 32.0927 10.5559 31.9138 9.94756ZM5.86432 1.39552H8.19016V4.00765V4.04343L5.86432 5.43895V1.39552ZM30.5541 11.021C30.2678 11.4862 29.6595 11.6651 29.1944 11.3789L16.0265 3.64982C15.9191 3.57826 15.8118 3.54248 15.7044 3.54248C15.5971 3.54248 15.4897 3.57826 15.3824 3.64982L2.85861 11.0926C2.64391 11.2357 2.35765 11.2715 2.10718 11.1999C1.82092 11.1284 1.60623 10.9853 1.4631 10.7348C1.17684 10.2696 1.35575 9.6613 1.82092 9.37504L15.1677 1.4313C15.4897 1.25239 15.8834 1.25239 16.1696 1.4313L30.1605 9.6613C30.3752 9.80443 30.5541 10.0191 30.6257 10.2696C30.733 10.5201 30.6614 10.8063 30.5541 11.021Z" fill="white"/>
</svg>
