<svg width="32" height="30" viewBox="0 0 32 30" fill="none" xmlns="http://www.w3.org/2000/svg">
<path d="M14.5851 23.1108C13.7486 23.4325 13.2982 24.3655 13.62 25.2019C13.7808 25.6201 14.0703 25.9418 14.4564 26.1349C14.6816 26.2314 14.9068 26.2957 15.132 26.2957C15.325 26.2957 15.518 26.2636 15.711 26.1992C16.1292 26.0384 16.4509 25.7488 16.644 25.3628C16.837 24.9767 16.837 24.5263 16.7083 24.1081C16.3866 23.2395 15.4537 22.7891 14.5851 23.1108ZM15.5823 24.8159C15.518 24.9124 15.4537 25.0089 15.325 25.0411C15.1963 25.0732 15.0998 25.0732 14.9711 25.0411C14.8746 24.9767 14.7781 24.9124 14.7459 24.7837C14.6494 24.5585 14.7781 24.3011 15.0033 24.2046C15.0676 24.1725 15.0998 24.1725 15.1641 24.1725C15.3572 24.1725 15.518 24.3011 15.5823 24.462C15.6145 24.5907 15.6145 24.7194 15.5823 24.8159Z" fill="#2B6F71" stroke="#2B6F71" stroke-width="0.1"/>
<path d="M17.5427 20.9807V19.9191C17.5427 19.5973 17.2853 19.34 16.9636 19.34H16.1593V18.3749H17.0601C17.221 18.3749 17.3818 18.3105 17.4783 18.214C17.5748 18.1175 17.6392 17.9566 17.6392 17.7958V15.9942C17.6392 15.6725 17.3818 15.4152 17.0601 15.4152H16.1593V14.257H17.1888C17.3496 14.257 17.5105 14.1927 17.607 14.0962C17.7035 13.9996 17.7679 13.8388 17.7679 13.6779V11.8764C17.7679 11.6834 17.6714 11.4903 17.5105 11.3938L15.2264 9.8818C15.0012 9.72095 14.6795 9.75312 14.4865 9.94614L12.8458 11.5225C12.7171 11.619 12.6528 11.7799 12.6528 11.9407V21.0129C11.3981 21.8171 10.6582 23.2326 10.6582 24.7447C10.6582 27.1896 12.6528 29.1842 15.0977 29.1842C16.288 29.1842 17.414 28.7338 18.2504 27.8652C19.0869 27.0288 19.5372 25.9028 19.5372 24.7125C19.5694 23.2005 18.7973 21.785 17.5427 20.9807ZM17.4462 27.0288C16.8349 27.64 15.9985 27.9939 15.1299 27.9939C13.3283 27.9939 11.8807 26.5462 11.8485 24.7447C11.8485 23.5543 12.4919 22.4605 13.5535 21.8815C13.7466 21.785 13.8752 21.5919 13.8752 21.3667V12.1981L15.0012 11.1043L16.6097 12.1659V13.0667H15.5803C15.4194 13.0667 15.2586 13.131 15.1621 13.2276C15.0655 13.3241 15.0012 13.4849 15.0012 13.6458V15.9942C15.0012 16.1551 15.0655 16.3159 15.1621 16.4124C15.2586 16.509 15.4194 16.5733 15.5803 16.5733H16.481V17.1845H15.5803C15.2586 17.1845 15.0012 17.4419 15.0012 17.7636V19.9191C15.0012 20.0799 15.0655 20.2408 15.1621 20.3373C15.2586 20.4338 15.4194 20.4981 15.5803 20.4981H16.3845V21.3024C16.3845 21.5276 16.5132 21.7206 16.7062 21.8171C17.7679 22.3962 18.4113 23.49 18.4113 24.6803C18.3791 25.5811 18.0574 26.3854 17.4462 27.0288Z" fill="#2B6F71" stroke="#2B6F71" stroke-width="0.1"/>
<path d="M31.9138 9.94756C31.7707 9.33925 31.3771 8.8383 30.8403 8.51625L16.8495 0.322043C16.1338 -0.107348 15.2035 -0.107348 14.4878 0.322043L9.47833 3.292V0.751434C9.47833 0.393608 9.19207 0.107348 8.83425 0.107348H5.22024C4.86241 0.107348 4.57616 0.393608 4.57616 0.751434V6.22617L1.17684 8.26578C0.0318064 8.87408 -0.326016 10.3054 0.318065 11.4146C0.640105 11.9514 1.14106 12.345 1.74936 12.4881C2.35765 12.6313 2.96595 12.5597 3.50269 12.2376L4.57616 11.5936V23.5807C4.57616 23.9385 4.86241 24.2248 5.22024 24.2248H7.76078C8.1186 24.2248 8.40486 23.9385 8.40486 23.5807C8.40486 23.2229 8.1186 22.9366 7.76078 22.9366H5.86432V10.9495C5.86432 10.9137 5.86432 10.8779 5.82854 10.8421L15.6687 5.00956L25.5088 10.7706C25.473 10.8421 25.473 10.8779 25.473 10.9495V22.9366H23.2903C22.9325 22.9366 22.6462 23.2229 22.6462 23.5807C22.6462 23.9385 22.9325 24.2248 23.2903 24.2248H26.1529C26.5107 24.2248 26.7969 23.9385 26.7969 23.5807V11.522L28.4787 12.5239C28.8365 12.7386 29.2301 12.8459 29.6595 12.8459C30.4825 12.8459 31.234 12.4166 31.6633 11.7009C31.9854 11.1642 32.0927 10.5559 31.9138 9.94756ZM5.86432 1.39552H8.19016V4.00765V4.04343L5.86432 5.43895V1.39552ZM30.5541 11.021C30.2678 11.4862 29.6595 11.6651 29.1944 11.3789L16.0265 3.64982C15.9191 3.57826 15.8118 3.54248 15.7044 3.54248C15.5971 3.54248 15.4897 3.57826 15.3824 3.64982L2.85861 11.0926C2.64391 11.2357 2.35765 11.2715 2.10718 11.1999C1.82092 11.1284 1.60623 10.9853 1.4631 10.7348C1.17684 10.2696 1.35575 9.6613 1.82092 9.37504L15.1677 1.4313C15.4897 1.25239 15.8834 1.25239 16.1696 1.4313L30.1605 9.6613C30.3752 9.80443 30.5541 10.0191 30.6257 10.2696C30.733 10.5201 30.6614 10.8063 30.5541 11.021Z" fill="#2B6F71"/>
</svg>
