<svg width="30" height="27" viewBox="0 0 30 27" fill="none" xmlns="http://www.w3.org/2000/svg">
<path d="M2.99942 23.0284H8.1788L11.4512 26.7466C11.5932 26.9075 11.7915 26.9998 11.9996 26.9998C12.2077 26.9998 12.406 26.9089 12.548 26.7466L15.8204 23.0284H20.9998C22.655 23.0284 23.9994 21.6034 23.9994 19.8522V14.1342C23.9994 13.6964 23.6647 13.3405 23.2498 13.3405C22.835 13.3405 22.5003 13.6964 22.5003 14.1342V19.8522C22.5003 20.7278 21.8281 21.4411 20.9998 21.4411H15.4942C15.2861 21.4411 15.0878 21.5319 14.9458 21.6942L11.9997 25.0416L9.05354 21.6942C8.91151 21.5334 8.71323 21.4411 8.50511 21.4411H2.99956C2.17266 21.4411 1.49906 20.7293 1.49906 19.8522V7.14594C1.49906 6.27035 2.17126 5.55708 2.99956 5.55708H17.3997C17.8146 5.55708 18.1493 5.2012 18.1493 4.76342C18.1493 4.32564 17.8146 3.96975 17.3997 3.96975L2.99956 3.96826C1.34437 3.96826 0 5.39332 0 7.14445V19.8507C0 21.6034 1.34581 23.0269 2.99956 23.0269L2.99942 23.0284Z" fill="#2B6F71"/>
<path d="M29.4504 5.18944C26.4536 4.31237 25.9249 3.75398 25.0979 0.582212C25.0093 0.238237 24.7126 0 24.3751 0C24.0376 0 23.7409 0.238252 23.6523 0.582212C22.8254 3.75394 22.2967 4.31385 19.2998 5.18944C18.975 5.28474 18.75 5.59744 18.75 5.95482C18.75 6.3122 18.975 6.6249 19.2998 6.7202C22.2966 7.59727 22.8254 8.15566 23.6523 11.3274C23.7409 11.6714 24.0376 11.9096 24.3751 11.9096C24.7126 11.9096 25.0093 11.6714 25.0979 11.3274C25.9248 8.1557 26.4536 7.59579 29.4504 6.7202C29.7752 6.6249 30.0002 6.3122 30.0002 5.95482C30.0002 5.59744 29.7752 5.28474 29.4504 5.18944ZM24.375 8.66792C23.8041 7.32925 23.077 6.5609 21.8128 5.95482C23.077 5.35027 23.8041 4.58039 24.375 3.24172C24.946 4.58039 25.673 5.34875 26.9373 5.95482C25.673 6.55937 24.946 7.32925 24.375 8.66792Z" fill="#2B6F71"/>
<path d="M12.7228 9.31707C12.6328 8.9731 12.3375 8.73486 12 8.73486C11.6625 8.73486 11.3672 8.97311 11.2772 9.31707C10.657 11.6937 10.2942 12.0778 8.04984 12.733C7.72499 12.8283 7.5 13.141 7.5 13.4984C7.5 13.8558 7.725 14.1685 8.04984 14.2638C10.2942 14.9205 10.6571 15.3032 11.2772 17.6797C11.3672 18.0237 11.6625 18.2619 12 18.2619C12.3375 18.2619 12.6328 18.0237 12.7228 17.6797C13.343 15.3031 13.7058 14.9189 15.9502 14.2638C16.2751 14.1685 16.5 13.8558 16.5 13.4984C16.5 13.141 16.275 12.8283 15.9502 12.733C13.7058 12.0763 13.343 11.6936 12.7228 9.31707ZM12 15.1766C11.6161 14.4156 11.1352 13.9049 10.4166 13.4984C11.1352 13.0919 11.6175 12.5826 12 11.8202C12.3839 12.5811 12.8649 13.0919 13.5835 13.4984C12.8649 13.9049 12.3825 14.4141 12 15.1766Z" fill="#2B6F71"/>
</svg>
