<svg width="25" height="19" viewBox="0 0 25 19" fill="none" xmlns="http://www.w3.org/2000/svg">
<path d="M20.8333 0H4.16667C1.875 0 0 1.75747 0 3.89153V14.8757C0 17.0725 1.875 18.83 4.16667 18.83H20.8333C23.125 18.83 25 17.0725 25 14.9385V3.89153C25 1.75747 23.125 0 20.8333 0ZM23.6111 14.9385C23.6111 16.3821 22.3611 17.5747 20.8333 17.5747H4.16667C2.63889 17.5747 1.38889 16.3821 1.38889 14.9385C1.38889 12.8672 1.38889 8.15967 1.38889 3.89153C1.38889 2.4479 2.63889 1.25533 4.16667 1.25533H20.8333C22.3611 1.25533 23.6111 2.4479 23.6111 3.89153C23.6111 5.96283 23.6111 10.6703 23.6111 14.9385ZM18.3333 10.4193C17.6389 9.7916 16.5278 9.7916 15.9028 10.4193L15.4167 10.8586L12.3611 8.0969C11.5278 7.3437 10.1389 7.3437 9.23611 8.0969L3.68056 13.1182C3.40278 13.3693 3.40278 13.7459 3.68056 13.997C3.81944 14.1225 4.02778 14.1853 4.16667 14.1853C4.30556 14.1853 4.51389 14.1225 4.65278 13.997L10.2083 8.97563C10.5556 8.72457 11.0417 8.72457 11.3194 8.97563L14.375 11.7374L12.9167 13.0555C12.6389 13.3065 12.6389 13.6831 12.9167 13.9342C13.1944 14.1853 13.6111 14.1853 13.8889 13.9342L15.8333 12.1767L16.8056 11.298C16.9444 11.1725 17.1528 11.1725 17.2917 11.298L20.2778 13.997C20.4167 14.1225 20.625 14.1853 20.7639 14.1853C20.9028 14.1853 21.1111 14.1225 21.25 13.997C21.5278 13.7459 21.5278 13.3693 21.25 13.1182L18.3333 10.4193ZM18.4028 8.15967C19.7222 8.15967 20.8333 7.1554 20.8333 5.96283C20.8333 4.77027 19.7222 3.766 18.4028 3.766C17.0833 3.766 15.9722 4.77027 15.9722 5.96283C15.9722 7.1554 17.0833 8.15967 18.4028 8.15967ZM18.4028 5.02133C18.9583 5.02133 19.4444 5.4607 19.4444 5.96283C19.4444 6.46497 18.9583 6.90433 18.4028 6.90433C17.8472 6.90433 17.3611 6.46497 17.3611 5.96283C17.3611 5.4607 17.8472 5.02133 18.4028 5.02133Z" fill="black"/>
</svg>
