<svg width="24" height="24" viewBox="0 0 24 24" fill="none" xmlns="http://www.w3.org/2000/svg">
<mask id="path-1-inside-1_4091_3753" fill="white">
<path d="M11.8 10.3363C10.8173 10.3363 9.85675 10.0449 9.03969 9.49893C8.22264 8.95299 7.58582 8.17703 7.20978 7.26917C6.83373 6.36131 6.73534 5.36233 6.92705 4.39855C7.11875 3.43477 7.59195 2.54948 8.2868 1.85463C8.98164 1.15979 9.86693 0.686591 10.8307 0.494883C11.7945 0.303176 12.7935 0.401567 13.7013 0.777615C14.6092 1.15366 15.3852 1.79048 15.9311 2.60753C16.477 3.42458 16.7684 4.38518 16.7684 5.36784C16.7684 6.68554 16.245 7.94928 15.3132 8.88104C14.3814 9.8128 13.1177 10.3363 11.8 10.3363ZM11.8 1.64152C11.063 1.64152 10.3426 1.86007 9.72977 2.26952C9.11698 2.67897 8.63937 3.26094 8.35733 3.94184C8.0753 4.62273 8.0015 5.37197 8.14528 6.09481C8.28906 6.81764 8.64396 7.48161 9.1651 8.00274C9.68623 8.52388 10.3502 8.87877 11.073 9.02255C11.7959 9.16633 12.5451 9.09254 13.226 8.8105C13.9069 8.52847 14.4889 8.05086 14.8983 7.43807C15.3078 6.82528 15.5263 6.10483 15.5263 5.36784C15.5263 4.37956 15.1337 3.43175 14.4349 2.73293C13.7361 2.03411 12.7883 1.64152 11.8 1.64152ZM23.6 23.9994H22.3579V23.3784C22.3579 20.5782 21.2455 17.8928 19.2656 15.9128C17.2856 13.9328 14.6001 12.8205 11.8 12.8205C8.99987 12.8205 6.31443 13.9328 4.33444 15.9128C2.35445 17.8928 1.24211 20.5782 1.24211 23.3784V23.9994H0V23.3784C0 20.2488 1.24321 17.2474 3.45614 15.0345C5.66907 12.8216 8.67045 11.5784 11.8 11.5784C14.9296 11.5784 17.9309 12.8216 20.1439 15.0345C22.3568 17.2474 23.6 20.2488 23.6 23.3784V23.9994Z"/>
</mask>
<path d="M11.8 10.3363C10.8173 10.3363 9.85675 10.0449 9.03969 9.49893C8.22264 8.95299 7.58582 8.17703 7.20978 7.26917C6.83373 6.36131 6.73534 5.36233 6.92705 4.39855C7.11875 3.43477 7.59195 2.54948 8.2868 1.85463C8.98164 1.15979 9.86693 0.686591 10.8307 0.494883C11.7945 0.303176 12.7935 0.401567 13.7013 0.777615C14.6092 1.15366 15.3852 1.79048 15.9311 2.60753C16.477 3.42458 16.7684 4.38518 16.7684 5.36784C16.7684 6.68554 16.245 7.94928 15.3132 8.88104C14.3814 9.8128 13.1177 10.3363 11.8 10.3363ZM11.8 1.64152C11.063 1.64152 10.3426 1.86007 9.72977 2.26952C9.11698 2.67897 8.63937 3.26094 8.35733 3.94184C8.0753 4.62273 8.0015 5.37197 8.14528 6.09481C8.28906 6.81764 8.64396 7.48161 9.1651 8.00274C9.68623 8.52388 10.3502 8.87877 11.073 9.02255C11.7959 9.16633 12.5451 9.09254 13.226 8.8105C13.9069 8.52847 14.4889 8.05086 14.8983 7.43807C15.3078 6.82528 15.5263 6.10483 15.5263 5.36784C15.5263 4.37956 15.1337 3.43175 14.4349 2.73293C13.7361 2.03411 12.7883 1.64152 11.8 1.64152ZM23.6 23.9994H22.3579V23.3784C22.3579 20.5782 21.2455 17.8928 19.2656 15.9128C17.2856 13.9328 14.6001 12.8205 11.8 12.8205C8.99987 12.8205 6.31443 13.9328 4.33444 15.9128C2.35445 17.8928 1.24211 20.5782 1.24211 23.3784V23.9994H0V23.3784C0 20.2488 1.24321 17.2474 3.45614 15.0345C5.66907 12.8216 8.67045 11.5784 11.8 11.5784C14.9296 11.5784 17.9309 12.8216 20.1439 15.0345C22.3568 17.2474 23.6 20.2488 23.6 23.3784V23.9994Z" fill="white"/>
<path d="M11.8 10.3363V110.336V10.3363ZM11.8 1.64152V101.642V1.64152ZM15.5263 5.36784H115.526H15.5263ZM23.6 23.9994V123.999H123.6V23.9994H23.6ZM22.3579 23.9994H-77.6421V123.999H22.3579V23.9994ZM1.24211 23.3784H-98.7579H1.24211ZM1.24211 23.9994V123.999H101.242V23.9994H1.24211ZM0 23.9994H-100V123.999H0V23.9994ZM0 23.3784H-100H0ZM11.8 -89.6637C30.5955 -89.6637 48.9689 -84.0902 64.5967 -73.648L-46.5173 92.6459C-29.2554 104.18 -8.96082 110.336 11.8 110.336V-89.6637ZM64.5967 -73.648C80.2245 -63.2059 92.405 -48.364 99.5977 -30.9992L-85.1782 45.5375C-77.2333 64.7181 -63.7792 81.1119 -46.5173 92.6459L64.5967 -73.648ZM99.5977 -30.9992C106.79 -13.6344 108.672 5.47326 105.006 23.9076L-91.1515 -15.1105C-95.2017 5.25139 -93.123 26.357 -85.1782 45.5375L99.5977 -30.9992ZM105.006 23.9076C101.339 42.3419 92.2879 59.2749 78.9975 72.5653L-62.4239 -68.856C-77.104 -54.1759 -87.1013 -35.4723 -91.1515 -15.1105L105.006 23.9076ZM78.9975 72.5653C65.707 85.8557 48.774 94.9066 30.3397 98.5734L-8.67832 -97.5836C-29.0402 -93.5334 -47.7438 -83.5362 -62.4239 -68.856L78.9975 72.5653ZM30.3397 98.5734C11.9054 102.24 -7.20225 100.358 -24.567 93.1656L51.9697 -91.6103C32.7892 -99.5552 11.6835 -101.634 -8.67832 -97.5836L30.3397 98.5734ZM-24.567 93.1656C-41.9318 85.9728 -56.7737 73.7924 -67.2159 58.1646L99.078 -52.9495C87.544 -70.2114 71.1502 -83.6655 51.9697 -91.6103L-24.567 93.1656ZM-67.2159 58.1646C-77.658 42.5367 -83.2316 24.1634 -83.2316 5.36784H116.768C116.768 -15.393 110.612 -35.6876 99.078 -52.9495L-67.2159 58.1646ZM-83.2316 5.36784C-83.2316 -19.8361 -73.2194 -44.0077 -55.3975 -61.8296L86.0239 79.5917C105.709 59.9063 116.768 33.2072 116.768 5.36784H-83.2316ZM-55.3975 -61.8296C-37.5756 -79.6515 -13.4039 -89.6637 11.8 -89.6637V110.336C39.6393 110.336 66.3385 99.2771 86.0239 79.5917L-55.3975 -61.8296ZM11.8 -98.3585C-8.71513 -98.3585 -28.7696 -92.275 -45.8273 -80.8774L65.2868 85.4165C49.4547 95.9952 30.8411 101.642 11.8 101.642V-98.3585ZM-45.8273 -80.8774C-62.885 -69.4799 -76.1798 -53.28 -84.0306 -34.3265L100.745 42.2102C93.4586 59.8019 81.1189 74.8378 65.2868 85.4165L-45.8273 -80.8774ZM-84.0306 -34.3265C-91.8814 -15.373 -93.9355 5.4829 -89.9332 25.6038L106.224 -13.4142C109.939 5.26104 108.032 24.6185 100.745 42.2102L-84.0306 -34.3265ZM-89.9332 25.6038C-85.931 45.7247 -76.052 64.207 -61.5456 78.7134L79.8758 -62.7079C93.3399 -49.2438 102.509 -32.0894 106.224 -13.4142L-89.9332 25.6038ZM-61.5456 78.7134C-47.0392 93.2198 -28.5569 103.099 -8.436 107.101L30.5821 -89.056C49.2573 -85.3412 66.4116 -76.1721 79.8758 -62.7079L-61.5456 78.7134ZM-8.436 107.101C11.6849 111.103 32.5408 109.049 51.4943 101.198L-25.0423 -83.5774C-7.45062 -90.8642 11.9068 -92.7707 30.5821 -89.056L-8.436 107.101ZM51.4943 101.198C70.4479 93.3476 86.6477 80.0527 98.0453 62.9951L-68.2486 -48.119C-57.67 -63.951 -42.6341 -76.2907 -25.0423 -83.5774L51.4943 101.198ZM98.0453 62.9951C109.443 45.9374 115.526 25.883 115.526 5.36784H-84.4737C-84.4737 -13.6734 -78.8273 -32.2869 -68.2486 -48.119L98.0453 62.9951ZM115.526 5.36784C115.526 -22.1421 104.598 -48.5253 85.1456 -67.9777L-56.2758 73.4436C-74.3306 55.3888 -84.4737 30.9012 -84.4737 5.36784H115.526ZM85.1456 -67.9777C65.6931 -87.4302 39.31 -98.3585 11.8 -98.3585V101.642C-13.7334 101.642 -38.221 91.4984 -56.2758 73.4436L85.1456 -67.9777ZM23.6 -76.0006H22.3579V123.999H23.6V-76.0006ZM122.358 23.9994V23.3784H-77.6421V23.9994H122.358ZM122.358 23.3784C122.358 -5.94339 110.71 -34.0642 89.9762 -54.7979L-51.4451 86.6235C-68.2188 69.8498 -77.6421 47.0999 -77.6421 23.3784H122.358ZM89.9762 -54.7979C69.2426 -75.5315 41.1218 -87.1795 11.8 -87.1795V112.82C-11.9215 112.82 -34.6715 103.397 -51.4451 86.6235L89.9762 -54.7979ZM11.8 -87.1795C-17.5218 -87.1795 -45.6426 -75.5315 -66.3762 -54.7979L75.0451 86.6235C58.2715 103.397 35.5215 112.82 11.8 112.82V-87.1795ZM-66.3762 -54.7979C-87.1099 -34.0643 -98.7579 -5.94342 -98.7579 23.3784H101.242C101.242 47.0999 91.8188 69.8498 75.0451 86.6235L-66.3762 -54.7979ZM-98.7579 23.3784V23.9994H101.242V23.3784H-98.7579ZM1.24211 -76.0006H0V123.999H1.24211V-76.0006ZM100 23.9994V23.3784H-100V23.9994H100ZM100 23.3784C100 46.7705 90.7075 69.2045 74.1668 85.7452L-67.2545 -55.6762C-88.2211 -34.7096 -100 -6.27286 -100 23.3784H100ZM74.1668 85.7452C57.6261 102.286 35.1921 111.578 11.8 111.578V-88.4216C-17.8512 -88.4216 -46.288 -76.6427 -67.2545 -55.6762L74.1668 85.7452ZM11.8 111.578C-11.5921 111.578 -34.0261 102.286 -50.5668 85.7452L90.8545 -55.6762C69.888 -76.6427 41.4512 -88.4216 11.8 -88.4216V111.578ZM-50.5668 85.7452C-67.1075 69.2045 -76.4 46.7705 -76.4 23.3784H123.6C123.6 -6.27288 111.821 -34.7096 90.8545 -55.6762L-50.5668 85.7452ZM-76.4 23.3784V23.9994H123.6V23.3784H-76.4Z" fill="white" mask="url(#path-1-inside-1_4091_3753)"/>
</svg>
