<svg width="45" height="45" viewBox="0 0 45 45" fill="none" xmlns="http://www.w3.org/2000/svg">
<rect width="45" height="45" rx="22.5" fill="white" fill-opacity="0.6"/>
<path d="M27.6 20.8C29.4747 20.8 31 19.2747 31 17.4C31 15.5253 29.4747 14 27.6 14C25.7253 14 24.2 15.5253 24.2 17.4C24.2 17.6442 24.2263 17.8822 24.2756 18.1119L19.9621 20.2688C19.3382 19.5533 18.4213 19.1 17.4 19.1C15.5253 19.1 14 20.6253 14 22.5C14 24.3747 15.5253 25.9 17.4 25.9C18.4213 25.9 19.3382 25.4467 19.9621 24.7315L24.2756 26.8883C24.2263 27.1178 24.2 27.3558 24.2 27.6C24.2 29.4747 25.7253 31 27.6 31C29.4747 31 31 29.4747 31 27.6C31 25.7253 29.4747 24.2 27.6 24.2C26.5787 24.2 25.6618 24.6533 25.0379 25.3685L20.7244 23.2119C20.7737 22.9822 20.8 22.7442 20.8 22.5C20.8 22.2558 20.7737 22.0178 20.7244 21.7881L25.0379 19.6315C25.6618 20.3467 26.5787 20.8 27.6 20.8ZM27.6 15.7C28.5373 15.7 29.3 16.4627 29.3 17.4C29.3 18.3373 28.5373 19.1 27.6 19.1C26.6627 19.1 25.9 18.3373 25.9 17.4C25.9 16.4627 26.6627 15.7 27.6 15.7ZM17.4 24.2C16.4627 24.2 15.7 23.4373 15.7 22.5C15.7 21.5627 16.4627 20.8 17.4 20.8C18.3373 20.8 19.1 21.5627 19.1 22.5C19.1 23.4373 18.3373 24.2 17.4 24.2ZM27.6 25.9C28.5373 25.9 29.3 26.6627 29.3 27.6C29.3 28.5373 28.5373 29.3 27.6 29.3C26.6627 29.3 25.9 28.5373 25.9 27.6C25.9 26.6627 26.6627 25.9 27.6 25.9Z" fill="#303030"/>
</svg>
