<svg width="18" height="18" viewBox="0 0 18 18" fill="none" xmlns="http://www.w3.org/2000/svg">
<path fill-rule="evenodd" clip-rule="evenodd" d="M8.57208 1.79183L6.60735 6.21874L1.91673 6.85187C1.82598 6.86376 1.74043 6.9028 1.67031 6.96433C1.60019 7.02585 1.54848 7.10726 1.52138 7.19879C1.49427 7.29032 1.49291 7.38809 1.51747 7.48041C1.54203 7.57273 1.59145 7.65567 1.65984 7.71931L5.13261 10.9946L4.19543 15.9051C4.17778 15.999 4.18629 16.0962 4.21993 16.1852C4.25358 16.2741 4.31094 16.3511 4.38518 16.4068C4.45942 16.4625 4.54739 16.4946 4.63859 16.4994C4.72979 16.5041 4.82036 16.4813 4.8995 16.4335L9.00023 13.9409L13.1057 16.4335C13.1848 16.4813 13.2754 16.5041 13.3666 16.4994C13.4578 16.4946 13.5458 16.4625 13.62 16.4068C13.6943 16.3511 13.7516 16.2741 13.7853 16.1852C13.8189 16.0962 13.8274 15.999 13.8098 15.9051L12.8726 10.9946L16.3454 7.71931C16.4124 7.65507 16.4604 7.57207 16.4839 7.48013C16.5073 7.38818 16.5052 7.29113 16.4776 7.20043C16.4501 7.10974 16.3984 7.02919 16.3286 6.9683C16.2588 6.90742 16.1738 6.86875 16.0837 6.85686L11.3931 6.21874L9.43314 1.79183C9.39529 1.7048 9.33436 1.631 9.2576 1.57926C9.18084 1.52751 9.0915 1.5 9.00023 1.5C8.90896 1.5 8.81962 1.52751 8.74286 1.57926C8.6661 1.631 8.60516 1.7048 8.56732 1.79183H8.57208Z" fill="#00EFD1"/>
</svg>
