<svg width="27" height="27" viewBox="0 0 27 27" fill="none" xmlns="http://www.w3.org/2000/svg">
<g clip-path="url(#clip0_3496_7805)">
<path d="M7.17188 13.9219H5.0625V14.7656H7.17188V13.9219Z" fill="black"/>
<path d="M7.17188 18.1406H5.0625V18.9844H7.17188V18.1406Z" fill="black"/>
<path d="M25.6816 7.17188C25.751 7.17208 25.8196 7.15663 25.8822 7.12668C25.9448 7.09674 25.9998 7.05306 26.0432 6.99891L26.1786 6.80527L25.3083 2.889C25.2843 2.78724 25.2267 2.69655 25.1448 2.63162C25.0629 2.56669 24.9614 2.53132 24.8569 2.53125H22.3931C22.2875 2.53122 22.1851 2.5672 22.1027 2.63324C22.0204 2.69928 21.963 2.79143 21.94 2.89448L21.1153 6.60698C21.1004 6.67474 21.1009 6.74496 21.1167 6.81249C21.1326 6.88003 21.1634 6.94315 21.2068 6.99722L21.3663 7.17019H23.2031V9.27956H22.7812C22.5575 9.27956 22.3429 9.36846 22.1846 9.52669C22.0264 9.68493 21.9375 9.89954 21.9375 10.1233V10.5452H20.995L20.7841 8.316C20.7551 8.00207 20.6094 7.71042 20.3759 7.49861C20.1424 7.2868 19.838 7.17022 19.5227 7.17188H14.2273C13.912 7.17057 13.6077 7.28753 13.3744 7.49966C13.1411 7.71179 12.9958 8.00367 12.9672 8.31769L12.755 10.5469H9.16903L8.50627 8.4375H11.6016C11.7694 8.4375 11.9304 8.37083 12.049 8.25215C12.1677 8.13348 12.2344 7.97252 12.2344 7.80469V1.47656C12.2344 1.30873 12.1677 1.14777 12.049 1.0291C11.9304 0.910421 11.7694 0.84375 11.6016 0.84375H1.47656C1.30873 0.84375 1.14777 0.910421 1.0291 1.0291C0.910421 1.14777 0.84375 1.30873 0.84375 1.47656V7.80469C0.84375 7.97252 0.910421 8.13348 1.0291 8.25215C1.14777 8.37083 1.30873 8.4375 1.47656 8.4375H4.57186L3.90909 10.5469H1.47656C1.30873 10.5469 1.14777 10.6135 1.0291 10.7322C0.910421 10.8509 0.84375 11.0119 0.84375 11.1797V12.4453C0.84375 12.6131 0.910421 12.7741 1.0291 12.8928C1.14777 13.0115 1.30873 13.0781 1.47656 13.0781H1.6875V24.0047C1.6875 24.1278 1.73639 24.2458 1.82342 24.3328C1.91045 24.4199 2.02849 24.4688 2.15156 24.4688H2.53125V25.5234C2.53125 25.6913 2.59792 25.8522 2.7166 25.9709C2.83527 26.0896 2.99623 26.1562 3.16406 26.1562H4.42969C4.59752 26.1562 4.75848 26.0896 4.87715 25.9709C4.99583 25.8522 5.0625 25.6913 5.0625 25.5234V24.4688H10.0828C10.2059 24.4688 10.3239 24.4199 10.411 24.3328C10.498 24.2458 10.5469 24.1278 10.5469 24.0047V13.0781H12.5137L12.3242 15.0677C12.3075 15.2432 12.3277 15.4203 12.3834 15.5876C12.4392 15.7549 12.5293 15.9087 12.6479 16.0391C12.7665 16.1695 12.9111 16.2737 13.0724 16.345C13.2337 16.4163 13.4081 16.4532 13.5844 16.4531H15.6094V17.7188H13.0781C12.8543 17.7188 12.6397 17.8076 12.4815 17.9659C12.3233 18.1241 12.2344 18.3387 12.2344 18.5625V19.8281C12.2344 19.94 12.2788 20.0473 12.3579 20.1264C12.4371 20.2056 12.5444 20.25 12.6562 20.25H15.6094V23.625H13.5C13.2497 23.625 13.005 23.6992 12.7969 23.8383C12.5887 23.9774 12.4265 24.175 12.3307 24.4063C12.2349 24.6376 12.2099 24.892 12.2587 25.1375C12.3075 25.383 12.4281 25.6086 12.6051 25.7856C12.7821 25.9626 13.0076 26.0831 13.2531 26.1319C13.4986 26.1808 13.7531 26.1557 13.9843 26.0599C14.2156 25.9641 14.4133 25.8019 14.5523 25.5938C14.6914 25.3856 14.7656 25.1409 14.7656 24.8906C14.7642 24.7466 14.738 24.6039 14.688 24.4688H19.062C19.012 24.6039 18.9858 24.7466 18.9844 24.8906C18.9844 25.1409 19.0586 25.3856 19.1977 25.5938C19.3367 25.8019 19.5344 25.9641 19.7657 26.0599C19.9969 26.1557 20.2514 26.1808 20.4969 26.1319C20.7424 26.0831 20.9679 25.9626 21.1449 25.7856C21.3219 25.6086 21.4425 25.383 21.4913 25.1375C21.5401 24.892 21.5151 24.6376 21.4193 24.4063C21.3235 24.175 21.1613 23.9774 20.9531 23.8383C20.745 23.6992 20.5003 23.625 20.25 23.625H18.1406V20.25H21.0937C21.2056 20.25 21.3129 20.2056 21.3921 20.1264C21.4712 20.0473 21.5156 19.94 21.5156 19.8281V18.5625C21.5156 18.3387 21.4267 18.1241 21.2685 17.9659C21.1103 17.8076 20.8957 17.7188 20.6719 17.7188H18.1406V16.4531H20.1656C20.3419 16.453 20.5162 16.4161 20.6773 16.3448C20.8385 16.2734 20.983 16.1692 21.1015 16.0388C21.2201 15.9084 21.3101 15.7546 21.3658 15.5874C21.4215 15.4202 21.4416 15.2431 21.4249 15.0677L21.2359 13.0781H22.7812V25.5234C22.7812 25.6913 22.8479 25.8522 22.9666 25.9709C23.0853 26.0896 23.2462 26.1562 23.4141 26.1562H24.6797C24.8475 26.1562 25.0085 26.0896 25.1272 25.9709C25.2458 25.8522 25.3125 25.6913 25.3125 25.5234V13.0781H25.5234C25.6913 13.0781 25.8522 13.0115 25.9709 12.8928C26.0896 12.7741 26.1562 12.6131 26.1562 12.4453V11.1797C26.1562 11.0119 26.0896 10.8509 25.9709 10.7322C25.8522 10.6135 25.6913 10.5469 25.5234 10.5469H25.3125V10.125C25.3125 9.90122 25.2236 9.68661 25.0654 9.52838C24.9071 9.37014 24.6925 9.28125 24.4687 9.28125H24.0469V7.17188H25.6816ZM13.9219 24.8906C13.9219 24.9741 13.8971 25.0556 13.8508 25.125C13.8044 25.1944 13.7385 25.2485 13.6614 25.2804C13.5844 25.3123 13.4995 25.3207 13.4177 25.3044C13.3359 25.2881 13.2607 25.2479 13.2017 25.1889C13.1427 25.1299 13.1025 25.0548 13.0862 24.9729C13.07 24.8911 13.0783 24.8063 13.1102 24.7292C13.1422 24.6521 13.1962 24.5862 13.2656 24.5398C13.335 24.4935 13.4166 24.4688 13.5 24.4688C13.6119 24.4688 13.7192 24.5132 13.7983 24.5923C13.8774 24.6714 13.9219 24.7787 13.9219 24.8906ZM20.6719 24.8906C20.6719 24.9741 20.6471 25.0556 20.6008 25.125C20.5544 25.1944 20.4885 25.2485 20.4114 25.2804C20.3344 25.3123 20.2495 25.3207 20.1677 25.3044C20.0859 25.2881 20.0107 25.2479 19.9517 25.1889C19.8927 25.1299 19.8525 25.0548 19.8362 24.9729C19.82 24.8911 19.8283 24.8063 19.8602 24.7292C19.8922 24.6521 19.9462 24.5862 20.0156 24.5398C20.085 24.4935 20.1666 24.4688 20.25 24.4688C20.3619 24.4688 20.4692 24.5132 20.5483 24.5923C20.6274 24.6714 20.6719 24.7787 20.6719 24.8906ZM1.6875 1.6875H11.3906V5.90625H1.6875V1.6875ZM1.6875 7.59375V6.75H11.3906V7.59375H1.6875ZM5.45695 8.4375H7.62117L8.28478 10.5469H4.79334L5.45695 8.4375ZM4.21875 25.3125H3.375V24.4688H4.21875V25.3125ZM9.70312 23.625H2.53125V17.2969H9.70312V23.625ZM9.70312 16.4531H2.53125V13.0781H9.70312V16.4531ZM10.5469 12.2344H1.6875V11.3906H12.6744L12.5942 12.2344H10.5469ZM17.2969 23.625H16.4531V20.25H17.2969V23.625ZM20.6719 18.5625V19.4062H13.0781V18.5625H20.6719ZM17.2969 17.7188H16.4531V16.4531H17.2969V17.7188ZM20.4778 15.4714C20.4385 15.5152 20.3903 15.5501 20.3365 15.5739C20.2827 15.5977 20.2245 15.6098 20.1656 15.6094H13.5844C13.5254 15.6096 13.4671 15.5976 13.4131 15.5739C13.3591 15.5502 13.3107 15.5155 13.2709 15.472C13.2312 15.4285 13.201 15.3771 13.1823 15.3212C13.1637 15.2653 13.1569 15.2061 13.1625 15.1474L13.8059 8.39742C13.8159 8.29262 13.8647 8.19534 13.9427 8.1247C14.0208 8.05405 14.1225 8.01515 14.2277 8.01562H19.5227C19.628 8.01515 19.7296 8.05405 19.8077 8.1247C19.8857 8.19534 19.9346 8.29262 19.9446 8.39742L20.5875 15.1474C20.5931 15.2061 20.5862 15.2653 20.5673 15.3211C20.5484 15.377 20.5179 15.4282 20.4778 15.4714ZM24.4687 25.3125H23.625V13.0781H24.4687V25.3125ZM25.3125 12.2344H21.1558L21.0752 11.3906H25.3125V12.2344ZM24.4687 10.5469H22.7812V10.125H24.4687V10.5469ZM22.6969 3.375H24.5531L25.2091 6.32812H22.0417L22.6969 3.375Z" fill="black"/>
</g>
<defs>
<clipPath id="clip0_3496_7805">
<rect width="27" height="27" fill="white"/>
</clipPath>
</defs>
</svg>
