<svg width="24" height="24" viewBox="0 0 24 24" fill="none" xmlns="http://www.w3.org/2000/svg">
<path d="M11.6608 4.32478C11.7313 4.32477 11.7989 4.29677 11.8488 4.24693C11.8986 4.19708 11.9266 4.12949 11.9266 4.059V3.68724H20.4648C20.5855 3.68724 20.7049 3.66348 20.8163 3.61732C20.9278 3.57116 21.029 3.5035 21.1143 3.41821C21.1996 3.33292 21.2673 3.23166 21.3134 3.12022C21.3596 3.00878 21.3834 2.88934 21.3834 2.76872C21.3834 2.6481 21.3596 2.52866 21.3134 2.41722C21.2673 2.30578 21.1996 2.20453 21.1143 2.11923C21.029 2.03394 20.9278 1.96628 20.8163 1.92012C20.7049 1.87396 20.5855 1.85021 20.4648 1.85021H12.6105C12.5198 1.85031 12.4304 1.82788 12.3505 1.78492C12.2705 1.74197 12.2025 1.67984 12.1525 1.60411C12.0541 1.45519 11.9202 1.33304 11.7629 1.24861C11.6056 1.16418 11.4298 1.12011 11.2513 1.12036H9.29641C9.03242 1.12067 8.77934 1.22566 8.59265 1.4123C8.40597 1.59894 8.30092 1.852 8.30055 2.11599V2.77866C8.30076 3.01956 8.39654 3.25053 8.56688 3.42087C8.73722 3.59122 8.96818 3.68701 9.20908 3.68724H9.73108V4.7513H9.352C9.07323 4.75162 8.80597 4.86251 8.60885 5.05964C8.41173 5.25676 8.30086 5.52403 8.30055 5.8028V6.38335H7.97462C7.74303 6.38361 7.52099 6.47573 7.35723 6.6395C7.19347 6.80327 7.10136 7.02531 7.10111 7.25691V7.5256H5.10423V7.12247C5.10384 6.82462 4.98534 6.53909 4.77473 6.32847C4.56412 6.11786 4.27858 5.99937 3.98073 5.99897H2.88297C2.81248 5.99898 2.74489 6.02699 2.69505 6.07683C2.64521 6.12667 2.6172 6.19427 2.61719 6.26475V13.0921C2.6172 13.1626 2.64521 13.2302 2.69505 13.28C2.74489 13.3299 2.81248 13.3579 2.88297 13.3579H3.98059C4.27843 13.3575 4.56396 13.239 4.77457 13.0284C4.98518 12.8178 5.10368 12.5323 5.10409 12.2344V11.8313H7.10097V12.1001C7.10122 12.3317 7.19333 12.5537 7.35709 12.7175C7.52085 12.8812 7.74289 12.9733 7.97448 12.9736H13.683C13.9146 12.9733 14.1366 12.8812 14.3004 12.7175C14.4641 12.5537 14.5562 12.3317 14.5565 12.1001V8.05711H16.6294C17.5595 8.05813 18.4512 8.42805 19.1089 9.08572C19.7666 9.74338 20.1366 10.6351 20.1377 11.5652V13.2293C20.1377 13.2997 20.1657 13.3673 20.2155 13.4172C20.2653 13.467 20.3329 13.495 20.4034 13.495H20.513C20.5765 13.4951 20.6373 13.5204 20.6822 13.5653C20.727 13.6101 20.7523 13.671 20.7524 13.7344V14.4887H16.2484V13.7344C16.2485 13.6709 16.2738 13.6101 16.3187 13.5652C16.3636 13.5203 16.4245 13.495 16.488 13.4949H18.9062C18.9767 13.4949 19.0443 13.4669 19.0942 13.4171C19.144 13.3673 19.172 13.2997 19.172 13.2292C19.172 13.1587 19.144 13.0911 19.0942 13.0412C19.0443 12.9914 18.9767 12.9634 18.9062 12.9634H16.8953V12.424C16.895 12.1258 16.7764 11.84 16.5656 11.6292C16.3548 11.4184 16.0689 11.2998 15.7708 11.2994H15.6009C15.5304 11.2994 15.4628 11.3274 15.4129 11.3773C15.3631 11.4271 15.3351 11.4947 15.3351 11.5652C15.3351 11.6357 15.3631 11.7033 15.4129 11.7531C15.4628 11.803 15.5304 11.831 15.6009 11.831H15.7708C15.928 11.8312 16.0787 11.8937 16.1899 12.0049C16.301 12.116 16.3636 12.2668 16.3638 12.424V12.9743C16.1834 13.0039 16.0193 13.0965 15.9009 13.2357C15.7824 13.3749 15.7172 13.5516 15.7169 13.7344V14.7545C15.7169 14.825 15.7449 14.8926 15.7947 14.9424C15.8446 14.9922 15.9122 15.0202 15.9827 15.0203H21.0182C21.0886 15.0202 21.1562 14.9922 21.2061 14.9424C21.2559 14.8926 21.2839 14.825 21.2839 14.7545V13.7344C21.2837 13.5571 21.2225 13.3853 21.1105 13.2478C20.9985 13.1103 20.8427 13.0155 20.6691 12.9793V11.5652C20.6679 10.4942 20.2419 9.46736 19.4845 8.71004C18.7272 7.95272 17.7004 7.52674 16.6293 7.52555H14.5565V7.25686C14.5563 7.02526 14.4642 6.80321 14.3004 6.63943C14.1366 6.47566 13.9146 6.38355 13.683 6.3833H13.3571V5.80275C13.3568 5.52398 13.2459 5.25671 13.0488 5.05959C12.8516 4.86246 12.5844 4.75158 12.3056 4.75125H10.2626V3.68724H11.395V4.059C11.3951 4.12949 11.4231 4.19708 11.4729 4.24693C11.5227 4.29677 11.5903 4.32477 11.6608 4.32478ZM4.57248 12.2344C4.57231 12.3914 4.5099 12.5418 4.39893 12.6528C4.28797 12.7637 4.13752 12.8261 3.98059 12.8263H3.14852V6.53039H3.98059C4.13752 6.53058 4.28797 6.59301 4.39893 6.70398C4.5099 6.81495 4.57231 6.9654 4.57248 7.12233V12.2344ZM14.0252 7.25686V12.0998C14.0252 12.1905 13.9891 12.2775 13.9249 12.3417C13.8608 12.4059 13.7737 12.4419 13.683 12.4419H7.97462C7.88387 12.4419 7.79683 12.4059 7.73266 12.3417C7.66849 12.2775 7.63244 12.1905 7.63244 12.0998V9.12732C7.63244 9.05683 7.60444 8.98922 7.55459 8.93938C7.50475 8.88954 7.43715 8.86153 7.36666 8.86153C7.29617 8.86153 7.22856 8.88954 7.17872 8.93938C7.12888 8.98922 7.10087 9.05683 7.10087 9.12732V11.2994H5.104V8.05711H7.3668C7.43728 8.0571 7.50488 8.02909 7.55472 7.97925C7.60456 7.92941 7.63257 7.86182 7.63258 7.79133V7.25696C7.63258 7.1662 7.66863 7.07917 7.7328 7.01499C7.79698 6.95082 7.88401 6.91477 7.97477 6.91477H13.683C13.7737 6.91477 13.8607 6.95081 13.9249 7.01496C13.9891 7.07911 14.0251 7.16612 14.0252 7.25686ZM11.6608 5.28286H12.3056C12.4435 5.28302 12.5756 5.33785 12.6731 5.43533C12.7706 5.5328 12.8254 5.66495 12.8256 5.8028V6.38335H8.83211V5.80275C8.83222 5.6649 8.88703 5.53273 8.9845 5.43526C9.08198 5.33778 9.21415 5.28297 9.352 5.28286H11.6608ZM9.99677 3.15572H9.20908C9.10913 3.15561 9.0133 3.11585 8.94263 3.04517C8.87195 2.97449 8.83221 2.87866 8.83211 2.77871V2.11599C8.83226 1.99289 8.88122 1.87488 8.96826 1.78784C9.0553 1.7008 9.17331 1.65184 9.29641 1.65169H11.2513C11.3421 1.65157 11.4314 1.67398 11.5113 1.71691C11.5913 1.75984 11.6593 1.82194 11.7093 1.89764C11.8077 2.04664 11.9416 2.16887 12.0988 2.25337C12.2561 2.33787 12.432 2.38199 12.6105 2.38177H20.4648C20.5675 2.38177 20.6659 2.42254 20.7385 2.4951C20.811 2.56767 20.8518 2.6661 20.8518 2.76872C20.8518 2.87135 20.811 2.96977 20.7385 3.04234C20.6659 3.11491 20.5675 3.15567 20.4648 3.15567H9.99686L9.99677 3.15572ZM18.697 17.1809C18.6721 17.1535 18.6418 17.1316 18.6079 17.1166C18.5741 17.1016 18.5374 17.0939 18.5004 17.0939C18.4634 17.0939 18.4268 17.1016 18.3929 17.1166C18.3591 17.1316 18.3287 17.1535 18.3038 17.1809C17.0464 18.5634 16.681 19.3226 16.4897 19.8831C16.3187 20.3732 16.3064 20.9047 16.4546 21.4021C16.8192 22.5757 17.9103 22.88 18.4699 22.88C18.4807 22.88 18.4914 22.88 18.5017 22.8796C18.608 22.8793 19.569 22.8693 20.1845 22.0975C20.2066 22.0702 20.2231 22.0389 20.233 22.0052C20.2429 21.9716 20.2461 21.9363 20.2423 21.9014C20.2385 21.8665 20.2278 21.8328 20.2109 21.802C20.194 21.7713 20.1712 21.7442 20.1438 21.7223C20.1164 21.7004 20.0849 21.6842 20.0511 21.6746C20.0174 21.6649 19.9821 21.662 19.9473 21.6661C19.9124 21.6702 19.8787 21.6811 19.8481 21.6982C19.8175 21.7154 19.7906 21.7384 19.7689 21.766C19.2994 22.3547 18.5141 22.3492 18.5073 22.3481C18.5026 22.3481 18.4983 22.3481 18.4938 22.3481C18.483 22.3474 17.3102 22.3645 16.9622 21.2445C16.8471 20.8546 16.8578 20.4385 16.9927 20.055C17.1567 19.5753 17.467 18.9285 18.5005 17.7578C19.5342 18.9285 19.8445 19.5753 20.0084 20.055C20.0312 20.1218 20.0796 20.1767 20.1429 20.2077C20.2062 20.2388 20.2792 20.2434 20.3459 20.2206C20.4126 20.1978 20.4675 20.1494 20.4986 20.0861C20.5296 20.0228 20.5342 19.9498 20.5114 19.8831C20.3198 19.3226 19.9544 18.5634 18.697 17.1809Z" fill="black"/>
<path d="M20.3227 20.7195C20.3056 20.7231 20.2889 20.7282 20.2728 20.7348C20.2568 20.7414 20.2414 20.7497 20.227 20.7594C20.2124 20.7688 20.199 20.7799 20.1871 20.7926C20.1624 20.8172 20.1429 20.8464 20.1295 20.8786C20.1162 20.9108 20.1094 20.9453 20.1094 20.9801C20.1093 20.9977 20.1109 21.0153 20.1141 21.0326C20.1178 21.0494 20.1229 21.0658 20.1293 21.0817C20.1362 21.0979 20.1444 21.1134 20.1539 21.1282C20.1637 21.1426 20.1748 21.1559 20.1871 21.1681C20.2118 21.1928 20.2411 21.2123 20.2733 21.2257C20.3055 21.239 20.34 21.2459 20.3749 21.2459C20.4097 21.2459 20.4442 21.239 20.4764 21.2257C20.5087 21.2123 20.5379 21.1928 20.5626 21.1681C20.5751 21.1561 20.5862 21.1427 20.5958 21.1282C20.6053 21.1134 20.6135 21.0979 20.6204 21.0817C20.6271 21.0659 20.6322 21.0494 20.6356 21.0326C20.6428 20.9982 20.6428 20.9627 20.6356 20.9283C20.6322 20.9114 20.6271 20.8949 20.6204 20.8791C20.6136 20.8628 20.6054 20.8473 20.5958 20.8326C20.5863 20.8181 20.5751 20.8047 20.5626 20.7927C20.5316 20.7618 20.4936 20.739 20.4517 20.7262C20.4099 20.7135 20.3656 20.7112 20.3227 20.7195Z" fill="black"/>
</svg>
