<svg width="26" height="16" viewBox="0 0 26 16" fill="none" xmlns="http://www.w3.org/2000/svg">
<path d="M21.4535 3.52006L24.9346 1.5108C25.1132 1.40599 25.3361 1.46651 25.4409 1.64515C25.4852 1.7042 25.5 1.77949 25.5 1.83855V14.16C25.5 14.3682 25.3214 14.5321 25.1132 14.5321C25.0394 14.5321 24.9641 14.5025 24.9051 14.473L23.0006 13.3717C22.822 13.2668 22.7629 13.0439 22.8663 12.8505C22.9711 12.6719 23.194 12.6128 23.3726 12.7162L24.7412 13.5045V2.4941L21.2748 4.48858C21.2157 4.53287 21.1404 4.5624 21.0666 4.5624C20.8584 4.5624 20.6946 4.38376 20.6946 4.17562V3.01524C20.6946 2.59891 20.5159 2.21213 20.2487 1.94345C19.9667 1.66148 19.5947 1.4976 19.1769 1.4976H2.77942C2.36308 1.4976 1.99108 1.66147 1.70763 1.94345C1.44041 2.21066 1.26178 2.59747 1.26178 3.01524V12.9848C1.26178 13.4012 1.44041 13.7879 1.70763 14.0566C1.9896 14.3386 2.36165 14.5025 2.77942 14.5025H19.1769C19.5933 14.5025 19.9653 14.3386 20.2487 14.0566C20.5159 13.7894 20.6946 13.4026 20.6946 12.9848V11.8244C20.6946 11.6163 20.8584 11.4377 21.0666 11.4377C21.2748 11.4377 21.4534 11.6163 21.4534 11.8244V12.9848C21.4534 13.6093 21.1862 14.1747 20.7832 14.5925C20.3668 15.0089 19.8014 15.2628 19.1755 15.2628H2.77793C2.15347 15.2628 1.58804 15.0103 1.17023 14.5925C0.768675 14.1762 0.5 13.6108 0.5 12.9848V3.01524C0.5 2.39078 0.767212 1.82535 1.17023 1.40754C1.58657 0.991203 2.152 0.737305 2.77793 0.737305H19.1755C19.7999 0.737305 20.3653 0.989755 20.7832 1.40754C21.1847 1.82387 21.4534 2.3893 21.4534 3.01524V3.5216L21.4535 3.52006Z" fill="black"/>
</svg>
