<svg width="24" height="24" viewBox="0 0 24 24" fill="none" xmlns="http://www.w3.org/2000/svg">
<g clip-path="url(#clip0_4009_11367)">
<path d="M6.47998 9.60352H7.19998V12.0035H6.47998V9.60352ZM13.68 9.60352H14.4V12.0035H13.68V9.60352ZM20.88 9.60352H21.6V12.0035H20.88V9.60352Z" fill="black"/>
<path d="M0.839844 20.0401V23.1601H3.55976V22.0844H20.4397V23.1601H23.1598V0.840088H0.839844V20.0401ZM2.83976 22.4401H1.55984V22.0844H2.83976V22.4401ZM22.4398 22.4401H21.1599V22.0844H22.4398V22.4401ZM22.4398 21.3644H1.55984V20.7601H22.4398V21.3644ZM8.75984 20.0401V1.56009H15.2398V20.0401H8.75984ZM22.4398 20.0401H15.9598V1.56009H22.4398V20.0401ZM1.55984 1.56009H8.03984V20.0401H1.55984V1.56009Z" fill="black"/>
</g>
<defs>
<clipPath id="clip0_4009_11367">
<rect width="24" height="24" fill="white"/>
</clipPath>
</defs>
</svg>
