<svg width="25" height="25" viewBox="0 0 25 25" fill="none" xmlns="http://www.w3.org/2000/svg">
<path fill-rule="evenodd" clip-rule="evenodd" d="M7.24832 13.67H2.2929C1.0286 13.67 0 12.6415 0 11.3771V9.97014C0 9.82629 0.116572 9.70972 0.260423 9.70972H9.28073C9.42458 9.70972 9.54116 9.82629 9.54116 9.97014V11.3772C9.54116 12.6414 8.51264 13.67 7.24832 13.67ZM0.520835 10.2305V11.3772C0.520835 12.3543 1.31577 13.1493 2.29291 13.1493L7.24833 13.1492C8.22543 13.1492 9.02031 12.3543 9.02031 11.3772V10.2305L0.520835 10.2305Z" fill="black"/>
<path fill-rule="evenodd" clip-rule="evenodd" d="M6.32173 24.217H3.21897C3.14905 24.217 3.08196 24.1888 3.03302 24.1389C2.98405 24.089 2.9572 24.0214 2.95854 23.9515L3.16539 13.4046C3.16824 13.2608 3.28462 13.1452 3.43089 13.1493C3.57474 13.1521 3.68901 13.271 3.68616 13.4148L3.48447 23.6961L6.05609 23.6961L5.8544 13.4148C5.85155 13.271 5.96589 13.1521 6.10967 13.1493C6.25236 13.1443 6.37232 13.2608 6.37516 13.4046L6.58201 23.9515C6.58336 24.0214 6.55658 24.0889 6.50754 24.1389C6.45852 24.1889 6.39172 24.217 6.32173 24.217Z" fill="black"/>
<path fill-rule="evenodd" clip-rule="evenodd" d="M9.28073 11.6378H0.260423C0.116572 11.6378 0 11.5212 0 11.3773C0 11.2335 0.116572 11.1169 0.260423 11.1169H9.28073C9.42458 11.1169 9.54116 11.2335 9.54116 11.3773C9.54116 11.5212 9.42458 11.6378 9.28073 11.6378Z" fill="black"/>
<path fill-rule="evenodd" clip-rule="evenodd" d="M2.04165 10.2306C1.89782 10.2306 1.78125 10.114 1.78125 9.97015V8.80437C1.78125 8.66052 1.89782 8.54395 2.04165 8.54395C2.1855 8.54395 2.30208 8.66052 2.30208 8.80437V9.97015C2.30208 10.114 2.1855 10.2306 2.04165 10.2306Z" fill="black"/>
<path fill-rule="evenodd" clip-rule="evenodd" d="M2.68084 9.06479H1.40201C1.25817 9.06479 1.1416 8.94822 1.1416 8.80437C1.1416 8.66052 1.25817 8.54395 1.40201 8.54395H2.68084C2.82469 8.54395 2.94127 8.66052 2.94127 8.80437C2.94127 8.94822 2.82469 9.06479 2.68084 9.06479Z" fill="black"/>
<path fill-rule="evenodd" clip-rule="evenodd" d="M7.49966 10.2306C7.35583 10.2306 7.23926 10.114 7.23926 9.97015V8.80437C7.23926 8.66052 7.35583 8.54395 7.49966 8.54395C7.64351 8.54395 7.76008 8.66052 7.76008 8.80437V9.97015C7.76001 10.114 7.64344 10.2306 7.49966 10.2306Z" fill="black"/>
<path fill-rule="evenodd" clip-rule="evenodd" d="M8.13934 9.06479H6.8605C6.71667 9.06479 6.6001 8.94822 6.6001 8.80437C6.6001 8.66052 6.71667 8.54395 6.8605 8.54395H8.13934C8.28319 8.54395 8.39976 8.66052 8.39976 8.80437C8.39976 8.94822 8.28319 9.06479 8.13934 9.06479Z" fill="black"/>
<path fill-rule="evenodd" clip-rule="evenodd" d="M24.7395 24.2171H16.4733C16.3295 24.2171 16.2129 24.1005 16.2129 23.9567V3.55046C16.2129 3.40661 16.3295 3.29004 16.4733 3.29004H24.7396C24.8834 3.29004 25 3.40661 25 3.55046V23.9567C24.9999 24.1005 24.8834 24.2171 24.7395 24.2171ZM16.7337 23.6963H24.4791V3.81086H16.7337V23.6963Z" fill="black"/>
<path fill-rule="evenodd" clip-rule="evenodd" d="M24.7395 22.2613H16.4733C16.3295 22.2613 16.2129 22.1447 16.2129 22.0009C16.2129 21.857 16.3295 21.7405 16.4733 21.7405H24.7396C24.8834 21.7405 25 21.857 25 22.0009C25 22.1447 24.8834 22.2613 24.7395 22.2613Z" fill="black"/>
<path fill-rule="evenodd" clip-rule="evenodd" d="M23.0549 22.2612C22.911 22.2612 22.7944 22.1447 22.7944 22.0008V6.80288C22.7944 6.65905 22.911 6.54248 23.0549 6.54248C23.1987 6.54248 23.3153 6.65905 23.3153 6.80288V22.0009C23.3153 22.1447 23.1987 22.2612 23.0549 22.2612Z" fill="black"/>
<path fill-rule="evenodd" clip-rule="evenodd" d="M20.5346 8.17544C20.4345 8.17544 20.3391 8.11751 20.2961 8.02005C20.2381 7.88848 20.2977 7.73475 20.4293 7.6767L22.95 6.5647C23.0815 6.50665 23.2354 6.56626 23.2933 6.69783C23.3513 6.8294 23.2918 6.98313 23.1602 7.04118L20.6395 8.15319C20.6054 8.1683 20.5696 8.17544 20.5346 8.17544Z" fill="black"/>
<path fill-rule="evenodd" clip-rule="evenodd" d="M21.2386 9.13913C21.1583 9.13913 21.0791 9.10219 21.0281 9.03233L19.6195 7.10477C19.5346 6.98866 19.56 6.82568 19.6761 6.74085C19.7922 6.65601 19.9551 6.68131 20.04 6.79746L21.4487 8.72504C21.5335 8.84115 21.5081 9.00411 21.392 9.08896C21.3458 9.12281 21.292 9.13913 21.2386 9.13913Z" fill="black"/>
<path fill-rule="evenodd" clip-rule="evenodd" d="M17.8078 17.9082C17.6639 17.9082 17.5474 17.7917 17.5474 17.6478V10.4657C17.5474 10.3219 17.6639 10.2053 17.8078 10.2053C17.9516 10.2053 18.0682 10.3219 18.0682 10.4657V17.6478C18.0682 17.7916 17.9516 17.9082 17.8078 17.9082Z" fill="black"/>
<path fill-rule="evenodd" clip-rule="evenodd" d="M17.8078 12.0118H16.4733C16.3295 12.0118 16.2129 11.8952 16.2129 11.7514C16.2129 11.6075 16.3295 11.491 16.4733 11.491H17.8078C17.9516 11.491 18.0682 11.6075 18.0682 11.7514C18.0682 11.8952 17.9516 12.0118 17.8078 12.0118Z" fill="black"/>
<path fill-rule="evenodd" clip-rule="evenodd" d="M17.8078 16.6224H16.4733C16.3295 16.6224 16.2129 16.5058 16.2129 16.362C16.2129 16.2181 16.3295 16.1016 16.4733 16.1016H17.8078C17.9516 16.1016 18.0682 16.2181 18.0682 16.362C18.0682 16.5058 17.9516 16.6224 17.8078 16.6224Z" fill="black"/>
<path fill-rule="evenodd" clip-rule="evenodd" d="M7.60622 7.63793H1.93474C1.79089 7.63793 1.67432 7.52136 1.67432 7.37751V0.260423C1.67432 0.116572 1.79089 0 1.93474 0H7.60622C7.75007 0 7.86664 0.116572 7.86664 0.260423V7.37751C7.86664 7.52136 7.74999 7.63793 7.60622 7.63793ZM2.19514 7.11709H7.34577V0.520753H2.19514V7.11709Z" fill="black"/>
<path fill-rule="evenodd" clip-rule="evenodd" d="M6.71662 6.73447H2.82439C2.68054 6.73447 2.56396 6.61789 2.56396 6.47404V1.16399C2.56396 1.02014 2.68054 0.903564 2.82439 0.903564H6.71662C6.86045 0.903564 6.97703 1.02014 6.97703 1.16399V6.47404C6.97703 6.61786 6.86038 6.73447 6.71662 6.73447ZM3.08481 6.21368H6.4562V1.42441H3.08481V6.21368Z" fill="black"/>
<path fill-rule="evenodd" clip-rule="evenodd" d="M15.0662 6.30352H14.0283C13.8844 6.30352 13.7679 6.18694 13.7679 6.04309C13.7679 5.89924 13.8844 5.78267 14.0283 5.78267H14.8058V5.11726H14.0283C13.8844 5.11726 13.7679 5.00069 13.7679 4.85684C13.7679 4.71301 13.8844 4.59644 14.0283 4.59644H15.0662C15.2101 4.59644 15.3267 4.71301 15.3267 4.85684V6.04302C15.3267 6.18694 15.2101 6.30352 15.0662 6.30352ZM10.544 6.30352H9.50603C9.36218 6.30352 9.24561 6.18694 9.24561 6.04309V4.85692C9.24561 4.71309 9.36218 4.59651 9.50603 4.59651H10.544C10.6878 4.59651 10.8044 4.71309 10.8044 4.85692C10.8044 5.00077 10.6878 5.11734 10.544 5.11734H9.76643V5.78275H10.544C10.6878 5.78275 10.8044 5.89932 10.8044 6.04317C10.8044 6.18702 10.6877 6.30352 10.544 6.30352Z" fill="black"/>
<path fill-rule="evenodd" clip-rule="evenodd" d="M13.213 10.6775H11.3595C10.7663 10.6775 10.2837 10.1948 10.2837 9.60162V4.85684C10.2837 4.71301 10.4003 4.59644 10.5441 4.59644H14.0285C14.1723 4.59644 14.2889 4.71301 14.2889 4.85684V9.60164C14.2889 10.1948 13.8063 10.6775 13.213 10.6775ZM10.8045 5.11727V9.60166C10.8045 9.90774 11.0536 10.1567 11.3596 10.1567H13.2131C13.5192 10.1567 13.7682 9.9077 13.7682 9.60166V5.11727H10.8045Z" fill="black"/>
<path fill-rule="evenodd" clip-rule="evenodd" d="M11.7148 20.891H11.5791C9.97577 20.891 8.67139 19.5866 8.67139 17.9833C8.67139 17.8395 8.78796 17.7229 8.93179 17.7229L14.3621 17.7229C14.506 17.7229 14.6225 17.8395 14.6225 17.9833C14.6225 19.5866 13.318 20.891 11.7148 20.891ZM9.20627 18.2437C9.33639 19.4379 10.3509 20.3702 11.5791 20.3702L11.7148 20.3702C12.9429 20.3702 13.9573 19.4378 14.0875 18.2437L9.20627 18.2437Z" fill="black"/>
<path fill-rule="evenodd" clip-rule="evenodd" d="M13.541 24.2169H9.75259C9.67439 24.2169 9.60034 24.1818 9.55089 24.1213C9.50145 24.0607 9.4818 23.9811 9.49745 23.9045L10.225 20.3381C10.2538 20.1972 10.3914 20.1061 10.5322 20.135C10.6732 20.1637 10.7641 20.3013 10.7353 20.4422L10.0715 23.6961L13.2221 23.6961L12.5583 20.4422C12.5296 20.3012 12.6205 20.1637 12.7614 20.135C12.9025 20.1063 13.0399 20.1971 13.0686 20.338L13.7962 23.9045C13.8118 23.9811 13.7921 24.0607 13.7427 24.1212C13.6933 24.1818 13.6192 24.2169 13.541 24.2169Z" fill="black"/>
<path fill-rule="evenodd" clip-rule="evenodd" d="M12.4141 18.2437C12.3321 18.2437 12.2513 18.2051 12.2006 18.1327C12.1181 18.0149 12.1467 17.8525 12.2645 17.7699C12.7669 17.4181 13.0915 16.6721 13.0915 15.8696C13.0915 14.7084 12.4434 13.7637 11.6467 13.7637C10.8501 13.7637 10.2019 14.7084 10.2019 15.8696C10.2019 16.6722 10.5266 17.4182 11.0289 17.7699C11.1467 17.8525 11.1753 18.0148 11.0928 18.1327C11.0103 18.2504 10.848 18.2791 10.7302 18.1966C10.083 17.7434 9.68115 16.8518 9.68115 15.8696C9.68115 14.4212 10.5629 13.2429 11.6467 13.2429C12.7305 13.2429 13.6123 14.4212 13.6123 15.8696C13.6123 16.8517 13.2103 17.7434 12.5632 18.1966C12.5178 18.2284 12.4658 18.2437 12.4141 18.2437Z" fill="black"/>
<path fill-rule="evenodd" clip-rule="evenodd" d="M9.71419 18.2437C9.62522 18.2437 9.53852 18.1981 9.4899 18.116C9.11543 17.484 8.91748 16.7246 8.91748 15.9203C8.91748 13.9482 10.142 12.3438 11.6471 12.3438C13.1522 12.3438 14.3767 13.9482 14.3767 15.9203C14.3767 16.7247 14.1788 17.484 13.8043 18.116C13.7309 18.2397 13.5712 18.2805 13.4475 18.2073C13.3238 18.134 13.2829 17.9742 13.3562 17.8505C13.6785 17.3067 13.8559 16.6212 13.8559 15.9203C13.8559 14.2353 12.8651 12.8645 11.6471 12.8645C10.4292 12.8645 9.43833 14.2353 9.43833 15.9203C9.43833 16.6212 9.61581 17.3066 9.93807 17.8505C10.0114 17.9742 9.97056 18.134 9.84679 18.2073C9.80512 18.232 9.75934 18.2437 9.71419 18.2437Z" fill="black"/>
</svg>
