<svg width="25" height="26" viewBox="0 0 25 26" fill="none" xmlns="http://www.w3.org/2000/svg">
<path d="M11.3263 17.2483C11.3263 16.6299 11.8279 16.1283 12.4463 16.1283C13.0648 16.1283 13.5664 16.6299 13.5664 17.2483C13.5664 17.8668 13.0648 18.3676 12.4463 18.3676C11.8279 18.3676 11.3263 17.8668 11.3263 17.2483ZM14.6856 17.2483C14.6856 16.0115 13.6832 15.009 12.4463 15.009C11.2095 15.009 10.207 16.0115 10.207 17.2483C10.207 18.4852 11.2095 19.4876 12.4463 19.4876C13.6832 19.4876 14.6856 18.4852 14.6856 17.2483Z" fill="#3C3C3C"/>
<path d="M16.9489 14.9849C16.1201 13.3383 14.4151 12.2097 12.4461 12.2097C10.4771 12.2097 8.7721 13.3391 7.94336 14.9849L8.79079 15.8323C9.3586 14.368 10.7809 13.329 12.4461 13.329C14.1114 13.329 15.5336 14.368 16.1014 15.8323L16.9489 14.9849Z" fill="#3C3C3C"/>
<path d="M18.9947 12.9395C17.5927 10.8132 15.1836 9.4104 12.4466 9.4104C9.70954 9.4104 7.30044 10.814 5.89844 12.9395L6.71004 13.7504C7.89006 11.8195 10.018 10.5304 12.4466 10.5304C14.8759 10.5304 17.0038 11.8195 18.1839 13.7511L18.9947 12.9395Z" fill="#3C3C3C"/>
<path d="M21.004 10.93C19.0669 8.31062 15.9544 6.61108 12.4463 6.61108C8.93821 6.61108 5.82577 8.31062 3.88867 10.93L4.69093 11.7307C6.41617 9.30993 9.24665 7.73113 12.4463 7.73113C15.646 7.73113 18.4773 9.30993 20.2025 11.7315L21.004 10.93Z" fill="#3C3C3C"/>
</svg>
