<svg width="25" height="23" viewBox="0 0 25 23" fill="none" xmlns="http://www.w3.org/2000/svg">
<path d="M22.2826 0H21.7391C20.3261 0 19.1848 1.08696 19.0489 2.44565H5.95109C5.81522 1.08696 4.64674 0 3.26087 0H2.71739C1.22283 0 0 1.22283 0 2.71739V16.3043C0 17.5272 0.625 18.6413 1.65761 19.2935C1.875 21.2772 3.53261 22.8261 5.57065 22.8261C7.41848 22.8261 8.96739 21.5489 9.40217 19.837H15.0272L16.0598 22.6359C16.087 22.7446 16.1957 22.8261 16.3043 22.8261H17.9348C18.0435 22.8261 18.1522 22.7446 18.1793 22.6359L19.212 19.837H21.4674C23.4239 19.837 25 18.2609 25 16.3043V2.71739C25 1.22283 23.7772 0 22.2826 0ZM9.40217 17.9348C9.375 17.8533 9.34783 17.7446 9.32065 17.663H13.8587V17.9348H9.40217ZM2.09239 17.038C1.9837 16.8207 1.90217 16.5761 1.90217 16.3043V14.6739H2.28261L2.88043 16.0054C2.55435 16.3043 2.28261 16.6576 2.09239 17.038ZM23.0978 5.97826V8.15217H1.90217V5.97826H2.44565H22.5543H23.0978ZM22.5543 14.1304H2.44565H1.90217V8.69565H23.0978V14.1304H22.5543ZM1.90217 5.43478V2.71739C1.90217 2.28261 2.25543 1.90217 2.71739 1.90217H3.26087C3.61413 1.90217 3.91304 2.11957 4.02174 2.44565H3.80435C3.69565 2.44565 3.61413 2.5 3.55978 2.6087L2.28261 5.43478H1.90217ZM3.31522 15.6522L2.88043 14.6739H22.1467L21.0326 17.1196H20.3804V15.4891C20.3804 15.3261 20.2717 15.2174 20.1087 15.2174H14.1304C13.9674 15.2174 13.8587 15.3261 13.8587 15.4891V17.1196H9.07609C8.42391 15.8424 7.09239 14.9457 5.57065 14.9457C4.72826 14.9457 3.96739 15.2174 3.31522 15.6522ZM14.4022 15.7609H19.837V17.9348H14.4022V15.7609ZM20.3804 17.663H21.1957C21.3043 17.663 21.3859 17.6087 21.4402 17.5L22.7174 14.6739H23.0978V16.3043C23.0978 17.2011 22.3641 17.9348 21.4674 17.9348H20.3804V17.663ZM23.0978 5.43478H22.7174L21.4402 2.6087C21.3859 2.5 21.3043 2.44565 21.1957 2.44565H20.9783C21.087 2.11957 21.3859 1.90217 21.7391 1.90217H22.2826C22.7174 1.90217 23.0978 2.25543 23.0978 2.71739V5.43478ZM21.0326 2.98913L22.1467 5.43478H2.88043L3.99457 2.98913H4.34783H5.70652H19.2935H20.6522H21.0326ZM0.543478 16.3043V2.71739C0.543478 1.52174 1.52174 0.543478 2.71739 0.543478H3.26087C4.375 0.543478 5.27174 1.38587 5.40761 2.44565H4.59239C4.45652 1.82065 3.91304 1.3587 3.26087 1.3587H2.71739C1.95652 1.3587 1.3587 1.95652 1.3587 2.71739V5.70652V14.4022V16.3043C1.3587 16.7935 1.52174 17.2826 1.82065 17.663C1.71196 17.962 1.65761 18.288 1.63043 18.6141C0.951087 18.0435 0.543478 17.2011 0.543478 16.3043ZM5.57065 22.2826C3.69565 22.2826 2.17391 20.7609 2.17391 18.8859C2.17391 17.0109 3.69565 15.4891 5.57065 15.4891C7.44565 15.4891 8.96739 17.0109 8.96739 18.8859C8.96739 20.7609 7.44565 22.2826 5.57065 22.2826ZM17.7446 22.2826H16.4946L15.5978 19.837H18.6141L17.7446 22.2826ZM24.4565 16.3043C24.4565 17.962 23.125 19.2935 21.4674 19.2935H19.0217H15.2174H9.4837C9.51087 19.1576 9.51087 19.0217 9.51087 18.8859C9.51087 18.75 9.51087 18.6141 9.4837 18.4783H14.1304H20.1087H21.4674C22.663 18.4783 23.6413 17.5 23.6413 16.3043V14.4022V5.70652V2.71739C23.6413 1.95652 23.0435 1.3587 22.2826 1.3587H21.7391C21.087 1.3587 20.5435 1.82065 20.4076 2.44565H19.5924C19.7283 1.38587 20.6522 0.543478 21.7391 0.543478H22.2826C23.4783 0.543478 24.4565 1.52174 24.4565 2.71739V16.3043Z" fill="black"/>
<path d="M5.57052 16.5742C4.29335 16.5742 3.26074 17.6068 3.26074 18.884C3.26074 20.1612 4.29335 21.1938 5.57052 21.1938C6.8477 21.1938 7.88031 20.1612 7.88031 18.884C7.88031 17.6068 6.8477 16.5742 5.57052 16.5742ZM5.57052 20.6503C4.59226 20.6503 3.80422 19.8623 3.80422 18.884C3.80422 17.9057 4.59226 17.1177 5.57052 17.1177C6.54879 17.1177 7.33683 17.9057 7.33683 18.884C7.33683 19.8623 6.54879 20.6503 5.57052 20.6503Z" fill="black"/>
<path d="M10.8692 9.51172H3.80397C3.64092 9.51172 3.53223 9.62041 3.53223 9.78346V13.0443C3.53223 13.2074 3.64092 13.3161 3.80397 13.3161H10.8692C11.0322 13.3161 11.1409 13.2074 11.1409 13.0443V9.78346C11.1409 9.62041 11.0322 9.51172 10.8692 9.51172ZM10.5974 12.7726H4.0757V10.0552H10.5974V12.7726Z" fill="black"/>
<path d="M14.4022 9.51172C13.3424 9.51172 12.5 10.3541 12.5 11.4139C12.5 12.4737 13.3424 13.3161 14.4022 13.3161C15.462 13.3161 16.3043 12.4737 16.3043 11.4139C16.3043 10.3541 15.462 9.51172 14.4022 9.51172ZM14.4022 12.7726C13.6413 12.7726 13.0435 12.1748 13.0435 11.4139C13.0435 10.653 13.6413 10.0552 14.4022 10.0552C15.163 10.0552 15.7609 10.653 15.7609 11.4139C15.7609 12.1748 15.163 12.7726 14.4022 12.7726Z" fill="black"/>
<path d="M19.5653 9.51172C18.5055 9.51172 17.6631 10.3541 17.6631 11.4139C17.6631 12.4737 18.5055 13.3161 19.5653 13.3161C20.625 13.3161 21.4674 12.4737 21.4674 11.4139C21.4674 10.3541 20.625 9.51172 19.5653 9.51172ZM19.5653 12.7726C18.8044 12.7726 18.2066 12.1748 18.2066 11.4139C18.2066 10.653 18.8044 10.0552 19.5653 10.0552C20.3261 10.0552 20.924 10.653 20.924 11.4139C20.924 12.1748 20.3261 12.7726 19.5653 12.7726Z" fill="black"/>
</svg>
