<svg width="25" height="28" viewBox="0 0 25 28" fill="none" xmlns="http://www.w3.org/2000/svg">
<path d="M6.2655 9.21791C6.11677 9.06919 6.11677 8.82767 6.2655 8.67895C6.41423 8.53023 6.65574 8.52895 6.80446 8.67768C7.51505 9.38827 8.67182 9.38827 9.38114 8.67768C9.53114 8.52896 9.77139 8.53023 9.9201 8.67895C10.0688 8.82768 10.0688 9.0692 9.9201 9.21791C9.41671 9.72131 8.75445 9.97299 8.09215 9.97299C7.43116 9.97299 6.76886 9.72129 6.2642 9.21791H6.2655ZM3.30492 7.38996C3.30492 5.68404 4.20871 4.19424 5.55491 3.34629C5.53712 3.22553 5.50788 3.10223 5.50788 2.984C5.50788 1.55902 6.66719 0.398438 8.09217 0.398438C9.51716 0.398438 10.6777 1.55775 10.6777 2.984C10.6777 3.10222 10.6485 3.22552 10.6307 3.34629C11.9781 4.19417 12.8807 5.68398 12.8807 7.38996C12.8807 10.0302 10.7324 12.1772 8.09213 12.1772C5.45187 12.1772 3.30492 10.0289 3.30492 7.38996ZM6.74982 2.81748C6.8833 2.77808 7.01041 2.72469 7.14898 2.69799C7.45915 2.6357 7.77568 2.60265 8.09345 2.60265C8.41124 2.60265 8.72776 2.6357 9.03792 2.69799C9.17139 2.72469 9.29469 2.7768 9.42436 2.81367C9.58834 2.86197 9.75739 2.8963 9.91502 2.96112C9.90358 1.96579 9.09002 1.16116 8.09215 1.16116C7.09428 1.16116 6.282 1.96709 6.27055 2.96112C6.42436 2.89756 6.58964 2.86452 6.74982 2.81748ZM4.35873 5.90644H7.97643L9.53363 4.86916C9.62516 4.80814 9.73702 4.79035 9.84253 4.81704C9.94804 4.84501 10.037 4.91746 10.0853 5.01407L10.5315 5.90644H11.8268C11.4391 4.93526 10.6879 4.15223 9.73702 3.72385C9.69762 3.70605 9.65948 3.68444 9.62007 3.66919C9.42813 3.59037 9.22602 3.5319 9.02006 3.48232C8.92218 3.45944 8.8243 3.44292 8.72515 3.42766C8.59804 3.40732 8.46838 3.39588 8.33745 3.38826C8.17346 3.37809 8.01076 3.37809 7.84678 3.38826C7.71712 3.39588 7.58746 3.40732 7.46034 3.42766C7.36119 3.44292 7.26204 3.45944 7.16289 3.48232C6.95823 3.53063 6.75738 3.5891 6.56545 3.66791C6.5235 3.68444 6.48536 3.70605 6.44341 3.72512C5.49511 4.1535 4.74384 4.93529 4.3574 5.90644L4.35873 5.90644ZM4.06763 7.38863C4.06763 9.60809 5.87271 11.4131 8.09211 11.4131C10.3116 11.4131 12.1179 9.60803 12.1179 7.38863C12.1179 7.13567 12.0886 6.89035 12.0429 6.65009C12.0124 6.65771 11.9819 6.66916 11.9488 6.66916H10.2963C10.1514 6.66916 10.0192 6.5878 9.95562 6.45814L9.59713 5.74248L8.30434 6.60432C8.24205 6.64754 8.16832 6.66915 8.09332 6.66915H4.23774C4.20469 6.66915 4.17418 6.65771 4.14367 6.65008C4.09918 6.89033 4.06868 7.13567 4.06868 7.38862L4.06763 7.38863ZM24.9772 8.06999L22.7959 14.0662V15.6513C22.7959 16.1662 22.3776 16.5844 21.8628 16.5844H21.6938V27.2191C21.6938 27.4301 21.5234 27.6005 21.3124 27.6005L0.38136 27.6018C0.170344 27.6018 0 27.4314 0 27.2204V18.4061C0 16.2184 1.48346 14.3891 3.49176 13.8196C3.54769 13.7865 3.60744 13.7637 3.67735 13.7624C4.03583 13.6759 4.40447 13.6187 4.78837 13.6187H11.3983C11.7847 13.6187 12.1546 13.6772 12.5144 13.7637C12.5792 13.7662 12.6364 13.7878 12.6886 13.8183C14.6996 14.3853 16.1868 16.217 16.1868 18.4074V23.5354H18.7292V16.587H18.5588C18.0453 16.587 17.6271 16.1688 17.6271 15.6539V14.0688L15.4457 8.0726C15.4025 7.95692 15.4203 7.82472 15.4915 7.7243C15.5627 7.62261 15.6796 7.56159 15.8042 7.56159H24.6185C24.7431 7.56159 24.8601 7.62261 24.9312 7.7243C25.0012 7.82599 25.0202 7.95692 24.977 8.0726L24.9772 8.06999ZM6.31141 14.3802C6.48683 15.2027 7.21904 15.8217 8.09361 15.8217C8.96817 15.8217 9.70037 15.2027 9.8758 14.3802H6.31141ZM4.78854 14.3802C4.54066 14.3802 4.30041 14.4107 4.06523 14.4539V20.2276H12.1194V14.4526C11.8842 14.4094 11.6452 14.3802 11.3986 14.3802H10.6398C10.4542 15.6234 9.38891 16.5844 8.09361 16.5844C6.79954 16.5844 5.73431 15.6247 5.54745 14.3802L4.78854 14.3802ZM0.764064 26.8376H3.30641V20.6267C3.30641 20.6203 3.3026 20.6152 3.3026 20.6089V14.6726C1.81787 15.2662 0.764058 16.7115 0.764058 18.4061V26.839L0.764064 26.8376ZM12.1196 26.8376V20.9902H4.06936V26.8376H12.1196ZM20.9339 24.2953H14.1535C13.9425 24.2953 13.7721 24.125 13.7721 23.9139C13.7721 23.7029 13.9425 23.5326 14.1535 23.5326H15.4246V18.4046C15.4246 16.7101 14.3683 15.2635 12.8823 14.671V26.8375H20.9338L20.9339 24.2953ZM20.9339 16.5845H19.4924V23.5328H20.9339V16.5845ZM22.0348 14.3803H18.3917V15.6514C18.3917 15.7442 18.4667 15.8217 18.5608 15.8217H21.8657C21.9585 15.8217 22.0361 15.7455 22.0361 15.6514V14.3803H22.0348ZM24.075 8.3219H22.2458V10.1435C22.2458 10.3545 22.0754 10.5249 21.8644 10.5249C21.6534 10.5249 21.4831 10.3545 21.4831 10.1435V8.3219H18.9407V10.1435C18.9407 10.3545 18.7704 10.5249 18.5594 10.5249C18.3483 10.5249 18.178 10.3545 18.178 10.1435V8.3219H16.35L18.2771 13.6175H22.149L24.0761 8.3219H24.075Z" fill="black"/>
</svg>
