<svg width="24" height="28" viewBox="0 0 24 28" fill="none" xmlns="http://www.w3.org/2000/svg">
<path d="M3.34306 6.89782C3.51164 6.98836 3.69629 7.03475 3.88227 7.03475C3.99244 7.03475 4.10349 7.01869 4.21232 6.98613C4.81487 6.80505 5.15829 6.16727 4.97722 5.56471C4.79614 4.96216 4.15835 4.61874 3.5558 4.79981C3.26367 4.88768 3.02327 5.08392 2.87921 5.35197C2.7347 5.62046 2.70348 5.9291 2.79135 6.22123C2.87832 6.51292 3.07456 6.75332 3.34306 6.89782ZM3.66418 5.77434C3.69584 5.71546 3.74803 5.67265 3.81181 5.65347C3.83544 5.64633 3.85953 5.64276 3.88361 5.64276C3.99065 5.64276 4.09011 5.71234 4.12267 5.82027C4.16237 5.95185 4.08744 6.09145 3.95542 6.13069C3.89164 6.14987 3.82429 6.14318 3.76542 6.11152C3.707 6.07985 3.66373 6.02767 3.64455 5.96344C3.62538 5.89922 3.63251 5.83321 3.66418 5.77434Z" fill="black"/>
<path d="M12.2426 10.4399C11.4063 9.98991 10.4447 9.89268 9.53578 10.1661C8.62638 10.4395 7.87798 11.0501 7.42797 11.8863C6.97795 12.7226 6.88072 13.6837 7.15412 14.5931C7.42752 15.5025 8.0381 16.2509 8.87436 16.701C9.39931 16.9833 9.97376 17.1269 10.554 17.1269C10.8974 17.1269 11.2431 17.0765 11.5816 16.9748C13.4588 16.4106 14.5275 14.4245 13.9633 12.5473C13.6899 11.6383 13.0788 10.8899 12.2426 10.4399ZM8.21338 12.3091C8.55056 11.6829 9.11119 11.2249 9.79224 11.0206C10.0456 10.9444 10.3047 10.9069 10.562 10.9069C10.9964 10.9069 11.4268 11.0144 11.8202 11.2258C12.3978 11.5362 12.8313 12.0375 13.0557 12.6472C12.7448 13.2721 12.3875 13.6369 11.9919 13.7319C11.6498 13.8144 11.3269 13.6739 10.9532 13.5116C10.4992 13.3144 9.98491 13.0905 9.35381 13.2413C8.83689 13.3644 8.38152 13.7145 7.9935 14.2849C7.80796 13.6186 7.88512 12.9193 8.21338 12.3091ZM11.3247 16.1211C10.6437 16.3259 9.92336 16.2527 9.29673 15.916C8.97382 15.742 8.69596 15.5083 8.47429 15.23C8.79765 14.5815 9.16248 14.2042 9.56076 14.1092C9.9024 14.028 10.2244 14.1681 10.5977 14.33C11.0526 14.5276 11.5678 14.7515 12.2002 14.5994C12.5597 14.5129 12.8875 14.3193 13.1819 14.0214C13.0151 14.9843 12.3229 15.821 11.3247 16.1211Z" fill="black"/>
<path d="M15.5647 14.1204L15.7631 14.0606C16.0521 13.9737 16.2899 13.7797 16.4326 13.5143C16.5753 13.2485 16.6065 12.9434 16.5196 12.6544L16.0517 11.0974C15.9647 10.8084 15.7707 10.5707 15.5053 10.4279C15.2395 10.2852 14.9345 10.254 14.6454 10.341L14.447 10.4007C13.171 8.85309 11.0783 8.20683 9.13773 8.78931C7.85547 9.17466 6.79977 10.0359 6.16555 11.2151C5.53134 12.3944 5.39397 13.7498 5.77931 15.032C6.43048 17.2001 8.4268 18.6032 10.5828 18.6032C11.0591 18.6032 11.5435 18.5345 12.0225 18.3909C13.9626 17.808 15.3528 16.115 15.5647 14.1204ZM11.7656 17.5364C9.58953 18.1898 7.28726 16.9517 6.63341 14.7756C6.31675 13.7212 6.42959 12.6071 6.95097 11.6379C7.47235 10.6688 8.34027 9.96052 9.39418 9.64386C9.78533 9.52656 10.1836 9.46947 10.5779 9.46947C11.8775 9.46947 13.1321 10.0863 13.9198 11.1772L14.1058 11.4346L14.9019 11.1955C14.9626 11.1772 15.0268 11.1839 15.0825 11.2138C15.1383 11.2437 15.1789 11.2936 15.1972 11.3543L15.665 12.9113C15.6833 12.972 15.6766 13.0362 15.6467 13.0919C15.6168 13.1477 15.5669 13.1883 15.5062 13.2065L14.7101 13.4456L14.6967 13.7627C14.6236 15.5151 13.4457 17.0319 11.7656 17.5364Z" fill="black"/>
<path d="M13.4402 3.35642L9.5481 4.52563L9.80473 5.37991L13.6968 4.2107L13.4402 3.35642Z" fill="black"/>
<path d="M12.9995 1.93455L9.10742 3.10376L9.36405 3.95804L13.2561 2.78883L12.9995 1.93455Z" fill="black"/>
<path d="M22.0093 9.53931L21.5892 9.78684C20.1134 10.6552 18.795 11.6962 17.6701 12.8803C14.2239 16.5095 13.2614 20.73 13.0607 23.6317L13.0415 23.9096L13.2832 24.0488C14.5659 24.7878 15.9419 25.3698 17.3731 25.7793C18.6866 26.1548 20.0402 26.3827 21.3952 26.4563L21.6797 26.4719L21.8135 26.2204C23.1796 23.6491 24.6193 19.5468 23.7206 14.6055C23.4356 13.0391 22.9303 11.483 22.2181 9.98041L22.0093 9.53931ZM21.1579 25.5478C19.9648 25.463 18.7753 25.2525 17.618 24.9216C16.3468 24.5581 15.1212 24.051 13.9719 23.4136C14.2042 20.6716 15.1618 16.8168 18.3168 13.4945C19.2758 12.4847 20.3845 11.5838 21.6182 10.8122C22.1891 12.1034 22.6003 13.4307 22.8429 14.7647C23.6667 19.2952 22.4156 23.0898 21.1579 25.5478Z" fill="black"/>
<path d="M6.24794 23.3424C6.3532 23.3424 6.46024 23.3273 6.56594 23.2956L12.4862 21.5383L12.7016 21.5691L12.8279 20.686L12.4189 20.6276L6.31038 22.4406C6.19442 22.4754 6.07177 22.4094 6.03654 22.2934L2.13043 9.29147L15.6158 5.2404L17.589 11.4314L17.9208 11.7949L18.5791 11.1932L18.3793 10.9742L15.1627 0.882031L15.1524 0.859285C15.0833 0.704075 14.9138 0.418186 14.5588 0.251826C14.3385 0.148798 14.0842 0.114456 13.8421 0.155042L13.8144 0.159502L0.792412 4.07231C0.507861 4.15794 0.273708 4.34883 0.133217 4.61019C-0.0072746 4.87155 -0.0380488 5.17216 0.0475841 5.45671L5.18288 22.5503C5.32739 23.0311 5.77027 23.3424 6.24794 23.3424ZM0.919077 5.033C0.935134 5.00312 0.97349 4.9496 1.04931 4.92686L14.0129 1.03234C14.0539 1.02832 14.1164 1.02966 14.1815 1.05999C14.2653 1.09924 14.3113 1.16926 14.3309 1.20583L15.346 4.39031L1.87487 8.43737L0.902575 5.20026C0.879383 5.12444 0.903021 5.06289 0.919077 5.033Z" fill="black"/>
<path d="M16.1921 19.0575C16.0463 19.0094 15.8893 19.0888 15.8411 19.2342L15.8215 19.2944C15.7742 19.4402 15.854 19.5968 16.0003 19.6445C16.0289 19.6539 16.0574 19.6579 16.0859 19.6579C16.2032 19.6579 16.3121 19.5829 16.35 19.4656L16.3687 19.4086C16.4169 19.2627 16.3379 19.1057 16.1921 19.0575Z" fill="black"/>
<path d="M17.753 16.0196C17.6254 15.9344 17.4528 15.9692 17.3676 16.0967C17.3427 16.1342 17.3177 16.1717 17.2936 16.2091C17.2098 16.3376 17.2463 16.5097 17.3748 16.5936C17.4216 16.6239 17.4742 16.6386 17.526 16.6386C17.617 16.6386 17.7057 16.594 17.7592 16.5124C17.7824 16.4767 17.8061 16.4406 17.8302 16.4049C17.9153 16.2774 17.881 16.1047 17.753 16.0196Z" fill="black"/>
<path d="M16.8701 17.4859C16.7323 17.419 16.5659 17.4765 16.499 17.6144C16.4794 17.6549 16.4597 17.6955 16.441 17.7357C16.3754 17.8744 16.4348 18.0398 16.5735 18.1054C16.6118 18.1237 16.6524 18.1322 16.6921 18.1322C16.796 18.1322 16.8959 18.0733 16.9432 17.9729C16.9615 17.9346 16.9802 17.8958 16.999 17.8565C17.0659 17.7192 17.0083 17.5528 16.8701 17.4859Z" fill="black"/>
<path d="M18.8269 14.6868C18.7119 14.5851 18.5362 14.5963 18.4349 14.7109C18.4055 14.7443 18.3756 14.7782 18.3462 14.8121C18.2458 14.9281 18.2587 15.1038 18.3747 15.2042C18.4273 15.2497 18.492 15.272 18.5562 15.272C18.6343 15.272 18.7114 15.2394 18.7663 15.1761C18.7944 15.1435 18.8229 15.111 18.851 15.0793C18.9527 14.9638 18.942 14.788 18.8269 14.6868Z" fill="black"/>
<path d="M19.6797 13.4822C19.6458 13.5112 19.612 13.5406 19.5781 13.5705C19.463 13.6717 19.4518 13.8475 19.5531 13.9625C19.6079 14.025 19.6847 14.0566 19.7618 14.0566C19.8269 14.0566 19.8925 14.0339 19.9451 13.9875C19.9777 13.959 20.0098 13.9309 20.0423 13.9028C20.1588 13.8029 20.1717 13.6271 20.0713 13.5112C19.9714 13.3952 19.7962 13.3818 19.6797 13.4822Z" fill="black"/>
<path d="M21.4563 12.6812L21.4381 12.6219C21.4122 12.5385 21.3489 12.4721 21.2668 12.4426C21.1847 12.4132 21.0933 12.4239 21.0202 12.4716L20.9671 12.5068C20.8395 12.592 20.8047 12.7646 20.8899 12.8922C20.9318 12.9546 20.9943 12.9948 21.0625 13.0095C21.1013 13.0296 21.145 13.0407 21.1901 13.0407C21.2168 13.0407 21.2445 13.0367 21.2713 13.0287C21.4184 12.9836 21.5009 12.828 21.4563 12.6812Z" fill="black"/>
<path d="M21.8394 19.0016C21.6873 18.9855 21.55 19.0957 21.5335 19.2482C21.529 19.2906 21.5241 19.3329 21.5196 19.3744C21.5022 19.5269 21.6115 19.6648 21.7641 19.6822C21.7748 19.6835 21.7855 19.6839 21.7962 19.6839C21.9353 19.6839 22.0553 19.5796 22.0718 19.4377C22.0767 19.3945 22.0816 19.3512 22.0865 19.3075C22.1026 19.155 21.992 19.0181 21.8394 19.0016Z" fill="black"/>
<path d="M21.9046 17.3235C21.9041 17.3235 21.9037 17.3235 21.9033 17.3235C21.7503 17.3235 21.6263 17.447 21.6254 17.6C21.6254 17.6424 21.6249 17.6843 21.6241 17.7262C21.6218 17.8797 21.7445 18.0059 21.8979 18.0081C21.8992 18.0081 21.9006 18.0081 21.9019 18.0081C22.0536 18.0081 22.1775 17.8863 22.1798 17.7343C22.1802 17.6905 22.1807 17.6464 22.1811 17.6022C22.182 17.4493 22.058 17.3244 21.9046 17.3235Z" fill="black"/>
<path d="M21.5174 13.9924C21.3671 14.0232 21.2698 14.1699 21.3006 14.3202C21.3091 14.3617 21.3176 14.4032 21.3256 14.4451C21.3519 14.5776 21.4679 14.669 21.5976 14.669C21.6155 14.669 21.6338 14.6672 21.6516 14.6636C21.8019 14.6338 21.9 14.4879 21.8702 14.3372C21.8617 14.2943 21.8532 14.2515 21.8443 14.2087C21.8144 14.0584 21.6677 13.9621 21.5174 13.9924Z" fill="black"/>
<path d="M21.7969 15.6479C21.6443 15.6631 21.5328 15.7991 21.548 15.9517C21.552 15.994 21.556 16.036 21.5601 16.0779C21.573 16.2224 21.6943 16.3308 21.8366 16.3308C21.8451 16.3308 21.8535 16.3303 21.862 16.3294C22.015 16.3156 22.1274 16.1805 22.1135 16.0279C22.1095 15.9842 22.1055 15.9405 22.1011 15.8968C22.0854 15.7443 21.949 15.6323 21.7969 15.6479Z" fill="black"/>
<path d="M21.6042 20.665C21.4544 20.6333 21.3067 20.7292 21.2751 20.8791L21.2621 20.9397C21.2305 21.09 21.3264 21.2372 21.4767 21.2689C21.4959 21.2729 21.5155 21.2751 21.5342 21.2751C21.6627 21.2751 21.7782 21.1855 21.8058 21.0548L21.8188 20.995C21.85 20.8443 21.7541 20.6966 21.6042 20.665Z" fill="black"/>
<path d="M17.7067 18.2246C17.6259 18.1974 17.5385 18.2411 17.5113 18.3219C17.5046 18.3424 17.4979 18.362 17.4917 18.3816C17.4654 18.4628 17.51 18.5498 17.5907 18.5761C17.6063 18.581 17.6224 18.5837 17.6384 18.5837C17.7035 18.5837 17.7642 18.5422 17.7852 18.4766C17.7914 18.4579 17.7977 18.4387 17.8039 18.4195C17.8311 18.3393 17.7874 18.2518 17.7067 18.2246Z" fill="black"/>
<path d="M19.1918 15.5611C19.1629 15.5905 19.1339 15.6208 19.1049 15.6516C19.0465 15.7136 19.0496 15.8113 19.1116 15.8697C19.1414 15.8978 19.1794 15.9116 19.2173 15.9116C19.2583 15.9116 19.2993 15.8956 19.3297 15.863C19.3573 15.8336 19.385 15.8046 19.4126 15.7765C19.4724 15.7154 19.471 15.6177 19.4099 15.5584C19.3493 15.4986 19.2516 15.5 19.1918 15.5611Z" fill="black"/>
<path d="M18.4074 16.7946C18.3347 16.7504 18.2397 16.7736 18.1956 16.8463C18.1737 16.8825 18.1523 16.9181 18.1314 16.9538C18.0881 17.0274 18.1131 17.122 18.1867 17.1648C18.2112 17.1791 18.2379 17.1857 18.2643 17.1857C18.3173 17.1857 18.3691 17.1585 18.3976 17.1095C18.4177 17.0751 18.4382 17.0408 18.4592 17.0065C18.5033 16.9338 18.4801 16.8392 18.4074 16.7946Z" fill="black"/>
<path d="M20.6498 14.7077L20.6315 14.6484C20.6172 14.602 20.582 14.565 20.5361 14.5489C20.4906 14.5329 20.4397 14.5387 20.3991 14.5654L20.347 14.6002C20.276 14.6475 20.2569 14.7434 20.3046 14.8143C20.3313 14.854 20.3728 14.8776 20.417 14.8821C20.442 14.8986 20.4714 14.908 20.5022 14.908C20.5169 14.908 20.532 14.9057 20.5472 14.9013C20.6288 14.8754 20.6748 14.7893 20.6498 14.7077Z" fill="black"/>
<path d="M20.8931 17.568C20.8048 17.5644 20.7365 17.6313 20.7334 17.7165C20.7321 17.7562 20.7303 17.7955 20.7285 17.8347C20.724 17.9199 20.7896 17.9922 20.8748 17.9966C20.8775 17.9966 20.8801 17.9966 20.8828 17.9966C20.9644 17.9966 21.0327 17.9324 21.0367 17.8499C21.0385 17.8093 21.0402 17.7687 21.042 17.7277C21.0447 17.6425 20.9782 17.5711 20.8931 17.568Z" fill="black"/>
<path d="M20.657 16.1825C20.6623 16.2213 20.6672 16.2606 20.6721 16.2998C20.6815 16.3779 20.7484 16.4354 20.8251 16.4354C20.8314 16.4354 20.8376 16.435 20.8438 16.4341C20.9286 16.4238 20.9888 16.3466 20.9785 16.2623C20.9736 16.2218 20.9683 16.1812 20.9629 16.141C20.9513 16.0567 20.8737 15.9974 20.789 16.009C20.7047 16.0202 20.6454 16.0982 20.657 16.1825Z" fill="black"/>
<path d="M20.7306 19.1227C20.6472 19.1053 20.5656 19.1588 20.5482 19.2422L20.5357 19.3011C20.5179 19.3845 20.5705 19.4665 20.6539 19.4844C20.665 19.4866 20.6757 19.4879 20.6864 19.4879C20.7574 19.4879 20.8216 19.4384 20.8372 19.3662L20.8501 19.3051C20.868 19.2217 20.814 19.1401 20.7306 19.1227Z" fill="black"/>
<path d="M14.5097 25.606L14.0535 26.3722C14.9272 26.8927 15.8669 27.2843 16.8468 27.5358C17.5751 27.7231 18.3271 27.8329 19.0817 27.8619L19.1161 26.9707C18.4252 26.944 17.7366 26.8436 17.0694 26.6724C16.1711 26.4413 15.3103 26.0827 14.5097 25.606Z" fill="black"/>
</svg>
