<svg width="26" height="22" viewBox="0 0 26 22" fill="none" xmlns="http://www.w3.org/2000/svg">
<path d="M3.08325 0.583252H17.6666V19.3333H3.08325V0.583252ZM24.4374 15.6874H21.3124L20.7916 8.91658H24.9583L24.4374 15.6874Z" fill="white"/>
<path d="M3.08325 10.9999L10.3749 14.1249L17.6666 10.9999V3.70825L3.08325 10.9999ZM5.16659 19.3333V20.8958L6.20825 21.4166L7.24992 20.8958V19.3333M13.4999 19.3333V20.8958L14.5416 21.4166L15.5833 20.8958V19.3333M24.4374 15.6874H21.3124L24.9583 8.91659L24.4374 15.6874Z" fill="#D9D9D9"/>
<path d="M3.08325 0.583252H17.6666V19.3333H3.08325V0.583252Z" stroke="black" stroke-miterlimit="10" stroke-linecap="round" stroke-linejoin="round"/>
<path d="M3.08333 10.9999L10.375 14.1249L17.6667 10.9999M5.16667 17.2499H7.25M13.5 17.2499H15.5833M1 5.79159V3.70825H17.6667M24.4375 15.6874H21.3125L20.7917 8.91659H24.9583L24.4375 15.6874Z" stroke="black" stroke-miterlimit="10" stroke-linecap="round" stroke-linejoin="round"/>
<path d="M19.7499 5.79159V3.70825H3.08325M5.16659 19.3333V20.8958L6.20825 21.4166L7.24992 20.8958V19.3333M13.4999 19.3333V20.8958L14.5416 21.4166L15.5833 20.8958V19.3333M22.8749 15.6874V21.4166" stroke="black" stroke-miterlimit="10" stroke-linecap="round" stroke-linejoin="round"/>
</svg>
