<svg width="23" height="30" viewBox="0 0 23 30" fill="none" xmlns="http://www.w3.org/2000/svg">
<path d="M22.5434 2.81249H21.9073L20.6537 0.258984C20.5755 0.099609 20.4168 0 20.242 0H2.76142C2.58661 0 2.42789 0.100782 2.34969 0.258984L1.09607 2.81249H0.460046C0.205871 2.81249 0 3.02226 0 3.28124V6.09375C0 6.35273 0.205871 6.5625 0.460046 6.5625H0.964934L2.69011 23.4375H1.83904C1.07767 23.4375 0.458898 24.068 0.458898 24.8438V28.5938C0.458898 29.3695 1.07767 30 1.83904 30H2.75913C3.3595 30 3.87013 29.6086 4.05992 29.0625H18.9401C19.1299 29.6086 19.6416 30 20.2409 30H21.161C21.9223 30 22.5411 29.3695 22.5411 28.5938V24.8438C22.5411 24.068 21.9223 23.4375 21.161 23.4375H20.3099L22.0351 6.5625H22.54C22.7941 6.5625 23 6.35273 23 6.09375V3.28124C23 3.02226 22.7941 2.81249 22.54 2.81249H22.5434ZM3.04537 0.937494H19.9589L20.879 2.81249H2.12528L3.04537 0.937494ZM0.921122 3.74999H22.0832V5.625H0.921122V3.74999ZM2.76131 29.0625H1.84121C1.58819 29.0625 1.38117 28.8516 1.38117 28.5938V24.8438C1.38117 24.5859 1.58819 24.375 1.84121 24.375H2.76131C2.77051 24.375 2.77856 24.375 2.78661 24.3738L3.21907 28.6101C3.20987 28.8609 3.00745 29.0625 2.75902 29.0625L2.76131 29.0625ZM20.2431 24.375H21.1631C21.4162 24.375 21.6232 24.5859 21.6232 24.8438V28.5938C21.6232 28.8516 21.4162 29.0625 21.1631 29.0625H20.2431C19.9946 29.0625 19.7922 28.8609 19.783 28.6102L20.2155 24.3739C20.2247 24.3739 20.2327 24.375 20.2408 24.375L20.2431 24.375ZM18.9089 28.125H4.0956L1.89197 6.5625H21.1126L18.9089 28.125Z" fill="black"/>
<path d="M11.177 13.4566C11.2667 13.548 11.384 13.5937 11.5025 13.5937C11.6198 13.5937 11.7371 13.548 11.828 13.4566C12.0074 13.2738 12.0074 12.9761 11.828 12.7933L11.6992 12.6621C13.6383 12.7664 15.184 14.4058 15.184 16.4073C15.184 16.6663 15.3899 16.876 15.6441 16.876C15.8983 16.876 16.1041 16.6663 16.1041 16.4073C16.1041 13.8854 14.1397 11.8254 11.6901 11.7246L11.8304 11.5816C12.0098 11.3988 12.0098 11.1011 11.8304 10.9184C11.6509 10.7356 11.3588 10.7355 11.1794 10.9184L10.2593 11.8559C10.0799 12.0387 10.0799 12.3363 10.2593 12.5191L11.1794 13.4566L11.177 13.4566Z" fill="black"/>
<path d="M15.4288 17.2507L14.1718 17.594C13.9268 17.6608 13.7807 17.9175 13.8463 18.1683C13.9118 18.419 14.1637 18.5667 14.4099 18.4999L14.587 18.4507C13.9176 19.496 12.7629 20.1558 11.5013 20.1558C10.855 20.1558 10.2201 19.9823 9.66116 19.653C9.44034 19.5241 9.15972 19.5991 9.03321 19.8241C8.90669 20.048 8.9803 20.3351 9.20112 20.464C9.89809 20.8753 10.694 21.0921 11.5014 21.0921C13.0977 21.0921 14.5584 20.246 15.3887 18.9113L15.4393 19.1034C15.4945 19.312 15.6808 19.4503 15.8832 19.4503C15.9224 19.4503 15.9626 19.4456 16.0029 19.4339C16.2478 19.3671 16.3939 19.1105 16.3284 18.8597L15.9914 17.5788C15.9258 17.3292 15.674 17.1804 15.4278 17.2472L15.4288 17.2507Z" fill="black"/>
<path d="M7.00063 19.4372L8.25769 19.7806C8.2968 19.7923 8.3382 19.797 8.3773 19.797C8.57972 19.797 8.76604 19.6587 8.82125 19.4501L8.8247 19.4384C8.8569 19.3763 8.8753 19.3072 8.8776 19.2392L9.15823 18.1704C9.22379 17.9208 9.07772 17.6642 8.83274 17.5962C8.58776 17.5294 8.33589 17.6782 8.26917 17.9279L8.22201 18.1072C7.96209 17.5845 7.82177 17.0056 7.82177 16.4079C7.82177 15.0743 8.52793 13.8298 9.66195 13.1607C9.88162 13.0318 9.95638 12.7435 9.82987 12.5209C9.70335 12.2971 9.42043 12.2209 9.20191 12.3498C7.78267 13.1865 6.90168 14.7416 6.90168 16.4091C6.90168 17.1755 7.0857 17.9208 7.42959 18.5864L7.23867 18.5349C6.9937 18.4681 6.74182 18.6169 6.6751 18.8665C6.60954 19.1161 6.75561 19.3728 7.00059 19.4407L7.00063 19.4372Z" fill="black"/>
</svg>
