<svg width="25" height="22" viewBox="0 0 25 22" fill="none" xmlns="http://www.w3.org/2000/svg">
<path d="M0.312682 16.9587H24.6861C24.8595 16.9587 24.9986 16.836 24.9986 16.6856C24.9986 16.5351 24.8595 16.4124 24.6861 16.4124H19.3187V12.3207C19.3187 12.1703 19.1795 12.0476 19.0062 12.0476H18.6083V9.19018H19.8754V10.1793C19.8754 10.3297 20.0145 10.4524 20.1878 10.4524H21.4134C21.5868 10.4524 21.7259 10.3297 21.7259 10.1793C21.7259 10.0288 21.5868 9.90613 21.4134 9.90613H20.5003V8.91704C20.5003 8.7666 20.3612 8.6439 20.1878 8.6439H18.6083V4.77944H19.9168C20.0218 4.77944 20.1195 4.73356 20.1781 4.65674C20.2367 4.57992 20.2464 4.48389 20.2049 4.3996L18.1847 0.240424C18.1359 0.139062 18.0236 0.0739746 17.8978 0.0739746H7.55735C7.43162 0.0739746 7.31809 0.139059 7.26926 0.240424L5.25026 4.3996C5.20875 4.48389 5.21974 4.58098 5.27711 4.65674C5.3357 4.73356 5.43336 4.77944 5.53834 4.77944H6.84692V12.0476H6.44898C6.27564 12.0476 6.13649 12.1703 6.13649 12.3207V16.4124H0.312496C0.139158 16.4124 0 16.5351 0 16.6856C0 16.836 0.140565 16.9587 0.312682 16.9587ZM7.76509 0.620267H17.6906L19.4447 4.23315H12.7286H12.7273H12.7261H6.0112L7.76509 0.620267ZM14.1713 8.38359L13.8685 10.3746H11.5883L11.2855 8.38359H14.1713ZM13.6622 7.8373H11.7946V7.72206C11.7946 7.27927 12.2133 6.91864 12.7284 6.91864C13.2435 6.91864 13.6622 7.27927 13.6622 7.72206V7.8373ZM7.472 4.77944H12.4144V6.40017C11.704 6.52608 11.1681 7.07129 11.1681 7.72214V7.83738H10.9264C10.8361 7.83738 10.7506 7.87152 10.692 7.9302C10.6322 7.98995 10.6054 8.06784 10.6176 8.14573L11.0033 10.683C11.0241 10.8185 11.1571 10.9199 11.3134 10.9199L14.1417 10.9209C14.298 10.9209 14.431 10.8196 14.4518 10.6841L14.8375 8.1468C14.8497 8.06891 14.8229 7.98995 14.7631 7.93127C14.7045 7.87152 14.6178 7.83844 14.5287 7.83844H14.2882V7.72321C14.2882 7.07129 13.7523 6.52607 13.0419 6.40124V4.78051H17.9856V12.0486L7.47164 12.0476L7.472 4.77944ZM6.76157 12.5938H18.6927L18.6939 16.4124H6.76154L6.76157 12.5938Z" fill="black"/>
<path d="M0.31274 19.442H24.6874C24.8608 19.442 24.9999 19.3193 24.9999 19.1689C24.9999 19.0185 24.8608 18.8958 24.6874 18.8958H0.31274C0.139402 18.8958 0.000244141 19.0185 0.000244141 19.1689C0.000244141 19.3204 0.140624 19.442 0.31274 19.442Z" fill="black"/>
<path d="M0.31274 21.9262H24.6874C24.8608 21.9262 24.9999 21.8035 24.9999 21.653C24.9999 21.5026 24.8608 21.3799 24.6874 21.3799H0.31274C0.139402 21.3799 0.000244141 21.5026 0.000244141 21.653C0.000244141 21.8035 0.140624 21.9262 0.31274 21.9262Z" fill="black"/>
</svg>
