<svg width="26" height="25" viewBox="0 0 26 25" fill="none" xmlns="http://www.w3.org/2000/svg">
<path d="M23.8678 18.7927C23.8728 18.785 23.8708 18.7753 23.8758 18.7656C24.9085 17.0004 25.5 14.9654 25.5 12.7972C25.5 9.11155 23.8117 5.69089 20.8654 3.37731C20.9705 3.11903 21.0265 2.94524 21.0315 2.92001C21.0576 2.8404 21.0415 2.75301 20.9905 2.68602C20.9395 2.61902 20.8594 2.5763 20.7753 2.57436C16.325 2.45008 13.2967 0.220812 13.1686 0.125664C13.0715 0.0538153 12.9254 0.0538153 12.8304 0.125664C12.7993 0.147995 9.70195 2.45008 5.22364 2.5763C5.13657 2.57921 5.05751 2.61902 5.00847 2.68796C4.95743 2.75495 4.94142 2.84233 4.96744 2.92195C4.97545 2.9472 5.02849 3.12099 5.13357 3.37634C2.18833 5.69395 0.5 9.11357 0.5 12.7972C0.5 14.9672 1.09145 17.0033 2.12423 18.7676C2.12724 18.7753 2.12724 18.785 2.13224 18.7928C2.14025 18.8103 2.15526 18.8229 2.16827 18.8375C4.10775 22.1008 7.56632 24.4107 11.6014 24.8476C11.6044 24.8476 11.6064 24.8505 11.6094 24.8505C11.6194 24.8534 11.6294 24.8534 11.6374 24.8534C12.0858 24.901 12.5421 24.9282 13.0025 24.9282C13.4638 24.9282 13.9192 24.901 14.3675 24.8534C14.3775 24.8534 14.3855 24.8534 14.3955 24.8505C14.3985 24.8505 14.4005 24.8476 14.4036 24.8476C18.4356 24.4097 21.8942 22.1008 23.8339 18.8395C23.8439 18.8249 23.8598 18.8122 23.8678 18.7927ZM24.9486 12.7973C24.9486 14.7955 24.4232 16.68 23.5015 18.3227L22.894 18.0392C22.879 17.9499 22.84 17.8431 22.7659 17.7363C22.6739 17.6071 22.5227 17.4731 22.2716 17.3683C21.7642 17.1547 18.4086 15.9536 17.6862 15.6954C17.461 15.0167 16.9616 14.6089 16.7154 14.4428V13.4059C17.0487 12.9408 17.3199 12.4214 17.51 11.8602C17.5941 11.8776 17.6791 11.8873 17.7662 11.8873C18.6499 11.8873 19.3704 10.9951 19.3704 9.89887C19.3704 8.96193 18.863 8.18422 18.1535 7.97254C18.1565 7.90555 18.1585 7.8405 18.1615 7.7735C18.6019 7.2395 18.802 6.81616 18.807 6.80646C18.822 6.77151 18.83 6.73656 18.83 6.69966V6.23264C19.7087 5.56367 20.2952 4.60729 20.6414 3.89366C23.3786 6.10155 24.9486 9.32516 24.9486 12.797L24.9486 12.7973ZM19.4324 16.8965C20.5543 17.3014 21.7692 17.7441 22.0485 17.8606C22.1155 17.8878 22.1635 17.9179 22.2046 17.9451L21.7232 18.7782L18.9922 17.7441L19.4324 16.8965ZM13.438 19.4218H12.5643L11.9698 18.4276L12.6103 17.7518C12.6433 17.7169 12.6614 17.6722 12.6714 17.6246H13.3319C13.3419 17.6722 13.3599 17.714 13.3929 17.7518L14.0334 18.4276L13.438 19.4218ZM17.7031 11.1623L17.7291 11.0428C17.8422 10.4981 18.0344 9.58352 18.1184 8.53786C18.5227 8.74175 18.815 9.27577 18.815 9.90008C18.815 10.7001 18.3436 11.3545 17.7642 11.3545C17.7281 11.3545 17.6951 11.3468 17.6591 11.3419C17.6721 11.2788 17.6901 11.2215 17.7031 11.1623ZM17.7031 7.48533C17.6881 7.49795 17.6751 7.51543 17.6651 7.52999C16.9295 8.3951 15.4904 9.54078 13.0026 9.54078C10.5147 9.54078 9.07559 8.39701 8.34005 7.5329C8.32704 7.51542 8.31403 7.50086 8.29902 7.48532C8.02481 7.15521 7.85567 6.87168 7.77361 6.71439H18.2336C18.1465 6.87168 17.9773 7.15519 17.7031 7.48533ZM8.27278 11.038L8.2988 11.1623C8.31181 11.2215 8.32983 11.2788 8.34284 11.339C8.30681 11.3438 8.27379 11.3516 8.23776 11.3516C7.65832 11.3516 7.18694 10.7001 7.18694 9.89712C7.18694 9.27281 7.47916 8.73879 7.88349 8.53489C7.96755 9.57864 8.1577 10.4934 8.27278 11.038ZM8.83921 11.0554L8.81319 10.9283C8.6981 10.3787 8.50296 9.43981 8.4259 8.38352C9.3326 9.22143 10.7957 10.0758 12.9995 10.0758C15.2033 10.0758 16.6634 9.22046 17.5731 8.38352C17.4961 9.4428 17.3019 10.3817 17.1858 10.9342L17.1598 11.0556C16.6995 13.2703 14.8721 15.0024 12.9997 15.0024C11.1293 15.0024 9.29997 13.2703 8.83959 11.0556L8.83921 11.0554ZM12.9993 15.5392C14.1492 15.5392 15.2791 14.9722 16.1577 14.0673V14.5517C16.1017 14.7236 15.6864 15.7848 13.8239 17.0918H12.1767C10.3062 15.782 9.89389 14.7159 9.83986 14.5517V14.0692C10.7195 14.9722 11.8495 15.5392 12.9993 15.5392ZM9.43871 15.01C9.6899 15.5169 10.3434 16.4985 11.9857 17.6169L10.7787 18.8917L8.84425 15.8596C8.97736 15.4625 9.23857 15.179 9.43871 15.01ZM14.0141 17.6169C15.6534 16.4984 16.3099 15.5168 16.5611 15.01C16.7612 15.179 17.0224 15.4625 17.1555 15.8606L15.221 18.8927L14.0141 17.6169ZM12.9993 0.670208C13.6989 1.15276 16.4659 2.88491 20.3829 3.09656C20.1347 3.7228 19.4942 5.08987 18.3844 5.87818C18.3123 5.92769 18.2713 6.01022 18.2713 6.09469V6.17916L7.72729 6.17819V6.09372C7.72729 6.00925 7.68626 5.92672 7.6142 5.87721C6.50536 5.0888 5.86487 3.72173 5.61566 3.09559C9.50754 2.8849 12.2948 1.14985 12.9993 0.670208ZM5.36239 3.88879C5.70867 4.60243 6.2951 5.5588 7.17378 6.22777V6.69479C7.17378 6.73169 7.18178 6.76664 7.1968 6.80159C7.2018 6.81422 7.40195 7.23366 7.84228 7.77057C7.84528 7.83757 7.84729 7.90262 7.85029 7.96961C7.14275 8.18322 6.63336 8.959 6.63336 9.89594C6.63336 10.9921 7.35291 11.8844 8.23758 11.8844C8.32465 11.8844 8.40971 11.8747 8.49378 11.8572C8.68592 12.4165 8.95713 12.9388 9.28839 13.403V14.4399C9.0422 14.6089 8.54281 15.0166 8.31764 15.6924C7.59509 15.9507 4.23643 17.1517 3.73224 17.3653C3.27388 17.5595 3.14079 17.8401 3.10676 18.0363L2.4993 18.3198C1.57658 16.6769 1.0522 14.7925 1.0522 12.7943C1.05019 9.32717 2.62035 6.10146 5.36239 3.88879ZM7.00666 17.7409L4.27561 18.775L3.79424 17.9419C3.83527 17.9147 3.88431 17.8846 3.95036 17.8575C4.22657 17.7409 5.4415 17.2982 6.56638 16.8933L7.00666 17.7409ZM2.7743 18.7896L3.46382 18.4662L3.91217 19.242C3.96321 19.3294 4.05528 19.3789 4.15335 19.3789C4.18638 19.3789 4.22041 19.3741 4.25343 19.3614L7.49201 18.1332C7.56406 18.106 7.62311 18.0487 7.64813 17.9788C7.67615 17.9089 7.67115 17.8293 7.63812 17.7623L7.08771 16.7059C7.65915 16.5001 8.15853 16.3234 8.42774 16.2263L10.4973 19.4722C10.5434 19.5441 10.6204 19.5887 10.7075 19.5994C10.7155 19.5994 10.7255 19.6023 10.7335 19.6023C10.8106 19.6023 10.8846 19.5703 10.9357 19.5149L11.5732 18.8411L12.1136 19.7431L11.412 24.287C7.75226 23.8113 4.61174 21.7275 2.7743 18.7896ZM11.9643 24.3453L12.6408 19.9588H13.3584L14.0349 24.3453C13.6946 24.3754 13.3484 24.3929 13.0001 24.3929C12.6508 24.39 12.3046 24.3725 11.9643 24.3453ZM14.5852 24.2861L13.8837 19.745L14.4241 18.843L15.0616 19.5168C15.1156 19.5711 15.1867 19.6042 15.2637 19.6042C15.2717 19.6042 15.2817 19.6042 15.2897 19.6012C15.3768 19.5935 15.4539 19.5469 15.4999 19.4741L17.5695 16.2274C17.8387 16.3245 18.3381 16.5012 18.9095 16.707L18.3591 17.7634C18.3231 17.8304 18.3211 17.91 18.3491 17.9799C18.3771 18.0498 18.4332 18.1071 18.5052 18.1343L21.7438 19.3625C21.7768 19.3751 21.8109 19.38 21.8439 19.38C21.941 19.38 22.036 19.3305 22.0851 19.2431L22.5334 18.4673L23.2229 18.7906C21.3895 21.7276 18.246 23.8114 14.5852 24.2861Z" fill="black"/>
<path d="M12.4261 11.9676H13.576C13.7301 11.9676 13.8522 11.8482 13.8522 11.6996C13.8522 11.5501 13.7291 11.4316 13.576 11.4316H12.4261C12.272 11.4316 12.1499 11.5511 12.1499 11.6996C12.1489 11.8482 12.272 11.9676 12.4261 11.9676Z" fill="black"/>
<path d="M12.8585 5.77609C12.9025 5.80133 12.9505 5.81299 13.0016 5.81299C13.0506 5.81299 13.0986 5.80036 13.1447 5.77609C13.1857 5.75085 14.1544 5.17995 14.4407 4.33716C14.7099 3.5371 14.6328 2.62444 14.6278 2.58463C14.6198 2.51278 14.5838 2.44578 14.5277 2.40112C14.4717 2.35646 14.3966 2.33413 14.3226 2.34189C13.618 2.41665 13.2187 2.0341 13.2027 2.01857C13.1517 1.96614 13.0796 1.93701 13.0056 1.93701H13.0026C12.9285 1.93701 12.8565 1.96711 12.8054 2.01663C12.7904 2.0341 12.3901 2.41472 11.6836 2.34189C11.6095 2.33412 11.5354 2.35451 11.4784 2.40112C11.4224 2.44578 11.3833 2.51277 11.3783 2.58462C11.3753 2.62152 11.2963 3.53613 11.5655 4.33716C11.8467 5.17992 12.8174 5.75374 12.8585 5.77609ZM12.9996 2.5498C13.2097 2.69156 13.579 2.87507 14.0834 2.88769C14.0864 3.19064 14.0654 3.71007 13.9113 4.1703C13.7471 4.65479 13.2478 5.04998 12.9996 5.22377C12.7514 5.05191 12.251 4.65479 12.0879 4.1703C11.9337 3.71007 11.9107 3.19064 11.9157 2.88769C12.4201 2.87604 12.7894 2.69157 12.9996 2.5498Z" fill="black"/>
</svg>
