<svg width="26" height="25" viewBox="0 0 26 25" fill="none" xmlns="http://www.w3.org/2000/svg">
<path d="M12.8695 16.3594C12.8695 16.5828 12.7108 16.7641 12.5152 16.7641H10.8089C10.6133 16.7641 10.4546 16.5828 10.4546 16.3594C10.4546 16.136 10.6133 15.9547 10.8089 15.9547H12.5152C12.7108 15.9547 12.8695 16.1356 12.8695 16.3594ZM11.2264 10.8667L11.2938 7.4754C11.298 7.25904 11.4505 7.08486 11.6399 7.08003L14.609 7.00308C14.7561 6.99857 14.8858 7.09645 14.9427 7.24842C14.9997 7.40038 14.9698 7.57682 14.8675 7.6937L14.3403 8.29577L15.7187 9.87018C15.7853 9.94617 15.8225 10.0489 15.8225 10.1564C15.8225 10.2639 15.7853 10.3667 15.7187 10.4426L14.2377 12.1342C14.1687 12.2131 14.0779 12.2527 13.9871 12.2527C13.8964 12.2527 13.8059 12.2131 13.7366 12.1342L12.3582 10.5598L11.831 11.1619C11.7287 11.2788 11.5745 11.3129 11.4412 11.2479C11.3082 11.1828 11.223 11.0318 11.2264 10.8667ZM11.9548 9.8763L12.1078 9.70147C12.1769 9.62259 12.2677 9.58299 12.3584 9.58299C12.4492 9.58299 12.5397 9.62259 12.609 9.70147L13.9874 11.2759L14.9675 10.1564L13.5891 8.582C13.4507 8.42391 13.4507 8.16795 13.5891 8.00987L13.7422 7.83504L11.9948 7.88044L11.9548 9.8763ZM7.85596 7.88913H9.52808C9.7237 7.88913 9.8824 7.70786 9.8824 7.48442C9.8824 7.26097 9.7237 7.07971 9.52808 7.07971H7.85596C7.66033 7.07971 7.50163 7.26097 7.50163 7.48442C7.50163 7.70818 7.66033 7.88913 7.85596 7.88913ZM9.89847 8.91073L8.71598 10.2614C8.57757 10.4195 8.57757 10.6757 8.71598 10.8335C8.78504 10.9124 8.8758 10.952 8.96657 10.952C9.05733 10.952 9.14782 10.9124 9.21716 10.8335L10.3997 9.48286C10.5381 9.32477 10.5381 9.06849 10.3997 8.91073C10.2612 8.75264 10.0369 8.75264 9.89847 8.91073ZM11.6478 5.46795C11.8434 5.46795 12.0021 5.28668 12.0021 5.06323V3.15333C12.0021 2.92989 11.8434 2.74862 11.6478 2.74862C11.4522 2.74862 11.2935 2.92989 11.2935 3.15333V5.06323C11.2938 5.28668 11.4522 5.46795 11.6478 5.46795ZM9.89847 6.05843C9.96753 6.13731 10.0583 6.17691 10.1491 6.17691C10.2398 6.17691 10.3303 6.13731 10.3997 6.05843C10.5381 5.90035 10.5381 5.64438 10.3997 5.4863L9.21716 4.13565C9.07876 3.97757 8.85438 3.97757 8.71626 4.13565C8.57786 4.29374 8.57786 4.5497 8.71626 4.70778L9.89847 6.05843ZM13.1469 6.17724C13.2376 6.17724 13.3281 6.13763 13.3975 6.05875L14.5799 4.70811C14.7183 4.55002 14.7183 4.29406 14.5799 4.13597C14.4415 3.97789 14.2172 3.97789 14.079 4.13597L12.8966 5.48662C12.7581 5.6447 12.7581 5.90067 12.8966 6.05875C12.9656 6.13763 13.0564 6.17724 13.1469 6.17724ZM25.5 17.3495C25.5 20.4033 23.3247 22.8879 20.6511 22.8879C18.3312 22.8879 16.3868 21.017 15.913 18.5269H14.7699C14.7987 19.8514 15.0994 21.2076 15.4318 22.0328H16.7143C17.4306 22.0328 18.0133 22.6983 18.0133 23.5164C18.0133 24.3345 17.4306 25 16.7143 25H6.60976C5.89351 25 5.31086 24.3345 5.31086 23.5164C5.31086 22.6983 5.89351 22.0328 6.60976 22.0328H7.88866C8.20605 21.2214 8.4885 19.8698 8.50654 18.5269H2.40608C1.35523 18.5269 0.5 17.5504 0.5 16.3497V2.17713C0.5 0.976844 1.35494 0 2.40608 0H21.3299C22.1538 0 22.8241 0.765635 22.8241 1.70674V12.3989C24.4094 13.311 25.5 15.1874 25.5 17.3495ZM1.20865 2.17713V14.1916H16.6698C17.5465 12.7537 19.0041 11.8107 20.6511 11.8107C21.1613 11.8107 21.6532 11.9015 22.1155 12.0689V1.70706C22.1155 1.2122 21.7631 0.809422 21.3299 0.809422H2.40608C1.74591 0.809422 1.20865 1.42309 1.20865 2.17713ZM16.7143 22.8419H6.60976C6.28419 22.8419 6.01951 23.1442 6.01951 23.5161C6.01951 23.8879 6.28419 24.1903 6.60976 24.1903H16.7146C17.0402 24.1903 17.3049 23.8879 17.3049 23.5161C17.3049 23.1445 17.0399 22.8419 16.7143 22.8419ZM14.0613 18.5266H9.2149C9.19912 19.7256 8.98686 21.0424 8.65565 22.0324H14.6608C14.3136 21.0292 14.0861 19.7117 14.0613 18.5266ZM15.8132 17.7175C15.8061 17.5958 15.8022 17.4731 15.8022 17.3495C15.8022 16.5104 15.9668 15.7145 16.2602 15.001H1.20865V16.3494C1.20865 17.1038 1.74591 17.7171 2.40608 17.7171L15.8132 17.7175ZM16.5108 17.3495C16.5108 18.4168 16.8223 19.4023 17.3466 20.1947C17.9481 18.7671 19.2307 17.8186 20.6514 17.8186C22.0718 17.8186 23.3543 18.7671 23.9559 20.1947C24.4802 19.4023 24.7916 18.4168 24.7916 17.3495C24.7916 14.7418 22.9343 12.6204 20.6514 12.6204C18.3681 12.6204 16.5108 14.7418 16.5108 17.3495ZM20.6511 22.0785C21.7197 22.0785 22.695 21.6136 23.4301 20.8518C23.0099 19.5311 21.8964 18.628 20.6514 18.628C19.406 18.628 18.2923 19.5314 17.8723 20.8518C18.6075 21.6136 19.5825 22.0785 20.6511 22.0785ZM18.767 15.4685C18.767 14.2818 19.6124 13.3165 20.6514 13.3165C21.6904 13.3165 22.5357 14.2818 22.5357 15.4685C22.5357 16.6553 21.6904 17.6209 20.6514 17.6209C19.6121 17.6209 18.767 16.6553 18.767 15.4685ZM19.4754 15.4685C19.4754 16.209 20.0028 16.8114 20.6511 16.8114C21.2994 16.8114 21.8268 16.209 21.8268 15.4685C21.8268 14.728 21.2994 14.1259 20.6511 14.1259C20.0028 14.1256 19.4754 14.728 19.4754 15.4685Z" fill="black"/>
</svg>
