<svg width="26" height="25" viewBox="0 0 26 25" fill="none" xmlns="http://www.w3.org/2000/svg">
<path fill-rule="evenodd" clip-rule="evenodd" d="M13.0001 1.07088e-05C15.892 3.57525e-05 18.6945 1.0028 20.93 2.83744C23.1655 4.67209 24.6957 7.2251 25.2598 10.0615C25.824 12.8978 25.3872 15.8421 24.024 18.3925C22.6607 20.943 20.4553 22.9418 17.7834 24.0485C15.1116 25.1552 12.1388 25.3012 9.37136 24.4617C6.60396 23.6222 4.21326 21.8491 2.6066 19.4446C0.999942 17.04 0.276741 14.1527 0.560218 11.2747C0.843696 8.3967 2.11631 5.70602 4.16123 3.66112C5.32069 2.49866 6.69844 1.57678 8.21531 0.948489C9.73218 0.320192 11.3583 -0.00214169 13.0001 1.07088e-05ZM19.0432 20.1839C19.054 20.175 19.0648 20.1656 19.0748 20.1561C19.1089 20.1221 19.1359 20.0816 19.1543 20.0371C19.1728 19.9927 19.1822 19.945 19.1822 19.8968C19.1822 19.8486 19.1728 19.801 19.1543 19.7565C19.1359 19.712 19.1089 19.6715 19.0748 19.6375L5.87817 6.43334C5.86349 6.41734 5.84761 6.40248 5.83068 6.3889C5.75409 6.32876 5.65675 6.3015 5.56007 6.31311C5.46339 6.32473 5.37528 6.37427 5.31512 6.45084C3.83489 8.3309 3.09545 10.6885 3.23683 13.0772C3.37821 15.4658 4.39059 17.7197 6.08226 19.412C7.77393 21.1044 10.0274 22.1176 12.416 22.2599C14.8047 22.4022 17.1625 21.6634 19.0432 20.1839ZM13.7996 17.855C13.7833 17.8597 13.7665 17.8621 13.7496 17.8619H13.3551C13.3066 17.8619 13.26 17.8427 13.2257 17.8083C13.1913 17.774 13.1721 17.7274 13.1721 17.6789C13.1725 17.2743 13.0901 16.874 12.9299 16.5024C12.7698 16.1309 12.5353 15.7961 12.2409 15.5186C11.9668 15.263 11.6382 15.073 11.2798 14.9631C10.874 14.8409 10.4491 14.7945 10.0265 14.8261C9.97785 14.829 9.93004 14.8125 9.89358 14.7801C9.85712 14.7478 9.83499 14.7023 9.83206 14.6536V14.0731L9.83372 12.3122C9.83423 12.174 9.78379 12.0404 9.69206 11.9369C9.65293 11.8924 9.6048 11.8566 9.55085 11.8319C9.49689 11.8072 9.43832 11.7943 9.379 11.7939C9.24075 11.7907 9.10588 11.8368 8.99845 11.9239C8.95612 11.9596 8.92215 12.0041 8.89896 12.0544C8.87578 12.1046 8.86394 12.1594 8.86428 12.2147L8.86595 15.7811C8.89976 16.8345 9.34173 17.8335 10.0985 18.5671C10.8553 19.3006 11.8676 19.7112 12.9215 19.7122H12.9265C13.601 19.7326 14.2701 19.5855 14.874 19.2842C15.4778 18.9829 15.9977 18.5367 16.387 17.9856L10.7046 12.2989V13.9828C11.6209 14.0677 12.4713 14.4954 13.0858 15.1804C13.7004 15.8654 14.0336 16.7571 14.019 17.6772C14.0182 17.7258 13.9981 17.7721 13.9632 17.8059C13.9283 17.8397 13.8815 17.8582 13.8329 17.8575C13.8217 17.8574 13.8105 17.8562 13.7996 17.8539V17.855ZM16.6501 18.2469C16.2238 18.8329 15.6609 19.3058 15.0103 19.6247C14.3597 19.9436 13.641 20.0987 12.9168 20.0767C11.7685 20.0746 10.666 19.6265 9.84199 18.8269C9.01793 18.0273 8.53679 16.9388 8.50012 15.7911V12.2131C8.49931 12.1051 8.5222 11.9983 8.56717 11.9001C8.61215 11.802 8.6781 11.7149 8.76039 11.645C8.9344 11.5 9.15444 11.4218 9.38095 11.4244C9.4913 11.4247 9.60034 11.4484 9.70088 11.4939C9.80143 11.5394 9.8912 11.6057 9.96428 11.6883C10.1169 11.8596 10.201 12.0811 10.2007 12.3106L10.1993 14.0714V14.4503C10.6023 14.4389 11.0045 14.4931 11.3901 14.6108C11.8012 14.7374 12.178 14.9559 12.4921 15.2497C13.1154 15.836 13.4883 16.6402 13.5332 17.4947H13.6507C13.6195 16.6727 13.2812 15.8923 12.7027 15.3076C12.1241 14.7229 11.3473 14.3765 10.5257 14.3367H10.5204C10.4716 14.3366 10.4249 14.3172 10.3904 14.2827C10.356 14.2483 10.3366 14.2015 10.3365 14.1528V11.9306L5.64206 7.23612C4.39341 8.97783 3.80391 11.1064 3.97867 13.2423C4.15344 15.3783 5.0811 17.3827 6.59628 18.8983C8.11145 20.4138 10.1156 21.342 12.2515 21.5174C14.3874 21.6927 16.5161 21.1038 18.2582 19.8556L16.6501 18.2469ZM17.1334 14.365V12.4325L17.1351 8.34612C17.1205 8.2596 17.0832 8.17851 17.0269 8.11118C16.9707 8.04385 16.8975 7.99269 16.815 7.96295C16.7324 7.93321 16.6434 7.92596 16.5572 7.94194C16.4709 7.95792 16.3904 7.99656 16.324 8.05389L16.3151 8.06139C16.2323 8.13581 16.1773 8.23625 16.1593 8.34612V12.4231C16.1624 12.4986 16.1452 12.5735 16.1093 12.64C16.0731 12.7068 16.0197 12.7627 15.9545 12.8018C15.8894 12.8409 15.815 12.8617 15.739 12.8622C15.6947 12.8622 15.6508 12.8551 15.6087 12.8414L17.1332 14.3658L17.1334 14.365ZM15.3387 12.5703C15.3234 12.5228 15.3166 12.4729 15.3187 12.4231L15.3157 6.38251C15.3021 6.26346 15.2457 6.1534 15.157 6.07278C15.067 5.99143 14.9499 5.94639 14.8286 5.94639C14.7072 5.94639 14.5902 5.99143 14.5001 6.07278C14.4129 6.15153 14.3568 6.25897 14.3421 6.37556V11.5728L15.3387 12.5697V12.5703ZM13.9743 11.2058V6.37251V6.35445C13.9949 6.14261 14.0936 5.94604 14.2512 5.80301C14.4089 5.65999 14.6141 5.58076 14.8269 5.58076C15.0397 5.58076 15.245 5.65999 15.4026 5.80301C15.5602 5.94604 15.6589 6.14261 15.6795 6.35445V6.37251L15.6826 12.4389C15.6824 12.4471 15.684 12.4553 15.6873 12.4628L15.6895 12.4669C15.6967 12.4796 15.7086 12.489 15.7227 12.493C15.7367 12.497 15.7517 12.4953 15.7645 12.4883C15.773 12.4831 15.7799 12.4757 15.7845 12.4669C15.7893 12.4585 15.7916 12.4489 15.7915 12.4392V8.34278C15.7905 8.32915 15.7911 8.31546 15.7932 8.30195C15.8225 8.10286 15.9208 7.92038 16.0709 7.78639L16.0826 7.77556C16.1994 7.6742 16.3414 7.60617 16.4936 7.57863C16.6458 7.55109 16.8026 7.56505 16.9476 7.61905C17.0925 7.67304 17.2202 7.76508 17.3173 7.88549C17.4144 8.00591 17.4772 8.15024 17.4993 8.30334V8.33112L17.5001 12.4325V14.7325L20.4273 17.6586C21.6362 15.9165 22.1948 13.8051 22.0055 11.6931C21.8163 9.58113 20.8912 7.60272 19.3918 6.10332C17.8924 4.60393 15.914 3.67883 13.802 3.48956C11.69 3.3003 9.5786 3.85888 7.8365 5.06779L10.3365 7.56778V6.37056V6.35695C10.3534 6.14212 10.4507 5.94155 10.6089 5.79527C10.7672 5.64899 10.9748 5.56774 11.1903 5.56774C11.4058 5.56774 11.6133 5.64899 11.7716 5.79527C11.9298 5.94155 12.0271 6.14212 12.044 6.35695V9.27612L12.1568 9.38889V5.73834C12.1562 5.72909 12.1562 5.71981 12.1568 5.71056C12.1733 5.49669 12.2696 5.29682 12.4265 5.15056C12.5834 5.00429 12.7896 4.92229 13.0041 4.92078C13.2186 4.91928 13.4258 4.99839 13.5848 5.14245C13.7437 5.2865 13.8428 5.48499 13.8623 5.69862C13.8637 5.70707 13.8643 5.71562 13.8643 5.72417V11.095L13.9754 11.2061L13.9743 11.2058ZM13.4959 10.7272V5.72945C13.4827 5.60911 13.4252 5.49796 13.3347 5.41757C13.2442 5.33718 13.127 5.29327 13.0059 5.29434C12.8849 5.29541 12.7685 5.3414 12.6794 5.42338C12.5903 5.50536 12.5348 5.6175 12.5237 5.73806V9.755L13.4959 10.7272ZM11.6784 8.91001V6.38417C11.6686 6.26235 11.6135 6.14861 11.524 6.06537C11.4345 5.98212 11.3171 5.93539 11.1949 5.93438C11.0727 5.93337 10.9545 5.97815 10.8637 6.05991C10.7728 6.14166 10.7158 6.25447 10.704 6.37612V7.93584L11.6779 8.91001H11.6784ZM22.7565 11.8544C22.6394 10.0886 22.0455 8.38762 21.038 6.93268C20.0305 5.47775 18.6472 4.32337 17.0354 3.59255C15.4236 2.86173 13.6438 2.58183 11.8855 2.78267C10.1272 2.98352 8.45638 3.65759 7.05095 4.73306C6.97362 4.79209 6.92289 4.87941 6.90992 4.97583C6.89695 5.07224 6.9228 5.16987 6.98178 5.24723C6.99179 5.26017 7.00255 5.27251 7.01401 5.28417L20.2104 18.4817C20.249 18.5203 20.2958 18.5498 20.3473 18.5681C20.3988 18.5864 20.4538 18.593 20.5081 18.5873C20.5625 18.5817 20.6149 18.564 20.6616 18.5355C20.7083 18.507 20.748 18.4685 20.7779 18.4228C22.21 16.5447 22.9132 14.2111 22.7565 11.8544ZM13.0001 0.735288C10.6733 0.735288 8.39868 1.42528 6.46399 2.718C4.52929 4.01072 3.02138 5.84812 2.13094 7.99784C1.2405 10.1476 1.00752 12.5131 1.46146 14.7952C1.9154 17.0773 3.03588 19.1736 4.68121 20.8189C6.32653 22.4642 8.4228 23.5847 10.7049 24.0387C12.9871 24.4926 15.3525 24.2596 17.5023 23.3692C19.652 22.4787 21.4894 20.9708 22.7821 19.0361C24.0748 17.1014 24.7648 14.8268 24.7648 12.5C24.7648 9.37981 23.5253 6.38741 21.319 4.18109C19.1127 1.97478 16.1203 0.735288 13.0001 0.735288Z" fill="black"/>
</svg>
