<svg width="26" height="25" viewBox="0 0 26 25" fill="none" xmlns="http://www.w3.org/2000/svg">
<path d="M25.4771 2.37638C25.3951 2.01121 25.1045 1.75051 24.739 1.7143L7.68241 0.0291011C4.37167 -0.295741 1.41499 2.13533 1.03345 5.50158C1.03345 5.50985 1.02535 5.51813 1.02535 5.52951L1.01726 5.61331V5.61744V5.62158L1.01321 5.64951V5.67745V5.68572C0.74592 8.97652 3.18905 11.9135 6.4797 12.2342L10.3171 12.6118L10.2351 13.5025C10.1997 13.8553 10.306 14.2008 10.5257 14.478C10.7454 14.7511 11.0603 14.9239 11.4056 14.956L11.9746 15.0119L11.7387 17.1429C10.8791 17.3912 10.1875 18.0533 9.88073 18.9088L3.75924 18.9078V18.2778C3.75924 17.6674 3.27223 17.1698 2.67486 17.1698L1.26142 17.1709V15.9915C1.26142 15.7784 1.09234 15.6026 0.880711 15.6026C0.669098 15.6026 0.5 15.7753 0.5 15.9915V24.611C0.5 24.8241 0.669086 25 0.880711 25C1.09232 25 1.26142 24.8272 1.26142 24.611V23.4275H2.67893C3.2763 23.4275 3.76331 22.9299 3.76331 22.3196V21.6896H10.3495C10.8598 22.3237 11.6374 22.7293 12.5021 22.7293C14.0411 22.7293 15.2906 21.4496 15.2906 19.8802C15.2906 19.0619 14.9494 18.3233 14.4066 17.8019C14.4107 17.7895 14.4147 17.7781 14.4188 17.7657L14.6942 15.2777L15.0324 15.3098C15.0759 15.3139 15.1144 15.3181 15.1579 15.3181C15.8221 15.3181 16.3871 14.8008 16.4539 14.1139L16.5359 13.2232L21.0527 13.6691H21.0882H21.0963C21.1124 13.6691 21.1276 13.6773 21.1438 13.6773C21.2066 13.6856 21.2694 13.6856 21.3322 13.6856C23.103 13.6856 24.6937 11.2256 25.0045 7.94724C25.1503 6.40687 24.9731 4.89347 24.5215 3.72953C24.7098 3.56919 24.9063 3.42021 25.1148 3.29195C25.4145 3.0985 25.5591 2.74156 25.4771 2.37638ZM1.75628 6.13566L18.3844 7.77638C18.274 9.2526 18.4593 10.6408 18.9149 11.7044C19.0881 12.1099 19.2956 12.4502 19.5275 12.7399L6.5515 11.4602C3.80659 11.1882 1.7371 8.84386 1.75628 6.13566ZM3.00165 22.3224C3.00165 22.5035 2.85585 22.6514 2.67968 22.6514H1.26116V17.9485H2.67866C2.85585 17.9485 3.00064 18.0975 3.00064 18.2775L3.00165 22.3224ZM3.759 20.9145V19.6824H9.71642C9.71237 19.7465 9.70832 19.8148 9.70832 19.879C9.70832 20.2441 9.7792 20.5928 9.90069 20.9145L3.759 20.9145ZM14.5279 19.8831C14.5279 21.0262 13.6167 21.9573 12.4979 21.9573C11.3791 21.9573 10.4678 21.0262 10.4678 19.8831C10.4678 18.74 11.3791 17.8089 12.4979 17.8089C13.6167 17.8089 14.5279 18.74 14.5279 19.8831ZM13.6957 17.3113C13.3383 17.1344 12.9373 17.0341 12.5131 17.03L12.7247 15.0841L13.9225 15.1999L13.6957 17.3113ZM15.6903 14.0401C15.6629 14.3453 15.4037 14.5698 15.0969 14.5377L11.4762 14.1808C11.3304 14.1643 11.2008 14.097 11.1107 13.9801C11.0206 13.8674 10.977 13.7236 10.9892 13.5746L11.0712 12.6839L15.7723 13.1494L15.6903 14.0401ZM24.2397 7.87751C23.9683 10.739 22.5944 13.0417 21.2112 12.9051C20.5713 12.8409 20.0013 12.3071 19.6125 11.3968C19.2075 10.4502 19.0465 9.19743 19.1417 7.8536L19.9425 7.93429C19.9263 9.44672 20.5237 10.5785 21.4187 10.6663C21.4542 10.6704 21.4937 10.6704 21.5291 10.6704C22.4758 10.6704 23.2888 9.46627 23.4457 7.80178C23.5278 6.9152 23.3982 6.07211 23.0883 5.46692C23.3202 5.05002 23.5946 4.66416 23.9135 4.31551C24.2395 5.32105 24.361 6.58106 24.2395 7.87723L24.2397 7.87751ZM22.6339 6.48095C22.7088 6.85442 22.7321 7.28371 22.6885 7.72442C22.567 9.02063 21.9464 9.93515 21.4948 9.89169C21.0979 9.85135 20.705 9.06099 20.7091 7.95408C21.5728 7.86097 22.323 7.30339 22.6339 6.48095ZM24.7074 2.63269C23.4347 3.43544 22.4536 4.69133 21.9423 6.15918C21.7105 6.82126 21.0189 7.25058 20.3051 7.18231L1.81494 5.36159C2.23512 2.54881 4.7685 0.522323 7.6075 0.802515L24.6641 2.48462C24.7035 2.48876 24.7268 2.51255 24.7349 2.5529C24.7501 2.60462 24.7186 2.62441 24.7074 2.63269Z" fill="black"/>
<path d="M12.4981 18.5869C11.7995 18.5869 11.2295 19.1683 11.2295 19.8831C11.2295 20.5969 11.7985 21.1793 12.4981 21.1793C13.1968 21.1793 13.7668 20.598 13.7668 19.8831C13.7658 19.1693 13.1968 18.5869 12.4981 18.5869ZM12.4981 20.4004C12.2197 20.4004 11.9919 20.1676 11.9919 19.8832C11.9919 19.5987 12.2197 19.3659 12.4981 19.3659C12.7766 19.3659 13.0044 19.5987 13.0044 19.8832C13.0044 20.1676 12.7766 20.4004 12.4981 20.4004Z" fill="black"/>
</svg>
