<svg width="26" height="25" viewBox="0 0 26 25" fill="none" xmlns="http://www.w3.org/2000/svg">
<path fill-rule="evenodd" clip-rule="evenodd" d="M15.8315 5.57555C15.5765 4.5571 14.301 4.39449 13.8176 5.29076C13.3324 6.1903 14.1035 7.28902 15.0548 7.01612C15.3268 6.93824 15.5707 6.74917 15.7226 6.46796H15.7232C15.8743 6.18763 15.9043 5.86687 15.8315 5.57555ZM15.6965 4.16113C16.5884 4.71227 16.8895 5.93376 16.3757 6.87314H16.3762C15.8643 7.82262 14.7318 8.14843 13.8432 7.59937C12.954 7.05001 12.6504 5.83953 13.1635 4.88856C13.6768 3.93699 14.8079 3.61207 15.6965 4.16113ZM10.9927 7.26524L15.199 9.86428C15.6257 10.128 16.169 9.971 16.4148 9.51617L17.2765 7.91715H17.277C17.3601 7.76376 17.4948 7.66001 17.6451 7.61691C18.1759 7.46471 18.5881 8.07857 18.327 8.5652H18.3265L16.7373 11.5106C16.559 11.8411 16.159 11.955 15.8518 11.7659V11.7653L14.6387 11.0156C14.2135 10.7525 13.6676 10.9083 13.4215 11.3637L11.8077 14.3569C11.5613 14.8135 11.7079 15.395 12.1329 15.6581L13.3479 16.4078C13.6543 16.5972 13.7618 17.0264 13.5843 17.3552L11.9951 20.3026C11.7335 20.7878 11.0293 20.7129 10.8871 20.1451C10.8366 19.9432 10.8732 19.802 10.9593 19.6287L11.8082 18.0553C12.0538 17.6013 11.9104 17.0178 11.4813 16.7526L10.1616 15.9372C9.7349 15.6735 9.19157 15.8305 8.94574 16.2853L7.18715 19.5467H7.18659C7.10354 19.7001 6.96882 19.8038 6.81854 19.8469C6.28771 19.9991 5.87522 19.385 6.13744 18.8992L11.0071 9.87111C11.2532 9.4151 11.1077 8.83513 10.6813 8.57085V8.57026L10.0888 8.20402C9.66462 7.94153 9.11935 8.09433 8.87157 8.55391L8.00992 10.1511H8.00936C7.74409 10.6425 7.04215 10.5566 6.90132 9.99478C6.85076 9.79293 6.88743 9.65173 6.97354 9.47842L8.54936 6.55773C8.63908 6.39215 8.77852 6.28276 8.94324 6.23549C9.13102 6.18168 9.28268 6.21587 9.45573 6.31516L10.9313 7.22689C10.9507 7.24175 10.9716 7.25453 10.9932 7.26524H10.9927ZM24.7425 2.13137L20.4489 0.928311L20.4503 1.81983L20.4489 24.0723L24.7425 22.8693V2.13137ZM19.6945 22.7756H11.529V21.4323C11.984 21.4106 12.4104 21.1469 12.649 20.7046L14.2262 17.7809C14.6293 17.0835 14.409 16.131 13.7237 15.7074L12.5313 14.9705C12.4538 14.9191 12.4171 14.8412 12.4618 14.7585L14.0637 11.7891C14.1118 11.7062 14.1848 11.6672 14.2601 11.7148L15.4737 12.4645V12.4639C16.1376 12.8795 17.0037 12.6342 17.3918 11.9154L18.9809 8.96949H18.9803C19.1687 8.62466 19.2059 8.22096 19.1165 7.86394C18.9215 7.08509 18.1781 6.62521 17.4504 6.8339C17.1087 6.932 16.7784 7.18824 16.6059 7.54556L15.7732 9.08899C15.7251 9.17193 15.6523 9.21117 15.5751 9.16331L11.529 6.66356V2.22441H19.6945V22.7748V22.7756ZM20.1664 0.0139057L25.2161 1.42862C25.3864 1.47588 25.4992 1.63998 25.4989 1.81983H25.5V23.1808C25.5 23.3809 25.3647 23.5471 25.1867 23.5801L20.1664 24.9867C19.929 25.053 19.6892 24.8634 19.6945 24.5795V23.5863H11.1502C10.941 23.5863 10.7713 23.4047 10.7713 23.1808V21.2269L10.7652 21.2227C10.4532 21.0206 10.2435 20.7043 10.1557 20.3538C10.0668 19.9985 10.1032 19.5907 10.2918 19.2488H10.2913L11.1538 17.6498C11.1907 17.5829 11.1663 17.4902 11.1052 17.4524L9.78545 16.637C9.70823 16.5894 9.63545 16.6284 9.5874 16.7113L7.83964 19.9513H7.8402C7.23937 21.0652 5.66216 20.8565 5.34745 19.5993C5.25745 19.2393 5.29522 18.8419 5.483 18.4938L10.3527 9.46861C10.3888 9.40172 10.3671 9.30927 10.3029 9.26914V9.26973L9.6949 8.89488C9.64851 8.86931 9.56295 8.89339 9.53518 8.93976C9.52684 8.95701 9.51768 8.97336 9.50712 8.98881L8.66213 10.5548H8.66269C8.28602 11.2534 7.44048 11.4895 6.80243 11.0873C6.14494 10.6729 5.93133 9.77688 6.30605 9.09762H6.30549L7.89464 6.15136C8.28852 5.42216 9.17879 5.18256 9.83212 5.61509L10.7713 6.19536V1.81894C10.7713 1.59509 10.941 1.41346 11.1502 1.41346H19.6945V0.403925C19.6945 0.138462 19.9292 -0.0526831 20.1664 0.0130138V0.0139057ZM4.57773 11.7659H1.25777V13.2344H4.57773C4.7869 13.2344 4.95662 13.4161 4.95662 13.6399V14.0166L6.27188 12.5002L4.95662 10.9838V11.3604C4.95662 11.5843 4.7869 11.7659 4.57773 11.7659ZM0.878885 10.9553C0.66972 10.9553 0.5 11.1369 0.5 11.3607V13.6399C0.5 13.8638 0.66972 14.0454 0.878885 14.0454H4.19885V15.0481H4.19968C4.19968 15.4128 4.62079 15.5927 4.8544 15.3237L7.06382 12.776C7.1977 12.6224 7.19965 12.3813 7.06382 12.2249L4.87162 9.69721C4.62273 9.39072 4.19885 9.59138 4.19885 9.95257V10.9553H0.878885Z" fill="#111111"/>
</svg>
