<svg width="25" height="25" viewBox="0 0 25 25" fill="none" xmlns="http://www.w3.org/2000/svg">
<path fill-rule="evenodd" clip-rule="evenodd" d="M0 25V2.09989H3.15083V5.20172C3.22542 5.02174 3.31083 4.83996 3.40708 4.66663C3.74667 4.05544 4.21917 3.559 4.83583 3.559C5.39542 3.559 5.89458 3.51673 6.34208 3.44124C8.50542 3.07827 9.47417 1.93683 10.3562 1.08528C10.9417 0.521198 11.4925 0.0785118 12.2812 0.00966288V0H12.7188V0.00966288C13.5075 0.0785118 14.0588 0.521198 14.6438 1.08528C15.5262 1.93683 16.4946 3.07827 18.6579 3.44124C19.1054 3.51673 19.6046 3.559 20.1642 3.559C20.7808 3.559 21.2533 4.05544 21.5933 4.66663C21.6892 4.83996 21.7746 5.02174 21.8492 5.20172V2.09989H25V25H0ZM0.437083 2.73342V24.3665H2.71375V2.73342H0.437083ZM12.2812 0.645005C11.3921 0.735596 10.8446 1.37698 10.135 2.06728C9.31 2.87052 8.28667 3.75287 6.3925 4.07114C5.93 4.14845 5.41417 4.19254 4.83583 4.19254C4.3625 4.19254 4.00792 4.59536 3.7475 5.06462C3.37583 5.73258 3.19 6.54789 3.15083 6.7339V24.3665H12.2812V0.645005ZM24.5629 2.73342V24.3665H22.2867V2.73342H24.5629ZM12.7188 0.645005C13.6079 0.735596 14.1554 1.37698 14.865 2.06728C15.69 2.87052 16.7133 3.75287 18.6075 4.07114C19.0704 4.14845 19.5858 4.19254 20.1642 4.19254C20.6375 4.19254 20.9921 4.59536 21.2525 5.06462C21.6242 5.73258 21.81 6.54789 21.8492 6.7339V24.3665H12.7188V0.645005ZM11.3529 15.4481L4.07583 15.4475C4.07583 15.4475 4.00708 9.69924 4.09375 8.2667C4.12542 7.73886 4.245 7.48098 4.59417 6.85228C4.84792 6.3957 5.20208 6.0279 5.66292 6.0279C6.05958 6.0279 6.41333 5.99831 6.73042 5.94456C8.25958 5.68788 8.94417 4.87982 9.56792 4.27769C10.0329 3.82957 10.4696 3.48895 11.1321 3.48895H11.3508L11.3529 15.4481ZM13.6471 15.4481H20.9242C20.9242 15.4481 20.9929 9.69984 20.9062 8.2673C20.8746 7.73946 20.755 7.48158 20.4058 6.85288C20.1521 6.3963 19.7979 6.02851 19.3371 6.02851C18.9404 6.02851 18.5867 5.99891 18.2696 5.94516C16.7404 5.68849 16.0562 4.88042 15.4325 4.27829C14.9671 3.83017 14.5308 3.48955 13.8679 3.48955H13.6492L13.6471 15.4481ZM10.2167 4.4474C10.425 4.29218 10.6475 4.17864 10.9137 4.13878L10.9158 14.8146H10.2167V4.4474ZM9.77958 4.83392V14.8146H9.07667V5.50187C9.22042 5.37867 9.35333 5.25305 9.47958 5.13045C9.58333 5.02899 9.6825 4.92934 9.77958 4.83392ZM8.63958 5.84129V14.8146H7.93667V6.23505C8.20042 6.11849 8.43167 5.98442 8.63958 5.84129ZM7.49958 6.40174V14.8146H6.79708V6.57205C7.05208 6.52857 7.28542 6.47059 7.49958 6.40174ZM6.35958 6.63003V14.8146H5.65708V6.66204H5.66292C5.91083 6.66204 6.1425 6.65117 6.35958 6.63003ZM5.22 6.86194V14.8146H4.51375C4.51375 14.8146 4.4525 9.65998 4.52292 8.39896C4.54667 7.96896 4.68375 7.70323 4.93458 7.25088C5.01583 7.10472 5.11042 6.96703 5.22 6.86194ZM14.7833 4.44679C14.575 4.29158 14.3529 4.17804 14.0862 4.13818L14.0846 14.814H14.7833V4.44679ZM15.2204 4.83331V14.814H15.9233V5.50127C15.7796 5.37807 15.6471 5.25245 15.5208 5.12985C15.4167 5.02839 15.3179 4.92874 15.2204 4.83331ZM16.3604 5.84068V14.814H17.0633V6.23445C16.7996 6.11789 16.5683 5.98381 16.3604 5.84068ZM17.5004 6.40114V14.814H18.2033V6.57145C17.9479 6.52796 17.7146 6.46998 17.5004 6.40114ZM18.6404 6.62942V14.814H19.3429V6.66143H19.3371C19.0896 6.66143 18.8575 6.65056 18.6404 6.62942ZM19.7804 6.86134V14.814H20.4862C20.4862 14.814 20.5475 9.65938 20.4775 8.39836C20.4533 7.96835 20.3162 7.70262 20.0654 7.25027C19.9842 7.10412 19.89 6.96703 19.7804 6.86194V6.86134Z" fill="black"/>
</svg>
