<svg width="20" height="25" viewBox="0 0 20 25" fill="none" xmlns="http://www.w3.org/2000/svg">
<path d="M8.73438 0.6875V1.5625H7.2325C7.31075 1.69978 7.37037 1.84759 7.40969 2.00175H10.0861C10.1597 1.67787 10.3183 1.38142 10.5442 1.14513C10.6193 1.06728 10.7199 1.02167 10.826 1.01738L18.2747 0.68925C18.4592 0.682332 18.6432 0.713939 18.8158 0.782192C18.9883 0.850446 19.1459 0.953956 19.2792 1.08658C19.4124 1.2192 19.5186 1.37823 19.5914 1.55423C19.6642 1.73023 19.7022 1.91961 19.7031 2.11112V2.76737C19.7031 3.5575 19.0593 4.22337 18.2747 4.18925L10.826 3.86112C10.7198 3.8566 10.6192 3.81066 10.5442 3.7325C10.3187 3.49626 10.1602 3.2002 10.0861 2.87675H7.408C7.36834 3.03162 7.30759 3.17688 7.23081 3.3125H7.46875C7.58064 3.3125 7.68794 3.35859 7.76706 3.44064C7.84618 3.52269 7.89062 3.63397 7.89062 3.75V5.2235C8.38259 5.4036 8.80882 5.73705 9.11092 6.17816C9.41302 6.61927 9.57621 7.14646 9.57812 7.6875V12.0319C9.57847 12.0421 9.57847 12.0523 9.57812 12.0625V23.875C9.57812 23.991 9.53368 24.1023 9.45456 24.1844C9.37544 24.2664 9.26814 24.3125 9.15625 24.3125H2.40625C2.29436 24.3125 2.18706 24.2664 2.10794 24.1844C2.02882 24.1023 1.98438 23.991 1.98438 23.875V19.9664C1.98407 19.9568 1.98407 19.9471 1.98438 19.9375V7.6875C1.98629 7.14646 2.14948 6.61927 2.45158 6.17816C2.75368 5.73705 3.17991 5.4036 3.67188 5.2235V3.75C3.67188 3.63397 3.71632 3.52269 3.79544 3.44064C3.87456 3.35859 3.98186 3.3125 4.09375 3.3125H4.33084C4.18488 3.0535 4.09375 2.75775 4.09375 2.4375C4.09375 2.35875 4.10725 2.28437 4.11653 2.20825L0.751656 4.21637L0.329781 3.4595L3.50734 1.5625H0.296875V0.6875H8.73438ZM5.78125 1.5625C5.31044 1.5625 4.9375 1.94925 4.9375 2.4375C4.9375 2.92575 5.31044 3.3125 5.78125 3.3125C6.25206 3.3125 6.625 2.92575 6.625 2.4375C6.625 1.94925 6.25206 1.5625 5.78125 1.5625ZM18.3109 1.56425L11.0943 1.88187C10.9723 2.0401 10.9059 2.23666 10.9059 2.43925C10.9059 2.64184 10.9723 2.8384 11.0943 2.99662L18.3109 3.31425C18.3819 3.3172 18.4528 3.30523 18.5192 3.27907C18.5857 3.25291 18.6463 3.2131 18.6975 3.16202C18.7488 3.11094 18.7895 3.04965 18.8173 2.98183C18.8451 2.91402 18.8594 2.84107 18.8594 2.76737V2.11112C18.8594 1.81012 18.6189 1.55112 18.3109 1.56425ZM7.04688 4.1875H4.51562V5.03888H7.04688V4.1875ZM7.04688 5.9375H4.51562C3.57316 5.9375 2.82812 6.71012 2.82812 7.6875V10.3125H8.73438V7.6875C8.73438 6.71012 7.98934 5.9375 7.04688 5.9375ZM8.73438 11.1875H2.82812V16.4375H8.73438V11.1875ZM8.73438 17.3125H2.82812V23.4375H8.73438V19.9664C8.73407 19.9568 8.73407 19.9471 8.73438 19.9375V17.3125Z" fill="black"/>
</svg>
