<svg width="26" height="25" viewBox="0 0 26 25" fill="none" xmlns="http://www.w3.org/2000/svg">
<path d="M8.04105 17.0976H11.1383V20.5103C11.1383 20.7538 11.3265 20.9633 11.5453 20.9633H14.5178C14.7366 20.9633 14.9248 20.7538 14.9248 20.5103V17.0976H17.9915C18.2103 17.0976 18.3985 16.8882 18.3985 16.6447V13.3367C18.3985 13.0933 18.2103 12.8838 17.9915 12.8838L14.8931 12.8852V9.47248C14.8931 9.229 14.7049 9.01953 14.4861 9.01953H11.5135C11.2947 9.01953 11.1065 9.229 11.1065 9.47248V12.8852H8.03983C7.82105 12.8852 7.63281 13.0946 7.63281 13.3381V16.6461C7.63403 16.9235 7.82104 17.0976 8.04105 17.0976ZM8.44685 13.7897H11.5135C11.7323 13.7897 11.9205 13.5802 11.9205 13.3367V9.92406H14.079V13.3367C14.079 13.5802 14.2673 13.7897 14.4861 13.7897H17.5527V16.1918H14.4861C14.2673 16.1918 14.079 16.4012 14.079 16.6447V20.0574H11.9205V16.6447C11.9205 16.4012 11.7323 16.1918 11.5135 16.1918H8.44685V13.7897Z" fill="black"/>
<path d="M2.90889 25H23.0909C24.4366 25 25.5 23.7813 25.5 22.3191V7.69449C25.5 6.19693 24.4049 5.01359 23.0909 5.01359H18.4293V1.81039C18.4293 0.835135 17.7094 0 16.8025 0H9.19874C8.32237 0 7.57191 0.80115 7.57191 1.81039V5.01359H2.90908C1.56336 5.01359 0.5 6.23231 0.5 7.69449V22.3191C0.5 23.7813 1.59496 25 2.90889 25ZM8.41655 1.81025C8.41655 1.32332 8.79178 0.904358 9.23059 0.904358H16.8344C17.2719 0.904358 17.6484 1.32192 17.6484 1.81025V5.01345H16.4286V2.71475C16.4286 2.47127 16.2404 2.2618 16.0216 2.2618L10.0117 2.26316C9.79293 2.26316 9.60469 2.47263 9.60469 2.71611V5.01481H8.38488V1.81025L8.41655 1.81025ZM15.6132 3.1337V4.97947L10.4185 4.97811V3.13234L15.6132 3.1337ZM1.31404 7.69449C1.31404 6.71924 2.03396 5.88411 2.94087 5.88411H23.1229C23.9993 5.88411 24.7497 6.68526 24.7497 7.69449V22.3191C24.7497 23.2944 24.0298 24.1295 23.1229 24.1295H2.90895C2.03258 24.1295 1.28212 23.3283 1.28212 22.3191V7.69449H1.31404Z" fill="black"/>
</svg>
