<svg width="24" height="29" viewBox="0 0 24 29" fill="none" xmlns="http://www.w3.org/2000/svg">
<path d="M23.6364 4.82715C19.9665 4.82715 16.3676 3.56461 13.5022 1.27224L12.2273 0.252244C12.0945 0.146062 11.9058 0.146062 11.7731 0.252244L10.4982 1.27224C7.63236 3.56461 4.03345 4.82715 0.363636 4.82715C0.162909 4.82715 0 4.99006 0 5.19079V14.5017C0 19.2984 2.61091 23.7144 6.81418 26.0261L11.8247 28.7821C11.8793 28.8122 11.9396 28.8272 12 28.8272C12.0604 28.8272 12.1207 28.8122 12.1753 28.7821L17.1858 26.0261C21.3891 23.7144 24 19.2988 24 14.5017V5.19079C24 4.99006 23.8371 4.82715 23.6364 4.82715ZM23.2727 14.5017C23.2727 19.0333 20.8062 23.205 16.8353 25.389L12 28.0486L7.16473 25.389C3.19382 23.205 0.727273 19.0333 0.727273 14.5017V5.55043C2.51782 5.51224 4.28109 5.19261 5.97418 4.59879C7.78182 3.96461 9.45636 3.03661 10.9524 1.83988L12 1.00206L13.0476 1.84024C14.5433 3.03697 16.2182 3.96497 18.0258 4.59915C19.7189 5.19297 21.4822 5.51261 23.2727 5.55079V14.5017Z" fill="black"/>
<path d="M12.2181 3.15436C12.0886 3.05727 11.9111 3.05727 11.7817 3.15436L10.8508 3.85254C8.51224 5.60672 5.61406 6.57254 2.69078 6.57254C2.49006 6.57254 2.32715 6.73545 2.32715 6.93618V14.4431C2.32715 18.5569 4.55442 22.3653 8.13988 24.382L11.8217 26.4529C11.877 26.4842 11.9384 26.4995 11.9999 26.4995C12.0613 26.4995 12.1228 26.4838 12.1781 26.4529L15.8599 24.382C19.4453 22.3653 21.6726 18.5569 21.6726 14.4431V6.93618C21.6726 6.73545 21.5097 6.57254 21.309 6.57254C18.3857 6.57254 15.4875 5.60672 13.149 3.85254L12.2181 3.15436ZM15.5031 23.7482L11.9999 25.7191L11.0748 25.1987C10.3577 23.5627 10.1831 21.9638 10.1661 20.8929C10.1581 20.3882 10.1799 19.8696 10.2013 19.3678C10.2061 19.2525 10.2111 19.1369 10.2155 19.0209C12.369 18.7747 14.1453 18.1304 15.2795 17.618C16.0697 17.2609 16.6562 16.9235 17.0028 16.7078C17.5864 17.8569 18.3435 18.6318 19.6882 19.4642C18.745 21.2329 17.3082 22.7333 15.5031 23.7482ZM8.17115 13.3718C7.40024 13.5467 6.61079 13.6536 5.8206 13.6918C5.67515 13.4762 5.53988 13.2245 5.39879 12.9089C5.3646 12.8329 5.38897 12.7685 5.40606 12.7369C5.42351 12.7049 5.46569 12.6496 5.54933 12.6373L8.4446 12.2155C8.54242 12.2013 8.63006 12.1478 8.68751 12.0678C9.27624 11.2478 10.2075 10.6867 11.2028 10.5289C11.1628 10.6453 11.1213 10.7627 11.0766 10.8824L11.7584 11.1358C12.1268 10.1456 12.3526 9.25145 12.4631 8.32491C13.0381 9.03654 13.2646 9.87691 13.3879 10.498C13.4046 10.582 13.4501 10.6573 13.517 10.7107C14.5595 11.5482 15.3526 12.5707 15.9661 13.8936C14.1991 15.3944 12.281 16.2591 10.1293 16.5253C9.98679 15.7896 9.67733 15.2755 9.20497 14.9958C8.76388 14.7344 8.26424 14.7278 7.82351 14.722C7.55988 14.7184 7.31042 14.7151 7.08533 14.6638C6.87369 14.6155 6.66497 14.5173 6.46751 14.3762C7.09442 14.3187 7.71842 14.2202 8.33115 14.0813L8.17115 13.3718ZM13.3955 16.3755C14.3922 15.9369 15.3541 15.338 16.2635 14.5922C16.4355 15.0351 16.5912 15.5089 16.7326 16.0169C16.0297 16.4656 13.5922 17.8798 10.237 18.286C10.2421 17.9413 10.2377 17.594 10.2155 17.2471C11.3253 17.1089 12.3926 16.8169 13.3955 16.3755ZM20.9453 7.29509V14.4431C20.9453 15.9722 20.6162 17.4558 20.0101 18.8075C18.6952 17.9845 18.0348 17.2507 17.4951 16.0511C16.7919 13.4002 15.7341 11.5965 14.0755 10.2267C13.8879 9.34018 13.4995 8.12127 12.3948 7.23436C12.2882 7.14891 12.1428 7.13036 12.0184 7.186C11.8941 7.24163 11.8111 7.36272 11.8042 7.49945C11.7646 8.27654 11.6486 9.00673 11.4391 9.76963C10.1784 9.86818 8.96678 10.5176 8.19151 11.5176L5.44497 11.918C5.15624 11.9602 4.91006 12.1307 4.76933 12.3867C4.62897 12.6416 4.6166 12.9405 4.73515 13.206C4.91515 13.6085 5.09042 13.9242 5.28715 14.1991C5.72933 14.8165 6.31078 15.2336 6.9246 15.3736C7.22497 15.442 7.52497 15.4464 7.81479 15.45C8.19842 15.4551 8.56097 15.4598 8.83515 15.6224C9.19115 15.8333 9.40569 16.3202 9.4726 17.0696C9.53915 17.8158 9.50642 18.5893 9.47479 19.3376C9.45297 19.8496 9.43078 20.3795 9.43915 20.9049C9.45442 21.8569 9.58679 23.202 10.0773 24.638L8.4966 23.7489C5.13951 21.8602 3.05442 18.2947 3.05442 14.4431V7.29509C4.47297 7.25909 5.87297 7.014 7.22133 6.56454C8.68497 6.07654 10.053 5.35982 11.2871 4.43436L11.9999 3.89982L12.7126 4.43436C13.9468 5.36018 15.3148 6.07691 16.7784 6.56454C18.1268 7.014 19.5268 7.25945 20.9453 7.29509Z" fill="black"/>
<path d="M11.363 12.5366L11.3797 11.8097C10.8834 11.7973 10.3852 11.9802 10.0132 12.3093L10.495 12.854C10.7314 12.6449 11.0481 12.5297 11.363 12.5366Z" fill="black"/>
</svg>
