<svg width="26" height="25" viewBox="0 0 26 25" fill="none" xmlns="http://www.w3.org/2000/svg">
<path d="M13 0C6.10745 0 0.5 5.6076 0.5 12.5C0.5 19.3924 6.10745 25 13 25C19.8925 25 25.5 19.3924 25.5 12.5C25.5 5.6076 19.8925 0 13 0ZM13 24.375C6.45215 24.375 1.125 19.0479 1.125 12.5C1.125 5.95215 6.45215 0.625 13 0.625C19.5479 0.625 24.875 5.95215 24.875 12.5C24.875 19.0479 19.5479 24.375 13 24.375Z" fill="black"/>
<path d="M10.3544 5.10681C12.0533 4.4989 13.9469 4.4989 15.6458 5.10681C15.6806 5.11932 15.7161 5.12512 15.7511 5.12512C15.8794 5.12512 15.9996 5.04547 16.0453 4.91791C16.1034 4.75555 16.0189 4.57642 15.8564 4.51843C14.022 3.86169 11.9782 3.86169 10.1438 4.51843C9.98128 4.57642 9.89674 4.75555 9.95488 4.91791C10.013 5.08026 10.1915 5.16541 10.3544 5.10681Z" fill="black"/>
<path d="M15.4877 6.79153C15.549 6.6301 15.468 6.44974 15.3067 6.3884C13.8153 5.82138 12.185 5.82138 10.6936 6.3884C10.5324 6.44974 10.4513 6.6301 10.5127 6.79153C10.5742 6.95297 10.7548 7.03476 10.9158 6.9725C12.2647 6.45981 13.7356 6.45981 15.0845 6.9725C15.1211 6.98654 15.1587 6.99295 15.1956 6.99295C15.3215 6.99295 15.4402 6.91635 15.4877 6.79153Z" fill="black"/>
<path d="M4.9106 11.3463C4.92952 11.3499 4.94844 11.3515 4.9669 11.3515C5.11507 11.3515 5.2466 11.2459 5.27406 11.0948C5.4355 10.2074 5.74724 9.35928 6.20027 8.57467C6.65315 7.78976 7.23177 7.09609 7.91978 6.5126C8.05131 6.4009 8.06764 6.20376 7.95595 6.07223C7.84441 5.9407 7.64726 5.92452 7.51543 6.03591C6.77248 6.6661 6.14793 7.415 5.65889 8.26217C5.17 9.10903 4.83354 10.0246 4.65913 10.9831C4.62831 11.1528 4.74092 11.3155 4.9106 11.3463Z" fill="black"/>
<path d="M6.55384 11.4418C6.52637 11.6121 6.64218 11.7727 6.81247 11.8001C6.82941 11.8029 6.84619 11.8041 6.86267 11.8041C7.01343 11.8041 7.14603 11.6948 7.1709 11.5413C7.28595 10.8291 7.52399 10.1568 7.87845 9.54304C8.23245 8.92964 8.69571 8.38734 9.2551 7.93141C9.38892 7.82216 9.40891 7.62532 9.29981 7.49165C9.19071 7.35829 8.99402 7.33784 8.8602 7.44679C8.24176 7.95125 7.72937 8.55122 7.33707 9.23054C6.94461 9.91017 6.68109 10.6542 6.55384 11.4418Z" fill="black"/>
<path d="M6.20027 16.4259C5.74724 15.6413 5.4355 14.7932 5.27406 13.9058C5.24324 13.7361 5.08134 13.6214 4.9106 13.6543C4.74092 13.6852 4.62831 13.8478 4.65913 14.0175C4.83354 14.976 5.17 15.8916 5.65889 16.7384C6.14793 17.5856 6.77248 18.3345 7.51543 18.9647C7.57417 19.0144 7.64604 19.0389 7.71745 19.0389C7.80611 19.0389 7.89415 19.0013 7.95595 18.9284C8.06764 18.7969 8.05131 18.5997 7.91978 18.488C7.23177 17.9045 6.65315 17.2109 6.20027 16.4259Z" fill="black"/>
<path d="M7.87845 15.4573C7.52399 14.8436 7.28595 14.1713 7.1709 13.459C7.14328 13.2887 6.98368 13.1712 6.81247 13.2002C6.64218 13.2277 6.52637 13.3882 6.55384 13.5585C6.68109 14.3461 6.94461 15.0902 7.33707 15.7698C7.72937 16.4491 8.24176 17.0491 8.8602 17.5535C8.91818 17.6008 8.98807 17.6237 9.0575 17.6237C9.14813 17.6237 9.23801 17.5844 9.29981 17.5087C9.40891 17.375 9.38892 17.1782 9.2551 17.0689C8.69571 16.613 8.23245 16.0707 7.87845 15.4573Z" fill="black"/>
<path d="M15.6458 19.8939C13.9469 20.5018 12.0533 20.5018 10.3544 19.8939C10.1915 19.8356 10.013 19.9204 9.95488 20.0828C9.89674 20.2451 9.98128 20.4243 10.1438 20.4823C11.061 20.8106 12.022 20.977 13.0001 20.977C13.9782 20.977 14.9392 20.8106 15.8564 20.4823C16.0189 20.4243 16.1034 20.2451 16.0453 20.0828C15.9873 19.9204 15.8083 19.8356 15.6458 19.8939Z" fill="black"/>
<path d="M10.5127 18.2083C10.4513 18.3698 10.5324 18.5501 10.6936 18.6115C11.4393 18.895 12.2154 19.0387 13.0002 19.0387C13.7849 19.0387 14.561 18.895 15.3067 18.6115C15.468 18.5501 15.549 18.3698 15.4877 18.2083C15.4263 18.0469 15.2463 17.9657 15.0845 18.0273C13.7356 18.54 12.2647 18.54 10.9158 18.0273C10.7547 17.9654 10.5742 18.0469 10.5127 18.2083Z" fill="black"/>
<path d="M21.089 13.6543C20.918 13.6216 20.7565 13.736 20.7256 13.9057C20.5641 14.7932 20.2524 15.6413 19.7993 16.4259C19.3465 17.2108 18.7679 17.9044 18.0798 18.4879C17.9483 18.5996 17.932 18.7968 18.0437 18.9283C18.1055 19.0012 18.1935 19.0388 18.2822 19.0388C18.3536 19.0388 18.4254 19.0144 18.4842 18.9646C19.2271 18.3344 19.8517 17.5855 20.3407 16.7384C20.8296 15.8915 21.1661 14.976 21.3405 14.0174C21.3713 13.8477 21.2587 13.6851 21.089 13.6543Z" fill="black"/>
<path d="M19.4462 13.5585C19.4737 13.3882 19.3579 13.2277 19.1876 13.2002C19.0159 13.1712 18.8568 13.2887 18.8291 13.459C18.7141 14.1713 18.4761 14.8436 18.1216 15.4573C17.7676 16.0707 17.3043 16.613 16.7449 17.0689C16.6111 17.1782 16.5911 17.375 16.7002 17.5087C16.762 17.5844 16.8519 17.6237 16.9425 17.6237C17.012 17.6237 17.0819 17.6008 17.1398 17.5535C17.7583 17.0491 18.2707 16.4491 18.663 15.7698C19.0554 15.0902 19.3189 14.3461 19.4462 13.5585Z" fill="black"/>
<path d="M18.4842 6.03492C18.3522 5.92322 18.1551 5.9394 18.0437 6.07123C17.932 6.20276 17.9483 6.39991 18.0798 6.5116C18.7679 7.0951 19.3465 7.78876 19.7993 8.57368C20.2524 9.35828 20.5641 10.2064 20.7256 11.0938C20.753 11.2449 20.8846 11.3505 21.0327 11.3505C21.0512 11.3505 21.0701 11.3489 21.089 11.3453C21.2587 11.3145 21.3713 11.1518 21.3405 10.9821C21.1661 10.0236 20.8296 9.10804 20.3407 8.26118C19.8517 7.41401 19.2271 6.66511 18.4842 6.03492Z" fill="black"/>
<path d="M18.1216 9.54304C18.4761 10.1568 18.7141 10.8291 18.8291 11.5413C18.854 11.6948 18.9866 11.8041 19.1374 11.8041C19.1538 11.8041 19.1706 11.8029 19.1876 11.8001C19.3579 11.7727 19.4737 11.6121 19.4462 11.4418C19.3189 10.6542 19.0554 9.91017 18.663 9.23054C18.2707 8.55122 17.7583 7.95125 17.1398 7.44679C17.0062 7.33784 16.8096 7.35829 16.7002 7.49165C16.5911 7.62532 16.6111 7.82216 16.7449 7.93141C17.3043 8.38734 17.7676 8.92964 18.1216 9.54304Z" fill="black"/>
<path d="M11.6132 8.74329C12.5114 8.4021 13.4892 8.4021 14.3873 8.74329C14.4238 8.75732 14.4613 8.76373 14.4982 8.76373C14.6243 8.76373 14.743 8.68713 14.7904 8.56232C14.8516 8.40088 14.7706 8.22052 14.6092 8.15918C13.5688 7.76367 12.4317 7.76367 11.3914 8.15918C11.2299 8.22052 11.1489 8.40088 11.2101 8.56232C11.2716 8.72375 11.4524 8.80524 11.6132 8.74329Z" fill="black"/>
<path d="M8.5033 11.6839C8.47584 11.8544 8.5915 12.015 8.76194 12.0424C8.77888 12.0452 8.79566 12.0464 8.81214 12.0464C8.96274 12.0464 9.0955 11.9371 9.12037 11.7839C9.19697 11.3097 9.35535 10.8623 9.59095 10.454C9.827 10.0457 10.1354 9.68464 10.5074 9.3816C10.6412 9.27266 10.6612 9.07582 10.5523 8.94185C10.4432 8.80848 10.2463 8.78804 10.1125 8.89699C9.68143 9.24824 9.32392 9.66694 9.04972 10.1415C8.77598 10.616 8.59226 11.1348 8.5033 11.6839Z" fill="black"/>
<path d="M10.3098 16.0179C10.4004 16.0179 10.4905 15.9785 10.5523 15.9028C10.6612 15.7689 10.6412 15.572 10.5074 15.4631C10.1354 15.16 9.827 14.799 9.5911 14.3907C9.35535 13.9824 9.19697 13.535 9.12037 13.0607C9.09275 12.8908 8.93314 12.7733 8.76194 12.8023C8.5915 12.8297 8.47584 12.9902 8.5033 13.1608C8.59226 13.7098 8.77598 14.2286 9.04987 14.7032C9.32392 15.1777 9.68143 15.5964 10.1125 15.9477C10.1705 15.995 10.2404 16.0179 10.3098 16.0179Z" fill="black"/>
<path d="M11.3914 16.6851C11.9116 16.8828 12.4529 16.9829 13.0003 16.9829C13.5476 16.9829 14.089 16.8828 14.6092 16.6851C14.7706 16.6237 14.8516 16.4434 14.7904 16.2819C14.7291 16.1205 14.5481 16.0393 14.3873 16.101C13.4892 16.4421 12.5114 16.4421 11.6132 16.101C11.4524 16.0393 11.2716 16.1205 11.2101 16.2819C11.1489 16.4434 11.2299 16.6237 11.3914 16.6851Z" fill="black"/>
<path d="M17.4966 13.1605C17.5241 12.9899 17.4084 12.8294 17.238 12.802C17.0668 12.7742 16.9072 12.8905 16.8796 13.0604C16.803 13.5347 16.6446 13.9821 16.409 14.3904C16.1729 14.7987 15.8645 15.1597 15.4925 15.4628C15.3587 15.5717 15.3387 15.7686 15.4477 15.9025C15.5095 15.9782 15.5995 16.0176 15.6901 16.0176C15.7596 16.0176 15.8294 15.9947 15.8874 15.9474C16.3185 15.5961 16.676 15.1774 16.9502 14.7029C17.2239 14.2283 17.4077 13.7095 17.4966 13.1605Z" fill="black"/>
<path d="M15.4477 8.94185C15.3387 9.07582 15.3587 9.27266 15.4925 9.3816C15.8645 9.68464 16.1729 10.0457 16.4088 10.454C16.6446 10.8623 16.803 11.3097 16.8796 11.7839C16.9044 11.9371 17.037 12.0464 17.1878 12.0464C17.2043 12.0464 17.221 12.0452 17.238 12.0424C17.4084 12.015 17.5241 11.8544 17.4966 11.6839C17.4077 11.1348 17.2239 10.616 16.95 10.1415C16.676 9.66694 16.3185 9.24824 15.8874 8.89699C15.7541 8.78804 15.5569 8.80848 15.4477 8.94185Z" fill="black"/>
</svg>
