<svg width="21" height="24" viewBox="0 0 21 24" fill="none" xmlns="http://www.w3.org/2000/svg">
<path d="M10.9667 10.8069C10.9667 10.3279 10.7764 9.86846 10.4377 9.52974C10.099 9.19102 9.63955 9.00073 9.16053 9.00073H8.70191C8.25142 9.00073 7.81938 9.17969 7.50083 9.49824C7.18228 9.81678 7.00333 10.2488 7.00333 10.6993C7.00333 10.8495 7.06298 10.9935 7.16916 11.0997C7.27534 11.2059 7.41936 11.2655 7.56952 11.2655C7.71968 11.2655 7.8637 11.2059 7.96988 11.0997C8.07606 10.9935 8.13571 10.8495 8.13571 10.6993C8.13571 10.5492 8.19537 10.4051 8.30155 10.299C8.40773 10.1928 8.55175 10.1331 8.70191 10.1331H9.16053C9.33922 10.1331 9.5106 10.2041 9.63696 10.3305C9.76331 10.4568 9.8343 10.6282 9.8343 10.8069C9.83518 10.8658 9.82234 10.9241 9.79679 10.9771C9.77123 11.0302 9.73368 11.0766 9.68709 11.1126L9.63613 11.1579L7.16186 13.7001C7.08361 13.78 7.03074 13.8812 7.00991 13.991C6.98909 14.1008 7.00124 14.2144 7.04483 14.3173C7.08843 14.4202 7.16152 14.508 7.25489 14.5694C7.34826 14.6309 7.45774 14.6633 7.56952 14.6627H10.4005C10.5507 14.6627 10.6947 14.603 10.8009 14.4968C10.907 14.3907 10.9667 14.2466 10.9667 14.0965C10.9667 13.9463 10.907 13.8023 10.8009 13.6961C10.6947 13.5899 10.5507 13.5303 10.4005 13.5303H8.9114L10.4005 11.9676C10.575 11.8282 10.7164 11.6518 10.8143 11.451C10.9122 11.2503 10.9643 11.0302 10.9667 10.8069Z" fill="black"/>
<path d="M14.3638 14.6625C14.514 14.6625 14.658 14.6028 14.7642 14.4966C14.8704 14.3904 14.93 14.2464 14.93 14.0963V9.5667C14.93 9.41654 14.8704 9.27253 14.7642 9.16634C14.658 9.06016 14.514 9.00051 14.3638 9.00051C14.2137 9.00051 14.0697 9.06016 13.9635 9.16634C13.8573 9.27253 13.7976 9.41654 13.7976 9.5667V11.8315H12.3708L13.1918 9.7762C13.2474 9.63654 13.2452 9.48054 13.1857 9.3425C13.1263 9.20447 13.0144 9.0957 12.8747 9.04014C12.7351 8.98458 12.5791 8.98677 12.441 9.04624C12.303 9.1057 12.1942 9.21756 12.1387 9.35721L11.0063 12.1882C10.9721 12.2739 10.9594 12.3667 10.9692 12.4585C10.9791 12.5503 11.0113 12.6382 11.0629 12.7147C11.1149 12.7916 11.1849 12.8545 11.2668 12.8979C11.3488 12.9414 11.4401 12.964 11.5329 12.9639H13.7976V14.0963C13.7976 14.2464 13.8573 14.3904 13.9635 14.4966C14.0697 14.6028 14.2137 14.6625 14.3638 14.6625Z" fill="black"/>
<path d="M19.4903 6.5844C19.2861 6.24749 18.8474 6.13943 18.5082 6.34364C18.1705 6.54864 18.0624 6.98804 18.2674 7.32574C19.1184 8.72897 19.5681 10.3459 19.5681 12.0003C19.5681 17.0006 15.5007 21.0688 10.5004 21.0688C9.5707 21.0688 8.66329 20.9306 7.79402 20.6572L8.7785 20.1837C9.13368 20.0128 9.28386 19.5853 9.11223 19.2294C8.94139 18.8734 8.51391 18.7232 8.15793 18.8949L5.67486 20.0891C5.49608 20.1749 5.36021 20.3323 5.30221 20.5214C5.24341 20.7113 5.26565 20.9171 5.36498 21.0895L6.73802 23.4788C6.86992 23.7092 7.11147 23.838 7.35858 23.838C7.47936 23.838 7.60173 23.807 7.71376 23.7426C8.05623 23.5455 8.17462 23.1093 7.97756 22.7661L7.58186 22.0772C8.52424 22.3505 9.49998 22.4975 10.5012 22.4975C16.2897 22.4975 21 17.788 21 11.9987C20.9992 10.0845 20.4779 8.2117 19.4903 6.5844Z" fill="black"/>
<path d="M10.4988 2.93084C11.4285 2.93084 12.3359 3.0691 13.2052 3.34244L12.2215 3.81601C11.8663 3.98684 11.7161 4.41433 11.8877 4.7703C12.0101 5.02616 12.2668 5.17554 12.5329 5.17554C12.637 5.17554 12.7427 5.15249 12.8428 5.10482L15.3259 3.91056C15.5047 3.82475 15.6406 3.66742 15.6986 3.47831C15.7574 3.2884 15.7351 3.08261 15.6358 2.91018L14.2627 0.520874C14.0665 0.178409 13.6295 0.0608106 13.2862 0.257072C12.9437 0.454129 12.8253 0.890355 13.0224 1.23361L13.4181 1.92252C12.4757 1.64918 11.5 1.50218 10.4988 1.50218C4.71028 1.50139 0 6.21088 0 12.0002C0 13.9159 0.521246 15.7896 1.50812 17.4161C1.6424 17.6378 1.87839 17.7609 2.12074 17.7601C2.24708 17.7601 2.37421 17.7268 2.49101 17.6568C2.82871 17.4518 2.93678 17.0124 2.73177 16.6747C1.87998 15.2707 1.43104 13.6545 1.43104 12.0002C1.43104 6.9999 5.49851 2.93084 10.4988 2.93084Z" fill="black"/>
</svg>
