<svg width="22" height="22" viewBox="0 0 22 22" fill="none" xmlns="http://www.w3.org/2000/svg">
<path fill-rule="evenodd" clip-rule="evenodd" d="M21.5 6.214V12.143C21.5 12.796 21.24 13.423 20.778 13.885C20.316 14.348 19.689 14.607 19.036 14.607H14.255C14.196 14.607 14.14 14.628 14.095 14.665L11.802 16.576C11.578 16.762 11.267 16.803 11.003 16.679C10.74 16.556 10.571 16.291 10.571 16C10.571 16 10.571 14.49 10.572 14.49C10.201 14.372 9.85899 14.166 9.57899 13.885C9.11699 13.423 8.85699 12.796 8.85699 12.143V6.214C8.85699 5.561 9.11699 4.934 9.57899 4.472C10.041 4.01 10.668 3.75 11.321 3.75H19.036C19.689 3.75 20.316 4.01 20.778 4.472C21.24 4.934 21.5 5.561 21.5 6.214ZM20 6.214C20 5.959 19.898 5.713 19.718 5.532C19.537 5.352 19.291 5.25 19.036 5.25H11.321C11.066 5.25 10.82 5.352 10.64 5.532C10.459 5.713 10.357 5.959 10.357 6.214V12.143C10.357 12.399 10.459 12.644 10.64 12.825C10.82 13.006 11.066 13.107 11.321 13.107C11.736 13.107 12.071 13.443 12.071 13.857V14.399L13.135 13.513C13.449 13.251 13.846 13.107 14.255 13.107H19.036C19.291 13.107 19.537 13.006 19.718 12.825C19.898 12.644 20 12.399 20 12.143V6.214Z" fill="black"/>
<path fill-rule="evenodd" clip-rule="evenodd" d="M15.179 6.75C15.593 6.75 15.929 7.086 15.929 7.5C15.929 7.914 15.593 8.25 15.179 8.25H12.679C12.265 8.25 11.929 7.914 11.929 7.5C11.929 7.086 12.265 6.75 12.679 6.75H15.179Z" fill="black"/>
<path fill-rule="evenodd" clip-rule="evenodd" d="M17.679 9.75C18.093 9.75 18.429 10.086 18.429 10.5C18.429 10.914 18.093 11.25 17.679 11.25H12.679C12.265 11.25 11.929 10.914 11.929 10.5C11.929 10.086 12.265 9.75 12.679 9.75H17.679Z" fill="black"/>
<path fill-rule="evenodd" clip-rule="evenodd" d="M14.75 5.25C14.494 5.25 14.267 5.121 14.132 4.925C14.072 4.843 14.027 4.742 14.009 4.615C14.003 4.578 14 4.54 14 4.5C14 4.496 14 4.491 14 4.487V3.5C14 3.036 13.816 2.591 13.487 2.263C13.159 1.934 12.714 1.75 12.25 1.75H3.25C2.284 1.75 1.5 2.533 1.5 3.5V18.5C1.5 19.467 2.284 20.25 3.25 20.25H12.25C12.714 20.25 13.159 20.066 13.487 19.737C13.816 19.409 14 18.964 14 18.5V14C14 13.586 14.336 13.25 14.75 13.25C15.164 13.25 15.5 13.586 15.5 14V18.5C15.5 19.362 15.158 20.189 14.548 20.798C13.939 21.408 13.112 21.75 12.25 21.75H3.25C1.455 21.75 0 20.295 0 18.5V3.5C0 1.705 1.455 0.25 3.25 0.25H12.25C13.112 0.25 13.939 0.592 14.548 1.202C15.158 1.811 15.5 2.638 15.5 3.5V4.487C15.5 5.192 14.75 5.25 14.75 5.25Z" fill="black"/>
<path fill-rule="evenodd" clip-rule="evenodd" d="M8.75 17.25C9.164 17.25 9.5 17.586 9.5 18C9.5 18.414 9.164 18.75 8.75 18.75H6.75C6.336 18.75 6 18.414 6 18C6 17.586 6.336 17.25 6.75 17.25H8.75Z" fill="black"/>
</svg>
