<svg width="24" height="24" viewBox="0 0 24 24" fill="none" xmlns="http://www.w3.org/2000/svg">
<g clip-path="url(#clip0_6549_36930)">
<path fill-rule="evenodd" clip-rule="evenodd" d="M18.9272 5.12437C17.1152 3.29415 14.6495 2.25999 12.0741 2.25H12C6.61522 2.25 2.25 6.61522 2.25 12V17.25C2.25 18.4926 3.25736 19.5 4.5 19.5H6C7.24264 19.5 8.25 18.4926 8.25 17.25V13.5C8.25 12.2574 7.24264 11.25 6 11.25H3.78375C4.07903 8.05748 6.19481 5.32411 9.2114 4.23803C12.228 3.15195 15.6006 3.90933 17.8631 6.18094C19.2177 7.54247 20.0509 9.33662 20.2172 11.25H18C16.7574 11.25 15.75 12.2574 15.75 13.5V17.25C15.75 18.4926 16.7574 19.5 18 19.5H20.25C20.25 20.7426 19.2426 21.75 18 21.75H12.75C12.3358 21.75 12 22.0858 12 22.5C12 22.9142 12.3358 23.25 12.75 23.25H18C20.0711 23.25 21.75 21.5711 21.75 19.5V12C21.7599 9.42412 20.7442 6.95022 18.9272 5.12437V5.12437ZM6 12.75C6.41421 12.75 6.75 13.0858 6.75 13.5V17.25C6.75 17.6642 6.41421 18 6 18H4.5C4.08579 18 3.75 17.6642 3.75 17.25V12.75H6ZM18 18C17.5858 18 17.25 17.6642 17.25 17.25V13.5C17.25 13.0858 17.5858 12.75 18 12.75H20.25V18H18Z" fill="#0D141C"/>
</g>
<defs>
<clipPath id="clip0_6549_36930">
<rect width="24" height="24" fill="white"/>
</clipPath>
</defs>
</svg>
