<svg width="24" height="24" viewBox="0 0 24 24" fill="none" xmlns="http://www.w3.org/2000/svg">
<path d="M12.7249 10.2594H19.1462C20.2891 10.2594 21.2195 9.32985 21.2195 8.18607V4.2642C21.2195 3.57793 20.8804 2.93758 20.3141 2.55175L17.1035 0.362465C16.3939 -0.120822 15.4756 -0.120822 14.7684 0.362465L11.5578 2.55175C10.9907 2.93838 10.6524 3.57874 10.6524 4.2642V8.18607C10.6516 9.32905 11.5819 10.2594 12.7249 10.2594ZM12.1015 4.2642C12.1015 4.058 12.203 3.86549 12.3737 3.7495L15.5843 1.56021C15.6915 1.48772 15.8131 1.45147 15.9355 1.45147C16.058 1.45147 16.1804 1.48772 16.2875 1.56021L19.4982 3.7495C19.6681 3.86549 19.7696 4.058 19.7696 4.2642V8.18607C19.7696 8.53001 19.4901 8.80951 19.147 8.80951H12.7257C12.3818 8.80951 12.1023 8.53001 12.1023 8.18607L12.1015 4.2642Z" fill="black"/>
<path d="M23.2759 14.8699L23.1857 14.7749C22.3029 13.8405 20.8812 13.673 19.8043 14.3738L17.2622 16.0306C17.3162 15.8204 17.3532 15.6037 17.3532 15.3766C17.3532 14.1265 16.4648 13.0326 15.2421 12.7765L11.5932 12.0097C10.0588 11.6875 8.43899 12.0081 7.1462 12.8885L6.41402 13.3862V13.3629C6.41402 12.3037 5.55297 11.4426 4.49376 11.4426H2.46396C1.10512 11.4426 0 12.5477 0 13.9066V21.2421C0 22.6009 1.10512 23.706 2.46396 23.706H4.49296C5.51833 23.706 6.3512 22.8965 6.40355 21.884L11.4015 23.1462C11.8647 23.263 12.3423 23.3218 12.82 23.3218C13.2558 23.3218 13.6915 23.2727 14.1152 23.1752L18.2312 22.2312C19.2525 21.9968 20.1925 21.4894 20.9489 20.7628L23.1857 18.613C24.2352 17.6061 24.2755 15.9283 23.2759 14.8699ZM4.96336 21.7858C4.96336 22.0451 4.75232 22.2562 4.49296 22.2562H2.46396C1.90496 22.2562 1.44986 21.8011 1.44986 21.2421V13.9066C1.44986 13.3476 1.90496 12.8925 2.46396 12.8925H4.49296C4.75232 12.8925 4.96336 13.1035 4.96336 13.3629V21.7858ZM22.1821 17.5675L19.9444 19.7173C19.3782 20.2618 18.6734 20.642 17.9082 20.8184L13.7922 21.7632C13.1237 21.9155 12.4205 21.9082 11.7568 21.7415L6.41402 20.3923V15.1406L7.96135 14.0886C8.93114 13.4289 10.1466 13.1889 11.2952 13.4297L14.9448 14.1966C15.4998 14.3134 15.9026 14.8095 15.9026 15.3774C15.9026 16.0435 15.3613 16.5848 14.6959 16.5848H12.1788C11.7785 16.5848 11.4539 16.9094 11.4539 17.3097C11.4539 17.7101 11.7785 18.0347 12.1788 18.0347H16.0532C16.5703 18.0347 17.0721 17.8856 17.5047 17.6037L20.5953 15.5892C21.085 15.2703 21.7318 15.3468 22.1329 15.7729L22.2231 15.8679C22.6774 16.3472 22.6581 17.11 22.1821 17.5675Z" fill="black"/>
</svg>
