<svg width="24" height="26" viewBox="0 0 24 26" fill="none" xmlns="http://www.w3.org/2000/svg">
<path d="M10 26.0075C8.93913 26.0075 7.92172 25.586 7.17157 24.8359C6.42143 24.0857 6 23.0683 6 22.0075H2.41C1.77083 22.0075 1.15784 21.7536 0.705873 21.3016C0.25391 20.8496 0 20.2366 0 19.5975C0.00227041 18.9582 0.253333 18.3449 0.7 17.8875L1.7 16.8875C1.79449 16.7948 1.86966 16.6844 1.92115 16.5625C1.97265 16.4407 1.99945 16.3098 2 16.1775V12.0075C1.99704 9.95817 2.78061 7.98589 4.18913 6.49737C5.59764 5.00885 7.52367 4.11761 9.57 4.00746C9.71316 3.99751 9.85684 3.99751 10 4.00746C11.2356 4.00878 12.4541 4.2963 13.56 4.84746C14.2552 4.30011 15.1152 4.00406 16 4.00746C16.8586 4.00711 17.6946 4.28306 18.3843 4.79451C19.074 5.30597 19.5808 6.02578 19.8298 6.84753C20.0788 7.66928 20.0567 8.54933 19.7669 9.35759C19.4771 10.1658 18.9349 10.8594 18.2205 11.3357C17.506 11.812 16.6573 12.0457 15.7998 12.0024C14.9422 11.959 14.1214 11.6409 13.4586 11.095C12.7958 10.5491 12.3263 9.80442 12.1195 8.97107C11.9126 8.13771 11.9794 7.25992 12.31 6.46746C11.5512 6.15874 10.7391 6.00244 9.92 6.00746H9.85H9.71C8.1695 6.08201 6.71686 6.74691 5.65362 7.86415C4.59038 8.98139 3.9982 10.4652 4 12.0075V16.1775C4.00097 16.573 3.92372 16.9648 3.77269 17.3303C3.62167 17.6959 3.39985 18.028 3.12 18.3075L2.12 19.3075C2.0805 19.3445 2.04936 19.3895 2.02866 19.4395C2.00797 19.4895 1.99819 19.5434 2 19.5975C2 19.7062 2.0432 19.8105 2.12009 19.8874C2.19698 19.9643 2.30126 20.0075 2.41 20.0075H17.59C17.6987 20.0075 17.803 19.9643 17.8799 19.8874C17.9568 19.8105 18 19.7062 18 19.5975C18.0018 19.5434 17.992 19.4895 17.9713 19.4395C17.9506 19.3895 17.9195 19.3445 17.88 19.3075L16.88 18.3075C16.6001 18.028 16.3783 17.6959 16.2273 17.3303C16.0763 16.9648 15.999 16.573 16 16.1775V14.9275C16 14.6622 16.1054 14.4079 16.2929 14.2204C16.4804 14.0328 16.7348 13.9275 17 13.9275C17.2652 13.9275 17.5196 14.0328 17.7071 14.2204C17.8946 14.4079 18 14.6622 18 14.9275V16.1775C18.0005 16.3098 18.0273 16.4407 18.0788 16.5625C18.1303 16.6844 18.2055 16.7948 18.3 16.8875L19.3 17.8875C19.7467 18.3449 19.9977 18.9582 20 19.5975C20 20.2366 19.7461 20.8496 19.2941 21.3016C18.8422 21.7536 18.2292 22.0075 17.59 22.0075H14C14 23.0683 13.5786 24.0857 12.8284 24.8359C12.0783 25.586 11.0609 26.0075 10 26.0075ZM8 22.0075C8 22.5379 8.21071 23.0466 8.58579 23.4217C8.96086 23.7968 9.46957 24.0075 10 24.0075C10.5304 24.0075 11.0391 23.7968 11.4142 23.4217C11.7893 23.0466 12 22.5379 12 22.0075H8ZM16 6.00746C15.6044 6.00746 15.2178 6.12476 14.8889 6.34453C14.56 6.56429 14.3036 6.87665 14.1522 7.2421C14.0009 7.60755 13.9613 8.00968 14.0384 8.39764C14.1156 8.78561 14.3061 9.14197 14.5858 9.42168C14.8655 9.70138 15.2219 9.89186 15.6098 9.96904C15.9978 10.0462 16.3999 10.0066 16.7654 9.85522C17.1308 9.70385 17.4432 9.4475 17.6629 9.1186C17.8827 8.78971 18 8.40303 18 8.00746C18 7.47703 17.7893 6.96832 17.4142 6.59325C17.0391 6.21818 16.5304 6.00746 16 6.00746Z" fill="#00EFD1"/>
<circle cx="16" cy="8" r="6.5" fill="#00EFD1" stroke="white" stroke-width="3"/>
<path d="M17.1816 3.89062V11H15.5361V5.74609L13.915 6.21973V4.96973L17.0303 3.89062H17.1816Z" fill="white"/>
</svg>
