<svg width="22" height="20" viewBox="0 0 22 20" fill="none" xmlns="http://www.w3.org/2000/svg">
<path fill-rule="evenodd" clip-rule="evenodd" d="M2.96198 12.9808C2.96198 12.5668 3.29798 12.2308 3.71198 12.2308C4.12598 12.2308 4.46198 12.5668 4.46198 12.9808C4.46198 13.4138 4.63398 13.8298 4.94098 14.1368C5.24698 14.4428 5.66298 14.6148 6.09698 14.6148C6.51098 14.6148 6.84698 14.9508 6.84698 15.3648V16.7448L8.91498 15.0208C9.22998 14.7588 9.62598 14.6148 10.036 14.6148H16.827C17.261 14.6148 17.677 14.4428 17.983 14.1368C18.29 13.8298 18.462 13.4138 18.462 12.9808C18.462 12.9388 18.465 12.8978 18.472 12.8568C18.472 12.8568 19.961 3.98181 19.961 3.97781C19.946 3.56681 19.776 3.17481 19.483 2.88281C19.177 2.57581 18.761 2.40381 18.327 2.40381H12.212C11.798 2.40381 11.462 2.06781 11.462 1.65381C11.462 1.23981 11.798 0.903809 12.212 0.903809H18.327C19.159 0.903809 19.956 1.23381 20.544 1.82181C21.132 2.40981 21.462 3.20681 21.462 4.03781C21.462 4.07981 21.459 4.12181 21.452 4.16281C21.452 4.16281 19.961 13.0478 19.961 13.0418C19.946 13.8508 19.617 14.6238 19.044 15.1968C18.456 15.7848 17.659 16.1148 16.827 16.1148H10.036C9.97698 16.1148 9.91997 16.1358 9.87597 16.1728L6.57697 18.9218C6.35297 19.1088 6.04198 19.1488 5.77798 19.0248C5.51498 18.9018 5.34698 18.6368 5.34698 18.3458V16.0238C4.79598 15.8888 4.28798 15.6048 3.87998 15.1968C3.29198 14.6088 2.96198 13.8118 2.96198 12.9808Z" fill="black"/>
<path fill-rule="evenodd" clip-rule="evenodd" d="M7.21198 5.74976C7.62598 5.74976 7.96198 6.08576 7.96198 6.49976C7.96198 6.91376 7.62598 7.24976 7.21198 7.24976H3.21198C2.79798 7.24976 2.46198 6.91376 2.46198 6.49976C2.46198 6.08576 2.79798 5.74976 3.21198 5.74976H7.21198Z" fill="black"/>
<path fill-rule="evenodd" clip-rule="evenodd" d="M6.712 9.74976C7.126 9.74976 7.462 10.0858 7.462 10.4998C7.462 10.9138 7.126 11.2498 6.712 11.2498H0.75C0.337 11.2498 0 10.9138 0 10.4998C0 10.0858 0.337 9.74976 0.75 9.74976H6.712Z" fill="black"/>
<path fill-rule="evenodd" clip-rule="evenodd" d="M8.712 1.74976C9.126 1.74976 9.462 2.08576 9.462 2.49976C9.462 2.91376 9.126 3.24976 8.712 3.24976H2.75C2.337 3.24976 2 2.91376 2 2.49976C2 2.08576 2.337 1.74976 2.75 1.74976H8.712Z" fill="black"/>
</svg>
