<svg width="256" height="252" viewBox="0 0 256 252" fill="none" xmlns="http://www.w3.org/2000/svg">
<path d="M244.66 251.665L244.319 251.523C244.244 251.491 236.789 248.312 233.296 241.102C229.804 233.891 231.514 225.21 231.531 225.123L231.612 224.728L231.953 224.87C232.028 224.901 239.483 228.081 242.975 235.291C246.468 242.502 244.758 251.183 244.74 251.27L244.66 251.665ZM233.855 240.766C236.808 246.862 242.7 249.987 244.192 250.7C244.476 248.919 245.366 241.717 242.416 235.627C239.466 229.537 233.573 226.408 232.079 225.693C231.795 227.475 230.906 234.676 233.855 240.766Z" fill="#3F3D56"/>
<path d="M235.965 238.572C242.241 242.776 244.659 251.125 244.659 251.125C244.659 251.125 236.9 252.659 230.624 248.456C224.347 244.252 221.93 235.903 221.93 235.903C221.93 235.903 229.689 234.369 235.965 238.572Z" fill="#00EFD1"/>
<path d="M134.921 135.054C135.226 134.531 135.626 134.084 136.096 133.745C136.566 133.405 137.095 133.18 137.648 133.084C138.202 132.988 138.767 133.023 139.308 133.188C139.848 133.352 140.352 133.641 140.784 134.037C140.921 134.163 141.05 134.3 141.169 134.446L156.799 131.912L157.669 118.828C157.736 117.824 158.158 116.891 158.842 116.234C159.527 115.576 160.418 115.249 161.32 115.323C162.222 115.397 163.06 115.867 163.651 116.629C164.241 117.391 164.535 118.384 164.469 119.387C164.467 119.411 164.466 119.434 164.464 119.457L162.94 137.817L162.933 137.858C162.734 138.563 162.337 139.179 161.799 139.614C161.262 140.048 160.613 140.278 159.949 140.269L141.564 139.916C141.493 140.037 141.416 140.154 141.334 140.266C140.978 140.748 140.535 141.141 140.033 141.419C139.532 141.697 138.983 141.854 138.423 141.88C137.863 141.905 137.305 141.799 136.785 141.567C136.265 141.336 135.794 140.985 135.404 140.537C135.325 140.446 135.25 140.353 135.179 140.257C134.65 139.531 134.339 138.636 134.293 137.702C134.247 136.768 134.467 135.841 134.921 135.054Z" fill="#A0616A"/>
<path d="M166.434 246.614L161.976 246.613L159.855 227.472L166.434 227.472L166.434 246.614Z" fill="#A0616A"/>
<path d="M167.571 251.424L153.196 251.424V251.221C153.196 249.569 153.786 247.985 154.835 246.817C155.884 245.649 157.307 244.993 158.791 244.993H158.791L167.571 244.993L167.571 251.424Z" fill="#2F2E41"/>
<path d="M197.584 242.114L193.365 243.716L185.806 226.362L192.034 223.997L197.584 242.114Z" fill="#A0616A"/>
<path d="M200.056 246.259L186.451 251.424L186.392 251.233C185.913 249.669 186.012 247.958 186.666 246.476C187.32 244.993 188.477 243.86 189.881 243.327L189.881 243.327L198.191 240.172L200.056 246.259Z" fill="#2F2E41"/>
<path d="M171.343 79.2462C171.343 79.2462 166.905 77.6149 164.053 84.14C161.201 90.6651 156.764 97.8427 156.764 97.8427L159.299 98.4952C159.299 98.4952 159.933 93.9276 161.518 93.2751L160.884 99.1477C160.884 99.1477 179.9 105.999 188.457 98.4952L188.14 96.2114C188.14 96.2114 189.408 96.5377 189.408 98.4952L190.359 97.5164C190.359 97.5164 189.408 95.5589 186.555 92.9489C184.683 91.2358 184.04 87.9766 183.819 85.9389C183.643 84.2137 182.979 82.5956 181.922 81.3193C180.026 79.0579 176.572 76.6542 171.343 79.2462Z" fill="#2F2E41"/>
<path d="M172.978 102.044C177.454 102.044 181.082 98.0046 181.082 93.0221C181.082 88.0396 177.454 84.0005 172.978 84.0005C168.502 84.0005 164.874 88.0396 164.874 93.0221C164.874 98.0046 168.502 102.044 172.978 102.044Z" fill="#A0616A"/>
<path d="M162.173 109.473L160.699 108.926C160.699 108.926 157.752 110.293 157.752 112.753C157.752 115.214 157.261 125.055 157.261 125.055L163.892 125.876L162.173 109.473Z" fill="#CBCBCB"/>
<path d="M188.545 163.246C187.934 162.484 187.589 161.503 187.573 160.481C187.557 159.459 187.871 158.465 188.457 157.68L184.321 119.116C184.28 118.206 184.566 117.316 185.114 116.641C185.663 115.965 186.429 115.56 187.246 115.513C188.063 115.466 188.863 115.782 189.471 116.391C190.079 117 190.445 117.853 190.489 118.762C190.489 118.775 190.49 118.787 190.49 118.8L194.191 157.405C194.325 157.554 194.448 157.716 194.56 157.887C194.857 158.344 195.07 158.861 195.187 159.41C195.305 159.958 195.324 160.527 195.243 161.084C195.163 161.641 194.985 162.174 194.719 162.654C194.454 163.134 194.106 163.552 193.695 163.882C193.653 163.916 193.609 163.95 193.566 163.982C193.09 164.332 192.552 164.561 191.988 164.651C191.424 164.742 190.849 164.693 190.304 164.507C189.623 164.277 189.014 163.841 188.545 163.246Z" fill="#A0616A"/>
<path d="M184.757 125.055L191.387 124.235C191.387 124.235 190.896 114.393 190.896 111.933C190.896 109.472 187.949 108.106 187.949 108.106L186.476 108.652L184.757 125.055Z" fill="#CBCBCB"/>
<path d="M163.155 138.711C163.155 138.711 157.507 150.207 157.507 164.149C157.507 178.092 157.016 242.063 157.016 242.063C157.016 242.063 164.383 245.891 168.803 241.243L172.733 170.437L188.204 239.876C188.204 239.876 195.571 241.516 199.009 238.783L192.379 190.394C192.379 190.394 189.677 145.012 182.31 141.732C174.943 138.451 163.155 138.711 163.155 138.711Z" fill="#2F2E41"/>
<path d="M164.221 93.0794C167.09 90.7681 169.412 88.1059 170.948 84.9391C170.948 84.9391 176.213 91.4513 179.431 91.7769C182.648 92.1026 179.723 83.9622 179.723 83.9622L173.873 82.3341L168.316 82.9853L163.928 86.2415L164.221 93.0794Z" fill="#2F2E41"/>
<path d="M181.082 106.465C181.082 106.465 181.316 106.326 167.33 106.893L161.477 108.687L160.699 108.926C160.699 108.926 161.436 125.329 163.4 128.336C165.365 131.343 164.874 132.983 164.383 133.257C163.892 133.53 162.664 132.983 163.4 134.35C164.137 135.717 165.119 134.897 164.137 135.717C163.155 136.537 162.664 139.545 162.664 139.545L184.275 142.825C184.275 142.825 185.011 132.163 186.976 126.696C188.941 121.228 189.432 119.041 189.432 119.041L187.958 108.106L181.082 106.465Z" fill="#CBCBCB"/>
<path d="M139.995 59.8338H138.753V21.9349C138.753 16.1174 136.677 10.5382 132.982 6.4246C129.286 2.31101 124.275 9.37757e-06 119.049 0L46.921 0C41.6951 -1.59417e-05 36.6833 2.31096 32.9881 6.42453C29.2929 10.5381 27.2169 16.1173 27.2169 21.9348V229.851C27.2169 235.669 29.2929 241.248 32.9881 245.362C36.6833 249.475 41.6951 251.786 46.9209 251.786H119.049C121.636 251.786 124.198 251.219 126.589 250.117C128.98 249.014 131.152 247.399 132.981 245.362C134.811 243.325 136.263 240.907 137.253 238.246C138.243 235.584 138.753 232.732 138.753 229.852V86.811H139.995L139.995 59.8338Z" fill="#3F3D56"/>
<path d="M134.559 22.0891V229.7C134.561 231.849 134.182 233.978 133.445 235.964C132.708 237.951 131.626 239.756 130.262 241.277C128.898 242.798 127.278 244.005 125.495 244.83C123.712 245.654 121.801 246.079 119.87 246.081H47.3698C43.4698 246.084 39.7285 244.363 36.9688 241.295C34.2092 238.227 32.6573 234.065 32.6545 229.723V22.0891C32.6532 19.9394 33.0322 17.8104 33.7699 15.8238C34.5076 13.8371 35.5897 12.0317 36.9542 10.5105C38.3187 8.98938 39.939 7.78232 41.7225 6.95826C43.5061 6.1342 45.418 5.70929 47.349 5.70777H56.1614C55.7285 6.88944 55.5632 8.17151 55.6802 9.44103C55.7973 10.7105 56.193 11.9285 56.8325 12.9877C57.472 14.0469 58.3357 14.9147 59.3475 15.5146C60.3593 16.1146 61.4881 16.4284 62.6345 16.4283H103.957C105.103 16.4284 106.232 16.1146 107.244 15.5146C108.255 14.9147 109.119 14.0469 109.759 12.9877C110.398 11.9285 110.794 10.7105 110.911 9.44103C111.028 8.17151 110.863 6.88944 110.43 5.70777H119.844C123.743 5.70388 127.484 7.42448 130.244 10.4911C133.003 13.5576 134.556 17.719 134.559 22.0597L134.559 22.0891Z" fill="white"/>
<path d="M134.559 52.8045V45.7329H124.945V6.71905C123.312 6.04771 121.585 5.70528 119.844 5.70778H118.592V45.7329H85.2425V16.4283H78.8902V45.7329H50.9398V5.70781H47.3699C46.4361 5.70619 45.5043 5.80447 44.5874 6.00128V45.7329H32.6546V52.8045H44.5875V69.1612L32.6548 76.8303V84.998L44.5874 77.3289V125.995H32.6546V133.067H44.5874V203.429H32.6546V210.501H44.5874V245.788C45.5043 245.985 46.4361 246.083 47.3699 246.081H50.9398V210.501H78.8902V246.081H85.2425V210.501H118.592V246.081H119.844C121.585 246.084 123.312 245.741 124.945 245.07V210.501H134.559V203.429H124.945V172.668H134.473V165.596H124.945V133.067H134.559V125.995H124.945V82.8587H134.559V75.7871H124.945V52.8045L134.559 52.8045ZM70.0384 52.8045L50.94 65.0809L50.9398 52.8045H70.0384ZM50.9398 73.2451L78.8902 55.2797V125.995H50.9398V73.2451ZM50.9398 203.429V133.067H78.8902V203.429H50.9398ZM118.592 203.429H85.2425V172.668H118.592V203.429ZM118.592 165.596H85.2425V133.067H118.592V165.596ZM118.592 125.995H85.2425V82.8587H118.592V125.995ZM118.592 75.7871H85.2425V52.8045H118.592V75.7871Z" fill="#E5E5E5"/>
<path d="M125.062 78.1025C125.062 99.7539 88.5508 147.987 88.5508 147.987C88.5508 147.987 52.0394 99.7539 52.0394 78.1025C52.0394 67.7052 55.8861 57.7337 62.7333 50.3817C69.5806 43.0296 78.8674 38.8993 88.5508 38.8993C98.2343 38.8993 107.521 43.0296 114.368 50.3817C121.216 57.7337 125.062 67.7052 125.062 78.1025Z" fill="#00EFD1"/>
<path d="M110.676 74.1498C110.676 78.9051 109.41 83.5537 107.036 87.5076C104.663 91.4615 101.29 94.5432 97.3436 96.3629C93.397 98.1827 89.0544 98.6589 84.8648 97.7312C80.6752 96.8034 76.8268 94.5135 73.8063 91.151C70.7857 87.7885 68.7287 83.5044 67.8954 78.8404C67.062 74.1765 67.4897 69.3422 69.1244 64.9488C70.7591 60.5555 73.5274 56.8004 77.0792 54.1585C80.6309 51.5166 84.8067 50.1064 89.0784 50.1064C91.9134 50.105 94.7208 50.7252 97.3405 51.9316C99.9602 53.138 102.341 54.907 104.346 57.1375C106.352 59.3681 107.943 62.0166 109.029 64.9318C110.115 67.847 110.675 70.9718 110.676 74.1277V74.1498Z" fill="white"/>
<path d="M89.0032 83.6411C93.4471 83.6411 97.0496 79.6308 97.0496 74.6838C97.0496 69.7368 93.4471 65.7264 89.0032 65.7264C84.5594 65.7264 80.9569 69.7368 80.9569 74.6838C80.9569 79.6308 84.5594 83.6411 89.0032 83.6411Z" fill="#00EFD1"/>
<path d="M101.52 95.1418C98.0516 97.5972 94.0261 98.901 89.9156 98.9003C85.8051 98.8997 81.7799 97.5947 78.3119 95.1382C79.0331 92.3316 80.5559 89.8628 82.6498 88.1054C84.7438 86.348 87.2949 85.3975 89.9172 85.3979C92.5396 85.3983 95.0905 86.3495 97.184 88.1076C99.2774 89.8656 100.8 92.3349 101.52 95.1418Z" fill="#00EFD1"/>
<path d="M89.078 177.748C94.5158 177.748 98.9241 172.841 98.9241 166.787C98.9241 160.734 94.5158 155.826 89.078 155.826C83.6401 155.826 79.2318 160.734 79.2318 166.787C79.2318 172.841 83.6401 177.748 89.078 177.748Z" fill="#00EFD1"/>
</svg>
