<svg width="20" height="20" viewBox="0 0 20 20" fill="none" xmlns="http://www.w3.org/2000/svg">
<path d="M5.25301 16.4902L5.977 16.9199C7.198 17.6299 8.58701 18 10 18C11.582 18 13.129 17.5299 14.445 16.6499C15.76 15.7699 16.786 14.5201 17.391 13.0601C17.997 11.6001 18.155 9.98994 17.846 8.43994C17.538 6.88994 16.776 5.45984 15.657 4.33984C14.538 3.21984 13.113 2.4599 11.561 2.1499C10.009 1.8499 8.40004 1.99986 6.93904 2.60986C5.47704 3.20986 4.22704 4.24006 3.34804 5.56006C2.46904 6.87006 2.00001 8.42 2.00001 10C2.00001 11.44 2.377 12.81 3.084 14.02L3.506 14.75L2.85304 17.1499L5.25301 16.4902ZM0.00404265 20L1.35603 15.0298C0.465032 13.4998 -0.00298567 11.77 1.43322e-05 10C1.43322e-05 4.48 4.47701 0 10 0C15.523 0 20 4.48 20 10C20 15.52 15.523 20 10 20C8.23301 20 6.49698 19.5399 4.96999 18.6499L0.00404265 20ZM6.39101 5.31006C6.52501 5.30006 6.66002 5.2998 6.79402 5.2998C6.84802 5.3098 6.90201 5.30982 6.95601 5.31982C7.11501 5.33982 7.29001 5.42982 7.34901 5.56982C7.64701 6.23982 7.93699 6.92986 8.21699 7.60986C8.27899 7.75986 8.24204 7.9599 8.12404 8.1499C8.04304 8.2699 7.95504 8.40002 7.86104 8.52002C7.74804 8.66002 7.50502 8.93018 7.50502 8.93018C7.50502 8.93018 7.40598 9.04994 7.44398 9.18994C7.45798 9.24994 7.50403 9.3299 7.54603 9.3999L7.60499 9.49023C7.86099 9.92023 8.20501 10.3498 8.62501 10.7598C8.74501 10.8798 8.86199 10.9999 8.98799 11.1099C9.45599 11.5199 9.986 11.8599 10.558 12.1099H10.563C10.648 12.1499 10.691 12.1702 10.815 12.2202C10.877 12.2502 10.941 12.27 11.006 12.29C11.073 12.3 11.144 12.2998 11.209 12.2798C11.275 12.2498 11.332 12.2102 11.373 12.1602C12.097 11.2802 12.163 11.2202 12.169 11.2202C12.219 11.1802 12.279 11.1401 12.344 11.1201C12.409 11.1001 12.479 11.0901 12.547 11.1001C12.607 11.1001 12.668 11.1101 12.724 11.1401C13.255 11.3801 14.124 11.7598 14.124 11.7598L14.706 12.02C14.804 12.07 14.893 12.1798 14.896 12.2798C14.9 12.3498 14.906 12.4602 14.883 12.6602C14.851 12.9202 14.773 13.2301 14.695 13.3901C14.642 13.5001 14.571 13.5999 14.485 13.6899C14.384 13.7999 14.274 13.9 14.155 13.98C14.114 14.01 14.072 14.0398 14.03 14.0698C13.906 14.1498 13.778 14.22 13.647 14.29C13.39 14.43 13.105 14.51 12.814 14.52C12.629 14.53 12.444 14.5498 12.258 14.5298C12.25 14.5298 11.69 14.4502 11.69 14.4502C10.268 14.0702 8.95299 13.3699 7.84999 12.3999C7.62399 12.1999 7.415 11.9898 7.201 11.7798C6.311 10.8898 5.63903 9.93979 5.23103 9.02979C5.02203 8.58979 4.90904 8.11012 4.90004 7.62012C4.89604 7.01012 5.094 6.41994 5.464 5.93994C5.537 5.84994 5.60599 5.75014 5.72499 5.64014C5.85199 5.52014 5.932 5.45016 6.019 5.41016C6.135 5.35016 6.26201 5.32006 6.39101 5.31006Z" fill="white"/>
</svg>
